<?xml version="1.0" encoding="UTF-8"?>
<svg viewBox="0 0 11 7" version="1.1" xmlns="http://www.w3.org/2000/svg" xmlns:xlink="http://www.w3.org/1999/xlink">
    <g id="Page-1" stroke="none" stroke-width="1" fill="none" fill-rule="evenodd">
        <g id="Tablet" transform="translate(-354.000000, -819.000000)" fill-rule="nonzero" fill="#000000">
            <g id="#2" transform="translate(29.000000, 648.000000)">
                <g id="Category" transform="translate(121.000000, 102.000000)">
                    <g id="combobox" transform="translate(3.000000, 46.000000)">
                        <path d="M211.530122,28.3162686 L206.563216,23.111723 C206.492252,23.0372801 206.410611,23 206.318256,23 C206.225902,23 206.144112,23.0372801 206.07311,23.111723 L201.106614,28.3162686 C201.035464,28.3908288 201,28.4763813 201,28.5732001 C201,28.6699797 201.035575,28.7556496 201.106614,28.8300534 L201.639388,29.3883162 C201.710427,29.462759 201.79218,29.4999609 201.884534,29.4999609 C201.976889,29.4999609 202.058642,29.462759 202.129681,29.3883162 L206.318256,24.9991213 L210.506982,29.38859 C210.577983,29.4630328 210.659773,29.5 210.751978,29.5 C210.844482,29.5 210.926235,29.4627981 210.997237,29.38859 L211.530085,28.8300925 C211.601087,28.7556888 211.636364,28.6699797 211.636364,28.5732392 C211.636401,28.4763813 211.601124,28.3907114 211.530122,28.3162686 Z" id="Shape" transform="translate(206.318182, 26.250000) rotate(-180.000000) translate(-206.318182, -26.250000) "></path>
                    </g>
                </g>
            </g>
        </g>
    </g>
</svg>
