<svg width="825" height="403" viewBox="0 0 825 403" xmlns="http://www.w3.org/2000/svg">
  <title>
    броги
  </title>
  <g stroke="#000" fill="none" fill-rule="evenodd">
    <path d="M435.316 213.01c-2.1-1.944-5.16-2.056-6.832-.25-1.673 1.806-1.325 4.848.775 6.793 2.1 1.945 5.16 2.057 6.83.25 1.67-1.805 1.32-4.847-.78-6.792z" stroke-width=".625"/>
    <path d="M178.035 266.808c-1.065.617-1.494 1.868-.958 2.796.536.926 1.835 1.177 2.9.56s1.494-1.868.958-2.794c-.536-.926-1.835-1.178-2.9-.562zm6.52 7.355c-.917.532-1.227 1.712-.692 2.637.535.923 1.712 1.242 2.63.71.92-.53 1.23-1.712.695-2.635-.535-.925-1.713-1.243-2.63-.712zm1.777 9.213c-.92.53-1.077 1.976-.352 3.227.724 1.25 2.055 1.834 2.974 1.303.918-.533 1.075-1.978.35-3.228-.722-1.25-2.054-1.834-2.972-1.302zm-2.904 8.794c-1.3.447-1.833 2.325-1.19 4.197.645 1.87 2.22 3.026 3.52 2.578 1.3-.447 1.832-2.326 1.188-4.197-.642-1.87-2.218-3.026-3.518-2.58zm-6.608 7.622c-1.102.38-1.534 2.033-.962 3.693.57 1.66 1.927 2.698 3.03 2.32 1.102-.38 1.534-2.033.962-3.693-.57-1.66-1.927-2.7-3.03-2.32zm-12.5 1.25c-1.102.38-1.534 2.033-.962 3.693.57 1.66 1.927 2.698 3.03 2.32 1.102-.38 1.534-2.033.962-3.693-.57-1.66-1.927-2.7-3.03-2.32zm-12.5-5c-1.102.38-1.534 2.033-.962 3.693.57 1.66 1.927 2.698 3.03 2.32 1.102-.38 1.534-2.033.962-3.693-.57-1.66-1.927-2.7-3.03-2.32zm-9.804-7.235c-1.365-.048-2.506.962-2.55 2.256-.045 1.292 1.025 2.38 2.39 2.425 1.364.047 2.505-.963 2.55-2.255.045-1.294-1.025-2.38-2.39-2.426zm-5.03-10.392c-1.364-.047-2.503.864-2.543 2.034-.04 1.17 1.034 2.15 2.398 2.2 1.37.04 2.51-.87 2.55-2.04.04-1.17-1.03-2.16-2.39-2.21zm1.227-8.047c-1.365-.047-2.498.707-2.53 1.683-.035.98 1.043 1.81 2.41 1.86 1.362.05 2.496-.71 2.53-1.68.034-.97-1.045-1.8-2.41-1.85z" stroke-width="1.25"/>
    <path d="M325.25 165.6s99.03-115 124.93-135c25.904-20 32.57-21.25 49.654-18.334 17.082 2.918 60.832 30.418 60.832 30.418s55.834 37.082 62.084 38.75c0 0 23.334 20.416 79.166 11.25 55.834-9.168 80-47.5 80-47.5s7.71-7.396 5.834-23.334c0 0 11.25 12.916 18.334 44.584 0 0 23.332 59.582 16.666 113.332-6.666 53.75-13.334 54.584-13.334 54.584s-35.416 19.584-122.5 29.584c0 0-99.582 11.25-151.25 29.582 0 0-67.916 27.084-89.166 47.084-21.25 20-97.5 24.584-97.5 24.584s-146.666 7.082-173.75 4.166c0 0-69.584 4.166-120.416-8.75 0 0-37.5-3.75-41.25-15.416 0 0-18.334-69.584 56.666-90.834l85.834-22.084h6.666l4.584-.416 66.25-24.166s22.5-4.1 67.082-44.134c0 0 13.75-8.784 24.584 2.05z" stroke-width="1.25"/>
    <path d="M11.607 344.662L2.125 353.1s-1.25 2.5 0 18.75c0 0-.625 8.75 31.25 14.375s46.563 13.75 96.875 13.75c50.313 0 134.063 1.562 134.063 1.562S352.75 400.6 394 391.85c41.25-8.75 61.25-16.25 90.625-38.75s88.75-43.75 126.25-48.125l26.25-5v44.375s25 3.75 88.125-7.5 60-10 60-10 24.375-4.375 34.375-19.375v-68.75s.733-9.893-4.633-15.884" stroke-width="1.875"/>
    <path d="M817.75 295.288S799.625 311.85 749 318.1s-111.875 10.313-111.875 10.313" stroke-width="1.25"/>
    <path d="M817.75 240.288s-23.125 17.812-63.75 20c0 0-89.375 12.187-102.5 14.687 0 0-100.625 15-129.375 35 0 0-54.688 30.313-70 41.25 0 0-20.625 21.563-128.125 26.25H169s-70 4.688-106.875-5.625C25.25 361.538 3.27 363.606 3.947 351.48" stroke-width="1.875"/>
    <path d="M592.438 309.413s26.875 12.125 44.687 34.937" stroke-width="1.25"/>
    <path d="M609.938 65.912s114.375-44.375 125.937-46.875c11.563-2.5 42.64-12.42 50.625 1.25" stroke-width=".625"/>
    <path d="M616.5 69.35s111.25-43.125 136.25-45.313c25-2.187 30-5 27.188 8.125-2.813 13.125-29.063 43.75-73.438 52.188-44.375 8.437-81.25-3.125-134.063-40.625 0 0-58.437-46.525-98.75-32.638 0 0-60.937 40.763-86.25 72.638l-66.625 78.536" stroke-width=".625"/>
    <path d="M328.53 142.006s-.467 2.5-3.75 2.5c-3.28 0-3.124-8.28.94-9.53 4.06-1.25 22.81-1.095 36.56 8.28l11.095 6.094s-1.406 7.03-8.906 5.625c0 0-21.57-13.437-35.94-12.97z" stroke-width="1.25"/>
    <path d="M365.875 144.792s9.063-4.348 8.75 2.527c-.313 6.87-4.22 11.56-13.125 8.59 0 0-.78-.83 0-2.68" stroke-width=".938"/>
    <path d="M319.78 155.912s-1.787-5.63 2.7-5.785c4.49-.152 15.895 1.567 18.55 5.785 2.658 4.22-3.592 3.75-3.592 3.75s-8.195-4.783-14.957-4.5c0 0-.66 1.688-2.7.75z" stroke-width="1.25"/>
    <path d="M352.935 148.8s-10.712-2.106-13.73 5.316" stroke-width=".625"/>
    <path d="M358.844 107.63s-3.28 5.158-5 5.783c-1.72.625-4.844-8.282.78-11.094 5.626-2.82 10.313-3.91 22.345 1.4 12.03 5.31 21.87 9.22 23.28 15.15 1.4 5.94-8.6 5.62-10.32 4.22 0 0-4.38-11.57-27.66-16.25 0 0-.16-.47-3.44.78z" stroke-width="1.25"/>
    <path d="M395.936 113.256s7.127 1.25 6.033 5.313c-1.1 4.06-.63 8.43-10.79 7.34 0 0-5.81-1.71-3.46-6.25" stroke-width=".938"/>
    <path d="M370.406 114.106s11.817.897 15.596 3.696m11-3.696s-8.473.51-7.457 8.19m8.518-6.342s-6.33 2.45-5.51 7.922" stroke-width=".625"/>
    <path d="M386.002 78.88s-2.158 4.376-4.502 5c-2.344.626-3.75-7.03 0-10.31 3.75-3.283 12.238-2.976 13.77-1.72 1.536 1.256 21.543 9.375 21.543 9.375s8.906 4.53 8.906 7.03-.73 8.126-7.95 5.94c0 0-4.56-1.72-4.09-4.69 0 0-16.27-10.468-24.23-11.093 0 0-2.19-1.653-3.46.47z" stroke-width="1.25"/>
    <path d="M420.952 83.604s5.548-.63 7.11 1.776c1.563 2.408 1.63 6.48-3.203 7.877" stroke-width=".938"/>
    <path d="M420.952 83.604s1.334 9.414-6.402 8.44" stroke-width=".625"/>
    <path d="M416.656 49.662s-3.125 4.375-5.312 5.313c0 0-3.12-6.094 3.206-12.344 6.325-6.25 17.77-2.44 20.075-1.25 2.304 1.2 14.53 5.94 19.53 16.1 0 0 2.345 3.6 2.5 4.85.158 1.25-5.31 4.06-9.686.94 0 0-3.26-10.15-11.88-13.59-8.62-3.44-13.28-7.81-18.44 0z" stroke-width="1.25"/>
    <path d="M452.606 54.81s6.863.634 5.77 4.54c-1.095 3.907-2.5 10-12.813 4.532 0 0-1.448-.73-.255-4.35" stroke-width=".938"/>
    <path d="M427.643 51.91s14.915 2.368 16.916 6.315" stroke-width=".625"/>
    <path d="M446.656 22.32s-3.594 5.78-6.094 5.31c0 0-3.437-8.905 7.657-12.968 11.09-4.062 28.12 9.375 28.12 9.375s7.65 5.938 8.12 8.907c.46 2.968-1.57 7.03-8.29 4.062 0 0-10.3-15.937-24.52-16.406 0 0-3.73-.1-5.01 1.72z" stroke-width="1.25"/>
    <path d="M472.698 32.52s-.885 7.924 2.552 8.86c3.438.94 13.548 3.38 13.75-8.75.14-8.436-10.395-6.72-10.395-6.72" stroke-width=".938"/>
    <path d="M457.28 25.97s13.476 2.478 14.398 5.423" stroke-width=".625"/>
    <path d="M471.677 11.088s-7.52-2.8-14.396 2.81m-8.35 7.046L427.65 39.39m-5.983 6.073L394.45 71.447m-13.973 12.157L365.41 100.11m-11.566 13.302s-19.688 19.364-20.156 21.01" stroke-width="1.25"/>
    <path d="M358.844 107.63s3.357 5.843 0 9.8m10.47-7.924L346.07 135.6M473.688 20.944s7.243-11.04 56.277 3.996" stroke-width=".625"/>
    <path d="M499.156 8.5s5-5.713 8.28-6.807C510.72.6 522.366.093 540.06 23.158" stroke-width="1.25"/>
    <path d="M374.59 102.72l20.037-23.06m6.438-5.028l27.945-27.648m2.94-6.63l24.192-19.09" stroke-width=".625"/>
    <path d="M308.375 159.678s6.877-4.528 15.47-14.886" stroke-width="1.25"/>
    <path stroke-width=".625" d="M299.625 166.537l6.26-5.286v5.92l4.99-5.91 2.97 4.98 7.855-3.45 3.238 6.58 5.62-4.22 5.023-6.44m-3.14 11.6l-1.88-4.37 1.88 4.38z"/>
    <path stroke-width="1.25" d="M332.438 170.287l5.156-2.188 1.61 4.21 4.562-1.1 2.304 4.84 5.345-1.72 2.43 5.31 4.843-1.25 2.464 5.31 6.74-1.1 1.42 7.19 6.588-2.8 2.32 5.31 8.28-1.75 2.813 6.28 5.958-3.596 2.8 6.094 7.66-2.658 4.9 5.156 6.04-2.97 5 5.63 4.69-3.9 4.38 5.47 5.16-3.905 5.63 2.97 2.654-3.75 6.023 4.69 3.506-5.78 5.31 3.44 2.5-5.31 6.56 4.064 1.72-5.938 5.94 3.437 3.595-5.31 4.064 3.44 3.59-5.626 4.06 3.123 2.345-5.03 5.626 3 3.124-5.47 5.47 2.47 2.97-4.655 4.374 4.655 2.5-7 6.095 4.22 2.19-5.63 5.94 2.345 1.877-5.47 6.25 4.22 3.75-5.937 3.905 3.59 3.29-5.78 5.15 5 4.69-5.63 4.375 4.22 3.905-5.624 3.44 4.69 5-5.314 3.44 4.38 3.59-5.625 4.062 5.936 3.59-5.62 3.28 5.47 3.904-5.62 3.437 5.78 5.63-4.843 1.56 5.624 5.63-4.53 1.404 6.876 4.53-5.47 1.876 6.72 6.56-5.15 1.876 9.53 6.25-5.78v5.152l5.938-1.25v6.534l5.628-2.785 1.406 7.03 3.75-.78v6.09l4.69-.31-.622 6.25h3.905v6.72h3.75l-1.87 7.965 2.654 2.083-1.567 5.884 1.56 3.905-2.81 2.97 2.816 4.69-2.81 2.5 1.874 4.69-4.22 2.344 3.127 5.47-5 1.715 2.03 3.75-3.75 3.908 1.72 1.88m-491.74-33.25l4.79-1.25 1.042 1.25 7.08-2.708 4.584 1.354 6.665-1.354h4.17l3.956-2.294h12.5l3.96-2.5 7.29 1.042 6.67-1.044 1.25 5.625-5.42-1.666 2.71 4.166h-7.29l5 3.125h-8.13l4.79 3.23h-4.79l2.29 3.23-5 1.25 2.917.83-5 3.12 5.21 1.25-2.5 2.91h6.25l-2.088 3.75h5.626l1.042 4.58 6.667-1.88 3.54 5.62 4.59-1.876 3.13 3.44 6.67-2.606 1.88 4.795 5.42-2.19 1.88 2.186 2.5-3.96 5.83 5.415 3.96-4.79 6.88 4.79 2.29-4.79 7.084 4.79 3.75-3.65 2.71 3.644 5.83-4.587 5.834 3.75 4.37-4.58 4.85 4.372 6.24-5 2.87 4.79 4.79-5.414 4.38 4.79 5.835-6.874 5.83 6.04 2.92-5.832 5.622 4.896 4.166-6.15 6.25 5 3.96-7.082 2.5 4.586 6.04-6.25 5.21 5.834 4.165-6.46 5.417 5.42 3.75-5.42 4.585 4.58 5.21-5.834 3.505 4.585 5.037-5.625 1.907 4.58 7.264-6.25 4.793 5.21 4.79-6.25 3.96 6.04 6.25-4.79 1.665 5.415 5.627-5.833 2.5 6.04 5.42-6.664v6.04l7.5-5.21 3.544 6.04 2.29-5.21 4.586 4.79 4.375-4.79 3.33 6.04 3.96-4.167 2.29 5.623 2.71-3.75 2.918 5.21 2.24-3.336.885 4.79 3.126-1.873 1.46 3.96 3.75-1.873v4.17l4.164-1.14v3.645h2.29l-1.04 2.088s3.75-1.46 4.17 0c.415 1.457 0 3.957 0 3.957l1.874 2.5h-1.25l1.25 6.04-1.46 2.5 3.334 2.5-3.12 1.87 3.128 2.29-3.33 2.295.21 2.29-.71 2.22M58.7 283.77c-1.255 1.076-1.645 2.68-.87 3.588.775.908 2.42.77 3.677-.306 1.257-1.075 1.647-2.68.872-3.586-.78-.905-2.43-.767-3.68.308zm-2.107 11.21c-.49 1.28-.153 2.597.75 2.94.905.347 2.034-.41 2.522-1.69.49-1.28.153-2.6-.75-2.942-.904-.342-2.033.416-2.522 1.696z"/>
    <path d="M73.05 255.15c-1.603.55-2.82 1.23-2.72 1.52.1.29 1.477.08 3.08-.47 1.602-.55 2.82-1.23 2.72-1.52-.1-.29-1.478-.08-3.08.47zm-10.09 3.79c-1.48.82-2.562 1.703-2.413 1.97.148.268 1.47-.18 2.952-1 1.48-.82 2.56-1.703 2.41-1.972-.15-.267-1.47.18-2.95 1.002z" stroke-width=".625"/>
    <path d="M60.33 274.73c-1.467.79-2.297 2.1-1.853 2.922.443.824 1.992.85 3.46.06 1.467-.79 2.296-2.096 1.853-2.92-.443-.824-1.992-.85-3.46-.06zm33.65 26.016c-1.463.348-2.39 1.71-2.075 3.044.317 1.334 1.76 2.134 3.222 1.786 1.463-.347 2.392-1.71 2.076-3.043-.318-1.334-1.76-2.134-3.223-1.787zm-11.25-6.25c-1.463.348-2.39 1.71-2.075 3.044.317 1.334 1.76 2.134 3.222 1.786 1.463-.347 2.392-1.71 2.076-3.043-.318-1.334-1.76-2.134-3.223-1.787zm-5-10c-1.463.348-2.39 1.71-2.075 3.044.317 1.334 1.76 2.134 3.222 1.786 1.463-.347 2.392-1.71 2.076-3.043-.318-1.334-1.76-2.134-3.223-1.787z" stroke-width="1.25"/>
    <path d="M75.36 261.732c-1.254.297-2.126 1.14-1.95 1.88.176.742 1.335 1.102 2.586.805 1.253-.298 2.125-1.14 1.95-1.882-.177-.74-1.335-1.1-2.587-.803z" stroke-width=".625"/>
    <path d="M62.343 268.225c-1.025.78-1.483 1.9-1.02 2.51.46.605 1.665.466 2.69-.312 1.024-.78 1.48-1.902 1.02-2.51-.46-.605-1.665-.467-2.69.312zM50.43 271.53c-1.35 1.025-2.168 2.216-1.83 2.662.34.446 1.708-.022 3.057-1.047 1.35-1.024 2.168-2.217 1.83-2.663-.34-.446-1.71.023-3.058 1.048zm-.036-6.297c-1.35 1.025-2.292 2.053-2.106 2.296.185.24 1.43-.39 2.778-1.42s2.29-2.06 2.106-2.3c-.185-.25-1.43.39-2.778 1.41zM40 271.783c-1.132.86-1.898 1.753-1.712 1.996.185.24 1.25-.26 2.383-1.12 1.13-.86 1.9-1.76 1.72-2-.18-.25-1.25.25-2.38 1.11zm0 5c-1.132.86-1.898 1.753-1.712 1.996.185.24 1.25-.26 2.383-1.12 1.13-.86 1.9-1.76 1.72-2-.18-.25-1.25.25-2.38 1.11zm-9.984 6.38c-.91 1.09-1.357 2.216-1 2.516.36.3 1.388-.34 2.3-1.43.91-1.09 1.357-2.22.998-2.52-.36-.3-1.388.34-2.298 1.43zm-3.75 7.5c-.91 1.09-1.357 2.216-1 2.516.36.3 1.388-.34 2.3-1.43.91-1.09 1.357-2.22.998-2.52-.36-.3-1.388.34-2.298 1.43zM24.73 299.9c-.705 1.464-.83 2.866-.275 3.133.552.267 1.574-.702 2.28-2.164.706-1.47.83-2.87.276-3.14-.55-.27-1.57.7-2.28 2.16zm-.476 10.904c-.58 1.517-.387 3 .43 3.31.816.313 1.948-.664 2.526-2.182.58-1.516.388-3-.428-3.31-.817-.312-1.948.664-2.528 2.182zm10-7.5c-.58 1.517-.18 3.078.892 3.487 1.07.41 2.408-.48 2.988-2 .58-1.51.18-3.08-.89-3.49-1.072-.41-2.41.49-2.99 2.01zm10-5c-.58 1.517-.18 3.078.892 3.487 1.07.41 2.408-.48 2.988-2 .58-1.51.18-3.08-.89-3.49-1.072-.41-2.41.49-2.99 2.01zm-4.874-13.33c-2.122 2.03-3.004 4.547-1.97 5.63 1.033 1.08 3.59.315 5.712-1.713 2.12-2.02 3.003-4.54 1.97-5.62-1.034-1.08-3.59-.31-5.712 1.71zm67.126 18.21c-1.602.38-2.6 1.952-2.23 3.51.37 1.56 1.97 2.516 3.572 2.135 1.602-.38 2.6-1.96 2.23-3.52-.37-1.56-1.97-2.52-3.572-2.14zm55.576-25.794c-2.395-.873-4.85-.174-5.483 1.562-.64 1.737.79 3.853 3.18 4.727 2.39.87 4.85.17 5.48-1.57.63-1.74-.8-3.85-3.19-4.73zm-54.956 1.025c-2.55.042-4.584 1.956-4.544 4.272.04 2.318 2.136 4.16 4.685 4.118 2.55-.043 4.584-1.957 4.544-4.273-.03-2.317-2.13-4.16-4.68-4.117zm11.09 20.845c-1.462.347-2.334 1.95-1.946 3.58.387 1.632 1.886 2.672 3.35 2.325 1.46-.348 2.334-1.952 1.946-3.582-.388-1.63-1.888-2.67-3.35-2.324zm-35.792-23.657c-1.463.348-2.424 1.575-2.147 2.743.278 1.167 1.688 1.832 3.152 1.485 1.46-.34 2.42-1.57 2.14-2.74-.28-1.16-1.69-1.83-3.15-1.48z" stroke-width="1.25"/>
    <path d="M129.48 246.07c-2.763-.095-5.023.425-5.05 1.163-.024.736 2.195 1.41 4.96 1.506 2.76.09 5.02-.43 5.046-1.17.026-.74-2.194-1.41-4.956-1.51zm-.08-4.436c-1.35-.046-2.457.26-2.472.688-.014.426 1.07.81 2.42.856 1.35.046 2.456-.26 2.47-.688.016-.426-1.068-.81-2.418-.856z" stroke-width=".625"/>
    <path d="M333.404 274.73c-2.22.446-3.585 2.965-3.05 5.624.535 2.66 2.768 4.454 4.988 4.007 2.22-.44 3.586-2.96 3.05-5.62-.534-2.66-2.768-4.45-4.988-4.01zm-25.564 1.175c-2.49.5-4.073 3.063-3.538 5.722.535 2.66 2.987 4.41 5.476 3.91 2.49-.502 4.074-3.063 3.54-5.723-.536-2.66-2.988-4.41-5.477-3.91z" stroke-width="1.25"/>
    <path d="M299.213 167.616c-.456-.422-2.183.7-3.855 2.505-1.673 1.81-2.66 3.62-2.203 4.04.458.42 2.183-.7 3.855-2.5 1.674-1.8 2.66-3.61 2.203-4.03z" stroke-width=".5"/>
    <path d="M307.018 169.15c-.625-.58-2.487.415-4.16 2.22-1.672 1.808-2.522 3.742-1.897 4.32.63.58 2.49-.416 4.17-2.222s2.52-3.74 1.9-4.32z" stroke-width=".625"/>
    <path d="M457.816 211.76c-2.1-1.944-5.16-2.056-6.832-.25-1.673 1.806-1.325 4.848.775 6.793 2.1 1.945 5.16 2.057 6.83.25 1.67-1.805 1.32-4.847-.78-6.792zm-22.5 1.25c-2.1-1.944-5.16-2.056-6.832-.25-1.673 1.806-1.325 4.848.775 6.793 2.1 1.945 5.16 2.057 6.83.25 1.67-1.805 1.32-4.847-.78-6.792zm-25-1.25c-2.1-1.944-5.16-2.056-6.832-.25-1.673 1.806-1.325 4.848.775 6.793 2.1 1.945 5.16 2.057 6.83.25 1.67-1.805 1.32-4.847-.78-6.792z" stroke-width="1.25"/>
    <path d="M561.467 48.663c-1.87-1.733-4.656-1.766-6.22-.075-1.566 1.69-1.318 4.464.553 6.196 1.87 1.733 4.655 1.767 6.22.075 1.565-1.69 1.317-4.47-.553-6.2zM539.78 37.288c-1.976-1.83-4.936-1.853-6.61-.045-1.67 1.806-1.424 4.755.554 6.586 1.98 1.83 4.937 1.85 6.61.04 1.672-1.81 1.425-4.76-.553-6.59z" stroke-width=".625"/>
    <path d="M384.066 201.76c-2.1-1.944-5.16-2.056-6.832-.25-1.673 1.806-1.325 4.848.775 6.793 2.1 1.945 5.16 2.057 6.83.25 1.67-1.805 1.32-4.847-.78-6.792zm-21.833-9.288c-1.778-1.648-4.577-1.52-6.25.287-1.672 1.8-1.586 4.6.193 6.25 1.78 1.64 4.577 1.52 6.25-.29s1.586-4.61-.192-6.26z" stroke-width="1.25"/>
    <path d="M342.233 181.222c-1.778-1.648-4.577-1.52-6.25.287-1.672 1.8-1.586 4.6.193 6.25 1.78 1.64 4.577 1.52 6.25-.29s1.586-4.61-.192-6.26zm-19.235-7.324c-1.322-1.224-3.75-.753-5.422 1.053-1.673 1.81-1.956 4.27-.635 5.49 1.33 1.23 3.75.75 5.43-1.05 1.68-1.8 1.96-4.26.64-5.48z" stroke-width=".625"/>
    <path d="M284.09 275.905c-2.49.5-4.073 3.063-3.538 5.722.535 2.66 2.987 4.41 5.476 3.91 2.49-.502 4.074-3.063 3.54-5.723-.536-2.66-2.988-4.41-5.477-3.91zm-25.44-.095c-2.538.084-4.524 2.347-4.437 5.06.09 2.71 2.218 4.842 4.755 4.76 2.54-.08 4.525-2.346 4.438-5.058-.09-2.71-2.217-4.843-4.755-4.76zm-25.646-6.768c-2.264.074-4.05 1.604-3.992 3.42.06 1.814 1.94 3.225 4.204 3.152 2.264-.073 4.05-1.603 3.99-3.418-.057-1.815-1.94-3.228-4.202-3.154z" stroke-width="1.25"/>
    <path d="M213.054 258.103c-2.264.074-4.06 1.254-4.018 2.638.046 1.39 1.917 2.45 4.18 2.38 2.263-.07 4.062-1.25 4.017-2.64-.045-1.38-1.915-2.44-4.18-2.37zm-9.96-11.217c-2.262.074-4.07.967-4.036 1.996.032 1.03 1.895 1.805 4.157 1.73 2.264-.07 4.072-.965 4.04-1.995-.035-1.03-1.896-1.805-4.16-1.73zm2.532-8.056c-2.264.075-4.078.758-4.053 1.528.025.77 1.88 1.337 4.143 1.263 2.263-.07 4.077-.75 4.052-1.52-.024-.77-1.88-1.33-4.142-1.26zm8.774-8.18c-2.243.305-4 1.015-3.922 1.587.078.573 1.96.79 4.204.485 2.244-.304 4-1.014 3.923-1.586-.078-.57-1.96-.79-4.204-.485zm-30.582 2.5c-2.244.305-4 1.015-3.923 1.587.078.573 1.96.79 4.204.485 2.24-.304 4-1.014 3.92-1.586-.08-.57-1.96-.79-4.21-.485zm-39.106 9.745c-1.522-.053-2.773.372-2.793.95-.02.576 1.19 1.086 2.72 1.14 1.52.05 2.77-.374 2.79-.95.02-.578-1.2-1.088-2.72-1.14zm15 0c-1.522-.053-2.773.372-2.793.95-.02.576 1.19 1.086 2.72 1.14 1.52.05 2.77-.374 2.79-.95.02-.578-1.2-1.088-2.72-1.14zm-5 3.75c-1.522-.053-2.773.372-2.793.95-.02.576 1.19 1.086 2.72 1.14 1.52.05 2.77-.374 2.79-.95.02-.578-1.2-1.088-2.72-1.14zm-3.75 3.75c-1.522-.053-2.773.372-2.793.95-.02.576 1.19 1.086 2.72 1.14 1.52.05 2.77-.374 2.79-.95.02-.578-1.2-1.088-2.72-1.14zm-4.037 3.74c-1.365-.048-2.486.382-2.506.96-.02.576 1.07 1.082 2.43 1.13 1.36.046 2.48-.384 2.5-.96.02-.577-1.07-1.083-2.44-1.13z" stroke-width=".625"/>
    <path d="M141.584 264.135c-1.365-.048-2.497.69-2.53 1.65-.032.956 1.047 1.77 2.412 1.817 1.363.047 2.496-.69 2.53-1.648.032-.958-1.047-1.772-2.412-1.82z" stroke-width="1.25"/>
    <path d="M127.327 261.926c-1.365-.047-2.492.518-2.517 1.26-.026.743 1.06 1.383 2.424 1.43 1.365.046 2.49-.517 2.516-1.26.027-.742-1.058-1.382-2.423-1.43z" stroke-width=".625"/>
    <path d="M114.827 263.176c-1.365-.047-2.492.518-2.517 1.26-.026.743 1.06 1.383 2.424 1.43 1.365.046 2.49-.517 2.516-1.26.027-.742-1.058-1.382-2.423-1.43zm-13.347 1.17c-1.33.316-2.266 1.16-2.094 1.883.172.72 1.388 1.05 2.717.73 1.327-.32 2.265-1.16 2.094-1.88-.173-.73-1.388-1.06-2.717-.74zm-11.25 3.75c-1.33.316-2.202 1.425-1.952 2.475.248 1.06 1.528 1.65 2.856 1.34 1.33-.31 2.203-1.42 1.954-2.47-.25-1.05-1.53-1.64-2.858-1.33z" stroke-width="1.25"/>
    <path d="M132.224 253.778c-1.35-.046-2.458.26-2.473.687-.01.427 1.07.81 2.42.857 1.35.046 2.46-.262 2.48-.688.02-.426-1.06-.81-2.42-.856zm-28.354.652c-1.35-.047-2.463.395-2.483.986-.02.59 1.06 1.11 2.41 1.155 1.35.05 2.462-.39 2.482-.98.02-.59-1.06-1.11-2.41-1.15zm13.75-1.25c-1.35-.047-2.463.395-2.483.986-.02.59 1.06 1.11 2.41 1.155 1.35.05 2.462-.39 2.482-.98.02-.59-1.06-1.11-2.41-1.15zm-7.342-8.152c-1.453.16-2.61.475-2.584.704.025.23 1.222.285 2.675.125 1.45-.16 2.61-.475 2.58-.704-.03-.228-1.22-.285-2.68-.125zm-5 2.5c-1.453.16-2.59.66-2.54 1.12.052.456 1.27.7 2.722.54 1.453-.16 2.59-.662 2.54-1.12-.05-.46-1.27-.7-2.722-.54zm-8.842 3.764c-1.434.285-2.5.987-2.386 1.567.115.58 1.37.82 2.803.53 1.434-.29 2.502-.99 2.387-1.57-.115-.58-1.37-.82-2.804-.54zm-7.5 5c-1.434.285-2.5.987-2.386 1.567.115.58 1.37.82 2.803.53 1.434-.29 2.502-.99 2.387-1.57-.115-.58-1.37-.82-2.804-.54z" stroke-width=".625"/>
    <path d="M156.463 257.95c-.155.672.77 1.46 2.067 1.757 1.296.298 2.473-.006 2.628-.678.155-.68-.772-1.46-2.068-1.76-1.296-.3-2.472 0-2.627.68zm10.927 3.963c-.156.672.563 1.41 1.604 1.65 1.04.24 2.01-.112 2.164-.784.155-.68-.564-1.42-1.605-1.66-1.04-.24-2.01.11-2.164.78z" stroke-width=".938"/>
    <path d="M359.51 271.004c-2.09.42-3.348 2.916-2.813 5.576.535 2.66 2.66 4.475 4.75 4.055 2.088-.42 3.348-2.916 2.812-5.576-.54-2.66-2.67-4.48-4.75-4.06z" stroke-width="1.25"/>
    <path d="M514.884 287.787c-.618-.812-2.585-.357-4.394 1.018-1.81 1.375-2.775 3.15-2.158 3.96.618.814 2.586.357 4.394-1.016 1.81-1.38 2.775-3.15 2.158-3.97zm-4.564-9.97c-.72-.72-2.788.175-4.617 2-1.83 1.828-2.727 3.895-2.006 4.616.72.723 2.79-.172 4.618-2 1.828-1.826 2.727-3.892 2.006-4.615zm-11.42-7.27c-1.26-.754-3.408.525-4.798 2.855-1.39 2.33-1.496 4.827-.236 5.58 1.26.752 3.41-.526 4.8-2.856 1.39-2.33 1.495-4.828.235-5.58zm-17.34-6.387c-1.808-.427-3.778 1.368-4.4 4.008-.623 2.64.337 5.127 2.144 5.553 1.808.43 3.778-1.36 4.4-4.01.623-2.64-.337-5.12-2.145-5.55zm-23-2.523c-2.167-.148-4.073 1.927-4.258 4.633-.184 2.707 1.424 5.02 3.59 5.168 2.17.147 4.076-1.926 4.26-4.634.184-2.706-1.424-5.02-3.59-5.167z" stroke-width=".625"/>
    <path d="M434.428 261.624c-2.13.43-3.423 2.933-2.888 5.59.535 2.66 2.695 4.47 4.825 4.04 2.13-.427 3.424-2.93 2.89-5.59-.537-2.66-2.697-4.47-4.827-4.04zm-25 2.5c-2.13.43-3.423 2.933-2.888 5.59.535 2.66 2.695 4.47 4.825 4.04 2.13-.427 3.424-2.93 2.89-5.59-.537-2.66-2.697-4.47-4.827-4.04zm-25 3.75c-2.13.43-3.423 2.933-2.888 5.59.535 2.66 2.695 4.47 4.825 4.04 2.13-.427 3.424-2.93 2.89-5.59-.537-2.66-2.697-4.47-4.827-4.04z" stroke-width="1.25"/>
    <path d="M217.234 267.478c0 .557-.452 1.008-1.008 1.008-.557 0-1.008-.45-1.008-1.007 0-.56.45-1.01 1.008-1.01.556 0 1.008.45 1.008 1zm8.19-2.832c0 .557-.45 1.008-1.007 1.008-.558 0-1.01-.45-1.01-1.008 0-.556.452-1.007 1.01-1.007.556 0 1.007.45 1.007 1zm-23.85-11.15c0 .556-.453 1.008-1.01 1.008-.556 0-1.01-.45-1.01-1.008 0-.556.454-1.007 1.01-1.007.557 0 1.01.45 1.01 1zm12.966-18.136c0 .556-.45 1.007-1.006 1.007-.558 0-1.01-.45-1.01-1.007 0-.557.452-1.008 1.01-1.008.556 0 1.007.45 1.007 1.008zm33.28 37.538c0 .557-.45 1.008-1.007 1.008-.558 0-1.01-.45-1.01-1.008 0-.556.452-1.007 1.01-1.007.556 0 1.007.46 1.007 1.01z" stroke-width=".625"/>
    <path d="M244.56 280.535c0 .556-.45 1.007-1.007 1.007-.557 0-1.008-.45-1.008-1.007 0-.557.45-1.008 1.008-1.008.557 0 1.008.45 1.008 1.008zm27.62-2.403c0 .778-.63 1.41-1.41 1.41-.777 0-1.407-.632-1.407-1.41 0-.777.63-1.408 1.407-1.408.78 0 1.41.63 1.41 1.41zm1.25 7.5c0 .778-.63 1.41-1.41 1.41-.777 0-1.407-.632-1.407-1.41 0-.777.63-1.408 1.407-1.408.78 0 1.41.63 1.41 1.41z" stroke-width="1.25"/>
    <path d="M327.135 184.492c0 .778-.63 1.41-1.41 1.41-.777 0-1.407-.632-1.407-1.41 0-.777.63-1.408 1.408-1.408.78 0 1.41.63 1.41 1.408z" stroke-width=".625"/>
    <path d="M297.596 275.82c0 .777-.63 1.408-1.41 1.408-.776 0-1.406-.63-1.406-1.41 0-.776.63-1.407 1.407-1.407.78 0 1.41.64 1.41 1.41zm2.29 8.61c0 .777-.63 1.408-1.407 1.408-.78 0-1.41-.63-1.41-1.408 0-.778.63-1.41 1.41-1.41.77 0 1.4.632 1.4 1.41z" stroke-width="1.25"/>
    <path d="M321.964 275.79c0 .778-.63 1.41-1.408 1.41-.778 0-1.408-.632-1.408-1.41 0-.777.63-1.408 1.408-1.408.78 0 1.41.63 1.41 1.41zm1.41 9.286c0 .777-.63 1.41-1.41 1.41-.777 0-1.407-.633-1.407-1.41 0-.778.63-1.41 1.407-1.41.78 0 1.41.632 1.41 1.41z" stroke-width=".625"/>
    <path d="M346.286 272.974c0 .778-.63 1.41-1.41 1.41-.776 0-1.406-.632-1.406-1.41 0-.777.63-1.41 1.407-1.41.78 0 1.41.633 1.41 1.41zm1.884 10.046c0 .78-.63 1.41-1.408 1.41-.778 0-1.408-.63-1.408-1.41 0-.776.63-1.407 1.408-1.407.78 0 1.41.63 1.41 1.408zm24.143-13.485c0 .778-.63 1.41-1.41 1.41-.777 0-1.407-.632-1.407-1.41 0-.777.63-1.41 1.408-1.41.78 0 1.41.633 1.41 1.41zm2.157 10.01c0 .778-.63 1.41-1.408 1.41-.778 0-1.408-.632-1.408-1.41 0-.777.63-1.41 1.408-1.41.78 0 1.41.633 1.41 1.41zm22.38-14.075c0 .777-.63 1.408-1.41 1.408-.776 0-1.406-.63-1.406-1.408 0-.778.63-1.41 1.407-1.41.78 0 1.41.632 1.41 1.41zm1.408 10.6c0 .778-.63 1.41-1.41 1.41-.776 0-1.406-.632-1.406-1.41 0-.777.63-1.41 1.407-1.41s1.4.633 1.4 1.41zm24.574-13.417c0 .778-.63 1.41-1.41 1.41-.777 0-1.407-.632-1.407-1.41 0-.777.63-1.41 1.408-1.41.78 0 1.41.633 1.41 1.41zm0 10.037c0 .777-.63 1.41-1.41 1.41-.777 0-1.407-.633-1.407-1.41 0-.778.63-1.41 1.408-1.41.78 0 1.41.632 1.41 1.41z" stroke-width="1.25"/>
    <path d="M447.18 261.867c0 .777-.63 1.41-1.41 1.41-.777 0-1.407-.633-1.407-1.41 0-.778.63-1.41 1.407-1.41.78 0 1.41.632 1.41 1.41z" stroke-width=".625"/>
    <path d="M445.77 271.446c0 .777-.63 1.408-1.408 1.408-.777 0-1.407-.63-1.407-1.408 0-.778.63-1.41 1.407-1.41.78 0 1.41.632 1.41 1.41z" stroke-width="1.25"/>
    <path d="M470.096 263.275c0 .778-.63 1.41-1.41 1.41-.776 0-1.406-.632-1.406-1.41 0-.777.63-1.41 1.407-1.41.78 0 1.41.633 1.41 1.41zm-1.826 10.015c0 .778-.63 1.41-1.408 1.41-.777 0-1.407-.632-1.407-1.41 0-.777.63-1.408 1.407-1.408.78 0 1.41.63 1.41 1.41zm22.7-5.344c0 .777-.63 1.408-1.41 1.408-.777 0-1.407-.63-1.407-1.408 0-.778.63-1.41 1.407-1.41.78 0 1.41.632 1.41 1.41zm-3.825 9.094c0 .778-.63 1.41-1.41 1.41-.776 0-1.406-.632-1.406-1.41 0-.777.63-1.408 1.4-1.408.78 0 1.41.63 1.41 1.41zm18.708 12.678c-.695.35-1.452.248-1.692-.228-.24-.475.13-1.145.83-1.495.7-.35 1.45-.25 1.69.228.24.475-.12 1.145-.82 1.495zm7.5-6.25c-.695.35-1.45.248-1.69-.228-.24-.475.127-1.145.82-1.495.696-.35 1.453-.25 1.69.228.24.475-.125 1.145-.82 1.495zm-12.976-1.73c-.366.686-1.043 1.038-1.514.787-.47-.25-.553-1.01-.187-1.696.366-.69 1.044-1.04 1.514-.79s.553 1.01.187 1.69zm5-7.5c-.366.686-1.043 1.038-1.514.787-.47-.25-.553-1.01-.187-1.696.366-.69 1.044-1.04 1.514-.79s.553 1.01.187 1.69zm145.52-8.528c1.984-1.567 2.95-3.645 2.164-4.64-.78-.997-3.03-.534-5.01 1.034-1.98 1.567-2.95 3.646-2.16 4.64.79.997 3.04.534 5.02-1.034zm5.547-21.81c1.983-1.567 2.828-3.8 1.89-4.986s-3.306-.878-5.287.69c-1.983 1.567-2.83 3.8-1.89 4.986.938 1.186 3.305.878 5.287-.69z" stroke-width=".625"/>
    <path d="M655.96 221.528c1.507-2.028 1.547-4.552.087-5.638-1.458-1.086-3.865-.324-5.375 1.704-1.508 2.026-1.547 4.55-.088 5.636 1.46 1.088 3.866.325 5.375-1.702zM642.42 203.3c1.022-2.31.5-4.78-1.164-5.516-1.665-.735-3.84.542-4.863 2.853-1.02 2.313-.5 4.782 1.165 5.517 1.665.735 3.84-.543 4.863-2.854zm-20-12.5c1.022-2.31.5-4.78-1.164-5.516-1.665-.735-3.84.542-4.863 2.853-1.02 2.313-.5 4.782 1.165 5.517 1.665.735 3.84-.543 4.863-2.854zm-20.793-4.58c.244-2.267-1.026-4.263-2.835-4.457-1.81-.195-3.474 1.487-3.716 3.755-.244 2.268 1.026 4.264 2.835 4.458 1.81.194 3.48-1.488 3.72-3.755zm-25 1.25c.244-2.267-1.026-4.263-2.835-4.457-1.81-.195-3.474 1.487-3.716 3.755-.244 2.268 1.026 4.264 2.835 4.458 1.81.194 3.48-1.488 3.72-3.755zm-25 3.75c.244-2.267-1.026-4.263-2.835-4.457-1.81-.195-3.474 1.487-3.716 3.755-.244 2.268 1.025 4.264 2.835 4.458 1.81.194 3.48-1.488 3.72-3.755zm-23.735 4.487c-.113-2.28-1.678-4.053-3.495-3.963-1.817.09-3.2 2.01-3.087 4.288.113 2.278 1.678 4.052 3.496 3.962 1.817-.09 3.198-2.01 3.086-4.287zm-22.432 4.948c-1.207-2.37-3.736-3.5-5.65-2.525-1.91.975-2.48 3.686-1.27 6.056s3.738 3.5 5.65 2.525c1.91-.97 2.48-3.68 1.27-6.05zm-23.812 7.307c-1.3-2.55-4.133-3.71-6.326-2.592-2.192 1.12-2.916 4.094-1.615 6.643 1.3 2.55 4.134 3.712 6.326 2.593 2.193-1.12 2.917-4.094 1.615-6.644z" stroke-width="1.25"/>
    <path d="M332.906 176.57c0 .778-.63 1.41-1.408 1.41-.778 0-1.408-.632-1.408-1.41 0-.777.63-1.408 1.408-1.408.78 0 1.41.63 1.41 1.408zm-24.036-1.498c.344.382.154 1.112-.424 1.633-.578.52-1.324.635-1.668.255-.343-.38-.153-1.113.424-1.634.578-.52 1.324-.635 1.668-.254zm6.25-7.5c.344.382.154 1.112-.424 1.633-.578.52-1.324.635-1.668.255-.343-.38-.153-1.113.424-1.634.578-.52 1.324-.635 1.668-.254zm38.56 18.328c0 .778-.63 1.41-1.41 1.41-.778 0-1.408-.632-1.408-1.41 0-.777.63-1.408 1.408-1.408.78 0 1.41.63 1.41 1.41zm-6.202 7.474c0 .777-.63 1.41-1.41 1.41-.776 0-1.406-.633-1.406-1.41 0-.778.63-1.41 1.407-1.41s1.4.632 1.4 1.41zm26.274 3.776c0 .778-.63 1.41-1.41 1.41-.776 0-1.406-.632-1.406-1.41 0-.777.63-1.408 1.408-1.408.778 0 1.408.63 1.408 1.41zm-5.18 7.31c0 .778-.63 1.41-1.41 1.41-.777 0-1.407-.632-1.407-1.41 0-.777.63-1.408 1.408-1.408.78 0 1.41.63 1.41 1.41zm27.888 1.98c0 .778-.63 1.41-1.407 1.41-.778 0-1.408-.632-1.408-1.41 0-.777.63-1.41 1.408-1.41.778 0 1.408.633 1.408 1.41zm-3.606 8.434c0 .777-.63 1.408-1.408 1.408-.778 0-1.408-.63-1.408-1.408 0-.778.63-1.41 1.408-1.41.778 0 1.408.632 1.408 1.41zm28.59-2.564c0 .776-.63 1.407-1.41 1.407-.777 0-1.407-.63-1.407-1.408 0-.78.63-1.41 1.408-1.41.778 0 1.408.63 1.408 1.41zm0 10.187c0 .777-.63 1.408-1.41 1.408-.777 0-1.407-.63-1.407-1.408 0-.778.63-1.41 1.408-1.41.778 0 1.408.632 1.408 1.41zm23.716-10.864c0 .778-.63 1.41-1.408 1.41-.777 0-1.407-.632-1.407-1.41 0-.777.63-1.408 1.407-1.408.78 0 1.41.63 1.41 1.41zm1.41 10.28c0 .778-.63 1.41-1.41 1.41-.777 0-1.407-.63-1.407-1.41 0-.777.63-1.41 1.408-1.41.78 0 1.41.633 1.41 1.41zm19.415-13.443c0 .776-.63 1.408-1.41 1.408-.776 0-1.406-.632-1.406-1.41 0-.777.63-1.408 1.4-1.408.78 0 1.41.63 1.41 1.41zm2.815 9.96c0 .778-.63 1.41-1.407 1.41-.778 0-1.408-.632-1.408-1.41 0-.777.63-1.41 1.408-1.41.78 0 1.41.633 1.41 1.41z" stroke-width=".625"/>
    <path d="M488.347 202.42c0 .778-.63 1.41-1.41 1.41-.776 0-1.406-.632-1.406-1.41 0-.777.63-1.41 1.41-1.41.78 0 1.41.633 1.41 1.41zm2.817 9.213c0 .778-.63 1.41-1.41 1.41-.777 0-1.407-.632-1.407-1.41 0-.777.63-1.408 1.408-1.408.78 0 1.41.63 1.41 1.41zm20.968-16.05c0 .78-.63 1.41-1.41 1.41-.776 0-1.406-.63-1.406-1.41 0-.777.63-1.41 1.407-1.41.78 0 1.41.633 1.41 1.41zm1.408 9.36c0 .778-.63 1.41-1.408 1.41-.778 0-1.408-.632-1.408-1.41 0-.777.63-1.41 1.408-1.41.778 0 1.408.633 1.408 1.41zm21.526-15.11c0 .777-.63 1.41-1.41 1.41-.776 0-1.406-.633-1.406-1.41 0-.778.63-1.41 1.407-1.41.78 0 1.41.632 1.41 1.41zm1.408 9.355c0 .777-.63 1.41-1.408 1.41-.778 0-1.408-.633-1.408-1.41 0-.778.63-1.41 1.408-1.41.778 0 1.408.632 1.408 1.41z" stroke-width="1.25"/>
    <path d="M548.225 50.98c0 .777-.63 1.408-1.41 1.408-.777 0-1.407-.63-1.407-1.408 0-.778.63-1.41 1.408-1.41.78 0 1.41.632 1.41 1.41zm2.5-8.75c0 .777-.63 1.408-1.41 1.408-.777 0-1.407-.63-1.407-1.408 0-.778.63-1.41 1.408-1.41.78 0 1.41.632 1.41 1.41z" stroke-width=".625"/>
    <path d="M558.945 185.34c0 .777-.63 1.408-1.41 1.408-.776 0-1.406-.63-1.406-1.41 0-.776.63-1.407 1.4-1.407.78 0 1.41.64 1.41 1.41zm.798 9.152c0 .778-.63 1.41-1.41 1.41-.777 0-1.407-.632-1.407-1.41 0-.777.63-1.408 1.408-1.408.78 0 1.41.63 1.41 1.408zm24.054-11.97c0 .778-.63 1.41-1.408 1.41-.78 0-1.41-.632-1.41-1.41 0-.777.63-1.41 1.41-1.41.77 0 1.4.633 1.4 1.41zm-.004 9.645c.06.775-.52 1.454-1.294 1.514-.78.07-1.46-.51-1.52-1.29-.06-.77.51-1.45 1.29-1.51.77-.06 1.45.52 1.51 1.3zm26.914-8.237c0 .78-.63 1.41-1.41 1.41-.777 0-1.407-.63-1.407-1.41 0-.776.63-1.408 1.408-1.408.78 0 1.41.632 1.41 1.41zm-2.817 9.154c0 .778-.63 1.41-1.41 1.41-.776 0-1.406-.632-1.406-1.41 0-.778.63-1.41 1.408-1.41.778 0 1.408.632 1.408 1.41zm23.824-4.556c0 .777-.63 1.408-1.41 1.408-.776 0-1.406-.63-1.406-1.41 0-.776.63-1.407 1.407-1.407.78 0 1.41.63 1.41 1.4zm-2.817 9.048c0 .777-.63 1.41-1.408 1.41-.78 0-1.41-.633-1.41-1.41 0-.778.63-1.41 1.41-1.41.77 0 1.4.632 1.4 1.41zm21.248 8.008c0 .778-.63 1.41-1.41 1.41-.777 0-1.407-.632-1.407-1.41 0-.778.63-1.41 1.408-1.41.78 0 1.41.632 1.41 1.41zm-5.795 7.35c0 .778-.63 1.41-1.408 1.41-.777 0-1.407-.632-1.407-1.41 0-.777.63-1.41 1.407-1.41.78 0 1.41.633 1.41 1.41zm16.77 13.126c0 .776-.63 1.407-1.408 1.407-.778 0-1.408-.63-1.408-1.408 0-.78.63-1.41 1.408-1.41.78 0 1.41.63 1.41 1.41zm-7.53 4.727c0 .778-.63 1.41-1.408 1.41-.778 0-1.408-.632-1.408-1.41 0-.778.63-1.41 1.408-1.41.78 0 1.41.632 1.41 1.41z" stroke-width="1.25"/>
    <path d="M649.47 251.67c.054.775-.53 1.448-1.307 1.503-.775.053-1.45-.53-1.504-1.307-.06-.776.53-1.448 1.3-1.503.77-.054 1.45.53 1.5 1.306zm8.092-1.958c0 .778-.63 1.41-1.41 1.41-.777 0-1.407-.632-1.407-1.41 0-.777.63-1.41 1.408-1.41.78 0 1.41.633 1.41 1.41zM580.097 59.935c-1.886-1.746-4.696-1.78-6.276-.07-1.58 1.706-1.33 4.505.56 6.25 1.89 1.747 4.7 1.78 6.28.072 1.58-1.706 1.34-4.506-.55-6.252zm16.553 10.802c-1.977-1.83-4.937-1.853-6.61-.045-1.672 1.806-1.425 4.755.553 6.586 1.978 1.83 4.937 1.853 6.61.046 1.672-1.807 1.425-4.756-.553-6.587zm16.54 11.293c-1.664-1.542-4.214-1.497-5.693.102-1.48 1.598-1.328 4.143.337 5.685 1.665 1.54 4.215 1.496 5.693-.1 1.48-1.6 1.33-4.144-.336-5.686z" stroke-width=".625"/>
    <path d="M631.365 91.636c-1.792-1.66-4.548-1.595-6.155.14-1.61 1.738-1.46 4.49.33 6.15 1.792 1.658 4.547 1.595 6.156-.143 1.61-1.736 1.46-4.49-.33-6.147z" stroke-width=".938"/>
    <path d="M667.18 104.036c-1.72-1.593-4.47-1.42-6.144.387-1.672 1.807-1.634 4.562.085 6.154 1.72 1.593 4.47 1.42 6.15-.387 1.67-1.806 1.64-4.562-.08-6.154z" stroke-width="1.25"/>
    <path d="M649.314 99.028c-1.72-1.592-4.47-1.42-6.142.388-1.673 1.806-1.634 4.56.084 6.153 1.72 1.59 4.47 1.41 6.143-.39 1.67-1.81 1.63-4.56-.09-6.16zm86.764-3.65c-.49-2.293-2.478-3.81-4.438-3.39-1.962.42-3.153 2.617-2.662 4.91.492 2.29 2.48 3.81 4.44 3.39 1.96-.42 3.152-2.62 2.66-4.91z" stroke-width=".938"/>
    <path d="M719.828 101.018c-.49-2.293-2.478-3.81-4.438-3.39-1.962.42-3.153 2.618-2.662 4.91.492 2.292 2.48 3.81 4.44 3.39 1.96-.42 3.152-2.618 2.66-4.91zm-17.318 4.22c-.492-2.293-2.48-3.81-4.44-3.39-1.96.42-3.152 2.62-2.66 4.91.49 2.292 2.478 3.81 4.438 3.39 1.96-.42 3.152-2.62 2.66-4.91zm-17.965 2.332c-.492-2.292-2.654-3.772-4.832-3.306-2.177.466-3.545 2.702-3.053 4.994.49 2.292 2.653 3.772 4.83 3.305 2.178-.467 3.546-2.702 3.055-4.994z" stroke-width="1.25"/>
    <path d="M751.654 87.783c-.542-2.53-2.57-4.24-4.53-3.82-1.962.42-3.112 2.81-2.57 5.34.543 2.532 2.572 4.243 4.532 3.823 1.96-.42 3.11-2.813 2.568-5.343zm14.054-8.85c-.562-2.626-2.607-4.416-4.568-3.996-1.96.42-3.094 2.89-2.53 5.516.56 2.628 2.606 4.416 4.567 3.996 1.96-.42 3.094-2.89 2.53-5.52z" stroke-width=".938"/>
    <path d="M777.977 69.002c-.526-2.46-2.428-4.137-4.246-3.747-1.81.39-2.86 2.7-2.33 5.157.53 2.458 2.43 4.136 4.25 3.746 1.82-.39 2.87-2.698 2.34-5.156zm16.913-22.097c-.547-2.548-1.812-4.438-2.826-4.222-1.015.217-1.395 2.46-.848 5.01.546 2.55 1.81 4.44 2.824 4.22 1.016-.216 1.396-2.46.85-5.008zm-7.28 11.072c-.49-2.292-1.71-3.973-2.725-3.756-1.015.22-1.44 2.26-.948 4.55.49 2.29 1.71 3.98 2.726 3.76 1.014-.21 1.44-2.25.947-4.54zm-218.5-3.167c0 .777-.63 1.408-1.407 1.408-.778 0-1.408-.63-1.408-1.41 0-.776.63-1.408 1.408-1.408.778 0 1.408.632 1.408 1.41zm-2.815 8.216c0 .777-.63 1.41-1.41 1.41-.776 0-1.406-.633-1.406-1.41 0-.778.63-1.41 1.4-1.41.78 0 1.41.632 1.41 1.41zm19.985 1.408c0 .777-.63 1.41-1.41 1.41-.776 0-1.406-.633-1.406-1.41 0-.778.63-1.41 1.407-1.41.78 0 1.41.632 1.41 1.41zm-2.817 9.574c0 .777-.63 1.41-1.408 1.41-.778-.002-1.408-.633-1.408-1.41 0-.778.63-1.41 1.408-1.41.778 0 1.408.632 1.408 1.41zm20.51 1.408c0 .778-.63 1.41-1.41 1.41-.775 0-1.405-.632-1.405-1.41 0-.778.63-1.41 1.407-1.41.78 0 1.41.632 1.41 1.41zm-2.843 9.508c0 .777-.63 1.408-1.41 1.408-.778 0-1.408-.63-1.408-1.408 0-.778.63-1.41 1.408-1.41.78 0 1.41.632 1.41 1.41zm19.753 1.408c0 .777-.63 1.41-1.41 1.41-.776 0-1.406-.633-1.406-1.41 0-.778.63-1.41 1.407-1.41.78 0 1.41.632 1.41 1.41z" stroke-width=".625"/>
    <path d="M618.067 96.137c0 .777-.63 1.41-1.41 1.41-.777 0-1.407-.633-1.407-1.41 0-.778.63-1.41 1.408-1.41.78 0 1.41.632 1.41 1.41zm20.043 0c0 .777-.63 1.41-1.41 1.41-.777 0-1.407-.633-1.407-1.41 0-.778.63-1.41 1.407-1.41.78 0 1.41.632 1.41 1.41zm-1.41 8.218c0 .777-.63 1.408-1.408 1.408-.777 0-1.407-.63-1.407-1.408 0-.778.63-1.41 1.407-1.41.78 0 1.41.632 1.41 1.41z" stroke-width=".938"/>
    <path d="M655.32 101.778c0 .777-.63 1.41-1.41 1.41-.777 0-1.407-.633-1.407-1.41 0-.778.63-1.41 1.407-1.41.78 0 1.41.632 1.41 1.41zm0 9.462c0 .778-.63 1.41-1.41 1.41-.777 0-1.407-.632-1.407-1.41 0-.777.63-1.408 1.407-1.408.78 0 1.41.63 1.41 1.41zm17.18-5.444c-.02.777-.663 1.393-1.44 1.374-.778-.017-1.395-.662-1.377-1.44.02-.777.663-1.393 1.44-1.374.78.017 1.393.662 1.376 1.44zm1.408 8.857c0 .777-.63 1.408-1.41 1.408-.777 0-1.407-.63-1.407-1.4 0-.78.63-1.41 1.41-1.41.78 0 1.41.63 1.41 1.41zm16.784-8.89c0 .777-.63 1.41-1.41 1.41-.777 0-1.407-.633-1.407-1.41 0-.778.63-1.41 1.408-1.41.78 0 1.41.632 1.41 1.41zm1.408 8.89c0 .777-.63 1.408-1.41 1.408-.776 0-1.406-.63-1.406-1.4 0-.78.63-1.41 1.407-1.41.78 0 1.41.63 1.41 1.41z" stroke-width="1.25"/>
    <path d="M707.28 100.37c0 .777-.63 1.408-1.41 1.408-.777 0-1.407-.63-1.407-1.408 0-.778.63-1.41 1.407-1.41.78 0 1.41.632 1.41 1.41z" stroke-width=".625"/>
    <path d="M710.096 110.217c0 .778-.63 1.41-1.41 1.41-.777 0-1.407-.632-1.407-1.41 0-.777.63-1.408 1.4-1.408.78 0 1.41.63 1.41 1.4z" stroke-width="1.25"/>
    <path d="M724.503 96.137c0 .777-.63 1.41-1.41 1.41-.776 0-1.406-.633-1.406-1.41 0-.778.63-1.41 1.407-1.41.78 0 1.41.632 1.41 1.41z" stroke-width=".625"/>
    <path d="M727.32 105.763c0 .777-.63 1.41-1.41 1.41-.777 0-1.407-.633-1.407-1.41 0-.778.63-1.41 1.408-1.41.78 0 1.41.632 1.41 1.41z" stroke-width="1.25"/>
    <path d="M739.803 88.944c0 .778-.63 1.41-1.41 1.41-.776 0-1.406-.632-1.406-1.41 0-.777.63-1.408 1.407-1.408.78 0 1.41.63 1.41 1.408zm4.617 8.996c0 .776-.63 1.407-1.41 1.407-.776 0-1.406-.63-1.406-1.408 0-.78.63-1.41 1.407-1.41.78 0 1.41.63 1.41 1.41z" stroke-width=".938"/>
    <path d="M755.408 81.296c0 .778-.63 1.41-1.41 1.41-.776 0-1.406-.632-1.406-1.41 0-.777.63-1.41 1.408-1.41.778 0 1.408.633 1.408 1.41z" stroke-width=".625"/>
    <path d="M759.633 90.353c0 .777-.63 1.408-1.41 1.408-.776 0-1.406-.63-1.406-1.4 0-.78.63-1.41 1.407-1.41.78 0 1.41.63 1.41 1.41zm9.037-17.547c0 .778-.63 1.41-1.41 1.41-.777 0-1.407-.632-1.407-1.41 0-.777.63-1.408 1.407-1.408.78 0 1.41.63 1.41 1.408z" stroke-width=".938"/>
    <path d="M774.072 81.296c0 .778-.63 1.41-1.41 1.41-.777 0-1.407-.632-1.407-1.41 0-.777.63-1.41 1.408-1.41.78 0 1.41.633 1.41 1.41zm5.448-19.353c0 .777-.63 1.408-1.408 1.408-.777 0-1.407-.63-1.407-1.4 0-.78.63-1.41 1.407-1.41.78 0 1.41.63 1.41 1.41zm5.62 7.764c0 .777-.63 1.41-1.408 1.41-.777-.002-1.407-.633-1.407-1.41 0-.778.63-1.41 1.407-1.41.78 0 1.41.632 1.41 1.41zm4.083-19.184c0 .778-.63 1.41-1.41 1.41-.776 0-1.406-.632-1.406-1.41 0-.777.63-1.41 1.407-1.41.78 0 1.41.633 1.41 1.41zm-261.325-5.307s-62.664 76.29-88.524 137.307c-25.86 61.017-139.243 132.553-240.317 131.65 0 0-150.455 24.168-183.29-13.21" stroke-width=".625"/>
    <path d="M12.585 340s43.31 25.6 216.426 23.725c173.12-1.875 193.83-19.375 193.83-19.375s97.03-67.237 136.91-69.243c0 0 149.89-21.908 176.45-25.395 26.56-3.487 65.97-13.692 79.7-30.152M304 184.492s-17.59 16.393-4.103 22.5c13.49 6.108 48.233 21.092 53.05 20.475 4.814-.617-65.606 71.517-289.146 47.324 0 0-21.97-3.87-8.69-14.97" stroke-width=".625"/>
    <path d="M804.833 238.192s15.773 43.365 4.762 78.928" stroke-width="1.25"/>
    <path d="M642.943 277.04v67.764M509 267.684s-97.624 49.96-98.604 88.522" stroke-width=".625"/>
    <path d="M431.42 196.992s55.135-6.6 98.545-22.745c43.41-16.147 96.93-9.69 103.92-5.73 6.99 3.958 155.414 32.083 185.264-55.105M789.22 30.81s43.3 144.35-6.9 207.383" stroke-width=".938"/>
    <path d="M501.827 10.39s38.154 14.34 48.898 21.003c10.743 6.662 36.545 26.477 40.28 26.832 0 0 34.457 27.28 68.802 30.72 0 0 34.606 5.443 69.06-7.648 0 0 39.764-17.493 50.654-38.63 10.89-21.14 5.62-24.245 5.62-24.245" stroke-width="1.25"/>
    <path d="M713.22 26.723s45.924-9.288 66.3 6.99M23.92 353.557l-11.335 7.06m145.165 9.438l20.104 7.42m33.02-7.42l22.236 7.42m-5.36-7.42l20 7.42m15.658-8.81s114.03 12.48 152.467-13.885m210.725-52.8l10.525 15.14m-18.595-13.603l18.595 16.145" stroke-width=".938"/>
    <path d="M610.875 304.975l26.25 26.875s44.81 9.14 85.842 5.402m-200.634-54.646s33.542-14.042 40.73-29.43c0 0 2.812 24.055 12.5 23.864 9.687-.19 48.827-16.627 68.788-7.002" stroke-width=".625"/>
    <path d="M7.67 358.392s-3.28 8.084.587 20.146m9.995-16.358s-2.282 11.982 4.44 21.763m61.132-7.973s.078 16.766 2.627 21.218m550.68-55.546s85.21-5 111.46-12.084c26.25-7.083 38.54-.833 71.04-24.583M138.15 236.88s.665.028 1.87.07" stroke-width="1.25"/>
    <path d="M143.777 237.067c12.45.35 42.468.84 58.218-1.937" stroke-width="1.25" stroke-dasharray="3.762 3.762"/>
    <path d="M203.847 234.774c.64-.134 1.248-.275 1.824-.423 0 0-.66.26-1.71.74" stroke-width="1.25"/>
    <path d="M200.632 236.833c-5.22 3.08-12.118 8.925-8.3 16.94 5.835 12.244 44.877 30.282 44.877 30.282s37.42 12.48 75.64 7.637c0 0 58.09-3.447 103.01-12.494 0 0 44.06-5.57 61.09 0 16.11 5.27 26.94 5.366 24.23 25.916" stroke-width="1.25" stroke-dasharray="3.754 3.754"/>
    <path d="M500.927 306.98c-.096.6-.204 1.216-.32 1.848" stroke-width="1.25"/>
    <path d="M197.438 232.124l26.978-5.274s-18.99 20.36-11.89 25.494c0 0 5.224 12.89 36.786 16.98 31.563 4.088 87.435 3.158 111.166-1.845 0 0 67.584-11.54 91.022-7.02 0 0 54.375-7.52 65.625 23.97v16.31" stroke-width="1.25" stroke-dasharray="3.75"/>
    <path d="M304.53 266.878s147.807-16.598 158.638-13.105c0 0 62.274-1.706 59.26 45.27" stroke-width=".625" stroke-dasharray="3.75"/>
    <path d="M277.875 182.523s19.51-6.71 38.234 4.225c18.72 10.935 77.12 36.574 77.12 36.574s32.24 16.97 75.57 0c43.33-16.97 120.13-25.543 120.13-25.543s48.27-7.04 55.42 35.08c0 0 .9 27.44-7.23 39.46" stroke-width="1.25" stroke-dasharray="3.75"/>
    <path d="M297.07 166.74s21.94-3.875 51.1 13.326c29.163 17.2 62.226 24.878 62.226 24.878s30.636 12.017 126.08-19.29c0 0 55.222-14.77 90.124-1.16 0 0 39.557 14.026 34.52 49.857l-4.488 33.54" stroke-width="1.25" stroke-dasharray="3.75"/>
    <path d="M449.925 201.97s126.02-30.39 138.658-28.754c12.64 1.638 58.02-2.116 74.01 37.01 0 0 9.01 24.594 0 57.9m-180.298-75.848l-37.133-30.018s-27.335-22.375-2.817-53.846c0 0 62.768-58.535 77.262-63.198 0 0 90.576 56.14 99.8 58.96 0 0 44.7 23.153 87.872 14.57 0 0 51.97-14.042 70.83-35.142s22.55-36.264 22.55-36.264M504.05 3.77s16.328-.49 27.256 15.15" stroke-width="1.25" stroke-dasharray="3.75"/>
  </g>
</svg>
