<svg xmlns="http://www.w3.org/2000/svg" viewBox="0 0 676.28 429.71"><defs><style>.cls-1,.cls-2,.cls-3,.cls-4,.cls-5,.cls-6,.cls-7,.cls-8{fill:none;stroke:#000;stroke-miterlimit:10;}.cls-2,.cls-7{stroke-width:0.5px;}.cls-3,.cls-5,.cls-6,.cls-8{stroke-width:0.75px;}.cls-4{stroke-width:0.25px;}.cls-5{stroke-dasharray:1.99 1.99;}.cls-6{stroke-dasharray:2;}.cls-7{stroke-dasharray:1;}.cls-8{stroke-dasharray:4;}</style></defs><title>Ресурс 2</title><g id="Слой_2" data-name="Слой 2"><g id="Слой_2-2" data-name="Слой 2"><path class="cls-1" d="M551.83,259.46s10.59-22.63-12.79-48.12c-25.73-28.05-67.48,3-73.55,0S387.4,253,387.4,253s-28.81-34.88-62.93-69-9.86-54.59-9.86-54.59l66.72-78.1s32.6-28.81,65.21,0,54.59,41.7,90.23,44.73,89.47-66,89.47-66S637.61-9.3,565.58,18.76,448.8,53.35,448.8,53.35"/><path class="cls-2" d="M213.27,172.17S228.43,155.49,237,154s31.85-8.09,36.14-9.6,29.57-8.59,50.8-48.53l40.94-54.09s29.82-39.43-4-21.23L340.65,39.74S254.21,127,243.09,135.41,205.68,159,205.68,178.74"/><path class="cls-1" d="M210.23,174.76s14.79-31.63,36.9-30.39,39.93-13.14,39.93-13.14,30.83-31.34,37.41-46,40.44-43.47,40.44-43.47"/><path class="cls-1" d="M213.27,172.17s-56.61,49-86.44,59.65S62.13,265.68,50,280.34s-27.3,24.26-24.77,58.13c0,0,15.16,42.46,108.17,42.46s95.54,2.53,209.77-5.05,142-66.72,142-66.72,49.54-47.51,79.87-54.59l61.82-34.37a110.28,110.28,0,0,0,28.16-27.3s13.65-29.32,8.09-75.82S641.91,15.73,641.91,15.73s-10.76-28.93-59.65-7c0,0-120.26,45.21-130.65,44.2"/><path class="cls-1" d="M25.23,338.47s-2,10.11,17.69,23.76,38.77,13.21,38.77,13.21"/><path class="cls-3" d="M22.7,338.47s-7.58,14.15,10.62,26.79,50,20.72,95.54,26.28c0,0,146.59,5.05,202.19-4.55l60.66-5.66s64.2-16.58,81.89-37.81c0,0,68.24-64.2,81.38-66.22l85.43-46s51.14-28.42,18.24-48.58"/><path class="cls-1" d="M23.68,325.45S-5.08,337.84,1.47,357c9.64,28.13,63.69,35.92,63.69,35.92,45,17.5,231,9.29,231,9.29,120.3,0,170.41-42.46,170.41-42.46,37-31.85,89.41-76.83,89.41-76.83l96-52.57c48.53-33.87,7.7-51.56,7.7-51.56"/><path class="cls-3" d="M24.95,327.72S4.16,335.67,7.8,348.61c8.92,31.79,79.77,37.78,81.63,36.77"/><path class="cls-1" d="M.5,353.13v26.54S22.45,412,101,422.38c0,0,101.35,11.88,157.46,4.3l111.84-10.24s74.68-12.89,88.71-29.95c0,0,31.47-19.33,45.11-37.15,0,0,41.7-42.46,70.51-50v29.95s68.24-32.6,80.75-44.36c0,0,15.16-9.86,18.2-22.75l2.15-57.62"/><line class="cls-1" x1="538.9" y1="319.07" x2="574.68" y2="329.25"/><path class="cls-1" d="M657.09,187.62s22.23,23.72-71.79,66.56c0,0-31,9.94-118.72,85.3,0,0-35.67,33.48-108.41,45"/><path class="cls-2" d="M365.65,18.15,253.45,135.41s31.09-24.66,43-18.34c0,0,23.76-35.89,31.59-42.71s33.36-34.12,33.36-34.12,11.88-13.14,11.88-20C373.25,20.28,371.83,14.43,365.65,18.15Z"/><path class="cls-1" d="M283.27,112s-6.57,8.09-9.6,0c0,0,2-7.83,6.07-8.09s23-1,37.41,9.86c0,0,26,11.41,29.57,21.63s-7.08,6.68-7.08,6.68-18.7-21-28.05-22.24C311.58,119.85,292.16,110.51,283.27,112Z"/><path class="cls-1" d="M307.79,81.69S304.5,89.27,300,84c0,0-.29-11.12,10.6-11.37s26.79,3.16,34.16,8.09S366.43,98.12,371,112c0,0-1.52,12.64-10.87,3.54,0,0-2.53-20.47-23.25-29.06C336.85,86.49,314.87,75.12,307.79,81.69Z"/><path class="cls-1" d="M327.25,62s-6.47,2.63-6.14-2.6,8.92-9.27,14.35-6.49c0,0,25.65,9.35,27.42,12.13,0,0,23.5,11.63,27,23,0,0,1.77,12.38-9.1,4.3,0,0-10.11-17.44-28.81-24.26C352,68,339.58,58.38,327.25,62Z"/><path class="cls-1" d="M351.51,35.69s-6.82,8.34-10.11,0,12.13-12.38,12.13-12.38,26.79.51,31.09,6.32c0,0,25.53,13.9,29.32,34.63,0,0,.25,14.15-9.1,6.07,0,0-3-25.78-24.52-33.11C380.33,37.21,349.38,23,351.51,35.69Z"/><path class="cls-2" d="M502.06,200.91s29.78,1,40,32.42c0,0-67.1,53.83-71.65,73.93s-43.75,49.81-43.75,49.81"/><path class="cls-2" d="M540.75,213.06s15.26,14.17,8.78,47.54"/><path class="cls-1" d="M519,280.49s31.83-18.22,34.36-18.72,15.17-7.87,16-9.56"/><path class="cls-1" d="M591.43,239.91s38.07-14.35,53-29.89,11.44-19.1,11.44-19.1"/><path class="cls-3" d="M581.35,13.26s19.49-11,34.65-7.58S630.79,12.5,633.44,21a32.44,32.44,0,0,1-11,13.76"/><path class="cls-2" d="M593,8.2S606.91.37,621.31,2.84s14,12.26,12.13,17.07"/><path class="cls-2" d="M456.51,59.93s88.35-31.06,91.39-31.31,38.67-22,64.45-16.18c0,0,9.2.11,13.93,7.47"/><path class="cls-4" d="M459.5,62.4,539,34.79s65.42-27,70.37-22.88"/><path class="cls-1" d="M358.92,110.66s-4.5,5.91,4.22,9.51,7.83-7.39,7.83-7.39"/><path class="cls-1" d="M336.47,138.7s-1.39,7.31,6.45,6.3,5.59-6.73,4.51-8.59"/><line class="cls-1" x1="317.97" y1="125.53" x2="336.38" y2="139.57"/><path class="cls-2" d="M319.62,126.79s-14.36,13-10.69,25.67,32.22,36.52,33.55,39.81,18.65,27.56,20.67,32.8"/><path class="cls-3" d="M340.27,99.43s-1.73-1.67,4.44,4.38,12.48,10.36,13,11.49"/><path class="cls-3" d="M348.58,95a14.9,14.9,0,0,0,3.32,7.37,48.63,48.63,0,0,0,6.45,6.57"/><path class="cls-3" d="M360.83,75.36s10.65,12.27,12.42,13.28,5.1,0,5.1,0"/><line class="cls-3" x1="360.23" y1="72.58" x2="349.52" y2="84.24"/><line class="cls-3" x1="343.93" y1="90.29" x2="322.9" y2="116.55"/><line class="cls-1" x1="348.58" y1="66.27" x2="340.04" y2="77.65"/><line class="cls-2" x1="333.41" y1="85.48" x2="315.5" y2="111.77"/><path class="cls-2" d="M321.59,61.61s-.79,6.56,4.9,4.67,10.32-6.51,12.46-4.36"/><path class="cls-2" d="M300,82.23s-2.65,5.28,2.65,5.15,7-5.15,7-5.15,9.05-3,11.54,0c0,0,7.42,7.83,1.35,16.42"/><path class="cls-2" d="M304.05,116.61A36.76,36.76,0,0,1,290.22,128"/><line class="cls-1" x1="353.38" y1="59.93" x2="376.2" y2="35.45"/><path class="cls-1" d="M384.62,29.63s17.49-4.57,34.21,9.09"/><path class="cls-2" d="M324.46,81.47s5.15,4,4.13,8.28"/><path class="cls-2" d="M335.46,61.89S341.68,68,339,75.36"/><path class="cls-2" d="M340.94,62.45s4.38,3.78,3.37,6.51"/><path class="cls-2" d="M351.42,34.3s9-3.54,10.91,10.87"/><path class="cls-2" d="M360.83,30.74a9.92,9.92,0,0,1,5.08,9.65"/><path class="cls-3" d="M379.15,89.75s-1.35,7.11,4.71,7.49,7.34-3.31,6.17-7.49"/><path class="cls-3" d="M404.14,66.62s-5.36,5.34,3,7.87,7.46-8.21,7.46-8.21"/><path class="cls-3" d="M385.78,48.06s15.14,20.52,16.66,20.57"/><path class="cls-3" d="M390.43,45.68S399.23,57.15,401,57.23"/><line class="cls-2" x1="355.57" y1="60.89" x2="378.35" y2="36.34"/><path class="cls-2" d="M341.16,76.16s7.09,3.4,17.19-5.27"/><path class="cls-2" d="M342.7,79a14.81,14.81,0,0,0,14.17-2.8"/><line class="cls-2" x1="322.9" y1="100.91" x2="335.74" y2="100.52"/><line class="cls-4" x1="324.05" y1="99.22" x2="336.38" y2="99.22"/><path class="cls-2" d="M325.4,97.24s12.74-2,13.2-.29"/><path class="cls-4" d="M316,111.77s6.36-4.87,11.14-1.55"/><path class="cls-4" d="M316.6,113.39s6.42-4.53,10.13-1.62"/><line class="cls-2" x1="320.39" y1="115.31" x2="325.8" y2="113.39"/><path class="cls-3" d="M287.57,137.65s11.12-12.71,12.38-2.24-9.15,22.35,6.29,39.28,53.86,53.08,53.86,53.08l23.25,24.43,2.68-.8"/><path class="cls-4" d="M219.24,166.12s26.33-14,29-14.72c14.41-3.88,34.89-12.66,34.89-12.66,7.2-1.9,24.6-20.62,24.6-20.62"/><path class="cls-4" d="M244.63,144.37s31.21-4.91,43.56-14.3"/><path class="cls-4" d="M431.44,226.92s-10.46,6-29,22.08S379,257.09,379,257.09s-18.91-29.32-58.63-48.53-32.82-60.15-32.82-60.15c-1.52-6.07-19.21,5.05-24.08,5.05s-50.23,22.46-50.23,22.46L161.2,217.16s-45,37.91-53.08,37.41-46,18.2-46,18.2c-42,35.38-32.35,67.86-32.35,67.86S51,368.36,90,377.24"/><path class="cls-4" d="M424.27,39.54s22.52,11.27,28.08,20.39,50,36.22,72.28,37.33,31.85.65,51.05-13,51.2-50.33,51.2-50.33S640.4,17.4,639.13,11.13"/><path class="cls-4" d="M451.85,72s40,41.13,79.89,36.3S622.31,75.12,644,23.31"/><path class="cls-4" d="M376.2,233.33S477.63,169.64,516,178.74s58.64,32.19,48,73.47"/><path class="cls-4" d="M664.47,131.28s-40.41,75.84-37.58,88.91"/><path class="cls-1" d="M475.69,322.63S518.79,279.86,521,279"/><path class="cls-1" d="M542.94,294.06s81.55-43.54,83.82-45.57,46-18.87,48.78-37.36"/><path class="cls-1" d="M542.08,319.07s27-18.52,30.58-18.26v27.86"/><path class="cls-2" d="M627.28,25.49S576.09,90,547.92,93.32c0,0-26.69,10.95-82.35-26.12,0,0,59.64-25.95,66.18-27.46"/><path class="cls-4" d="M616.89,14s-22.49,5.31-44,31.09S514,88.18,502.22,86.64"/><path class="cls-4" d="M612.34,12.44s-22.49,5.31-44,31.09-58.93,43.14-70.69,41.59"/><line class="cls-4" x1="468.26" y1="68.97" x2="518.07" y2="46.81"/><path class="cls-4" d="M613.66,15s12,3.18,9.36,15.71"/><path class="cls-4" d="M616,15.91s-24.67,19.15-30.55,37.16S543.55,94,522,93.17"/><path class="cls-3" d="M390,33.05l1,0"/><path class="cls-5" d="M393,33.23c4,.34,10.87,1.31,14.18,4"/><path class="cls-3" d="M407.92,37.91a5,5,0,0,1,.6.8"/><line class="cls-6" x1="330.25" y1="118.85" x2="349.79" y2="96.74"/><line class="cls-6" x1="356.28" y1="90.29" x2="368.13" y2="77.65"/><path class="cls-6" d="M372.56,70.57s20.52-23,23.5-21.74"/><path class="cls-7" d="M404.32,47.19s23.27-9.8,47.53,20.94c0,0,29.27,28.65,64.7,33,0,0,50.55,15.25,89.22-37.24,0,0,35.67-35.8,35.27-48.44"/><path class="cls-6" d="M404.32,45.68s23.27-9.8,47.53,20.94c0,0,29.27,28.65,64.7,33,0,0,50.55,15.25,89.22-37.24,0,0,35.67-35.8,35.27-48.44"/><path class="cls-6" d="M448.57,66.62s-59.84,72.45-62.53,82.3,5.41,41.45,15.77,50.8l-35.38,19.71S349.07,186,335.74,178.74c0,0-27.72-32.5-10.9-47.47"/><line class="cls-7" x1="364.03" y1="215.03" x2="398.47" y2="195.86"/><path class="cls-6" d="M381.25,244.71s67.48-42.86,94.44-48.85,53.64-12.82,70.25,8.67,12.82,42,10.8,51.31"/><path class="cls-7" d="M381.94,246.57s81.38-47.1,102.43-48.62,26.07-11.26,54.52,3c0,0,21.89,20.27,16.32,54.91"/><path class="cls-8" d="M397.73,379.67s67.77-26.54,83.94-47.77c0,0,62.23-56,85.2-65.55,0,0,67.27-30.48,78.74-43.5s20.89-22.5,12.13-37.22"/><path class="cls-6" d="M294.56,113.39s-5.79,22.12-31.07,23.84c0,0-29,2-27.72,9.38"/><line class="cls-1" x1="7.37" y1="367.04" x2="5.78" y2="385.48"/><line class="cls-1" x1="25.17" y1="381.34" x2="25.17" y2="399.41"/><line class="cls-1" x1="28.83" y1="382.11" x2="28.83" y2="401.41"/><path class="cls-2" d="M116.72,410.76s124,9.78,168.7,0"/><line class="cls-1" x1="61.37" y1="392.88" x2="64.42" y2="415.1"/><line class="cls-1" x1="77.09" y1="396.3" x2="81.69" y2="419.19"/><line class="cls-1" x1="285.42" y1="402.58" x2="288.89" y2="423.9"/><path class="cls-1" d="M668.74,222.85S670,256.41,661.18,279"/><line class="cls-2" x1="580.09" y1="274.14" x2="580.09" y2="326.63"/><line class="cls-2" x1="584.88" y1="271.56" x2="584.88" y2="322.63"/><path class="cls-8" d="M24.95,331.14s-21.1,4.46-13.81,18.58,31,26.77,55.51,30.16"/><path class="cls-4" d="M529.45,108.65s32.84,5.89,58.37-12.56,49-45.25,49.79-47.27S641.4,40,642.16,45s14.49,35.38,14.07,38.42,7.13,43.1,6.76,50.61"/></g></g></svg>