<?xml version="1.0" encoding="utf-8"?>
<!-- Generator: Adobe Illustrator 21.1.0, SVG Export Plug-In . SVG Version: 6.00 Build 0)  -->
<svg version="1.1" xmlns="http://www.w3.org/2000/svg" xmlns:xlink="http://www.w3.org/1999/xlink" x="0px" y="0px"
	 viewBox="0 0 841.9 595.3" style="enable-background:new 0 0 841.9 595.3;" xml:space="preserve">
<style type="text/css">
	.st0{display:none;}
	.st1{fill:none;stroke:#000000;stroke-miterlimit:10;}
	.st2{fill:none;stroke:#000000;stroke-width:0.5;stroke-miterlimit:10;}
	.st3{fill:none;stroke:#000000;stroke-width:0.75;stroke-miterlimit:10;}
	.st4{fill:none;stroke:#000000;stroke-width:0.25;stroke-miterlimit:10;}
	.st5{fill:none;stroke:#000000;stroke-width:0.75;stroke-miterlimit:10;stroke-dasharray:1.9873,1.9873;}
	.st6{fill:none;stroke:#000000;stroke-width:0.75;stroke-miterlimit:10;stroke-dasharray:2;}
	.st7{fill:none;stroke:#000000;stroke-width:0.5;stroke-miterlimit:10;stroke-dasharray:1;}
	.st8{fill:none;stroke:#000000;stroke-width:0.75;stroke-miterlimit:10;stroke-dasharray:4;}
</style>
<g id="Слой_1" class="st0">
</g>
<g id="Слой_2">
	<path class="st1" d="M644.6,323.9c0,0,10.6-22.6-12.8-48.1c-25.7-28.1-67.5,3-73.5,0s-78.1,41.7-78.1,41.7s-28.8-34.9-62.9-69
		s-9.9-54.6-9.9-54.6l66.7-78.1c0,0,32.6-28.8,65.2,0s54.6,41.7,90.2,44.7c35.6,3,89.5-66,89.5-66s11.4-39.4-60.7-11.4
		s-116.8,34.6-116.8,34.6"/>
	<path class="st2" d="M306,236.6c0,0,15.2-16.7,23.8-18.2c8.6-1.5,31.8-8.1,36.1-9.6c4.3-1.5,29.6-8.6,50.8-48.5l40.9-54.1
		c0,0,29.8-39.4-4-21.2l-20.2,19.2c0,0-86.4,87.2-97.6,95.7c-11.1,8.5-37.4,23.6-37.4,43.3"/>
	<path class="st1" d="M303,239.2c0,0,14.8-31.6,36.9-30.4c22.1,1.2,39.9-13.1,39.9-13.1s30.8-31.3,37.4-46
		c6.6-14.7,40.4-43.5,40.4-43.5"/>
	<path class="st1" d="M306,236.6c0,0-56.6,49-86.4,59.6s-64.7,33.9-76.8,48.5c-12.1,14.7-27.3,24.3-24.8,58.1
		c0,0,15.2,42.5,108.2,42.5s95.5,2.5,209.8-5.1s142-66.7,142-66.7s49.5-47.5,79.9-54.6l61.8-34.4c0,0,15.5-9.6,28.2-27.3
		c0,0,13.6-29.3,8.1-75.8S734.7,80.2,734.7,80.2s-10.8-28.9-59.6-7c0,0-120.3,45.2-130.6,44.2"/>
	<path class="st1" d="M118,402.9c0,0-2,10.1,17.7,23.8s38.8,13.2,38.8,13.2"/>
	<path class="st3" d="M115.4,402.9c0,0-7.6,14.2,10.6,26.8s50,20.7,95.5,26.3c0,0,146.6,5.1,202.2-4.5l60.7-5.7
		c0,0,64.2-16.6,81.9-37.8c0,0,68.2-64.2,81.4-66.2l85.4-46c0,0,51.1-28.4,18.2-48.6"/>
	<path class="st1" d="M116.4,389.9c0,0-28.8,12.4-22.2,31.5c9.6,28.1,63.7,35.9,63.7,35.9c45,17.5,231,9.3,231,9.3
		c120.3,0,170.4-42.5,170.4-42.5c37-31.8,89.4-76.8,89.4-76.8l96-52.6c48.5-33.9,7.7-51.6,7.7-51.6"/>
	<path class="st3" d="M117.7,392.2c0,0-20.8,7.9-17.2,20.9c8.9,31.8,79.8,37.8,81.6,36.8"/>
	<path class="st1" d="M93.2,417.6v26.5c0,0,21.9,32.4,100.5,42.7c0,0,101.3,11.9,157.5,4.3l111.8-10.2c0,0,74.7-12.9,88.7-29.9
		c0,0,31.5-19.3,45.1-37.2c0,0,41.7-42.5,70.5-50v29.9c0,0,68.2-32.6,80.8-44.4c0,0,15.2-9.9,18.2-22.7l2.2-57.6"/>
	<line class="st1" x1="631.6" y1="383.5" x2="667.4" y2="393.7"/>
	<path class="st1" d="M749.8,252.1c0,0,22.2,23.7-71.8,66.6c0,0-31,9.9-118.7,85.3c0,0-35.7,33.5-108.4,45"/>
	<path class="st2" d="M458.4,82.6L346.2,199.9c0,0,31.1-24.7,43-18.3c0,0,23.8-35.9,31.6-42.7s33.4-34.1,33.4-34.1
		s11.9-13.1,11.9-20C466,84.7,464.6,78.9,458.4,82.6z"/>
	<path class="st1" d="M376,176.5c0,0-6.6,8.1-9.6,0c0,0,2-7.8,6.1-8.1s23-1,37.4,9.9c0,0,26,11.4,29.6,21.6
		c3.5,10.2-7.1,6.7-7.1,6.7s-18.7-21-28.1-22.2C404.3,184.3,384.9,175,376,176.5z"/>
	<path class="st1" d="M400.5,146.2c0,0-3.3,7.6-7.8,2.3c0,0-0.3-11.1,10.6-11.4c10.9-0.3,26.8,3.2,34.2,8.1
		c7.4,4.9,21.7,17.4,26.3,31.3c0,0-1.5,12.6-10.9,3.5c0,0-2.5-20.5-23.3-29.1C429.6,151,407.6,139.6,400.5,146.2z"/>
	<path class="st1" d="M420,126.5c0,0-6.5,2.6-6.1-2.6c0.3-5.2,8.9-9.3,14.4-6.5c0,0,25.7,9.4,27.4,12.1c0,0,23.5,11.6,27,23
		c0,0,1.8,12.4-9.1,4.3c0,0-10.1-17.4-28.8-24.3C444.8,132.5,432.3,122.9,420,126.5z"/>
	<path class="st1" d="M444.3,100.2c0,0-6.8,8.3-10.1,0s12.1-12.4,12.1-12.4s26.8,0.5,31.1,6.3c0,0,25.5,13.9,29.3,34.6
		c0,0,0.3,14.2-9.1,6.1c0,0-3-25.8-24.5-33.1C473.1,101.7,442.1,87.4,444.3,100.2z"/>
	<path class="st2" d="M594.8,265.4c0,0,29.8,1,40,32.4c0,0-67.1,53.8-71.7,73.9s-43.7,49.8-43.7,49.8"/>
	<path class="st2" d="M633.5,277.5c0,0,15.3,14.2,8.8,47.5"/>
	<path class="st1" d="M611.7,345c0,0,31.8-18.2,34.4-18.7c2.5-0.5,15.2-7.9,16-9.6"/>
	<path class="st1" d="M684.2,304.4c0,0,38.1-14.3,53-29.9c14.9-15.5,11.4-19.1,11.4-19.1"/>
	<path class="st3" d="M674.1,77.7c0,0,19.5-11,34.7-7.6s14.8,6.8,17.4,15.4c0,0-3,8.2-11,13.8"/>
	<path class="st2" d="M685.7,72.7c0,0,13.9-7.8,28.3-5.4s14,12.3,12.1,17.1"/>
	<path class="st2" d="M549.3,124.4c0,0,88.4-31.1,91.4-31.3s38.7-22,64.4-16.2c0,0,9.2,0.1,13.9,7.5"/>
	<path class="st4" d="M552.2,126.9l79.5-27.6c0,0,65.4-27,70.4-22.9"/>
	<path class="st1" d="M451.7,175.1c0,0-4.5,5.9,4.2,9.5c8.7,3.6,7.8-7.4,7.8-7.4"/>
	<path class="st1" d="M429.2,203.2c0,0-1.4,7.3,6.4,6.3s5.6-6.7,4.5-8.6"/>
	<line class="st1" x1="410.7" y1="190" x2="429.1" y2="204"/>
	<path class="st2" d="M412.4,191.3c0,0-14.4,13-10.7,25.7s32.2,36.5,33.6,39.8c1.3,3.3,18.7,27.6,20.7,32.8"/>
	<path class="st3" d="M433,163.9c0,0-1.7-1.7,4.4,4.4s12.5,10.4,13,11.5"/>
	<path class="st3" d="M441.3,159.5c0,0,0.3,3.6,3.3,7.4c3,3.8,6.5,6.6,6.5,6.6"/>
	<path class="st3" d="M453.6,139.8c0,0,10.6,12.3,12.4,13.3c1.8,1,5.1,0,5.1,0"/>
	<line class="st3" x1="453" y1="137.1" x2="442.3" y2="148.7"/>
	<line class="st3" x1="436.7" y1="154.8" x2="415.6" y2="181"/>
	<line class="st1" x1="441.3" y1="130.7" x2="432.8" y2="142.1"/>
	<line class="st2" x1="426.2" y1="150" x2="408.2" y2="176.2"/>
	<path class="st2" d="M414.3,126.1c0,0-0.8,6.6,4.9,4.7s10.3-6.5,12.5-4.4"/>
	<path class="st2" d="M392.7,146.7c0,0-2.7,5.3,2.7,5.2c5.3-0.1,7-5.2,7-5.2s9.1-3,11.5,0c0,0,7.4,7.8,1.4,16.4"/>
	<path class="st2" d="M396.8,181.1c0,0-4.5,6.8-13.8,11.3"/>
	<line class="st1" x1="446.1" y1="124.4" x2="468.9" y2="99.9"/>
	<path class="st1" d="M477.4,94.1c0,0,17.5-4.6,34.2,9.1"/>
	<path class="st2" d="M417.2,145.9c0,0,5.1,4,4.1,8.3"/>
	<path class="st2" d="M428.2,126.4c0,0,6.2,6.1,3.5,13.5"/>
	<path class="st2" d="M433.7,126.9c0,0,4.4,3.8,3.4,6.5"/>
	<path class="st2" d="M444.2,98.8c0,0,9-3.5,10.9,10.9"/>
	<path class="st2" d="M453.6,95.2c0,0,5.7,2.9,5.1,9.7"/>
	<path class="st3" d="M471.9,154.2c0,0-1.4,7.1,4.7,7.5c6.1,0.4,7.3-3.3,6.2-7.5"/>
	<path class="st3" d="M496.9,131.1c0,0-5.4,5.3,3,7.9c8.3,2.5,7.5-8.2,7.5-8.2"/>
	<path class="st3" d="M478.5,112.5c0,0,15.1,20.5,16.7,20.6"/>
	<path class="st3" d="M483.2,110.1c0,0,8.8,11.5,10.5,11.6"/>
	<line class="st2" x1="448.3" y1="125.4" x2="471.1" y2="100.8"/>
	<path class="st2" d="M433.9,140.6c0,0,7.1,3.4,17.2-5.3"/>
	<path class="st2" d="M435.4,143.5c0,0,7.4,2.9,14.2-2.8"/>
	<line class="st2" x1="415.6" y1="165.4" x2="428.5" y2="165"/>
	<line class="st4" x1="416.8" y1="163.7" x2="429.1" y2="163.7"/>
	<path class="st2" d="M418.1,161.7c0,0,12.7-2,13.2-0.3"/>
	<path class="st4" d="M408.8,176.2c0,0,6.4-4.9,11.1-1.5"/>
	<path class="st4" d="M409.3,177.9c0,0,6.4-4.5,10.1-1.6"/>
	<line class="st2" x1="413.1" y1="179.8" x2="418.5" y2="177.9"/>
	<path class="st3" d="M380.3,202.1c0,0,11.1-12.7,12.4-2.2c1.3,10.5-9.1,22.4,6.3,39.3s53.9,53.1,53.9,53.1l23.3,24.4l2.7-0.8"/>
	<path class="st4" d="M312,230.6c0,0,26.3-14,29-14.7c14.4-3.9,34.9-12.7,34.9-12.7c7.2-1.9,24.6-20.6,24.6-20.6"/>
	<path class="st4" d="M337.4,208.8c0,0,31.2-4.9,43.6-14.3"/>
	<path class="st4" d="M524.2,291.4c0,0-10.5,6-29,22.1c-18.5,16.1-23.4,8.1-23.4,8.1s-18.9-29.3-58.6-48.5s-32.8-60.2-32.8-60.2
		c-1.5-6.1-19.2,5.1-24.1,5.1c-4.9,0-50.2,22.5-50.2,22.5l-52.1,41.2c0,0-45,37.9-53.1,37.4c-8.1-0.5-46,18.2-46,18.2
		c-42,35.4-32.4,67.9-32.4,67.9s21.2,27.7,60.3,36.6"/>
	<path class="st4" d="M517,104c0,0,22.5,11.3,28.1,20.4c5.6,9.1,50,36.2,72.3,37.3c22.2,1.1,31.8,0.7,51.1-13
		c19.2-13.7,51.2-50.3,51.2-50.3s13.5-16.5,12.2-22.8"/>
	<path class="st4" d="M544.6,136.4c0,0,40,41.1,79.9,36.3c39.9-4.8,90.6-33.1,112.2-84.9"/>
	<path class="st4" d="M468.9,297.8c0,0,101.4-63.7,139.8-54.6c38.4,9.1,58.6,32.2,48,73.5"/>
	<path class="st4" d="M757.2,195.8c0,0-40.4,75.8-37.6,88.9"/>
	<path class="st1" d="M568.4,387.1c0,0,43.1-42.8,45.3-43.6"/>
	<path class="st1" d="M635.7,358.5c0,0,81.6-43.5,83.8-45.6c2.3-2,46-18.9,48.8-37.4"/>
	<path class="st1" d="M634.8,383.5c0,0,27-18.5,30.6-18.3v27.9"/>
	<path class="st2" d="M720,90c0,0-51.2,64.5-79.4,67.8c0,0-26.7,10.9-82.4-26.1c0,0,59.6-25.9,66.2-27.5"/>
	<path class="st4" d="M709.6,78.4c0,0-22.5,5.3-44,31.1s-58.9,43.1-70.7,41.6"/>
	<path class="st4" d="M705.1,76.9c0,0-22.5,5.3-44,31.1s-58.9,43.1-70.7,41.6"/>
	<line class="st4" x1="561" y1="133.4" x2="610.8" y2="111.3"/>
	<path class="st4" d="M706.4,79.4c0,0,12,3.2,9.4,15.7"/>
	<path class="st4" d="M708.8,80.4c0,0-24.7,19.1-30.5,37.2c-5.9,18-41.9,41-63.5,40.1"/>
	<g>
		<g>
			<path class="st3" d="M482.8,97.5c0,0,0.4,0,1,0"/>
			<path class="st5" d="M485.8,97.7c4,0.3,10.9,1.3,14.2,4"/>
			<path class="st3" d="M500.7,102.4c0.2,0.3,0.4,0.5,0.6,0.8"/>
		</g>
	</g>
	<line class="st6" x1="423" y1="183.3" x2="442.5" y2="161.2"/>
	<line class="st6" x1="449" y1="154.8" x2="460.9" y2="142.1"/>
	<path class="st6" d="M465.3,135c0,0,20.5-23,23.5-21.7"/>
	<path class="st7" d="M497.1,111.7c0,0,23.3-9.8,47.5,20.9c0,0,29.3,28.6,64.7,33c0,0,50.5,15.2,89.2-37.2c0,0,35.7-35.8,35.3-48.4"
		/>
	<path class="st6" d="M497.1,110.1c0,0,23.3-9.8,47.5,20.9c0,0,29.3,28.6,64.7,33c0,0,50.5,15.2,89.2-37.2c0,0,35.7-35.8,35.3-48.4"
		/>
	<path class="st6" d="M541.3,131.1c0,0-59.8,72.4-62.5,82.3c-2.7,9.9,5.4,41.4,15.8,50.8l-35.4,19.7c0,0-17.4-33.4-30.7-40.7
		c0,0-27.7-32.5-10.9-47.5"/>
	<line class="st7" x1="456.8" y1="279.5" x2="491.2" y2="260.3"/>
	<path class="st6" d="M474,309.2c0,0,67.5-42.9,94.4-48.9c27-6,53.6-12.8,70.2,8.7c16.6,21.5,12.8,42,10.8,51.3"/>
	<path class="st7" d="M474.7,311c0,0,81.4-47.1,102.4-48.6c21.1-1.5,26.1-11.3,54.5,3c0,0,21.9,20.3,16.3,54.9"/>
	<path class="st8" d="M490.5,444.1c0,0,67.8-26.5,83.9-47.8c0,0,62.2-56,85.2-65.6c0,0,67.3-30.5,78.7-43.5
		c11.5-13,20.9-22.5,12.1-37.2"/>
	<path class="st6" d="M387.3,177.9c0,0-5.8,22.1-31.1,23.8c0,0-29,2-27.7,9.4"/>
	<line class="st1" x1="100.1" y1="431.5" x2="98.5" y2="450"/>
	<line class="st1" x1="117.9" y1="445.8" x2="117.9" y2="463.9"/>
	<line class="st1" x1="121.6" y1="446.6" x2="121.6" y2="465.9"/>
	<path class="st2" d="M209.5,475.2c0,0,124,9.8,168.7,0"/>
	<line class="st1" x1="154.1" y1="457.4" x2="157.2" y2="479.6"/>
	<line class="st1" x1="169.8" y1="460.8" x2="174.4" y2="483.7"/>
	<line class="st1" x1="378.2" y1="467.1" x2="381.6" y2="488.4"/>
	<path class="st1" d="M761.5,287.3c0,0,1.2,33.6-7.6,56.1"/>
	<line class="st2" x1="672.8" y1="338.6" x2="672.8" y2="391.1"/>
	<line class="st2" x1="677.6" y1="336" x2="677.6" y2="387.1"/>
	<path class="st8" d="M117.7,395.6c0,0-21.1,4.5-13.8,18.6c7.3,14.1,31,26.8,55.5,30.2"/>
	<path class="st4" d="M622.2,173.1c0,0,32.8,5.9,58.4-12.6s49-45.3,49.8-47.3c0.8-2,3.8-8.8,4.5-3.8c0.8,5.1,14.5,35.4,14.1,38.4
		c-0.4,3,7.1,43.1,6.8,50.6"/>
</g>
</svg>
