<svg width="847" height="538" viewBox="0 0 847 538" xmlns="http://www.w3.org/2000/svg">
  <title>
    дерби
  </title>
  <g stroke="#000" fill="none" fill-rule="evenodd">
    <path d="M690.722 324.672s13.24-28.29-15.982-60.148c-32.168-35.068-84.353 3.792-91.934 0-7.582-3.79-97.62 52.128-97.62 52.128s-36.016-43.598-78.666-86.248c-42.65-42.65-12.32-68.238-12.32-68.238l83.404-97.622s40.753-36.015 81.507 0c40.76 36.017 68.24 52.128 112.79 55.92 44.55 3.79 111.84-82.457 111.84-82.457s14.21-49.284-75.83-14.217c-90.03 35.07-145.97 43.235-145.97 43.235" stroke-width="1.25"/>
    <path d="M267.514 215.556s18.955-20.85 29.697-22.746c10.75-1.896 39.81-10.11 45.18-12.005 5.37-1.896 36.97-10.74 63.5-60.658l51.18-67.607s37.28-49.284-5.05-26.538l-25.27 24.01S318.7 159.047 304.8 169.61c-13.9 10.562-46.757 29.52-46.757 54.16" stroke-width=".625"/>
    <path d="M263.723 218.79s18.49-39.533 46.125-37.986c27.635 1.55 49.916-16.427 49.916-16.427s38.543-39.175 46.757-57.498c8.22-18.33 50.55-54.34 50.55-54.34" stroke-width="1.25"/>
    <path d="M267.514 215.556s-70.766 61.29-108.046 74.558c-37.28 13.268-80.876 42.334-96.04 60.657-15.165 18.33-34.12 30.33-30.96 72.67 0 0 18.955 53.08 135.215 53.08s119.42 3.16 262.216-6.32c142.79-9.47 177.54-83.4 177.54-83.4s61.92-59.39 99.83-68.24l77.27-42.96s19.4-12 35.19-34.11c0 0 17.06-36.64 10.11-94.77-6.95-58.13-26.54-126.68-26.54-126.68s-13.46-36.16-74.56-8.81c0 0-150.33 56.515-163.31 55.25" stroke-width="1.25"/>
    <path d="M32.467 423.434S29.94 436.07 54.582 453.13c24.642 17.06 48.464 16.508 48.464 16.508" stroke-width="1.25"/>
    <path d="M29.308 423.434s-9.477 17.69 13.27 33.487c22.745 15.8 62.55 25.91 119.417 32.86 0 0 183.237 6.32 252.74-5.68l75.822-7.07s80.244-20.72 102.358-47.26c0 0 85.3-80.24 101.728-82.77l106.78-57.49s63.925-35.53 22.8-60.73" stroke-width=".938"/>
    <path d="M30.538 407.157S-5.42 422.64 2.77 446.537C14.823 481.7 82.384 491.44 82.384 491.44c56.234 21.88 288.754 11.607 288.754 11.607 150.38 0 213.01-53.076 213.01-53.076 46.204-39.8 111.76-96.04 111.76-96.04l120.05-65.71c60.658-42.33 9.626-64.45 9.626-64.45" stroke-width="1.25"/>
    <path d="M32.12 409.995s-25.984 9.93-21.444 26.103c11.155 39.74 99.714 47.224 102.044 45.97" stroke-width=".938"/>
    <path d="M1.557 441.757v33.173s27.435 40.437 125.688 53.39c0 0 126.685 14.85 196.82 5.37l139.796-12.794s93.36-16.112 110.89-37.436c0 0 39.34-24.17 56.4-46.44 0 0 52.13-53.076 88.15-62.554v37.436s85.29-40.752 100.93-55.442c0 0 18.96-12.33 22.75-28.44l2.69-72.03M674.56 399.18l44.727 12.723" stroke-width="1.25"/>
    <path d="M822.29 234.87s27.787 29.655-89.736 83.204c0 0-38.717 12.42-148.407 106.624 0 0-44.583 41.85-135.51 56.23" stroke-width="1.25"/>
    <path d="M457.99 23.026L317.746 169.61s38.857-30.823 53.706-22.925c0 0 29.697-44.862 39.49-53.392 9.793-8.53 41.702-42.648 41.702-42.648s14.85-16.43 14.85-24.96c0 0-1.77-7.308-9.506-2.66z" stroke-width=".625"/>
    <path d="M355.025 140.366s-8.214 10.11-12.005 0c0 0 2.485-9.793 7.583-10.11 5.096-.316 28.748-1.263 46.756 12.322 0 0 32.54 14.257 36.96 27.032 4.42 12.774-8.85 8.35-8.85 8.35s-23.38-26.22-35.07-27.8c0 0-24.28-11.682-35.39-9.794zm30.645-37.91s-4.108 9.477-9.794 2.843c0 0-.36-13.91 13.246-14.22 13.607-.32 33.488 3.95 42.7 10.11 9.21 6.16 27.14 21.8 32.83 39.17 0 0-1.897 15.79-13.586 4.42 0 0-3.16-25.59-29.065-36.33 0 0-27.48-14.22-36.33-6zm24.326-24.642s-8.087 3.28-7.677-3.257c.41-6.537 11.15-11.592 17.94-8.117 0 0 32.06 11.69 34.28 15.165 0 0 29.38 14.532 33.8 28.75 0 0 2.21 15.48-11.37 5.37 0 0-12.64-21.8-36.02-30.33 0 0-15.55-12.073-30.96-7.58zm30.328-32.856s-8.53 10.425-12.637 0c-4.107-10.425 15.165-15.48 15.165-15.48s33.487.63 38.86 7.897c0 0 31.906 17.376 36.645 43.28 0 0 .316 17.694-11.373 7.584 0 0-3.79-32.23-30.645-41.39 0 0-38.69-17.82-36.02-1.9z" stroke-width="1.25"/>
    <path d="M628.505 251.485s37.23 1.192 50.025 40.525c0 0-83.877 67.29-89.564 92.407-5.686 25.116-54.686 62.26-54.686 62.26m142.59-180.01s19.077 17.72 10.97 59.43" stroke-width=".625"/>
    <path d="M649.637 350.956s39.792-22.773 42.952-23.405c3.15-.63 18.96-9.83 19.98-11.94m27.65-15.37s47.58-17.93 66.25-37.36c18.66-19.43 14.3-23.87 14.3-23.87" stroke-width="1.25"/>
    <path d="M727.623 16.913s24.36-13.737 43.315-9.472c18.955 4.27 18.482 8.53 21.8 19.2 0 0-3.782 10.23-13.738 17.2" stroke-width=".938"/>
    <path d="M742.138 10.59s17.427-9.783 35.435-6.703c18.007 3.08 17.457 15.322 15.163 21.338" stroke-width=".625"/>
    <path d="M571.564 75.255s110.442-38.827 114.233-39.143c3.79-.316 48.336-27.485 80.56-20.22 0 0 11.5.133 17.41 9.334" stroke-width=".625"/>
    <path d="M575.31 78.338l99.43-34.51s81.776-33.687 87.96-28.6" stroke-width=".5"/>
    <path d="M449.585 138.66s-5.627 7.393 5.272 11.895c10.9 4.5 9.793-9.24 9.793-9.24m-43.126 32.405s-1.735 9.14 8.06 7.875c9.793-1.264 6.987-8.413 5.64-10.74m-36.83-13.6l23.01 17.547" stroke-width="1.25"/>
    <path d="M400.458 158.828s-17.948 16.29-13.366 32.087c4.58 15.796 40.28 45.65 41.937 49.757 1.66 4.108 23.31 34.45 25.83 41" stroke-width=".625"/>
    <path d="M426.266 124.633s-2.16-2.09 5.555 5.48c7.72 7.568 15.6 12.945 16.32 14.36m-11.48-25.323s.36 4.472 4.15 9.21c3.79 4.74 8.07 8.216 8.07 8.216m3.11-42.03s13.31 15.334 15.52 16.6c2.22 1.262 6.38 0 6.38 0m-22.65-20.08l-13.39 14.58m-6.99 7.564l-26.29 32.818" stroke-width=".938"/>
    <path d="M436.653 83.184L425.988 97.4" stroke-width="1.25"/>
    <path d="M417.7 107.195l-22.395 32.856m7.62-62.7s-.986 8.21 6.123 5.84c7.108-2.37 12.895-8.14 15.575-5.45m-48.748 25.4s-3.316 6.6 3.32 6.44c6.632-.16 8.686-6.44 8.686-6.44s11.32-3.81 14.43-.02c0 0 9.28 9.78 1.69 20.53m-23 22.49s-5.6 8.51-17.29 14.18" stroke-width=".625"/>
    <path d="M442.663 75.255l28.52-30.597m10.527-7.283s21.857-5.715 42.758 11.36" stroke-width="1.25"/>
    <path d="M406.502 102.177s6.434 4.942 5.158 10.346m8.603-34.813s7.77 7.66 4.36 16.835m2.49-16.135s5.47 4.718 4.208 8.142m8.89-43.342s11.21-4.425 13.64 13.59m-1.87-18.03s7.16 3.58 6.35 12.067" stroke-width=".625"/>
    <path d="M474.87 112.523s-1.69 8.893 5.893 9.364c7.58.47 9.172-4.14 7.715-9.364m17.626-28.91s-6.702 6.68 3.723 9.84 9.32-10.27 9.32-10.27M483.16 60.42s18.928 25.65 20.823 25.71m-15.017-28.69s11.01 14.345 13.17 14.44" stroke-width=".938"/>
    <path d="M445.39 76.45l28.485-30.678M427.38 95.544s8.862 4.25 21.487-6.582M429.31 99.138s9.25 3.584 17.714-3.5m-42.47 30.842l16.05-.486" stroke-width=".625"/>
    <path d="M405.994 124.37h15.41" stroke-width=".5"/>
    <path d="M407.685 121.887s15.928-2.512 16.504-.368" stroke-width=".625"/>
    <path d="M395.976 140.05s7.944-6.08 13.924-1.935m-13.22 3.963s8.022-5.66 12.663-2.028" stroke-width=".5"/>
    <path d="M401.423 144.474l6.756-2.395" stroke-width=".625"/>
    <path d="M360.396 172.41s13.898-15.89 15.478-2.8c1.582 13.09-11.432 27.94 7.87 49.105 19.302 21.167 67.322 66.345 67.322 66.345l29.065 30.542 3.36-.993" stroke-width=".938"/>
    <path d="M274.98 207.994s32.913-17.494 36.28-18.4c18.01-4.845 43.607-15.82 43.607-15.82 9.003-2.37 30.745-25.767 30.745-25.767m-78.896 32.803s39.01-6.14 54.45-17.874m179.064 121.06s-13.07 7.48-36.247 27.6c-23.176 20.122-29.274 10.11-29.274 10.11s-23.65-36.647-73.29-60.657c-49.65-24.01-41.03-75.19-41.03-75.19-1.9-7.59-24.01 6.31-30.1 6.31s-62.78 28.07-62.78 28.07l-65.09 51.54s-56.24 47.39-66.35 46.75c-10.11-.63-57.5 22.74-57.5 22.74-52.44 44.23-40.44 84.83-40.44 84.83s26.49 34.67 75.32 45.77m417.8-422.12s28.154 14.08 35.104 25.49c6.95 11.4 62.552 45.28 90.353 46.66 27.81 1.39 39.81.82 63.82-16.27 24.01-17.09 64.01-62.916 64.01-62.916s16.89-20.625 15.3-28.465" stroke-width=".5"/>
    <path d="M565.746 90.293s49.987 51.41 99.867 45.37c49.88-6.038 113.205-41.422 140.304-106.185M471.183 292.01s126.787-79.613 174.807-68.24c48.02 11.373 73.295 40.235 60.026 91.832M831.523 164.44s-50.518 94.8-46.972 111.142" stroke-width=".5"/>
    <path d="M595.55 403.624s53.865-53.457 56.574-54.543m27.476 18.85s101.94-54.43 104.774-56.95c2.835-2.52 57.515-23.59 60.977-46.7m-166.82 134.9s33.81-23.15 38.23-22.82v34.83" stroke-width="1.25"/>
    <path d="M785.036 32.202S721.04 112.79 685.83 116.99c0 0-33.356 13.685-102.94-32.65 0 0 74.545-32.43 82.724-34.328" stroke-width=".625"/>
    <path d="M772.044 17.788s-28.118 6.634-54.97 38.86c-26.854 32.223-73.658 53.92-88.364 51.99" stroke-width=".5"/>
    <path d="M766.357 15.893s-28.117 6.633-54.97 38.858c-26.853 32.23-73.657 53.93-88.363 52m-36.768-20.19l62.26-27.69M768.01 19.05s15.036 3.974 11.707 19.642" stroke-width=".5"/>
    <path d="M770.978 20.233s-30.843 23.935-38.188 46.444c-7.345 22.51-52.42 51.207-79.404 50.127" stroke-width=".5"/>
    <path d="M488.478 41.656s.456.01 1.244.053" stroke-width=".938"/>
    <path d="M492.194 41.88c4.957.427 13.584 1.635 17.73 4.996" stroke-width=".938" stroke-dasharray="2.484 2.484"/>
    <path d="M510.837 47.733c.288.317.538.65.745 1" stroke-width=".938"/>
    <path d="M413.75 148.907l24.418-27.636m8.12-8.06l14.808-15.81m5.534-8.84s25.656-28.77 29.373-27.18" stroke-width=".938" stroke-dasharray="2.5"/>
    <path d="M506.333 59.332s29.084-12.25 59.412 26.178c0 0 36.585 35.806 80.878 41.272 0 0 63.184 19.056 111.52-46.55 0 0 44.582-44.752 44.09-60.55" stroke-width=".625" stroke-dasharray="1.25"/>
    <path d="M506.333 57.437s29.084-12.252 59.412 26.177c0 0 36.585 35.806 80.878 41.273 0 0 63.184 19.056 111.52-46.55 0 0 44.582-44.753 44.09-60.55" stroke-width=".938" stroke-dasharray="2.5"/>
    <path d="M561.64 83.614s-74.807 90.556-78.16 102.877c-3.35 12.33 6.76 51.82 19.713 63.5l-44.23 24.65s-21.688-41.78-38.36-50.86c0 0-34.65-40.63-13.625-59.33" stroke-width=".938" stroke-dasharray="2.5"/>
    <path d="M455.97 269.13l43.054-23.967" stroke-width=".625" stroke-dasharray="1.25"/>
    <path d="M477.497 306.226s84.356-53.572 118.052-61.064c33.69-7.49 67.04-16.02 87.8 10.833 20.76 26.852 16.02 52.442 13.49 64.13" stroke-width=".938" stroke-dasharray="2.5"/>
    <path d="M478.362 308.55s101.726-58.874 128.043-60.77c26.316-1.895 32.587-14.074 68.152 3.705 0 0 27.36 25.336 20.4 68.64" stroke-width=".625" stroke-dasharray="1.25"/>
    <path d="M498.094 474.93s84.712-33.173 104.93-59.71c0 0 77.79-70.053 106.504-81.94 0 0 84.092-38.098 98.42-54.374 14.328-16.278 26.113-28.124 15.166-46.526" stroke-width=".938" stroke-dasharray="5"/>
    <path d="M369.133 142.078s-7.243 27.645-38.837 29.795c0 0-36.216 2.51-34.65 11.724" stroke-width=".938" stroke-dasharray="2.5"/>
    <path d="M10.144 459.144l-1.99 23.05m24.24-5.18v22.595m4.576-21.63v24.12" stroke-width="1.25"/>
    <path d="M146.83 513.788s155.023 12.225 210.88 0" stroke-width=".625"/>
    <path d="M77.644 491.44l3.81 27.782m15.846-23.51l5.746 28.62m254.664-20.767l4.338 26.65m474.81-251.31s1.53 41.95-9.45 70.177" stroke-width="1.25"/>
    <path d="M726.046 343.02v65.615m5.99-68.843v63.83" stroke-width=".625"/>
    <path d="M32.12 414.272s-26.373 5.57-17.265 23.22c9.106 17.65 38.782 33.465 69.386 37.702" stroke-width=".938" stroke-dasharray="5"/>
    <path d="M662.75 136.158s41.055 7.367 72.962-15.695c31.91-23.062 61.29-56.565 62.238-59.085.947-2.52 4.738-11.05 5.686-4.732.947 6.32 18.116 44.23 17.587 48.022-.527 3.79 8.91 53.87 8.455 63.266" stroke-width=".5"/>
  </g>
</svg>
