<svg viewBox="0 0 841.9 595.3">
    <g id="Слой_2">
      <path
        class="st1"
        d="M335.4 233.7c-4.5-4.5.8-16.5 20.2-34.5s69.8-112.7 69.8-112.7.9-16.9 53.1-3.3c0 0 46.5 16.9 63.7 28.8 17.3 11.9 14.8 8.6 14.8 8.6"
      />
      <path
        class="st1"
        d="M338.7 231.2s1.2-20.2 26.7-20.2 30-6.2 116.8 49.4M607.2 147.5l21.8 12.3 5.8 12.3s3.1 6-4.3 12.1c-7.4 6.2-9.1 9.9-9.1 9.9l-19.6-8.2M595.7 174.9s-.6-14-26.1-13.6"
      />
      <path
        class="st1"
        d="M602.7 139.3l-2.5 33.3s1.6 7.7-12.3-1.7L564 159s-2.9-1.9-1-13.8 1.4-18.7 1.4-18.7-1-7.2 8-4.3c9 2.9 26.7 13.2 26.7 13.2s3.7 2.3 3.6 3.9z"
      />
      <path
        class="st1"
        d="M557.2 123.7s-4 13.8-3.4 32.1c0 0-4.7 9.2 11.7 15.1 16.5 5.9 26.3 10.8 26.3 10.8s11.7 7.2 14.8-4.5l1.4-37.4s1.4-6.6-5.3-8.4L569.6 113s-10.5-3.3-11.3 6.4l-1.1 4.3zM564.5 126.5s12-5.4 17.1-.5"
      />
      <path
        class="st1"
        d="M553.1 157.6s-15-5.5-19.3-1.8c0 0-7.8.6-10.5 9.6s-25.1 47.5-25.1 47.5-2.7 7.4 3.3 10.1M548.8 246.2s36-23.6 53.9-19.5 25.1 9.3 22.2 25.3c0 0-7.2 11.5-7.4 13.2M493.3 262s22.8-.6 27.8 6.4c4.9 7 12.3 14.2 13.6 18.9M561 268.8l22.2 19.7 1.6 19.1s2.1 5.1-11.9 6.8l-14.4 1.6s-13.8-16.7-17.9-16.7"
      />
      <path
        class="st1"
        d="M500.1 226.2l-14.8 24.7s-6 11.7.8 17.9c6.8 6.2 41.1 26.9 41.1 26.9s10.1 8.8 18.3-1.4c8.2-10.3 14.8-25.7 15.4-27.6.6-1.9 5.8-5.1-6.4-16.9l-43-25.5c.1.1-7.6-4.5-11.4 1.9z"
      />
      <path
        class="st1"
        d="M515.5 233.1s-6-8.6-13 4.7l-10.7 20.8s-1.9 2.7 10.1 8.4c11.9 5.8 28.4 19.3 28.4 19.3s7.4 7.2 11.3-2.1 13-23.2 13-23.2v-2.5s-2.9-1.9-5.8-5.1c-2.9-3.3-2.3-5.8-14.2-14.4-11.9-8.6-28.6-5.3-28.6-5.3"
      />
      <path
        class="st2"
        d="M248.8 329.8c3.9-5.2 12.3-10.5 30.8-7.1 0 0 74.6 12.1 116.8 43.9s39.6 65.5 42 81.4"
      />
      <path
        class="st3"
        d="M246.1 332c1.6-5.3 8-17.4 33.5-12.5 0 0 74.6 12.1 116.8 43.9s44.7 67 47.1 82.9"
      />
      <path
        class="st1"
        d="M245.6 331s1.6-21 34-14.9c0 0 74.6 12.1 116.8 43.9s46.7 68.5 49.1 84.4"
      />
      <path
        d="M525.4 89.7l11.4-6.9C653 9 664 34.3 664 34.3c8.8 30.7 23.6 67.4 23.6 67.4 21.4 37.8 12.6 87 12.6 87 .5 5.8-19.2 23.2-29.1 30.4-9.9 7.1-45.6 43.3-45.6 43.3-19.3 8.2-51.5 92.7-51.5 92.7-16.5 48.8-51.3 67.4-51.3 67.4-11.3 8.8-103.9 43.3-103.9 43.3C398 475.1 260.9 513 211 514.6c-49.9 1.6-56.5-26.3-56.5-26.3s-1.1 3.3-2.7-18.6"
        fill="none"
        stroke="#000"
        strokeWidth="0.75"
        strokeMiterlimit="10"
        strokeDasharray="4"
      />
      <path
        class="st1"
        d="M525.4 84.8l11.4-6.9C653 4 664 29.4 664 29.4c8.8 30.7 23.6 67.4 23.6 67.4 21.4 37.8 12.6 87 12.6 87 .5 5.8-19.2 23.2-29.1 30.4-9.9 7.1-45.6 43.3-45.6 43.3-19.3 8.2-51.5 92.7-51.5 92.7-16.5 48.8-51.3 67.4-51.3 67.4-11.3 8.8-103.9 43.3-103.9 43.3-20.8 9.3-157.9 47.2-207.8 48.8s-56.5-26.3-56.5-26.3-1.1 3.3-2.7-18.6c-1.6-21.9 28-59.2 41.1-77.9 13.2-18.6 70.7-71.9 70.7-71.9l75-81.3s13.9-18.1 20.9-18.6"
      />
      <path
        class="st1"
        d="M440.3 77.9l11-19.4s20-13.7 42.1 0S538 91.4 542.3 112M653.6 25.2s18.6 1.1-7.7 56.9c0 0-15.4 23.6-47.8 46.6"
      />
      <path
        class="st5"
        d="M153.1 478.5s-11.2 21.6 8 31.4 25.8 13.6 79.5 7.1c0 0 106.9-19.7 164.5-43.9s92.1-34 121.7-51.5c29.6-17.5 48.5-49.4 58-83.9 9.5-34.5 30.1-65.4 40.6-72.5l73.6-70.9s4.2-2.6 1.6-13.5"
      />
      <path
        class="st1"
        d="M149.9 492.2s-2 17.5 1.9 20.8c3.9 3.3 15.4 23.6 58.2 24.7s168.9-40 168.9-40 104.9-35.6 118.8-43.3c13.9-7.7 38.6-15.9 68.7-48.8 0 0 14.3-13.2 27.4-69.6 0 0 22.5-61.6 51-70.8l-3.3 34.2 41.1-34.2s14.1-8.9 14.3-38.9l2.2-32M615.6 292.5l25.9 6.8"
      />
      <path class="st1" d="M619.1 287.3l22.4 5.1s50.7-36.7 53.9-50.8" />
      <path class="st6" d="M618.6 292.5s10.2-18.6 26.1-25.4" />
      <path
        class="st5"
        d="M622.8 282.5l20.1 3s27.9-14.6 53.5-50.2M690.6 243s.6 10.8-7.9 22.1M641.1 268.8l-2.8 29.7M698.8 198.5s-48.8 48.7-62.6 56.3"
      />
      <path
        class="st5"
        d="M698.3 205.1s-50.6 48.3-68.9 65.2c-18.3 16.9-28 39.3-33.1 50.6-5.1 11.3-13.8 45.1-13.8 45.1s-11.2 37.7-20.4 44.1M701.1 176.6s-69.9 67.5-70.9 76.2M600.7 130.1s32.9-24.4 44.8-42.5 20.1-42.8 15.6-60.8M666.5 37.9s.2 19.1-9.9 28"
      />
      <path
        class="st5"
        d="M606.1 126s25.4-13 41.9-36.3c0 0 21-33.4 20.8-44.9"
      />
      <path
        class="st5"
        d="M659.7 42s5.4-3.3 7.7 9.8 25.1 67.9 25.9 72.1c.8 4.2 5.5 21.5 1.3 69.4"
      />
      <path
        class="st5"
        d="M695.4 138.3s7.4 19.3-17.5 38.3-53.6 49.1-55.2 57.1c0 0-32.1 24.5-39.6 54.9M568.2 315s3 33.5-45.5 67-82.8 36.7-82.8 36.7"
      />
      <path
        class="st5"
        d="M615.6 152.2s44-40.5 51-66.8c0 0 11.2 24.7 13.9 41.1 2.7 16.4-54.4 85.9-53.5 99.7M562.8 316.1s-3.9 41.4-128.7 88.2L255 475.8s-57.6 21.4-88.8-4.4c0 0-23.8-22.1 15.4-68.5"
      />
      <path
        class="st1"
        d="M158.9 491.8s11 25.3 120.7 0c0 0 115.2-22 206.2-62.6 0 0 52.1-23 65.8-45 0 0 24.4-40.1 31.2-55.5"
      />
      <path
        class="st5"
        d="M483.6 265.1s-30.2 47.2-41.2 74.6c-11 27.4-30.2 34.1-30.2 34.1s-110.7 38-150.2 42c0 0-61.1 35.4-68.6 67.1"
      />
      <path
        class="st5"
        d="M419.7 382.2S300.4 432.5 273 431.9c0 0-23.2 22.1-14.1 42.3M433.8 79.2s-62.1 111.3-70.3 119.3-13.2 7.6-19 20.1"
      />
      <path class="st6" d="M449 78.5l-67.4 132.3" />
      <path
        class="st1"
        d="M339.4 227.4s8.7-12.4 24-12.7 22.6-3.9 50.2 8.2 29.3 19.9 34 22.7c4.7 2.8 33.6 23.2 33.6 23.2l-2.4 8.2s-5.3 4.1 12.9 13.7c18.1 9.6 24.2 16.9 24.2 16.9s7.7 5 11.8-2.1c4.1-7.1 11-1.9 11-1.9l12.9 11.4 5.6-.4"
      />
      <path
        class="st6"
        d="M501.1 266.6s9.9-1.5 15.8 4.4 9.9 12.5 9.9 12.5"
      />
      <path
        class="st5"
        d="M543.1 246s11.3 12.8 3 24l-9.6 19M509.6 233.7s-11.8 16.4-14.8 27.4"
      />
      <path
        class="st1"
        d="M529.3 157.4s12.5-.2 15 2.2c2.5 2.5-2.1 16.5 15.6 21.1s27.2 3.2 27.2 3.2l4.6-2.2"
      />
      <path
        class="st6"
        d="M575.2 164.6s13.5.1 17 9M599.3 136.4l-1.2 38.5M560.5 135.5s-5-.8-2.3 4.9c0 0 5.8 0 6.8 2.3s2.3 2.9 2.3 2.9 7.1 1.7 5.7-2.6c0 0-5.9-7.9-12.5-7.5zM563.7 143.9s5.3 8.8 9.5.6M499.6 238.7s-5.5-1.9-4.1 4.1c0 0 0 1 1.1 1.6 1.1.6 3.7-.7 4.4.4.7 1.1 2.2 3.1 2.2 3.1s5.5 3.4 4.9-3c.1 0-4-6-8.5-6.2zM498.2 246.3s8.2 7.4 10.1 1.8M540.6 305.3s-23.7 14.5-11.7 51.1"
      />
      <path
        class="st5"
        d="M158.9 508.6s9.3 16.3 48.8 14.9S310 504.6 310 504.6s77.6-21.4 80.6-22.8l80.1-30.2s65.5-24.5 79.5-41.6 36.4-71 38.6-66.9M388.1 214.7l-95.3 104S170 392.6 162.9 466.9M456.8 55.6L445.5 77M466.9 52.8L453 78.5"
      />
      <path
        class="st3"
        d="M447.2 65.7s13.2-10.9 25-7.4c11.7 3.5 36.6 7.7 60.7 48.1M424.5 88s2.6-6 14.3-6c11.7 0 40.7 1.4 70.7 16.8 0 0 38.9 18.3 47.6 24.9M565.3 128.7s9.9-6.6 32 5.6M562.7 155.8s28.2-3.9 35.5 14.9"
      />
      <ellipse class="st6" cx="488.7" cy="240.5" rx="2.4" ry="2.6" />
      <ellipse class="st6" cx="592.3" cy="148.6" rx="2.4" ry="2.6" />
      <ellipse class="st6" cx="550.8" cy="138.3" rx="2.4" ry="2.6" />
      <ellipse class="st6" cx="526.8" cy="253" rx="3.1" ry="3.6" />
      <path
        class="st3"
        d="M602.7 182.9l18 8s11.1-12.4 12.9-14.3c1.8-1.9-4.5-15.3-4.5-15.3M553.7 153.1l-19.1-1.9s-8.3-1-14.3 12-25 44.8-25 44.8-5.5 10.4 0 16.2c5.5 5.8 2.8 2.6 2.8 2.6M511.6 224.4l33.1 17.2s30-23.6 47.1-21.7c17.1 1.9 37.5.5 36.7 34.1"
      />
      <path
        class="st2"
        d="M545.7 244.6s30.1-23 39.2-21.7c9.1 1.4 27-5.4 38.3 14M605.1 180.7l17 8.6"
      />
      <path
        class="st3"
        d="M495.8 258s21-3.1 29.7 9c8.8 12.1 11 18.5 11 18.5M502.6 237.8s20.5-3.5 30.5 3.9c0 0 13 8.1 15.5 23.5M545.5 294.3l19.5 17.5 15.9-3-1.6-19.8-20.6-16.9"
      />
      <path class="st2" d="M542.8 297l21.9 18" />
      <path
        class="st3"
        d="M350 211.4s4.1-9.5 29.1-7.3 78.1 25.2 105.4 46.7"
      />
      <path
        class="st2"
        d="M348.4 214.7s4.1-9.5 29.1-7.3 78.1 25.2 105.4 46.7"
      />
      <path class="st5" d="M535.8 96.8s101.9-43.6 111.4-17.6" />
    </g>
  </svg>
