<svg xmlns="http://www.w3.org/2000/svg" viewBox="0 0 553.61 513.57"><defs><style>.cls-1,.cls-2,.cls-3,.cls-4,.cls-5,.cls-6{fill:none;stroke:#000;stroke-miterlimit:10;}.cls-2,.cls-3,.cls-4,.cls-6{stroke-width:0.75px;}.cls-2{stroke-dasharray:1;}.cls-3{stroke-dasharray:2;}.cls-4{stroke-dasharray:4;}.cls-5{stroke-width:0.5px;}</style></defs><title>Ресурс 1</title><g id="Слой_2" data-name="Слой 2"><g id="Слой_2-2" data-name="Слой 2"><path class="cls-1" d="M186.53,209c-4.52-4.52.82-16.45,20.15-34.55S276.51,61.74,276.51,61.74s.91-16.86,53.15-3.29c0,0,46.47,16.86,63.75,28.79s14.81,8.64,14.81,8.64"/><path class="cls-1" d="M189.82,206.51s1.23-20.15,26.73-20.15,30-6.17,116.8,49.35"/><path class="cls-1" d="M458.38,122.82l21.8,12.34,5.76,12.34s3.08,6-4.32,12.13-9.14,9.87-9.14,9.87l-19.65-8.23"/><path class="cls-1" d="M446.87,150.17s-.62-14-26.12-13.57"/><path class="cls-1" d="M453.86,114.59l-2.47,33.31s1.63,7.74-12.34-1.75L415.2,134.33s-2.88-1.85-1-13.78,1.44-18.71,1.44-18.71-1-7.2,8-4.32,26.73,13.16,26.73,13.16S454,113,453.86,114.59Z"/><path class="cls-1" d="M408.33,99a113.16,113.16,0,0,0-3.41,32.11s-4.73,9.22,11.72,15.08A259.52,259.52,0,0,1,443,157s11.72,7.2,14.81-4.52L459.21,115s1.45-6.58-5.34-8.43l-33.11-18.3S410.26,85,409.44,94.64Z"/><path class="cls-1" d="M415.61,101.84s12-5.36,17.13-.52"/><path class="cls-1" d="M404.29,132.89s-15-5.49-19.32-1.82c0,0-7.81.59-10.49,9.63s-25.09,47.5-25.09,47.5-2.67,7.4,3.29,10.08"/><path class="cls-1" d="M400,221.52s36-23.65,53.88-19.54,25.09,9.25,22.21,25.29c0,0-7.2,11.52-7.4,13.16"/><path class="cls-1" d="M344.46,237.36s22.83-.62,27.76,6.37,12.34,14.19,13.57,18.92"/><path class="cls-1" d="M412.11,244.14l22.21,19.74L436,283s2.06,5.14-11.93,6.79l-14.39,1.65s-13.78-16.66-17.89-16.66"/><path class="cls-1" d="M351.25,201.51l-14.81,24.75s-6,11.72.82,17.89,41.13,26.94,41.13,26.94,10.08,8.84,18.3-1.44,14.81-25.7,15.42-27.56,5.76-5.14-6.37-16.86l-43-25.5S355.1,195.07,351.25,201.51Z"/><path class="cls-1" d="M366.67,208.36s-6-8.64-13,4.73L343,233.86s-1.85,2.67,10.08,8.43,28.38,19.33,28.38,19.33,7.4,7.2,11.31-2.06,13-23.21,13-23.21v-2.5a30.56,30.56,0,0,1-5.76-5.14c-2.88-3.29-2.26-5.76-14.19-14.39S357.21,209,357.21,209"/><path class="cls-2" d="M100,305.08c3.87-5.22,12.34-10.53,30.77-7.06,0,0,74.58,12.13,116.8,43.94s39.63,65.5,42,81.41"/><path class="cls-3" d="M97.22,307.27c1.56-5.29,8-17.35,33.51-12.54,0,0,74.58,12.13,116.8,43.94s44.67,67,47.08,82.87"/><path class="cls-1" d="M96.73,306.31s1.65-21,34-14.87c0,0,74.58,12.13,116.8,43.94s46.73,68.55,49.14,84.45"/><path class="cls-1" d="M114.83,295.26"/><path class="cls-4" d="M376.54,65l11.38-6.93C504.17-15.73,515.14,9.65,515.14,9.65c8.77,30.71,23.58,67.45,23.58,67.45,21.39,37.84,12.61,87,12.61,87,.55,5.82-19.19,23.24-29.06,30.37s-45.59,43.32-45.59,43.32c-19.26,8.23-51.48,92.67-51.48,92.67-16.45,48.81-51.34,67.45-51.34,67.45C362.56,406.67,270,441.21,270,441.21,249.18,450.54,112.09,488.37,62.18,490S5.7,463.7,5.7,463.7,4.61,467,3,445.05"/><path class="cls-1" d="M376.54,60.1l11.38-6.93C504.17-20.66,515.14,4.71,515.14,4.71c8.77,30.71,23.58,67.45,23.58,67.45,21.39,37.84,12.61,87,12.61,87,.55,5.82-19.19,23.24-29.06,30.37s-45.59,43.32-45.59,43.32c-19.26,8.23-51.48,92.67-51.48,92.67C408.76,374.31,373.87,393,373.87,393,362.56,401.73,270,436.28,270,436.28c-20.84,9.32-157.93,47.16-207.83,48.81S5.7,458.76,5.7,458.76,4.61,462.05,3,440.12s28-59.22,41.13-77.87,70.74-71.92,70.74-71.92l75-81.35s13.94-18.13,20.91-18.58"/><path class="cls-1" d="M291.4,53.17l11-19.39s20-13.71,42.09,0S389,66.68,393.4,87.24"/><path class="cls-1" d="M504.77.53s18.6,1.1-7.72,56.93c0,0-15.44,23.63-47.75,46.58"/><path class="cls-5" d="M4.28,453.8s-11.19,21.56,8,31.36,25.77,13.64,79.51,7.06c0,0,106.93-19.74,164.51-43.87s92.13-34,121.74-51.55,48.52-49.37,58-83.9,30.12-65.39,40.61-72.45l73.55-70.95s4.22-2.63,1.56-13.52"/><path class="cls-1" d="M1,467.54s-2,17.55,1.86,20.84S18.31,512,61.09,513.05,230,473,230,473,334.9,437.38,348.8,429.7s38.57-15.9,68.73-48.81c0,0,14.33-13.24,27.42-69.64,0,0,22.48-61.55,51-70.81l-3.29,34.18,41.13-34.18s14.14-8.93,14.26-38.93l2.19-32"/><line class="cls-1" x1="466.7" y1="267.79" x2="492.66" y2="274.62"/><path class="cls-1" d="M470.24,262.65l22.41,5.14s50.73-36.72,53.88-50.85"/><path class="cls-6" d="M469.7,267.79s10.18-18.56,26.06-25.42"/><path class="cls-5" d="M473.92,257.84l20.06,3s27.94-14.59,53.55-50.2"/><path class="cls-5" d="M541.73,218.33s.62,10.81-7.95,22.12"/><line class="cls-5" x1="492.22" y1="244.14" x2="489.43" y2="273.77"/><path class="cls-5" d="M549.94,173.85s-48.8,48.66-62.57,56.29"/><path class="cls-5" d="M549.49,180.38s-50.6,48.34-68.9,65.2-28,39.28-33.11,50.59-13.78,45.11-13.78,45.11-11.17,37.66-20.39,44.09"/><path class="cls-5" d="M552.27,151.89s-69.91,67.47-70.87,76.2"/><path class="cls-5" d="M451.83,105.45S484.7,81.07,496.63,63,516.7,20.16,512.22,2.19"/><path class="cls-5" d="M517.67,13.21s.15,19.13-9.93,28"/><path class="cls-5" d="M457.24,101.29s25.41-13,41.86-36.26c0,0,21-33.44,20.76-44.89"/><path class="cls-5" d="M510.81,17.35s5.43-3.32,7.65,9.84,25.05,67.92,25.87,72.11,5.46,21.52,1.29,69.4"/><path class="cls-5" d="M546.54,113.64s7.45,19.27-17.46,38.25S475.47,201,473.92,209c0,0-32.12,24.54-39.59,54.91"/><path class="cls-5" d="M419.38,290.33s3,33.54-45.51,67S291,394,291,394"/><path class="cls-5" d="M466.7,127.53s44-40.54,51-66.81c0,0,11.18,24.74,13.92,41.13s-54.37,85.89-53.51,99.67"/><path class="cls-5" d="M413.92,291.44s-3.9,41.38-128.74,88.18L106.05,451.08s-57.58,21.39-88.84-4.39c0,0-23.76-22.14,15.39-68.52"/><path class="cls-1" d="M10.07,467.07s11,25.31,120.66,0c0,0,115.16-22,206.19-62.59,0,0,52.1-23,65.8-45,0,0,24.43-40.06,31.24-55.47"/><path class="cls-5" d="M334.76,240.44s-30.19,47.23-41.16,74.65-30.24,34.08-30.24,34.08-110.69,38-150.17,42c0,0-61.06,35.4-68.64,67.12"/><path class="cls-5" d="M270.87,357.51s-119.3,50.25-146.72,49.7c0,0-23.21,22.15-14.13,42.29"/><path class="cls-5" d="M284.91,54.53s-62.05,111.32-70.28,119.31-13.22,7.62-19,20.14"/><line class="cls-6" x1="300.18" y1="53.82" x2="232.73" y2="186.15"/><path class="cls-1" d="M190.59,202.73s8.69-12.4,24-12.67,22.59-3.95,50.18,8.23,29.34,19.88,34,22.69,33.62,23.17,33.62,23.17l-2.36,8.16s-5.28,4.11,12.85,13.71,24.16,16.87,24.16,16.87,7.66,5,11.79-2.06,11-1.92,11-1.92l12.89,11.43,5.61-.45"/><path class="cls-6" d="M352.22,241.86s9.93-1.49,15.82,4.41a74.29,74.29,0,0,1,9.89,12.53"/><path class="cls-5" d="M394.25,221.29s11.35,12.78,3,24l-9.59,19"/><path class="cls-5" d="M360.77,209S349,225.35,346,236.36"/><path class="cls-1" d="M380.44,132.67s12.52-.24,15,2.25-2.13,16.51,15.64,21.06,27.24,3.16,27.24,3.16L443,157"/><path class="cls-6" d="M426.4,139.88s13.51.08,17,9"/><line class="cls-6" x1="450.47" y1="111.71" x2="449.29" y2="150.17"/><path class="cls-6" d="M411.7,110.79s-5-.82-2.26,4.94c0,0,5.76,0,6.79,2.26a5.91,5.91,0,0,0,2.26,2.88s7.05,1.75,5.69-2.57C424.17,118.29,418.28,110.37,411.7,110.79Z"/><path class="cls-6" d="M414.89,119.22s5.35,8.84,9.46.62"/><path class="cls-6" d="M350.8,214s-5.47-1.87-4.09,4.09a2,2,0,0,0,1.08,1.61c1.08.65,3.73-.69,4.43.43s2.24,3.12,2.24,3.12,5.49,3.44,4.95-3C359.4,220.2,355.21,214.17,350.8,214Z"/><path class="cls-6" d="M349.33,221.61s8.21,7.41,10.11,1.82"/><path class="cls-6" d="M391.76,280.6s-23.66,14.47-11.69,51.07"/><path class="cls-5" d="M10.07,483.87s9.34,16.29,48.82,14.92,102.27-18.92,102.27-18.92,77.59-21.39,80.61-22.76L321.84,427s65.53-24.5,79.51-41.59,36.41-71,38.62-66.92"/><path class="cls-5" d="M239.21,190,143.92,294S21.16,367.9,14,442.26"/><line class="cls-5" x1="307.9" y1="30.92" x2="296.67" y2="52.29"/><line class="cls-5" x1="318.02" y1="28.1" x2="304.15" y2="53.82"/><path class="cls-3" d="M298.31,41s13.25-10.89,25-7.39,36.61,7.7,60.67,48.06"/><path class="cls-3" d="M275.69,63.26s2.55-6,14.27-6,40.72,1.4,70.74,16.83c0,0,38.9,18.3,47.62,24.88"/><path class="cls-3" d="M416.48,104s9.92-6.64,32,5.55"/><path class="cls-3" d="M413.82,131.11s28.23-3.87,35.47,14.89"/><ellipse class="cls-6" cx="339.84" cy="215.76" rx="2.38" ry="2.56"/><ellipse class="cls-6" cx="443.44" cy="123.86" rx="2.38" ry="2.56"/><ellipse class="cls-6" cx="401.9" cy="113.64" rx="2.38" ry="2.56"/><ellipse class="cls-6" cx="377.93" cy="228.32" rx="3.1" ry="3.63"/><path class="cls-3" d="M453.86,158.25l18,8s11.05-12.39,12.89-14.32-4.49-15.3-4.49-15.3"/><path class="cls-3" d="M404.86,128.37l-19.07-1.94s-8.29-1-14.33,12-25,44.82-25,44.82-5.52,10.42,0,16.18,2.84,2.61,2.84,2.61"/><path class="cls-3" d="M362.76,199.72l33.11,17.22s30-23.59,47.09-21.67,37.45.5,36.72,34.11"/><path class="cls-2" d="M396.85,220s30.08-23,39.22-21.67,27-5.42,38.34,14"/><line class="cls-2" x1="456.25" y1="155.98" x2="473.23" y2="164.63"/><path class="cls-3" d="M347,233.34s21-3.1,29.73,9,11,18.49,11,18.49"/><path class="cls-3" d="M353.71,213.09s20.5-3.54,30.51,3.85c0,0,13,8.08,15.47,23.5"/><polyline class="cls-3" points="396.69 269.64 416.16 287.12 432.06 284.11 430.42 264.29 409.85 247.37"/><line class="cls-2" x1="393.98" y1="272.33" x2="415.88" y2="290.33"/><path class="cls-3" d="M201.2,186.69s4.11-9.52,29.06-7.33,78.1,25.18,105.4,46.73"/><path class="cls-2" d="M199.55,190s4.11-9.52,29.06-7.33,78.1,25.18,105.4,46.73"/><path class="cls-5" d="M387,72.12S488.9,28.57,498.4,54.53"/></g></g></svg>