<svg width="693" height="643" viewBox="0 0 693 643" xmlns="http://www.w3.org/2000/svg">
  <title>
    дабл-монки
  </title>
  <g stroke="#000" fill="none" fill-rule="evenodd">
    <path d="M233.22 261.588c-5.655-5.655 1.03-20.564 25.19-43.184 24.164-22.62 87.285-140.863 87.285-140.863s1.14-21.07 66.43-4.11c0 0 58.095 21.08 79.686 35.99 21.6 14.91 18.51 10.8 18.51 10.8" stroke-width="1.25"/>
    <path d="M237.333 258.503s1.542-25.19 33.416-25.19c31.87 0 37.53-7.712 146 61.692m156.29-141.12l27.24 15.422 7.19 15.424s3.85 7.46-5.4 15.17-11.43 12.34-11.43 12.34l-24.56-10.28m-7.457-13.88s-.77-17.48-32.644-16.96" stroke-width="1.25"/>
    <path d="M567.384 143.602l-3.085 41.643s2.03 9.67-15.43-2.185l-29.82-14.78s-3.6-2.314-1.29-17.223c2.31-14.91 1.8-23.392 1.8-23.392s-1.29-8.996 10.02-5.398c11.31 3.6 33.412 16.452 33.412 16.452s4.52 2.85 4.37 4.88z" stroke-width="1.25"/>
    <path d="M510.47 124.067s-5.035 17.3-4.264 40.14c0 0-5.912 11.527 14.652 18.852 20.564 7.32 32.902 13.49 32.902 13.49s14.653 9 18.508-5.66l1.8-46.79s1.806-8.23-6.68-10.54l-41.39-22.88s-13.108-4.114-14.137 7.97l-1.39 5.395zm9.103 3.598s15.06-6.693 21.41-.647" stroke-width="1.25"/>
    <path d="M505.418 166.48s-18.747-6.86-24.146-2.274c0 0-9.767.73-13.108 12.04-3.343 11.31-31.36 59.38-31.36 59.38s-3.343 9.254 4.112 12.595m59.12 29.05s44.993-29.56 67.35-24.42c22.36 5.14 31.36 11.57 27.76 31.62 0 0-9 14.4-9.254 16.45m-155.258-3.85s28.532-.77 34.7 7.97c6.17 8.74 15.425 17.74 16.966 23.65m32.903-23.13l27.76 24.68 2.058 23.907s2.58 6.427-14.9 8.484l-17.99 2.055s-17.22-20.82-22.36-20.82" stroke-width="1.25"/>
    <path d="M439.117 252.248L420.61 283.18s-7.456 14.652 1.028 22.363c8.482 7.712 51.41 33.674 51.41 33.674s12.595 11.053 22.876-1.8c10.283-12.852 18.508-32.13 19.28-34.444.77-2.314 7.196-6.426-7.97-21.078l-53.722-31.875s-9.582-5.818-14.395 2.228z" stroke-width="1.25"/>
    <path d="M458.395 260.82s-7.455-10.8-16.193 5.91l-13.368 25.96s-2.313 3.343 12.596 10.54c14.91 7.198 35.473 24.163 35.473 24.163s9.253 8.996 14.137-2.57c4.884-11.568 16.194-29.012 16.194-29.012v-3.12s-3.597-2.31-7.196-6.42c-3.6-4.11-2.828-7.19-17.738-17.99s-35.728-6.68-35.728-6.68" stroke-width="1.25"/>
    <path d="M125.007 381.712c4.837-6.52 15.418-13.168 38.467-8.822 0 0 93.224 15.166 146.004 54.924 52.78 39.756 49.54 81.88 52.55 101.757" stroke-width=".938" stroke-dasharray="1.25"/>
    <path d="M121.587 384.447c1.954-6.612 9.956-21.69 41.888-15.67 0 0 93.222 15.166 146.003 54.924 52.78 39.76 55.843 83.71 58.853 103.59" stroke-width=".938" stroke-dasharray="2.5"/>
    <path d="M120.975 383.258s2.056-26.22 42.5-18.594c0 0 93.223 15.167 146.003 54.924 52.78 39.756 58.416 85.683 61.425 105.56" stroke-width="1.25"/>
    <path d="M470.738 81.654l14.22-8.66C630.274-19.294 643.985 12.42 643.985 12.42c10.967 38.387 29.475 84.314 29.475 84.314 26.732 47.297 15.765 108.723 15.765 108.723.686 7.274-23.99 29.055-36.33 37.967-12.337 8.91-56.98 54.15-56.98 54.15-24.08 10.283-64.346 115.845-64.346 115.845-20.57 61-64.18 84.31-64.18 84.31-14.14 10.97-129.82 54.15-129.82 54.15-26.05 11.65-197.42 58.95-259.79 61-62.38 2.05-70.6-32.91-70.6-32.91s-1.37 4.12-3.43-23.3" stroke-width=".938" stroke-dasharray="5"/>
    <path d="M470.738 75.484l14.22-8.66C630.274-25.463 643.985 6.252 643.985 6.252c10.967 38.386 29.475 84.312 29.475 84.312 26.732 47.298 15.765 108.724 15.765 108.724.686 7.274-23.99 29.055-36.33 37.966-12.337 8.912-56.98 54.152-56.98 54.152-24.08 10.282-64.346 115.843-64.346 115.843-20.57 61-64.18 84.31-64.18 84.31-14.14 10.96-129.82 54.15-129.82 54.15-26.05 11.65-197.42 58.95-259.79 61-62.38 2.06-70.6-32.9-70.6-32.9s-1.38 4.11-3.43-23.31c-2.06-27.42 34.96-74.03 51.41-97.34 16.45-23.31 88.42-89.9 88.42-89.9l93.734-101.69s17.424-22.668 26.136-23.22" stroke-width="1.25"/>
    <path d="M364.315 66.824l13.71-24.243s25.02-17.13 52.61 0c27.59 17.14 55.693 41.13 61.177 66.84M631.02 1.04s23.247 1.372-9.656 71.156c0 0-19.3 29.538-59.69 58.23" stroke-width="1.25"/>
    <path d="M5.406 567.61s-13.984 26.946 10.007 39.196c23.992 12.25 32.218 17.05 99.393 8.824 0 0 133.666-24.676 205.64-54.836 71.974-30.162 115.157-42.5 152.172-64.434 37.015-21.935 60.655-61.716 72.535-104.876 11.882-43.16 37.65-81.742 50.762-90.568l91.94-88.68s5.28-3.294 1.953-16.9" stroke-width=".625"/>
    <path d="M1.355 584.785s-2.557 21.935 2.323 26.047c4.882 4.113 19.275 29.475 72.742 30.846 53.466 1.372 211.123-50.038 211.123-50.038s131.144-44.555 148.513-54.153c17.37-9.596 48.216-19.877 85.916-61.006 0 0 17.92-16.54 34.274-87.05 0 0 28.104-76.94 63.747-88.51l-4.112 42.72 51.41-42.72s17.68-11.15 17.83-48.67l2.74-40.01M583.44 335.11l32.44 8.533" stroke-width="1.25"/>
    <path d="M587.862 328.678l28.02 6.426s63.412-45.896 67.35-63.56" stroke-width="1.25"/>
    <path d="M587.19 335.104s12.718-23.205 32.572-31.78" stroke-width=".938"/>
    <path d="M592.455 322.668l25.082 3.773s34.928-18.24 66.932-62.75m-7.25 9.59s.78 13.51-9.94 27.65m-51.96 4.63l-3.48 37.036m75.63-124.904s-61 60.82-78.21 70.36" stroke-width=".625"/>
    <path d="M686.922 225.84s-63.244 60.425-86.12 81.503c-22.88 21.078-34.96 49.096-41.386 63.235-6.426 14.137-17.223 56.392-17.223 56.392s-13.967 47.08-25.49 55.108m173.695-291.856s-87.393 84.34-88.585 95.248M564.85 132.175s41.09-30.472 56-53.092c14.91-22.62 25.087-53.524 19.484-75.986m6.81 13.776s.19 23.913-12.41 34.964" stroke-width=".625"/>
    <path d="M571.614 126.974s31.756-16.274 52.322-45.32c0 0 26.192-41.8 25.948-56.116" stroke-width=".625"/>
    <path d="M638.577 22.05s6.787-4.147 9.567 12.305c2.78 16.453 31.314 84.9 32.34 90.134 1.03 5.23 6.824 26.89 1.614 86.75" stroke-width=".625"/>
    <path d="M683.23 142.41s9.313 24.087-21.82 47.812c-31.135 23.727-67.02 61.427-68.955 71.367 0 0-40.15 30.67-49.49 68.63m-18.677 33.05s3.69 41.92-56.892 83.73-103.546 45.86-103.546 45.86" stroke-width=".625"/>
    <path d="M583.44 159.77s54.96-50.676 63.706-83.513c0 0 13.975 30.93 17.403 51.408 3.42 20.48-67.97 107.36-66.89 124.583m-80.21 112.417s-4.88 51.73-160.92 110.22L132.62 564.22s-71.97 26.734-111.04-5.483c0 0-29.703-27.676 19.24-85.65" stroke-width=".625"/>
    <path d="M12.653 584.2s13.73 31.63 150.82 0c0 0 143.95-27.522 257.736-78.243 0 0 65.11-28.79 82.25-56.21 0 0 30.54-50.068 39.05-69.343" stroke-width="1.25"/>
    <path d="M418.51 300.917s-37.744 59.036-51.453 93.308c-13.71 34.274-37.803 42.6-37.803 42.6S190.892 484.358 141.54 489.33c0 0-76.33 44.247-85.805 83.902" stroke-width=".625"/>
    <path d="M338.648 447.254s-149.126 62.815-183.4 62.13c0 0-29.017 27.684-17.656 52.856M356.2 68.533s-77.568 139.152-87.85 149.14c-10.282 9.985-16.52 9.517-23.768 25.174" stroke-width=".625"/>
    <path d="M375.283 67.636l-84.313 165.42" stroke-width=".938"/>
    <path d="M238.3 253.78s10.858-15.497 30.05-15.84c19.193-.344 28.24-4.932 62.72 10.28 34.48 15.215 36.673 24.85 42.5 28.363 5.825 3.512 42.022 28.96 42.022 28.96l-2.952 10.197s-6.6 5.14 16.065 17.136c22.664 11.995 30.204 21.083 30.204 21.083s9.57 6.25 14.73-2.58c5.17-8.83 13.71-2.4 13.71-2.4l16.11 14.29 7-.56" stroke-width="1.25"/>
    <path d="M440.33 302.69s12.41-1.86 19.78 5.51c7.368 7.368 12.363 15.657 12.363 15.657" stroke-width=".938"/>
    <path d="M492.877 276.972s14.186 15.976 3.733 30.028l-11.99 23.7m-33.594-69.112s-14.737 20.465-18.507 34.224" stroke-width=".625"/>
    <path d="M475.613 166.205s15.644-.3 18.755 2.81c3.11 3.112-2.666 20.643 19.556 26.322 22.223 5.68 34.05 3.95 34.05 3.95l5.786-2.733" stroke-width="1.25"/>
    <path d="M533.06 175.22s16.892.105 21.303 11.233m8.78-46.45l-1.468 48.07m-46.988-49.226s-6.295-1.03-2.825 6.17c0 0 7.197 0 8.482 2.826 1.285 2.828 2.828 3.6 2.828 3.6s8.815 2.184 7.106-3.214c0 0-7.368-9.9-15.59-9.39zm3.986 10.54s6.684 11.052 11.825.77m-91.943 117.656s-6.84-2.343-5.11 5.108c0 0 0 1.21 1.345 2.02s4.665-.86 5.54.54c.876 1.4 2.796 3.9 2.796 3.9s6.857 4.3 6.185-3.76c0 0-5.24-7.53-10.75-7.79zm-1.835 9.562s10.264 9.262 12.637 2.27m40.398 71.468s-29.572 18.084-14.615 63.844" stroke-width=".938"/>
    <path d="M12.653 605.207s11.67 20.363 61.025 18.65c49.354-1.715 127.84-23.65 127.84-23.65s96.992-26.732 100.762-28.446l100.078-37.7s81.914-30.62 99.392-51.98c17.48-21.36 45.51-88.7 48.274-83.65m-250.95-160.58L179.96 367.89S26.505 460.244 17.533 553.19m367.41-514.17l-14.04 26.707m26.687-30.232l-17.337 32.14" stroke-width=".625"/>
    <path d="M372.944 51.565s16.562-13.61 31.214-9.24c14.65 4.37 45.768 9.628 75.836 60.08M344.674 79.44s3.19-7.46 17.84-7.507c14.653-.048 50.897 1.752 88.427 21.03 0 0 48.63 22.878 59.53 31.103m10.19 6.354s12.4-8.304 39.98 6.937m-43.29 26.895s35.29-4.84 44.34 18.615" stroke-width=".938" stroke-dasharray="2.5"/>
    <path d="M427.842 270.068c0 1.77-1.332 3.204-2.977 3.204-1.644 0-2.978-1.434-2.978-3.204 0-1.77 1.334-3.204 2.978-3.204 1.645 0 2.977 1.434 2.977 3.204zM557.34 155.19c0 1.77-1.333 3.204-2.978 3.204-1.644 0-2.977-1.434-2.977-3.204 0-1.77 1.333-3.204 2.977-3.204 1.645 0 2.978 1.434 2.978 3.204zm-51.922-12.78c0 1.77-1.332 3.204-2.977 3.204-1.64 0-2.97-1.434-2.97-3.204 0-1.77 1.34-3.204 2.98-3.204s2.98 1.435 2.98 3.204zM476.35 285.765c0 2.503-1.736 4.532-3.878 4.532-2.14 0-3.876-2.03-3.876-4.532 0-2.504 1.735-4.533 3.876-4.533 2.142 0 3.878 2.03 3.878 4.533z" stroke-width=".938"/>
    <path d="M567.388 198.175l22.445 9.946s13.812-15.49 16.11-17.89c2.295-2.4-5.61-19.12-5.61-19.12m-94.196-10.27L482.3 158.4s-10.36-1.304-17.9 14.96c-7.54 16.26-31.23 56.018-31.23 56.018s-6.893 13.023 0 20.22c6.895 7.198 3.555 3.26 3.555 3.26m16.79-2.832l41.387 21.523s37.53-29.49 58.864-27.09c21.336 2.4 46.817.63 45.9 42.64" stroke-width=".938" stroke-dasharray="2.5"/>
    <path d="M496.124 275.303s37.595-28.795 49.03-27.08c11.434 1.713 33.74-6.78 47.927 17.48m-22.7-70.366l21.22 10.81" stroke-width=".938" stroke-dasharray="1.25"/>
    <path d="M433.755 292.042s26.206-3.877 37.162 11.28c10.955 15.16 13.703 23.12 13.703 23.12M442.2 266.73s25.632-4.426 38.136 4.813c0 0 16.244 10.095 19.344 29.373m-3.755 36.502l24.333 21.848 19.88-3.77-2.057-24.77-25.7-21.148" stroke-width=".938" stroke-dasharray="2.5"/>
    <path d="M492.536 340.775l27.38 22.5" stroke-width=".938" stroke-dasharray="1.25"/>
    <path d="M251.556 233.734s5.14-11.903 36.33-9.16c31.19 2.74 97.62 31.476 131.75 58.407" stroke-width=".938" stroke-dasharray="2.5"/>
    <path d="M249.5 237.846s5.14-11.902 36.33-9.16c31.19 2.742 97.62 31.477 131.75 58.408" stroke-width=".938" stroke-dasharray="1.25"/>
    <path d="M483.808 90.52s127.372-54.44 139.26-21.987" stroke-width=".625"/>
  </g>
</svg>
