<svg width="697" height="407" viewBox="0 0 697 407" xmlns="http://www.w3.org/2000/svg">
  <title>
    хоулкатс
  </title>
  <g stroke="#000" fill="none" fill-rule="evenodd">
    <path d="M293.458 150.517s-5.416-2.71-1.666-6.25c3.75-3.542 19.166 3.75 44.583 18.125 25.417 14.375 8.125 13.125 8.125 13.125s-32.917-23.542-51.042-25zm21.667-27.917s-5.416 1.25-3.75-4.166c1.666-5.418 10.834-4.168 33.75 8.125 22.916 12.29 23.96 18.75 23.96 18.75s.624 7.91-6.46 2.7c0 0-19.584-18.96-47.5-25.42zm20.208-26.042s-6.458 1.25-5.416-3.958c1.04-5.208 15.625-2.083 32.29 6.042 16.668 8.125 24.376 11.875 27.71 19.166 3.333 7.292-5.625 5.417-5.834 4.167 0 0-12.916-19.167-48.75-25.417zm20.417-29.583s.656 5.834-5.505 3.75c0 0-5.12-8.96 6.755-11.46s33.334 9.794 44.375 20c11.04 10.21 7.71 16.67 7.71 16.67s-3.75 2.29-6.46-2.085c0 0-18.96-29.375-46.875-26.875zm17.917-23.125l-4.57 2.29s-1.264-6.456 4.57-8.124c5.833-1.666 32.083 4.793 47.083 17.918s10.417 13.957 8.125 15c-2.292 1.04-10.208-7.293-10.208-7.293s-19.584-17.7-45-19.79z" stroke-width="1.25"/>
    <path d="M291.133 148.597s27.9 1.13 54.774 26.94m-5.313-10.047s4.405 4.802-1.548 6.308m-43.194-28.345s-6.998 1.815-1.128 7.2m16.458-29.497s3.943-3.477 16.286 4.804m9.712 4.718s25.732 8.616 30.783 18.63m-4.943-11.21s-6.993-.346-3.577 7.117M329.84 94.168s19.035 3.354 24.503 5.463c0 0 23.548 8.3 32.165 23.45m1.252-8.78s1.61 6.75-3.677 7.69M351.31 71.03s-.95-7.72 5.3-7.33c6.25.39 23.437 1.327 34.687 13.124 0 0 13.28 13.536 15.156 19.7m1.113-9.78s1.62 7.89-4.94 7.11" stroke-width=".625"/>
    <path d="M372.303 44.534c-2.198-4.394 3.21-6.76 3.21-6.76l21.175-20.8" stroke-width="1.25"/>
    <path d="M369.03 43.748s9.085-6.305 31.145 5.102c0 0 22.2 11.623 29.2 21.866m-1.66-8.126s-6.98-.442-4.237 5.565M394.5 40.933s7.29-9.27 7.396-13.02c.104-3.75-.312-9.583 0-9.896.313-.312-.312-2.084 8.125 2.083 8.44 4.167 41.25 18.958 42.82 18.958 0 0 79.95 24.948 89.32 30.417 0 0 33.13 16.25 69.85 0 0 0 34.53-12.5 52.03-55.313 0 0 1.91-5.312 0-7.187-13.4-13.167-49.84 0-49.84 0l-70.63 27.812c-59.84 18.28-84.69 2.97-84.69 2.97-5.83-1.297-22.6-8.602-22.6-8.602s-25.52-14.68-35.205-14.368c-9.69.313-.522 1.875-1.86 12.293-1.34 10.416-8.68 13.33-8.68 13.33" stroke-width=".625"/>
    <path d="M387.99 46.675L375.278 62.58m-3.5 6.38L354.4 95.136m-4.155 5.096l-14.078 21.743m-4.374 6.182l-17.168 22.495m-3.443 5.313l-12.515 17.677 3.125 1.895 11.81-18.443m3.858-5.004l16.64-22.896m4.308-6.118l14.164-22.052m5.07-4.506l17.636-25.8m4.072-6.288l14.88-15.53m5.945-5.098s14.81-13.623 29.2-10.994c0 0 51.96 17.318 68.666 21.82 0 0 52.09 19.014 54.59 20.264 0 0 26.88 7.777 48.96 1.805 0 0 26.25-6.598 47.08-33.055 0 0 13.34-14.793 17.5-26.25 0 0 .35-6.46-1.28-10M369.1 46.142L358.503 58.94" stroke-width="1.25"/>
    <path d="M348.18 68.96s-69.93 88.64-83.993 94.89c0 0-60.312 52.812-95.937 67.5-35.625 14.687-78.438 26.25-125.313 67.812 0 0-17.812 19.688-24.062 34.063C12.625 347.6 32 359.475 32 359.475l29.375 12.812s141.25 2.5 175.625-4.375c0 0 151.25-10.312 197.813-36.25 0 0 42.187-12.85 90.312-66.112 0 0 33.125-43.263 125-74.825 0 0 36.563-10.313 39.375-27.5 0 0 11.563-31.563 1.875-76.563 0 0-21.25-61.25-23.75-72.5" stroke-width="1.25"/>
    <path d="M689.12 164.878s16.317 7.722-7.745 26.16l-91.563 37.5s-45.312 22.812-85.625 69.687c0 0-46.25 52.813-106.875 60.313 0 0-92.812 23.75-199.375 25.312 0 0-127.812 6.25-150 0 0 0-26.25-8.437-34.062-15.937 0 0-7.813-5-9.688-11.875-1.875-6.875 6.25-7.188 6.25-7.188l8.642-3.34" stroke-width="1.25"/>
    <path d="M10.438 348.85S5.36 358.92 33.25 368.225c21.477 7.165 5.938 13.438 106.563 10.313 0 0 177.187-4.063 258.437-27.188 0 0 51.25-5.625 110-60.625 0 0 46.875-49.062 72.5-60l98.438-42.187s11.615-5.938 15.338-16.563" stroke-width="1.25"/>
    <path d="M3.907 353.225l-2.844 15.937S-.5 380.725 15.125 388.85c15.625 8.125 36.227 17.222 81.25 16.875 23.915-.184 171.25-7.813 171.25-7.813 150-15.312 185.313-40.937 185.313-40.937 34.062-14.063 72.187-64.688 72.187-64.688 58.125-53.75 81.25-50.937 81.25-50.937l4.375 41.562L667 259.475c35-15.938 28.243-29.375 28.243-29.375l-.716-53.125" stroke-width="1.875"/>
    <path d="M13.875 367.913s-4.688 12.812 1.25 20.937M553.21 268.393l57.54 14.52" stroke-width="1.25"/>
    <path d="M13.62 347.62c.003 0-.994 11.542 43.694 27.792 0 0 94.008 2.435 186.562-4.687 0 0 115.938-8.125 153.75-21.563 0 0 85.083-23.992 113.166-68.715m20.642-21.845s61.268-43.326 95.598-52.896l45.675-24.38m-276.02-164.35s3.61 10.004-6.162 20.783m-6.292 8.38l-10.948 15.64m-5.32 6.37l-16.708 25.63m-3.077 5.79l-14.08 21.41m-4.297 7.16l-16.2 20.44m-4.41 6.49l-13.34 20.45 6.67 3.313 13.76-20.438m3.042-5.92l16.32-21.818m4.432-7.484l14.323-20.9m5.21-5.755l18.138-25.08m4.318-5.645l15.28-14.98m5.91-5.71s14.376-12 25.52-9.6c11.148 2.4 25.315 8.857 35.106 11.67l75.937 25.21s20.31 10.83 54.06 7.703c33.75-3.12 63.62-39.37 74.46-63.12m-187.9 29.7s56.56 2.484 95-21.578m2.81 0s69.063-33.54 85.78-10.938" stroke-width="1.25" stroke-dasharray="3.75"/>
    <path d="M687.317 182.575s11.282 43.798 1.108 63.63m7.342-22.98s1.363 15.61-86.202 48.43m84.96-75.305s.554 27.374-87.235 53.686m82.707-88.316s-9.96 12.528-40.496 20.855c-32.18 8.775-101.25 45.962-132.81 80.337 0 0-51.25 58.75-114.37 71.875 0 0-142.5 31.563-199.06 26.25 0 0-122.5 7.5-136.56 5.313 0 0-43.6-14.02-48.52-23.417" stroke-width="1.25"/>
  </g>
</svg>
