<?xml version="1.0" encoding="UTF-8"?>
<svg width="18px" height="18px" viewBox="0 0 18 18" version="1.1" xmlns="http://www.w3.org/2000/svg" xmlns:xlink="http://www.w3.org/1999/xlink">
    <!-- Generator: Sketch 46.2 (44496) - http://www.bohemiancoding.com/sketch -->
    <title>Phone_2_2x.png</title>
    <desc>Created with Sketch.</desc>
    <defs></defs>
    <g id="Page-1" stroke="none" stroke-width="1" fill="none" fill-rule="evenodd">
        <g id="Desktop" transform="translate(-1388.000000, -98.000000)" fill="#D19863">
            <g id="#1" transform="translate(0.000000, -4.000000)">
                <g id="top_header" transform="translate(391.000000, 31.000000)">
                    <g id="call-us" transform="translate(967.000000, 29.000000)">
                        <g id="Phone-2@2x" transform="translate(30.000000, 42.000000)">
                            <path d="M13.700927,17.1811934 C13.1875181,17.180635 12.6806514,17.0659464 12.216992,16.8454238 C12.1730943,16.8246043 12.1275188,16.8075262 12.0807503,16.7943712 C7.40705105,14.3977925 3.60338843,10.5942616 1.20615116,5.92014879 C1.19334026,5.87219108 1.1761222,5.82552127 1.15471698,5.78073568 C0.933262926,5.31719827 0.818167053,4.81002192 0.817842727,4.29628062 C0.817842727,2.31111652 2.55462972,0.818807201 3.6806849,0.818807201 C3.82257984,0.815310278 3.95495479,0.889957083 4.02541169,1.01320013 C4.03978847,1.03631552 4.05545283,1.05860441 4.07233066,1.07996133 L6.76555783,4.5436898 C6.78649024,4.5704502 6.80890512,4.5960166 6.8326971,4.62026883 C6.90953016,4.69665699 6.9527063,4.80055678 6.95264475,4.90891287 C6.95282428,4.98119934 6.93239434,5.0520386 6.89375065,5.11312362 L5.9822663,6.01636347 C5.97864487,6.02137259 5.97449875,6.02598039 5.96989854,6.03010842 C5.65146399,6.32780226 5.46502546,6.74033073 5.4519773,7.17610143 C5.43892915,7.61187213 5.60035123,8.03482103 5.90040351,8.35104212 C5.91061182,8.36675064 5.92101644,8.38245916 5.93259895,8.39816768 C6.95510533,9.80410967 8.19420428,11.0388396 9.60366448,12.0562891 L9.63723411,12.0798519 C10.2736839,12.6955972 11.2854987,12.6894901 11.9144726,12.0661069 C11.930374,12.0523619 11.9456865,12.0366534 11.96041,12.0229085 L12.8766059,11.0980694 C12.9379233,11.0596423 13.0088058,11.0392302 13.0811647,11.0391625 C13.1896902,11.0388041 13.2938368,11.0819428 13.3703348,11.1589399 C13.394285,11.1825027 13.4196095,11.2041019 13.4463081,11.2257011 L16.9092812,13.9197122 C16.9311205,13.9371055 16.9542179,13.9528571 16.9783836,13.9668377 C17.0046202,13.9824123 17.0290473,14.0008518 17.051216,14.0218175 C17.128049,14.0982057 17.1712252,14.2021055 17.1711636,14.3104616 C17.1711636,14.3379515 17.1725378,14.3654414 17.1752862,14.3929313 C17.1110916,15.5200175 15.6407023,17.1811934 13.700927,17.1811934 Z M17.98881,14.3104616 C17.9890116,13.9854673 17.8596411,13.673808 17.6293597,13.4445295 C17.563825,13.3789822 17.4905895,13.3216206 17.4112552,13.2736993 L13.9484785,10.5796883 C13.5175524,10.1453757 12.8310472,10.0991164 12.3457737,10.4716922 L11.3795179,11.4456204 L11.3771621,11.4436568 C11.212183,11.6307156 10.9704756,11.7316596 10.7214917,11.7174835 C10.4725078,11.7033075 10.2438142,11.5755811 10.1011233,11.3710049 C10.0958228,11.3788592 10.0891482,11.3867134 10.0838477,11.3945677 C8.74452682,10.4276059 7.56677766,9.2545703 6.59437231,7.91905785 C6.60399168,7.91120359 6.61223685,7.90531289 6.62185622,7.89745863 C6.41209092,7.75282698 6.28176174,7.51862114 6.26940368,7.26408978 C6.25704563,7.00955843 6.36407263,6.76382339 6.55883954,6.59954224 L6.55766166,6.59757868 L7.51959861,5.64328614 C7.68201352,5.43291125 7.77029392,5.17470894 7.77068379,4.90891287 C7.77127784,4.58326414 7.64188735,4.27084978 7.41123347,4.04101719 L4.71820262,0.57728872 C4.66956479,0.498764635 4.61263443,0.425693557 4.5483913,0.359333017 C4.31847668,0.128970187 4.00631094,-0.000332349375 3.68088121,6.41568511e-07 C2.04499945,6.41568511e-07 0,1.92233067 0,4.29628062 C0.000824341341,4.93086822 0.142785617,5.55732432 0.415596028,6.13025023 L0.402246699,6.14399519 C2.90239103,11.084319 6.91443673,15.0970336 11.8538117,17.5974692 L11.8669647,17.5837242 C12.4399458,17.8567455 13.0664468,17.9989345 13.7011233,18 C16.0727887,18 17.9954847,15.9539654 17.9954847,14.3183158 C17.9954847,14.3163523 17.9954847,14.3143887 17.9954847,14.3104616 L17.989399,14.3104616 L17.98881,14.3104616 Z M9.82019845,8.99901854 C10.1509769,8.99893886 10.4491221,8.79952551 10.5755587,8.49379852 C10.7019952,8.18807153 10.6318123,7.83626585 10.3977481,7.60248775 C10.1636839,7.36870966 9.81185412,7.29901856 9.50637635,7.42592318 C9.20089859,7.55282779 9.00195864,7.85132512 9.00235572,8.18217554 C9.00245979,8.39898803 9.08869614,8.60687333 9.24208271,8.7600724 C9.39546929,8.91327148 9.60343332,8.99922694 9.82019845,8.99901854 L9.82019845,8.99901854 Z M9.82019845,0.818807201 C13.8859876,0.818807201 17.1819609,4.1154995 17.1819609,8.18217554 C17.1868336,8.40462812 17.368523,8.58241916 17.5909804,8.58241916 C17.8134378,8.58241916 17.9951272,8.40462812 17.9999999,8.18217554 C18.0003124,6.01213411 17.1386335,3.93087361 15.6045723,2.39636734 C14.0705112,0.86186108 11.9897666,-0.000155633919 9.82019845,6.41568444e-07 C9.59414063,7.17806147e-07 9.4108846,0.183296787 9.4108846,0.409403921 C9.4108846,0.635511055 9.59414063,0.818807125 9.82019845,0.818807201 L9.82019845,0.818807201 Z M9.82019845,4.90891287 C10.6880942,4.90886076 11.5204495,5.25372344 12.1340892,5.8676075 C12.7477289,6.48149157 13.0923666,7.31409052 13.0921583,8.18217554 C13.097031,8.40462812 13.2787204,8.58241916 13.5011778,8.58241916 C13.7236353,8.58241916 13.9053246,8.40462812 13.9101973,8.18217554 C13.9103535,7.09704753 13.4795319,6.05630147 12.7125084,5.28888963 C11.9454848,4.52147778 10.9050898,4.09026253 9.82019845,4.09010631 C9.59414057,4.09010631 9.41088446,4.2734024 9.41088446,4.49950959 C9.41088446,4.72561678 9.59414057,4.90891287 9.82019845,4.90891287 Z" id="Phone_2_2x.png"></path>
                        </g>
                    </g>
                </g>
            </g>
        </g>
    </g>
</svg>