<svg width="814" height="529" viewBox="0 0 814 529" xmlns="http://www.w3.org/2000/svg">
  <title>
    лоферы
  </title>
  <g stroke="#000" fill="none" fill-rule="evenodd">
    <path d="M402.157 93.457s-64.18 65.99-74.125 72.316C318.09 172.1 208.712 247.13 71.31 323.966c0 0-55.143 37.966-52.43 92.203 2.71 54.23 65.988 65.08 85.876 65.98 19.886.9 101.242 15.37 236.836-8.14s149.152-35.26 149.152-35.26 63.278-27.12 113.9-95.82c0 0 65.084-65.09 121.13-81.36 56.044-16.27 75.028-50.62 76.835-53.33 1.8-2.717 16.27-60.57 7.23-114.807s-13.56-68.7-13.56-68.7-8.14-41.58-107.57-13.56L523.28 74.47l-45.19 24.41s-53.334-50.62-75.933-5.423z" stroke-width="1.25"/>
    <path d="M487.58 278.768s-14.01 11.3-14.01 15.594c0 4.293 0 13.558 10.847 10.395 10.847-3.164 36.16-12.43 47.684-22.825 11.53-10.395 44.75-29.153 44.75-29.153s20.34-12.21 20.57-19.89c.23-7.69-6.55-18.31-19.89-9.49-13.33 8.81-60.56 39.33-60.56 39.33l-29.38 16.03z" stroke-width="1.25"/>
    <path d="M504.078 296.395s-18.758 8.588-18.305 0c.45-8.587 6.78-18.53 21.016-24.406 14.23-5.88 74.8-46.56 74.8-46.56s9.04-6.56 10.62 0c1.58 6.55 1.56 15.13-20.46 30.27" stroke-width=".625"/>
    <path d="M483.345 282.394s11.693-7.92 4.46 2.476c-7.23 10.395-13.105 15.342-.43 18.982" stroke-width=".625"/>
    <path d="M485.057 279.507s-24.822 11.69-15.103 22.99c9.718 11.3 23.386 2.297 31.24-3.596m78.52-76.8s24.714-13.39 17.702 15.99c0 0-4.9 7.14-16.463 12.05m54.65-62.44s-7.23 11.98-2.71 17.18c4.52 5.2 14.235 2.94 23.05-3.39 8.813-6.33 63.277-44.52 63.277-44.52s11.75-1.13 5.875-16.27c0 0-.904-11.07-13.56-1.35l-54.69 34.13-21.24 14.238z" stroke-width="1.25"/>
    <path d="M631.68 202.51s1.438-8.26 15.223-18.205c13.786-9.944 64.78-41.32 69-47.78" stroke-width=".625"/>
    <path d="M645.39 181.134s-10.916 13.114-2.102 18.764c8.812 5.65 65.536-39.322 65.536-39.322l7.08-6.554s-4.367-13.785 2.41-13.56c6.78.226 4.295 8.59 4.295 8.59s.78 4.07 4.12-.45" stroke-width=".625"/>
    <path d="M708.447 141.26s3.495-3.54 16.06 13.086M634.5 189.74s-11.038 9.705-2.82 19.875c8.217 10.17 22.76-7.105 22.76-7.105m62.763-44.136s-20.53 18.634-33.914 25.93c-13.39 7.296-28.85 20.565-28.85 20.565" stroke-width="1.25"/>
    <path d="M795.604 54.36s2.764-9.132 5.876 0c3.113 9.133 1.582 21.47 0 23.956-1.582 2.486-29.38 40.226-29.38 40.226s-12.202 10.395-17.626 2.26c-5.424-8.136.678-22.825 5.424-23.955 4.746-1.13 35.706-42.486 35.706-42.486z" stroke-width=".938"/>
    <path d="M798.558 50.307v5.41l-38.66 46.328s-10.396 10.395-3.164 16.497c7.232 6.1 21.082-7.767 21.082-7.767" stroke-width=".625"/>
    <path d="M800.94 52.948s-2.624 5.933-11.664 17.232c-9.04 11.3-22.75 33.306-31.713 28.178" stroke-width=".5"/>
    <path d="M755.62 100.975s-9.47 12.262-3.274 22.937c6.195 10.675 21.095-7.19 21.095-7.19" stroke-width="1.25"/>
    <path d="M485.11 106.08l96.03-40.646S686.903 17.976 700.01 16.62c13.108-1.355 84.52-12.203 84.52 13.108" stroke-width=".938"/>
    <path d="M706.41 15.874s33.343-13.716 67.03-6.485c33.69 7.23-6.99 48.36-6.99 48.36s-72.65 70.51-124.91 93.56l-121.417 68.76s-22.147 19.83-28.023-10l9.944-46.11s6.095-30.66-9.944-49.82c-14.56-17.39-19.527-19.99-19.527-19.99" stroke-width=".938"/>
    <path d="M482.042 102.764S539.86 70.556 620.01 41.63c0 0 68.375-28.588 99.436-34.346 31.06-5.76 45.726-4.395 47.496-4.005m-106.495 27.8s44.013-13.26 54.067-16.12m-100.83 61.32s-28.935 73.21-19.59 100.63" stroke-width=".625"/>
    <path d="M777.815 43.97s-1.844-20.118-53.307-1.435c-51.465 18.68-94.253 39.472-105.402 31.938 0 0-28.933 73.21-19.588 100.635m77.174-114.28s-40.97 39.706-71.125 54.55" stroke-width=".625"/>
    <path d="M793.02 18.088s9.713 24.747-31.177 58.194c0 0-69.517 63.624-104.168 78.064l-122.182 69.28s-32.394 21.093-42.037 13.26c-9.642-7.835-12.972-14.164-7.69-41.584 5.28-27.42 6.485-49.717 6.485-49.717s.91-21.695-12.65-36.76c0 0-28.32-36.762-60.86-26.818 0 0-5.5.803-14.8 8.235" stroke-width="1.25"/>
    <path d="M790.44 14.963s6.923 22.908-18.565 48.965l-69.906 59.985s-69.87 44.027-96.41 57.707l-95.24 52.977s-19.06 6.53-22.9-9.16c-3.85-15.69 6.02-55.01 6.02-55.01s6.63-25.805-3.92-50.332c0 0-9.6-16.722-17.91-19.87" stroke-width=".625"/>
    <path d="M446.45 262.737s4.822 8.196-5.122 12.415c0 0-8.135 3.014-13.56-4.82-5.422-7.835-43.087-31.703-43.087-31.703s-37.36-24.95-38.87-28.27c0 0 5.43-15.97 10.55-12.96 5.12 3.01 25.31 19.58 25.31 19.58l32.85 21.63 31.94 24.1z" stroke-width="1.25"/>
    <path d="M348.974 217.902s31.036 19.285 34.05 23.502c3.012 4.22 32.09 28.324 34.2 28.928 2.108.602 5.846 2.326 11.435 1.162m9.33-15.144s2.38 14.675 7.45 16.136c5.07 1.46 4.62-7.126 4.62-7.126s-5.32-9.732-12.08-9.01zm-80.65-58.313s-5.81 1.936-9.58 11.277l24.25 18.53 31.4 23.175" stroke-width=".625"/>
    <path d="M352.89 246.075s20.34-5.825 25.764-1.18c5.423 4.645 29.766 22.294 34.468 22.584" stroke-width=".5"/>
    <path d="M358.315 198.037s2.71-3.112-5.424-11.473c0 0-8.36-16.95-16.94-7.684-8.58 9.267-12.2 12.125-11.97 18.153.23 6.03-2.94 11.68 4.97 18.46 7.91 6.777 11.08 4.82 13.11 2.41 2.03-2.41 10.4-28.055 16.27-19.866z" stroke-width="1.25"/>
    <path d="M347.252 206.91s-5.255 2.022-8.372 7.45c-3.118 5.43-11.978-8.813-11.978-8.813s-1.58-11.75 5.424-16.723c7.006-4.972 9.567-12.882 13.484-7.458 3.917 5.424 8.265 10.214 10.385 9.063m-25.18-6.3s18.68 13.88 17.96 18.97m-11.22-25.81s14.08 11.27 17.094 19.3" stroke-width=".625"/>
    <path d="M327.987 187.5s1.477 18.503 18.615 20.76m-12.694 20.112s14.01-17.858-3.84-3.845m4.532 5.427s12.582-6.764 14.395-16.52c0 0 .96 12.904 1.862 16.52.904 3.616 3.617 5.044 2.034 13.144l-1.58 8.1s-11.94-20.34-16.71-21.244z" stroke-width=".938"/>
    <path d="M340.005 226.53s3.823 12.062 12.535 18.365m-73.095 21.218s.452-8.362 7.23-4.747c6.78 3.617 20.792 5.424 25.086 28.475 4.3 23.06 0 12.66 0 12.66" stroke-width=".5"/>
    <path d="M334.6 229.954c-10.606-11.645-20.93-1.582-20.93-1.582s-29.48 28.475-34.225 30.735c-4.746 2.26-2.938 9.943-2.938 9.943l-36.31 27.345s-1.053 3.8-.602 5.817h7.382s13.812-14.865 16.774-15.313m87.56-35.71s6.1 11.98-8.81 24.52-28.82 29.11-28.82 29.11" stroke-width=".938"/>
    <path d="M278.013 269.05s3.767-9.717 12.957-4.445c9.19 5.274 18.978 15.398 22.296 34.29m-4.796-19.85s9.017 7.407 10.372 14.337c0 0 16.355-27.12 22.64-16.8" stroke-width=".625"/>
    <path d="M334.6 251.02l-14.4 12.018v6.012l4.776-.677 14.16-9.34s7.156-11.808-4.535-8.014z" stroke-width=".938"/>
    <path d="M329.894 226.085s-32.354 21.02-40.837 36.4m-6.373-2.025s4.67-7.154 16.572 4.297c11.903 11.45 16.632 14.647 16.678 37.455" stroke-width=".625"/>
    <path d="M308.47 278.016s6.003-4.22 6.455-13.71c.452-9.492 26.558-27.884 26.558-27.884" stroke-width=".625"/>
    <path d="M318.24 262.484l14.867-12.216s6.375-5.248 9.237-1.482c2.863 3.768 2.89 7.528-1.04 11.674s-14.477 10.624-14.477 10.624l-6.63-2.034" stroke-width=".625"/>
    <path d="M320.703 260.46s16.062-23.123 20.434-19.81c4.372 3.316 6.782 12.346 4.673 16.57-2.11 4.222-16.873 14.668-16.873 14.668l-1.013-1.49" stroke-width=".625"/>
    <path d="M289.058 263.694s-35.903 31.827-36.355 35.202c-.453 3.375 0 10.004 0 10.004l11.3 1.205s34.893-37.875 37.107-37.392m1.762 3.01s-31.186 32.123-34.5 37.696c0 0-1.056 7.68-.754 10.09l9.188 1.2s31.02-38.02 32.695-37.82m1.11 1.83s-18.03 14.74-22.07 28.75c-4.04 14.01-3.28 15.21-3.28 15.21l1.06 9.19 8.14-5.575s4.417-25.447 18.83-36.1" stroke-width=".938"/>
    <path stroke-width=".625" d="M243.964 302.21l-1.506 7.895 10.044-1.96m-3.952.773l1.59 8.72 10.246-2.323.603-5.21"/>
    <path stroke-width=".5" d="M257.807 315.9l3.182 7.162 6.57-1.81"/>
    <path stroke-width=".625" d="M272.59 324.72l.602 9.04h11.998"/>
    <path d="M243.582 304.214l-7.602.62v8.444l5.122 1.347-.602 3.013h3.766l-.602 9.04 5.875-1.96v6.48h7.08l-1.21 4.67 7.27-2.11 2.82 4.37h7.08s13.04-2.02 13.37.872" stroke-width=".5"/>
    <path stroke-width=".5" d="M248.55 311.16l-1.874 11.902 13.294-2.292-5.2 5.456 3.036 4.97 12.223-6.478-.61 6.48h3.16"/>
    <path d="M311.73 292.205s-16.994 13.08-21.212 38.24l-2.863 3.313-2.457-1.83" stroke-width=".625"/>
    <path d="M304.368 276.71s-27.596 28.423-31.025 37.765c-3.428 9.34-5.47 3.163-5.47 3.163m23.097-53.032l-34.802 33.57-.753 8.615 9.19-1.95 34.623-34.04" stroke-width=".5"/>
    <path d="M285.968 263.273s-36.58 32.97-41.1 38.245m34.577-35.405s27.367-2.982 31.423 36.098" stroke-width=".625"/>
    <path d="M275.377 198.128s-.226 13.476 4.067 15.306c0 0 3.315-2.01 3.24-3.82-.076-1.806-5.273-9.942-3.24-14.688l-4.067 3.202z" stroke-width=".5"/>
    <path d="M271.083 194.926s-4.294-8.36-8.814-4.52c0 0-5.29 8.316 5.6 23.03 10.89 14.71 9.99 14.032 13.38 14.936 3.39.904 1.78-12.27 1.43-14.937" stroke-width=".938"/>
    <path d="M275.375 197.033s-4.776-6.09-7.81.534c-3.035 6.625 7.81 20.335 7.81 20.335s10.326 9.41 5.877-4.467m2.938-4.528s28.168-14.468 39.336-2.004" stroke-width=".625"/>
    <path d="M279.032 196.61s28.4-15.017 45.027-1.684m-41.7 33.49l-50.61 20.296c-10.17-3.843-14.69-16.95-17.4-30.81-2.72-13.862 3.39-13.722 3.39-13.722L260 189.397c8.81-4.852 12.17 4.226 12.17 4.226" stroke-width="1.25"/>
    <path d="M274.697 222.67s-37.642 12.386-36.9 23.62c0 0-5.72-8.165-14.804-4.68m-9.143-26.988s28.678-20.59 47.136-20.143m19.6 9.7s10.745-11.18 20.96-10.56c10.215.62 21.98 5.26 21.98 5.26" stroke-width=".625"/>
    <path d="M284.19 216.823s10.646-14.74 17.865-10.523c7.22 4.22 17.59 1.038 11.614 9.295-5.98 8.258-30.3 10.49-30.3 10.49" stroke-width=".5"/>
    <path stroke-width="1.25" d="M215.788 224.335l-50.467 23.09v7.162l6.56 4.67 47.21-24.776m3.91 9.81l-40.5 24.77-6.55-1.57-3.39-7.02 47.46-25.98"/>
    <path d="M213.665 212.1l-51.282 13.985-3.617 5.225 1.583 9.016s1.1-.42 2.98-1.126c10.78-4.043 47.19-17.534 50.51-16.53" stroke-width=".5"/>
    <path stroke-width=".5" d="M163.336 239.2l-4.57 7.09 6.554 6.49m49.436-46.48l-51.244 16.37-1.13 3.416"/>
    <path d="M165.32 251.02l51.278-23.675s29.34-20.22 46.927-21.045m-103.612 41.126s46.638-21.575 48.12-20.897m-33.13-3.86l-11.165 8.19 4.068 3.62s42.142-14.71 46.043-13.46m8.26 19.3l-42.14 20.13" stroke-width=".625"/>
    <path d="M419.402 85.3c3.546.323 24.036-14.95 57.784 27.037 0 0 22.112 16.875-.997 102.048 0 0-1.2 35.533 28.37 23.63" stroke-width="1.25" stroke-dasharray="2.5"/>
    <path d="M314.485 186.162s60.167-54.522 64.73-60.657M310.87 187.97s60.166-54.522 64.73-60.657c4.56-6.135 36.64-40.53 40.186-40.207 3.546.324 24.035-14.95 57.784 27.038 0 0 22.112 16.875-.998 102.05 0 0-8.452 40.84 22.09 41.025 30.542.18 85.052-58.33 85.052-58.33" stroke-width=".625"/>
    <path d="M447.62 90.276s-16.537 6.496-17.742 23.068c0 0-62.07 61.053-61.47 73.615.604 12.56-6.55 14.32-6.55 14.32" stroke-width=".625"/>
    <path d="M5.32 440.576s-1.808 34.35 91.3 51.525c93.107 17.18 308.117-19.88 308.117-19.88s81.85-15.37 134.55-45.2c0 0 42.757-28.92 44.565-37.06 1.808-8.13 77.745-86.3 99.438-98.29 21.692-11.99 69.056-43.61 69.056-43.61s54.325-25.68 50.94-52.17" stroke-width="1.25" stroke-dasharray="5"/>
    <path d="M18.88 416.17s-19.89 15.366-13.56 31.637c0 0-1.808 34.35 91.3 51.525 93.107 17.175 308.118-19.886 308.118-19.886s81.85-15.368 134.55-45.2c0 0 42.756-28.925 44.564-37.06 1.808-8.136 77.745-86.3 99.437-98.29 21.69-11.994 69.05-43.61 69.05-43.61s54.32-25.686 50.94-52.176c0 0-45.88-18.282-103.73 39.988C641.7 301.368 579.71 339 579.71 339s-54.62 146.774-469.535 131.407c0 0-64.38 0-91.4-45.198" stroke-width=".625"/>
    <path d="M4.077 442.384s-5.763 30.735 0 35.254c5.762 4.52 10.282 32.542 90.735 46.102 80.452 13.56 249.575-9.04 249.575-9.04s118.083-18.266 145.78-29.472c27.696-11.205 69.278-32.9 79.222-42.844 9.94-9.944 23.01-46.1 29.58-52.43 0 0 39.71-53.785 109.47-86.1V339s59.75-27.288 67.92-38.788c0 0 18.14-8.237 22.19-41.96l4.88-43.63" stroke-width="1.875"/>
    <path d="M679.073 319.64L708.447 339m-553.974-62.718s-64.784 39.653-79.85 52.558c-15.065 12.903-11.45 24.353-5.424 24.956 0 0 37.81 37.796 185.57 9.32 0 0 110.99-32.755 161.01-64.94" stroke-width="1.25"/>
    <path d="M154.473 276.282s-64.784 39.653-79.85 52.558c-15.065 12.903-11.45 24.353-5.424 24.956 0 0 37.81 37.796 185.57 9.32 0 0 110.99-32.755 161.01-64.94" stroke-width="2.5" stroke-dasharray="8.75"/>
    <path d="M172.552 269.05s-64.784 39.653-79.85 52.558c-15.065 12.904-11.45 24.354-5.424 24.956 0 0 30.132 33.448 184.9-4.67 0 0 87.493-25.572 137.51-57.758" stroke-width="2.5" stroke-dasharray="8.75"/>
    <path d="M82.066 339S77.46 327.334 67 337.4m15.4 4.494s-15.488-5.272-15.4 7.684m20.28-3.013s-15.736 3.155-11.184 11.972m26.717-4.057s-21.863 4.84-15.534 9.16m30.13-5.102s-21.89 4.767-6.43 11.462m25.1-8.37s-15.97 3.464-7.23 9.717m25.31-9.717s-15.07 6.027 1.5 13.56m18.13-16.13s-18.14 6.597-6.69 14.678m25.08-14.678s-14.7 5.435 0 13.043m18.98-17.623s-14.85 10.935 3.24 15.52m17.187-17.45s-14.77 7.95 0 13.94m20.89-16.912s-19.23 5.826-.48 14.062m15.537-18.435s-17.36 9.823.31 14.932m14.81-18.243s-15.57 10.56 5.85 12.586m27.4-25.24s-21.07 16.05-11.566 18.948m30.232-25.126s-15.84 6.567-7.89 15.94m28.362-26.97S335.4 323.798 340 333.976m31.234-29.14s-16.994 14.59-11.57 20.174M383 300.212s-14.18 13.9-8.363 19.43m23.895-27.962s-10.59 14.754-3.486 18.246m18.067-27.28s-13.075 15.406-5.844 18.87" stroke-width="1.25"/>
    <path d="M263.525 276.71S23.632 330.55 30.145 439.8m10.19-85.32S2.61 397.186 55.04 417.073c52.43 19.888 235.056 16.272 318.206 0 83.15-16.27 84.054-19.887 100.325-28.926 16.27-9.04 46.1-53.202 53.34-54.172 7.23-.97 122.04-84.834 132.88-101.66 10.85-16.824 5.63-70.12-41.91-55.4" stroke-width=".625"/>
    <path d="M308.47 354.48s26.76 18.3-26.105 30.05c-52.863 11.752-184.17 23.626-199.965 50.622-15.793 26.996-7.13 41.84-7.13 41.84" stroke-width=".625"/>
    <path d="M796.69 222.522s-2.21 49.536-9.896 68.258m-75.472-8.83l1.876 54.842m-11.744-48.67v19.09m96.45-44.475s1.733 26.78-89.457 66.584M6.8 454.21s-3.76 18.4 2.2 30.106m2.254-22.502s-2.677 18.79 5.486 31.47m13.274-15.733s-3.95 19.73 1.346 26.33m38.48-10.59v25.23m6.193-23.61v25.12" stroke-width="1.25"/>
    <path d="M168.333 503.876l1.51 24.152m62.99-27.27l2.72 24.56" stroke-width="1.875"/>
    <path d="M564.85 415.736s4.6 19.07-25.563 46.06" stroke-width="1.25"/>
  </g>
</svg>
