<?xml version="1.0" encoding="UTF-8"?>
<svg width="24px" height="18px" viewBox="0 0 24 18" version="1.1" xmlns="http://www.w3.org/2000/svg" xmlns:xlink="http://www.w3.org/1999/xlink">
    <!-- Generator: Sketch 46.2 (44496) - http://www.bohemiancoding.com/sketch -->
    <title>Mail</title>
    <desc>Created with Sketch.</desc>
    <defs></defs>
    <g id="Page-1" stroke="none" stroke-width="1" fill="none" fill-rule="evenodd">
        <g id="Desktop" transform="translate(-391.000000, -12816.000000)" fill="#D19863">
            <g id="#8" transform="translate(1.000000, 12472.000000)">
                <g id="left" transform="translate(390.000000, 272.000000)">
                    <g id="email" transform="translate(0.000000, 70.000000)">
                        <path d="M22.909257,17.7483126 C22.9082561,17.8144585 22.9017743,17.8803952 22.8898823,17.9454027 L16.1548227,10.9986501 L22.8898823,4.05459727 C22.9016405,4.11871535 22.9081218,4.1837436 22.909257,4.24898755 L22.909257,17.7483126 Z M21.8182528,18.8741563 L2.18174724,18.8741563 C2.05781228,18.8726799 1.93498688,18.8498672 1.81834098,18.8066597 L8.61649919,11.7951102 L10.4892982,13.7255137 C10.8891381,14.1402696 11.4328622,14.3734837 12,14.3734837 C12.5671378,14.3734837 13.1108619,14.1402696 13.5107018,13.7255137 L15.3835008,11.7951102 L22.1827063,18.8066597 C22.0656795,18.8497951 21.9425218,18.8726039 21.8182528,18.8741563 L21.8182528,18.8741563 Z M1.09074299,17.7483126 L1.09074299,4.24898755 C1.0919197,4.18375909 1.09831233,4.11874187 1.10985586,4.05459727 L7.84517725,10.9986501 L1.10985586,17.9454027 C1.09818143,17.8803683 1.09178831,17.814443 1.09074299,17.7483126 L1.09074299,17.7483126 Z M2.18174724,3.12584371 L21.8182528,3.12584371 C21.942273,3.12732035 22.0651844,3.15013266 22.1819208,3.19334033 L12.7391181,12.9317534 C12.5430475,13.1340145 12.2770752,13.2476499 11.9997382,13.2476499 C11.7224012,13.2476499 11.4564289,13.1340145 11.2603583,12.9317534 L1.81807916,3.19334033 C1.93480795,3.15010324 2.05772423,3.12729004 2.18174724,3.12584371 L2.18174724,3.12584371 Z M21.8182528,2 L2.18174724,2 C0.977048647,1.99985087 0.000289731566,3.00671324 5.66314617e-07,4.24898755 L5.66314617e-07,17.7483126 C-0.00041623521,18.3453014 0.229253328,18.9179902 0.638447851,19.3403024 C1.04764237,19.7626145 1.60281569,19.9999285 2.18174724,20 L21.8182528,20 C22.3971843,19.9999285 22.9523576,19.7626145 23.3615521,19.3403024 C23.7707467,18.9179902 24.0004162,18.3453014 23.9999994,17.7483126 L23.9999994,4.24898755 C23.9997103,3.00671324 23.0229514,1.99985087 21.8182528,2 Z" id="Mail"></path>
                    </g>
                </g>
            </g>
        </g>
    </g>
</svg>