<svg xmlns="http://www.w3.org/2000/svg" viewBox="0 0 585.22 279.78"><defs><style>.cls-1,.cls-2,.cls-3,.cls-4,.cls-5{fill:none;stroke:#000;stroke-miterlimit:10;}.cls-2{stroke-width:1.5px;}.cls-3{stroke-width:0.5px;}.cls-4{stroke-width:0.75px;}.cls-5{stroke-dasharray:3;}</style></defs><title>Ресурс 3</title><g id="Слой_2" data-name="Слой 2"><g id="Слой_1-2" data-name="Слой 1"><g id="Слой_2-2" data-name="Слой 2"><path class="cls-1" d="M234.42,99.28s63-61.3,66.7-63.3c0,0,24.3-28.3,44.3-27s47,23.7,50,26.7c0,0,30.3,25.7,63,34.3,0,0,27,6.3,66.3-10,0,0,38.7-19.3,30-33,0,0-10-17.3-79.3,9.3,0,0-54.7,10.7-68.3,8"/><path class="cls-1" d="M556,28.58s39.7,77,20.1,140.3c0,0,11.7,12-87.3,26a876.16,876.16,0,0,0-124.3,45.3s-41.7,24.3-120.3,18.7c0,0-115.3-.3-196.7-14.7,0,0-37-7-39.3-18.7,0,0-14-34.3,27-54.3,0,0,24.7-13.7,64-17,0,0,37.7-7.7,60.3-18,0,0,24.7-11.3,45-32.3l3.7-1.3s61.3-55.7,105.3-85.7c0,0,25-20.3,26-15.7s2.7,7.6,4.3,7.6"/><path class="cls-1" d="M8.12,225.58s-5.7,5.3-5.7,6.4-1.9,11-1.9,11,6.3,12.8,55.6,22.5c0,0,71.8,10.8,108,12,0,0,84.3,1.8,99.3,1.8,0,0,45.8-.5,74-8.8a210.15,210.15,0,0,0,57.8-25.3s30.3-14,56.3-21,22-7.3,22-7.3l.2,36.8s55.3-6.3,80.5-12.8c0,0,28-5.5,30.5-19.3v-48.5l-7.3-9"/><path class="cls-2" d="M583.22,176.48s-16.8,13.8-53.5,18.3-77.5,17-86,20c0,0-49,16-77.5,32.8,0,0-36.8,19.3-85.5,17.8,0,0-95.3,3-145.8-3.8,0,0-57.3-3.5-97-12.8,0,0-34.7-7.8-34.6-18.3"/><line class="cls-1" x1="32.72" y1="240.58" x2="45.22" y2="250.38"/><line class="cls-1" x1="129.52" y1="254.08" x2="177.92" y2="264.88"/><path class="cls-3" d="M475.12,253.58l-.9-37.6c-2.5,1.8-21.4,6.5-21.4,6.5-8.6,0-43.4,15.4-43.4,15.4-14,4.4-31.4,15.5-31.4,15.5-27,13.8-48.5,18.1-48.5,18.1-36,7-76.3,6.6-76.3,6.6s-106.8-.9-123.9-4.4c0,0-65.9-5.4-112.8-19.7"/><line class="cls-1" x1="435.82" y1="229.78" x2="473.62" y2="253.78"/><path class="cls-1" d="M474.32,250.18s63.5-8.5,66.9-9.6c0,0,24.4-4.2,35.9-8.6"/><path class="cls-1" d="M584.72,213.38s-21,15.6-58,17.8l-52.4,7.3"/><path class="cls-1" d="M584.72,191.18s-9.9,12.3-44.5,17.8-65.9,12.9-65.9,12.9"/><path class="cls-1" d="M584.72,185.88a89.7,89.7,0,0,1-39.8,16.8c-23.9,3.7-70.6,14.1-70.6,14.1"/><path class="cls-1" d="M580.22,178.58s3.1,39.6-1.7,52.3"/><line class="cls-1" x1="448.72" y1="213.38" x2="438.72" y2="228.08"/><line class="cls-1" x1="423.72" y1="221.78" x2="413.22" y2="237.48"/><path class="cls-1" d="M286.92,265.38s43.7-5.9,63-14.4,12.2-4.2,26-11.5,60-26.2,67.8-24.7"/><path class="cls-4" d="M134.42,145.28s25,.2,35.7,15.5c0,0-29.3,11-76.5,6.5s-69.5,13.3-72,16.8-8,8.7-11.3,23.8c0,0-2,7,16,11.3s132.3,17.8,166,13.8c0,0,51,0,69.7,4.8s81.7,2.4,120-27.9,22.9-30.7,61.6-39.3c0,0,93.7-23,105.7-27s31-.9,27.7-34c0,0-7.2-49.5-14.1-65.1"/><path class="cls-1" d="M222.72,92.78s10.1-5.4,13.9,17.3"/><path class="cls-1" d="M227.92,87s-3.1,2.4-4.3,0,1.2-7.7,4.3-6.1,15.9,11.9,22.8,19.8a23.5,23.5,0,0,0,15.8,8.1s3.1,4.4-3.6,5.2c0,0-11.1-2-16.4-10.5S227.92,87,227.92,87Z"/><path class="cls-1" d="M251.32,65.08s-1.1,5.2-4.2,3.5.4-8.6,3.1-9.2,9.6.8,15.6,7.2,20.8,20.6,20.8,20.6.5,8.1-6.5,4c0,0-13.8-20-21.2-24.2S253.12,63.58,251.32,65.08Z"/><path class="cls-1" d="M261.22,106.88s4.1-3.1,7.1,1.2-2.7,7.5-5.5,6.3"/><path class="cls-3" d="M259.62,107s5.5-6.8,10.6.6c0,0,2.4,11.6-7.9,8.2,0,0-2.7-1.2-3.5-3"/><path class="cls-1" d="M284.12,84.68s4.5-.8,5,3.2-2.5,6.3-6,5.7-3.6-3.4-3.6-3.4"/><path class="cls-3" d="M283,83.58s3.5-2,6.1.6,3,7.9-1.2,9.5-5.6.6-7.4-1.4"/><path class="cls-1" d="M273.92,48s-2.8,3-4.3.7,2.1-7,3.6-6.8,8.8,4.1,15.6,12.8a40.78,40.78,0,0,0,14.8,12s1.9,2.3-1.3,4.2A3.92,3.92,0,0,1,297,70s-17.9-17.8-19.3-19.8A5.8,5.8,0,0,0,273.92,48Z"/><path class="cls-1" d="M300.22,64.18s3.8-1.3,4.8,1.4.6,5-3.2,6-3.1.1-4.8-1.6"/><path class="cls-3" d="M298.52,63.88s4.5-4,7.6-.9,2.7,9.6-2,10c0,0-6.8,3.4-8.2-3.9"/><path class="cls-1" d="M296.62,30.08s-2.8,4.3-4.9,1.3-1.3-7.1,3.3-7.3,16.3,11.1,16.3,11.1,11.8,11.5,12.8,11.8,2.4,3.3,1,4.5-3.7,2.8-8.2-.9-6.9-11.2-12.8-14.9S297.52,30.48,296.62,30.08Z"/><path class="cls-1" d="M322.72,44.88s6.3,1.4,4.3,6.2-7.2,4.3-7.8,3a26.48,26.48,0,0,0-2.4-3.6"/><path class="cls-3" d="M320.52,43.88s4.3-1.6,6.3.3,5.9,6.7,2.7,9.9-5.3,5.9-8.4,4.2-6.3-4.9-5.3-8.3"/><path class="cls-1" d="M318.62,13.78s-3.2,4.5-4.6,1.3-1-6.4,1.6-7.2,7.1.7,17.3,9.8,10.8,12.8,11.4,13-1,5.2-5.8,2.2C338.62,32.88,329.12,19,318.62,13.78Z"/><path class="cls-1" d="M342.72,27.38s6.8,2.4.4,7.3c0,0-5.9,2.3-5.9-3.7"/><path class="cls-1" d="M339.72,2.48s-30,20.9-35.6,26.5-39.5,33.4-41.2,34.9S235,91,232,96.48"/><path class="cls-3" d="M298.62,33.88s-32.5,24.3-36.4,29.4-30.2,28.2-31.1,31.2"/><path class="cls-3" d="M220.72,108.88l-17.8,17.5s9,16.2,31.5,13.8c0,0,3.7.8,17-7.5"/><path class="cls-2" d="M280.52,54.78s-12,6.9-14.7,11.7"/><path class="cls-2" d="M262.32,69.48s-19.6,17.3-21.3,21.6"/><path class="cls-4" d="M221.22,93.58a11.77,11.77,0,0,1,4.8,12.2"/><path class="cls-1" d="M463.92,201.28c11.9-26.9-2.3-48.1-6.9-54-.8-1.1-1.6-2.2-2.4-3.4-20-33.2-69.2-25.2-69.2-25.2-9.3.3-76,21.7-76,21.7,1.5-31.5,8.8-37.5,12.8-46.1s60.5-62.2,60.5-62.2,44.1,36.9,70.9,41.5c0,0,38.2,7.9,67.3-8,0,0,21.9-2.8,38.8-29.3"/><path class="cls-1" d="M352.92,13.58s17,7.7,24.2,15c0,0-39.7,33.6-42.8,39.2s-33.2,25.6-30.1,74.1c0,0-14.7,9.1-43-10.2l-25.7-19a102.17,102.17,0,0,0-8.3-6,34.05,34.05,0,0,0-10.7-4.6s2.8-10,7.6-9.2,10.1,8.8,11.3,19.1"/><line class="cls-1" x1="208.12" y1="102.58" x2="216.42" y2="102.08"/><path class="cls-5" d="M139.32,142.78s69.8-.5,78.4,116.5"/><path class="cls-5" d="M142.32,142.78s69.8-.5,78.4,116.5"/><path class="cls-1" d="M145.32,141.78s69.8-.5,78.4,116.5"/><path class="cls-3" d="M10.42,209.28s-2.9,14,12.3,27.9"/><path class="cls-3" d="M7.32,223.18s8.6,12.8,60.9,19.8c0,0,110.5,14.3,182.5,11,0,0,46.4,5.1,109.8-16.5,0,0,101.1-49,118.8-46.4,0,0,78-9.2,97.6-24.5"/><path class="cls-3" d="M413.52,48.78s56.7-7.2,63.7-9.7,44.3-21,69.8-14a15.8,15.8,0,0,1,9.1,6.2"/><path class="cls-4" d="M416.12,50.38l60.8-9.9s76.3-32.7,77.2-3.2"/><path class="cls-5" d="M202.72,104.68s9.6-2.4,16.1.9,30.8,25.3,48,32.9c0,0,13.5,13.3,49.3,5.8l54-16.1s31.5-10.2,54-3c0,0,29.7,11.6,38.7,44.1,0,0,6.5,12.7-2.2,31.2"/><path class="cls-5" d="M201.72,106.68s9.6-2.4,16.1.9,30.8,25.3,48,32.9c0,0,13.5,13.3,49.3,5.8l54-16.1s31.5-10.2,54-3c0,0,29.7,11.6,38.7,44.1,0,0,5.3,12.7-3.4,31.2"/><path class="cls-1" d="M349.22,8.88l8.3-5.1s6.3-6,16,5.1c0,0,13.7,12.8,16.8,22.3"/><path class="cls-3" d="M366.62,3.28s-10.1,2-12.8,7.2"/><path class="cls-5" d="M354.92,6s13-5.7,28.7,20.3"/><line class="cls-5" x1="234.42" y1="102.08" x2="240.52" y2="96.48"/><line class="cls-5" x1="243.92" y1="93.58" x2="265.82" y2="72.98"/><line class="cls-5" x1="268.72" y1="69.48" x2="282.82" y2="55.78"/><line class="cls-5" x1="287.32" y1="52.88" x2="304.12" y2="35.58"/><path class="cls-5" d="M309.42,32.28s15.1-14.7,16.3-13.7"/><path class="cls-5" d="M330.72,15.88s4.5-7.4,23.1-3.9c0,0,22.8,8,50.3,34,0,0,37.5,32.5,84,26s61.3-26,61.3-26,7.3-7.3,8.4-13.8"/><path class="cls-5" d="M379.72,27.38s-51.9,48-57.5,57.2-13.7,12.3-16.8,57.2"/><path class="cls-5" d="M381.92,29.48l-46,43.4s-29.2,25.6-27.7,68.8"/><path class="cls-3" d="M561,39.48s-3.8,25.1-37.3,31.6c0,0,39.6,50.2,32.3,110.8"/></g></g></g></svg>