<svg viewBox="0 0 841.9 595.3">
    <g id="Слой_2">
      <path
        class="st1"
        d="M379 286.3s63-61.3 66.7-63.3c0 0 24.3-28.3 44.3-27 20 1.3 47 23.7 50 26.7 0 0 30.3 25.7 63 34.3 0 0 27 6.3 66.3-10 0 0 38.7-19.3 30-33 0 0-10-17.3-79.3 9.3 0 0-54.7 10.7-68.3 8"
      />
      <path
        class="st1"
        d="M700.6 215.6s39.7 77 20.1 140.3c0 0 11.7 12-87.3 26 0 0-60.3 16-124.3 45.3 0 0-41.7 24.3-120.3 18.7 0 0-115.3-.3-196.7-14.7 0 0-37-7-39.3-18.7 0 0-14-34.3 27-54.3 0 0 24.7-13.7 64-17 0 0 37.7-7.7 60.3-18 0 0 24.7-11.3 45-32.3l3.7-1.3s61.3-55.7 105.3-85.7c0 0 25-20.3 26-15.7s2.7 7.6 4.3 7.6"
      />
      <path
        class="st1"
        d="M152.7 412.6s-5.7 5.3-5.7 6.4-1.9 11-1.9 11 6.3 12.8 55.6 22.5c0 0 71.8 10.8 108 12 0 0 84.3 1.8 99.3 1.8 0 0 45.8-.5 74-8.8 0 0 28.8-6.8 57.8-25.3 0 0 30.3-14 56.3-21s22-7.3 22-7.3l.2 36.8s55.3-6.3 80.5-12.8c0 0 28-5.5 30.5-19.3v-48.5l-7.3-9"
      />
      <path
        class="st2"
        d="M727.8 363.5s-16.8 13.8-53.5 18.3-77.5 17-86 20c0 0-49 16-77.5 32.8 0 0-36.8 19.3-85.5 17.8 0 0-95.3 3-145.8-3.8 0 0-57.3-3.5-97-12.8 0 0-34.7-7.8-34.6-18.3"
      />
      <path class="st1" d="M177.3 427.6l12.5 9.8M274.1 441.1l48.4 10.8" />
      <path
        class="st3"
        d="M619.7 440.6l-.9-37.6c-2.5 1.8-21.4 6.5-21.4 6.5-8.6 0-43.4 15.4-43.4 15.4-14 4.4-31.4 15.5-31.4 15.5-27 13.8-48.5 18.1-48.5 18.1-36 7-76.3 6.6-76.3 6.6s-106.8-.9-123.9-4.4c0 0-65.9-5.4-112.8-19.7"
      />
      <path
        class="st1"
        d="M580.4 416.8l37.8 24M618.9 437.2s63.5-8.5 66.9-9.6c0 0 24.4-4.2 35.9-8.6M729.3 400.4s-21 15.6-58 17.8l-52.4 7.3M729.3 378.2s-9.9 12.3-44.5 17.8-65.9 12.9-65.9 12.9"
      />
      <path
        class="st1"
        d="M729.3 372.9s-15.9 13.1-39.8 16.8-70.6 14.1-70.6 14.1M724.8 365.6s3.1 39.6-1.7 52.3M593.3 400.4l-10 14.7M568.3 408.8l-10.5 15.7M431.5 452.4s43.7-5.9 63-14.4c19.3-8.5 12.2-4.2 26-11.5s60-26.2 67.8-24.7"
      />
      <path
        class="st4"
        d="M279 332.3s25 .2 35.7 15.5c0 0-29.3 11-76.5 6.5s-69.5 13.3-72 16.8-8 8.7-11.3 23.8c0 0-2 7 16 11.3s132.3 17.8 166 13.8c0 0 51 0 69.7 4.8 18.7 4.7 81.7 2.4 120-27.9 38.3-30.3 22.9-30.7 61.6-39.3 0 0 93.7-23 105.7-27s31-.9 27.7-34c0 0-7.2-49.5-14.1-65.1"
      />
      <path
        class="st1"
        d="M367.3 279.8s10.1-5.4 13.9 17.3M372.5 274s-3.1 2.4-4.3 0c-1.2-2.4 1.2-7.7 4.3-6.1s15.9 11.9 22.8 19.8 15.8 8.1 15.8 8.1 3.1 4.4-3.6 5.2c0 0-11.1-2-16.4-10.5S372.5 274 372.5 274zM395.9 252.1s-1.1 5.2-4.2 3.5c-3.1-1.6.4-8.6 3.1-9.2s9.6.8 15.6 7.2 20.8 20.6 20.8 20.6.5 8.1-6.5 4c0 0-13.8-20-21.2-24.2-7.5-4.2-5.8-3.4-7.6-1.9z"
      />
      <path class="st1" d="M405.8 293.9s4.1-3.1 7.1 1.2-2.7 7.5-5.5 6.3" />
      <path
        class="st3"
        d="M404.2 294s5.5-6.8 10.6.6c0 0 2.4 11.6-7.9 8.2 0 0-2.7-1.2-3.5-3"
      />
      <path
        class="st1"
        d="M428.7 271.7s4.5-.8 5 3.2c.4 4-2.5 6.3-6 5.7s-3.6-3.4-3.6-3.4"
      />
      <path
        class="st3"
        d="M427.6 270.6s3.5-2 6.1.6c2.6 2.6 3 7.9-1.2 9.5s-5.6.6-7.4-1.4"
      />
      <path
        class="st1"
        d="M418.5 235s-2.8 3-4.3.7 2.1-7 3.6-6.8c1.5.2 8.8 4.1 15.6 12.8s14.8 12 14.8 12 1.9 2.3-1.3 4.2c-3.3 1.9-5.3-.9-5.3-.9s-17.9-17.8-19.3-19.8c-1.5-2-3.8-2.2-3.8-2.2z"
      />
      <path
        class="st1"
        d="M444.8 251.2s3.8-1.3 4.8 1.4.6 5-3.2 6c-3.8 1-3.1.1-4.8-1.6"
      />
      <path
        class="st3"
        d="M443.1 250.9s4.5-4 7.6-.9c3.2 3.1 2.7 9.6-2 10 0 0-6.8 3.4-8.2-3.9"
      />
      <path
        class="st1"
        d="M441.2 217.1s-2.8 4.3-4.9 1.3c-2.2-3.1-1.3-7.1 3.3-7.3 4.6-.3 16.3 11.1 16.3 11.1s11.8 11.5 12.8 11.8c1 .3 2.4 3.3 1 4.5-1.4 1.3-3.7 2.8-8.2-.9s-6.9-11.2-12.8-14.9c-5.9-3.8-6.6-5.2-7.5-5.6z"
      />
      <path
        class="st1"
        d="M467.3 231.9s6.3 1.4 4.3 6.2-7.2 4.3-7.8 3c-.6-1.3-2.4-3.6-2.4-3.6"
      />
      <path
        class="st3"
        d="M465.1 230.9s4.3-1.6 6.3.3c2 1.8 5.9 6.7 2.7 9.9-3.3 3.2-5.3 5.9-8.4 4.2-3.2-1.7-6.3-4.9-5.3-8.3"
      />
      <path
        class="st1"
        d="M463.2 200.8s-3.2 4.5-4.6 1.3c-1.4-3.2-1-6.4 1.6-7.2 2.6-.8 7.1.7 17.3 9.8s10.8 12.8 11.4 13c.7.2-1 5.2-5.8 2.2.1 0-9.4-13.9-19.9-19.1z"
      />
      <path
        class="st1"
        d="M487.3 214.4s6.8 2.4.4 7.3c0 0-5.9 2.3-5.9-3.7M484.3 189.5s-30 20.9-35.6 26.5c-5.6 5.5-39.5 33.4-41.2 34.9-1.7 1.6-27.9 27.1-30.9 32.6"
      />
      <path
        class="st3"
        d="M443.2 220.9s-32.5 24.3-36.4 29.4c-3.9 5.1-30.2 28.2-31.1 31.2M365.3 295.9l-17.8 17.5s9 16.2 31.5 13.8c0 0 3.7.8 17-7.5"
      />
      <path
        class="st2"
        d="M425.1 241.8s-12 6.9-14.7 11.7M406.9 256.5s-19.6 17.3-21.3 21.6"
      />
      <path class="st4" d="M365.8 280.6s6.5 4.1 4.8 12.2" />
      <path
        class="st1"
        d="M608.5 388.3c11.9-26.9-2.3-48.1-6.9-54-.8-1.1-1.6-2.2-2.4-3.4-20-33.2-69.2-25.2-69.2-25.2-9.3.3-76 21.7-76 21.7 1.5-31.5 8.8-37.5 12.8-46.1 4-8.6 60.5-62.2 60.5-62.2s44.1 36.9 70.9 41.5c0 0 38.2 7.9 67.3-8 0 0 21.9-2.8 38.8-29.3"
      />
      <path
        class="st1"
        d="M497.5 200.6s17 7.7 24.2 15c0 0-39.7 33.6-42.8 39.2-3.2 5.5-33.2 25.6-30.1 74.1 0 0-14.7 9.1-43-10.2l-25.7-19s-3-2.5-8.3-6-10.7-4.6-10.7-4.6 2.8-10 7.6-9.2c4.8.8 10.1 8.8 11.3 19.1M352.7 289.6l8.3-.5"
      />
      <path
        class="st5"
        d="M283.9 329.8s69.8-.5 78.4 116.5M286.9 329.8s69.8-.5 78.4 116.5"
      />
      <path class="st1" d="M289.9 328.8s69.8-.5 78.4 116.5" />
      <path
        class="st3"
        d="M155 396.3s-2.9 14 12.3 27.9M151.9 410.2s8.6 12.8 60.9 19.8c0 0 110.5 14.3 182.5 11 0 0 46.4 5.1 109.8-16.5 0 0 101.1-49 118.8-46.4 0 0 78-9.2 97.6-24.5M558.1 235.8s56.7-7.2 63.7-9.7 44.3-21 69.8-14c0 0 5.4 1 9.1 6.2"
      />
      <path class="st4" d="M560.7 237.4l60.8-9.9s76.3-32.7 77.2-3.2" />
      <path
        class="st5"
        d="M347.3 291.7s9.6-2.4 16.1.9c6.5 3.3 30.8 25.3 48 32.9 0 0 13.5 13.3 49.3 5.8l54-16.1s31.5-10.2 54-3c0 0 29.7 11.6 38.7 44.1 0 0 6.5 12.7-2.2 31.2"
      />
      <path
        class="st5"
        d="M346.3 293.7s9.6-2.4 16.1.9c6.5 3.3 30.8 25.3 48 32.9 0 0 13.5 13.3 49.3 5.8l54-16.1s31.5-10.2 54-3c0 0 29.7 11.6 38.7 44.1 0 0 5.3 12.7-3.4 31.2"
      />
      <path
        class="st1"
        d="M493.8 195.9l8.3-5.1s6.3-6 16 5.1c0 0 13.7 12.8 16.8 22.3"
      />
      <path class="st3" d="M511.2 190.3s-10.1 2-12.8 7.2" />
      <path
        class="st5"
        d="M499.5 193s13-5.7 28.7 20.3M379 289.1l6.1-5.6M388.5 280.6l21.9-20.6M413.3 256.5l14.1-13.7M431.9 239.9l16.8-17.3M454 219.3s15.1-14.7 16.3-13.7"
      />
      <path
        class="st5"
        d="M475.3 202.9s4.5-7.4 23.1-3.9c0 0 22.8 8 50.3 34 0 0 37.5 32.5 84 26s61.3-26 61.3-26 7.3-7.3 8.4-13.8"
      />
      <path
        class="st5"
        d="M524.3 214.4s-51.9 48-57.5 57.2c-5.5 9.2-13.7 12.3-16.8 57.2"
      />
      <path class="st5" d="M526.5 216.5l-46 43.4s-29.2 25.6-27.7 68.8" />
      <path
        class="st3"
        d="M705.6 226.5s-3.8 25.1-37.3 31.6c0 0 39.6 50.2 32.3 110.8"
      />
    </g>
  </svg>
