<?xml version="1.0" encoding="UTF-8"?>
<svg width="24px" height="24px" viewBox="0 0 24 24" version="1.1" xmlns="http://www.w3.org/2000/svg" xmlns:xlink="http://www.w3.org/1999/xlink">
    <!-- Generator: Sketch 46.2 (44496) - http://www.bohemiancoding.com/sketch -->
    <title>Phone_1_2x.png</title>
    <desc>Created with Sketch.</desc>
    <defs></defs>
    <g id="Page-1" stroke="none" stroke-width="1" fill="none" fill-rule="evenodd">
        <g id="Desktop" transform="translate(-391.000000, -12744.000000)" fill="#D19863">
            <g id="#8" transform="translate(1.000000, 12472.000000)">
                <g id="left" transform="translate(390.000000, 272.000000)">
                    <g id="phone">
                        <path d="M18.2727481,22.9082579 C17.5879506,22.9074823 16.9118803,22.7545666 16.2934098,22.4605651 C16.2349719,22.4327663 16.1742728,22.409994 16.1119705,22.3924949 C9.87880791,19.1970566 4.80598525,14.1256822 1.60886688,7.89353172 C1.59178139,7.8295881 1.56881822,7.7673617 1.54027076,7.70764758 C1.24492461,7.08959769 1.09142494,6.41336256 1.0909924,5.72837416 C1.0909924,3.08148869 3.40728943,1.09174293 4.90907306,1.09174293 C5.09831379,1.08708037 5.27485801,1.18660944 5.36882411,1.3509335 C5.38800028,1.38169004 5.40880056,1.41140375 5.43113661,1.43994844 L9.02326901,6.05825307 C9.05118589,6.0939336 9.0810799,6.12802213 9.1128105,6.16035844 C9.21528028,6.26220932 9.27286291,6.40074237 9.27278083,6.54521716 C9.27302027,6.64159912 9.2457735,6.73605147 9.19423566,6.81749816 L7.97861826,8.02181796 C7.97378846,8.02849678 7.96825892,8.03464052 7.96212377,8.04014456 C7.53743784,8.43706968 7.28879075,8.98710764 7.27138885,9.56813524 C7.25398694,10.1491628 7.46927039,10.7130947 7.86944047,11.1347228 C7.88305497,11.1556675 7.89693128,11.1766122 7.9123785,11.1975569 C9.27606243,13.0721462 10.9286089,14.7184528 12.8083607,16.0750521 L12.8531314,16.1064691 C13.701944,16.927463 15.051369,16.9193201 15.8902113,16.0881425 C15.9114185,16.0698159 15.9318402,16.0488712 15.9514765,16.0305446 L17.1731157,14.7974259 C17.2550029,14.7462204 17.3496113,14.7190089 17.4461911,14.7188833 C17.5909281,14.7184055 17.729825,14.7759237 17.8318479,14.8785866 C17.8641862,14.9099529 17.8980912,14.9396625 17.933433,14.9676015 L22.5516271,18.5596162 C22.5807535,18.5828074 22.6115577,18.6038095 22.6437867,18.6224503 C22.6787292,18.6432885 22.7112992,18.6678688 22.7409209,18.6957567 C22.8432947,18.7976507 22.9007808,18.9361784 22.9006295,19.0806154 C22.9006295,19.1172686 22.902724,19.1539218 22.9063894,19.1905751 C22.8207752,20.6933567 20.8597641,22.9082579 18.2727481,22.9082579 Z M23.9994764,19.0806154 L23.99136,19.0806154 C23.9916288,18.6472897 23.8190916,18.231744 23.5119727,17.9260393 C23.4245184,17.8387024 23.3268542,17.7622262 23.2210937,17.6982657 L18.6028996,14.106251 C18.0281873,13.5271675 17.1126174,13.4654886 16.4654238,13.9622563 L15.1767594,15.2608272 L15.1736176,15.2582091 C14.9535902,15.5076208 14.6312328,15.6422127 14.299171,15.6233114 C13.9671092,15.60441 13.6621078,15.4341081 13.4718056,15.1613399 C13.4647365,15.1718122 13.4558347,15.1822846 13.4487656,15.1927569 C11.6625564,13.9034745 10.0918302,12.3394271 8.79496438,10.5587438 C8.80779343,10.5482715 8.81878975,10.5404172 8.83161879,10.5299448 C8.55186154,10.3371026 8.3780457,10.0248282 8.36156416,9.68545304 C8.34508262,9.3460779 8.48782109,9.01843119 8.74757546,8.79938965 L8.74574274,8.79677157 L10.0286472,7.52438152 C10.2452547,7.24388167 10.3629915,6.89961193 10.3635114,6.54521716 C10.3643037,6.11101885 10.1917397,5.69446637 9.88412406,5.38802292 L6.2925153,0.769718293 C6.22756297,0.665079167 6.15164363,0.567659857 6.0660434,0.479110689 C5.75941365,0.17196025 5.34308824,-0.0004431325 4.90907306,8.55424692e-07 C2.72735008,8.55424692e-07 0,2.56310756 0,5.72837416 C0.00109939757,6.57449096 0.190428591,7.40976576 0.554267075,8.17366698 L0.536463504,8.19199358 C3.8708257,14.7790921 9.2215622,20.1293781 15.809048,23.4632923 L15.8265897,23.4449657 C16.5907562,23.8089941 17.4263004,23.9985794 18.2727481,24 C21.4357621,24 24,21.2719538 24,19.0910878 C24,19.0884697 23.9994764,19.0858516 23.9994764,19.0806154 L23.9994764,19.0806154 Z" id="Phone_1_2x.png"></path>
                    </g>
                </g>
            </g>
        </g>
    </g>
</svg>