<?xml version="1.0" encoding="UTF-8"?>
<svg width="22px" height="29px" viewBox="0 0 22 29" version="1.1" xmlns="http://www.w3.org/2000/svg" xmlns:xlink="http://www.w3.org/1999/xlink">
    <!-- Generator: Sketch 46.2 (44496) - http://www.bohemiancoding.com/sketch -->
    <title>Location_Pin_1</title>
    <desc>Created with Sketch.</desc>
    <defs></defs>
    <g id="Page-1" stroke="none" stroke-width="1" fill="none" fill-rule="evenodd">
        <g id="Desktop" transform="translate(-392.000000, -12881.000000)" fill="#D19863">
            <g id="#8" transform="translate(1.000000, 12472.000000)">
                <g id="left" transform="translate(390.000000, 272.000000)">
                    <g id="address" transform="translate(1.000000, 137.000000)">
                        <path d="M11,14.4984182 C8.72180262,14.4984182 6.87495875,12.7279723 6.87495875,10.5440166 C6.87495875,8.36006085 8.72180262,6.58961492 11,6.58961492 C13.2781974,6.58961492 15.1250413,8.36006085 15.1250413,10.5440166 C15.1250413,12.7279723 13.2781974,14.4984182 11,14.4984182 Z M11,5.27359005 C8.77556781,5.27384606 6.77034701,6.5586631 5.91943286,8.528892 C5.06851872,10.4991209 5.53949842,12.7667259 7.11273985,14.274254 C8.68598129,15.7817822 11.0516352,16.2323263 13.1065254,15.4157842 C15.1614156,14.599242 16.5008324,12.6764311 16.500165,10.5440166 C16.4994361,7.63266505 14.0369817,5.27306584 11,5.27359005 Z M11,27.0227992 C11,27.0227992 1.37479375,18.4528199 1.37479375,10.5440166 C1.4057911,5.46923503 5.70597668,1.37100142 10.999835,1.37100142 C16.2936933,1.37100142 20.5938789,5.46923503 20.6248762,10.5440166 C20.6248762,18.4528199 11,27.0227992 11,27.0227992 Z M11,0 C4.92555622,0.000698574431 0.00127544919,4.72085294 0,10.5440166 C0,19.1139959 11,29 11,29 C11,29 22,19.1139959 22,10.5440166 C21.9987246,4.72085294 17.0744438,0.000698574431 11,2.87720589e-13 L11,0 Z" id="Location_Pin_1"></path>
                    </g>
                </g>
            </g>
        </g>
    </g>
</svg>