<?xml version="1.0" encoding="UTF-8"?>
<svg width="60px" height="17px" viewBox="0 0 60 17" version="1.1" xmlns="http://www.w3.org/2000/svg" xmlns:xlink="http://www.w3.org/1999/xlink">
    <!-- Generator: Sketch 47 (45396) - http://www.bohemiancoding.com/sketch -->
    <title>shape-hand</title>
    <desc>Created with Sketch.</desc>
    <defs></defs>
    <g id="Page-1" stroke="none" stroke-width="1" fill="none" fill-rule="evenodd">
        <g id="shape-hand" fill-rule="nonzero" fill="#B35330">
            <path d="M48.31567,5.4e-05 C48.290137,-0.001024 48.238033,0.014414 48.211878,0.013632 C46.380185,-0.041028 43.057947,0.531669 39.765767,1.480081 C36.306481,2.476632 32.97598,4.109257 29.217813,5.363455 C27.520677,4.526893 25.794854,3.729006 24.06712,3.082313 C21.058502,1.95621 18.150604,1.222095 15.867497,1.222095 C15.300083,1.222095 14.746079,1.259445 14.206813,1.330721 C13.667548,1.401997 13.136752,1.507872 12.636928,1.64302 C11.63728,1.91332 10.72461,2.302214 9.951312,2.783591 C8.571658,3.64237 7.653799,4.810128 7.460288,6.123836 C6.673248,6.15131 5.922619,6.194791 5.293594,6.273197 C3.80201,6.459112 2.723355,6.772454 1.946279,7.182938 C1.557763,7.388181 1.241901,7.616768 0.986197,7.86185 C-0.03666,8.842172 0.000166,10.075575 0.000166,10.835483 C0.000166,11.34655 0.242958,11.917079 0.687814,12.54634 C1.132669,13.175601 1.795157,13.846161 2.698776,14.460871 C3.150607,14.768225 3.656119,15.06221 4.229719,15.329878 C5.37696,15.865212 6.772765,16.296787 8.433323,16.524762 C9.263624,16.63875 10.166786,16.701279 11.131934,16.701279 C12.040203,16.701279 13.049234,16.600448 14.103021,16.456871 C17.558446,15.986065 21.619066,14.85596 25.325586,13.646177 C25.949048,13.442686 26.402207,13.266703 26.999264,13.062313 C27.507765,13.304136 28.026272,13.527166 28.530207,13.768381 C30.935831,14.919932 33.276232,16.041672 35.45837,17 L35.717851,16.361823 C33.551033,15.410213 31.209387,14.282259 28.802642,13.130204 C28.516506,12.993231 28.221361,12.860308 27.933399,12.722857 C31.514247,11.468876 34.603616,10.290463 35.549168,9.93932 C35.646857,9.903047 36.049739,9.754886 36.171924,9.70849 C38.145272,10.640152 40.216393,11.545965 42.28274,12.301932 C43.98411,12.924375 45.621129,13.449147 47.070158,13.836272 C48.519187,14.223397 49.779729,14.472585 50.715897,14.515184 C52.581509,14.600077 54.914188,14.009613 56.787771,12.940109 C57.256125,12.672733 57.688982,12.372778 58.085179,12.043945 C58.481377,11.715113 58.830494,11.360963 59.123106,10.971265 C59.708207,10.191866 60.056909,9.273612 59.99235,8.282775 C59.868878,6.387232 58.900533,5.094546 57.514319,4.33151 C56.609953,3.833738 55.50016,3.590399 54.335647,3.435347 C54.071391,2.225667 53.469684,1.373745 52.584166,0.869061 C51.959417,0.513007 51.196416,0.318375 50.352623,0.190149 C49.69109,0.055935 49.040143,0.007653 48.445411,0.013632 C48.404766,0.014041 48.355693,-0.000854 48.31567,5.4e-05 Z M48.713781,1 L48.726758,1 C49.455759,1.031544 50.088322,1.103769 50.683157,1.191956 C51.222144,1.299976 51.761794,1.444589 52.237927,1.678245 C53.048688,2.076105 53.685232,2.652281 54,3.521024 C53.607203,3.489602 53.238909,3.414184 52.833922,3.40585 C46.714346,4.023627 40.901951,5.903053 34.967041,8 C34.422249,7.732551 33.783633,7.472023 33.295642,7.206581 C32.889412,6.985624 32.423395,6.784892 32,6.566728 C32.10162,6.524786 32.326212,6.451222 32.414605,6.413163 C33.922691,5.763882 37.11648,4.423048 40.382824,3.239488 C43.642452,2.058353 47.00627,1.039763 48.713781,1 Z M15.616621,2 C16.144407,2 16.711329,2.034907 17.316283,2.115596 C17.921237,2.196286 18.555799,2.323937 19.220459,2.475229 C21.92437,3.090724 25.040702,4.248187 28,5.609174 C26.220675,6.440962 24.635191,7.222126 22.376991,8.152294 C21.577215,8.481722 20.874237,8.705339 20.102228,9 C19.24933,8.658566 18.397414,8.311851 17.559115,8.011009 C15.198065,7.163738 12.910502,6.503029 10.785945,6.174312 C9.816784,6.024372 8.892852,5.966896 8,5.968807 C8.137569,5.297079 8.520916,4.636895 9.188479,4.055046 C9.462432,3.81627 9.783578,3.596734 10.134167,3.387156 C10.835346,2.968001 11.670578,2.614105 12.600644,2.372477 C13.53071,2.130849 14.554302,2 15.616621,2 Z M51.37672,4.003192 C51.497408,3.9974 51.615228,4.000799 51.722397,4.003192 C52.339764,4.016982 52.932061,4.054702 53.52747,4.085535 C53.516737,4.250744 53.528576,4.415417 53.501866,4.579594 C53.378679,5.336359 53.090192,6.075453 52.682533,6.747961 C52.478723,7.084215 52.236283,7.398919 51.978438,7.694906 C51.462709,8.28688 50.860376,8.785119 50.211751,9.135909 C49.887377,9.311307 49.550221,9.44952 49.213188,9.547625 C48.876155,9.645729 48.537812,9.702834 48.201803,9.712311 C47.503239,9.732016 46.900374,9.641865 46.39673,9.492729 C45.912053,9.349228 45.516807,9.146331 45.206115,8.916328 C45.796609,8.799743 46.255845,8.251664 46.255886,7.585115 C46.255886,6.833966 45.676372,6.22645 44.975678,6.226455 C44.91136,6.226455 44.858186,6.230271 44.796449,6.240179 C44.681046,6.229248 44.55495,6.235589 44.425209,6.253903 C44.06036,6.36978 43.715297,6.773169 43.669865,7.406705 C43.644425,7.760912 43.734593,8.124232 43.925907,8.477165 C44.117221,8.830098 44.413042,9.172514 44.796449,9.465282 C45.179856,9.75805 45.658797,10.009743 46.230282,10.178921 C46.801767,10.3481 47.457234,10.433592 48.214626,10.412227 C48.606595,10.401169 48.99672,10.343968 49.379595,10.233817 C49.762469,10.123666 50.144484,9.962748 50.506178,9.767206 C50.867873,9.571664 51.214615,9.33453 51.543168,9.06729 C51.87172,8.800051 52.181551,8.50048 52.464918,8.17524 C52.748284,7.850001 53.006661,7.504801 53.233043,7.132228 C53.459424,6.759656 53.65418,6.359657 53.809116,5.951978 C53.964052,5.544299 54.072777,5.119944 54.14197,4.689385 C54.172572,4.499082 54.155735,4.306035 54.167574,4.112983 C55.10821,4.184655 56.000423,4.302776 56.727991,4.552146 C57.395174,4.780818 57.931141,5.110335 58.31545,5.56771 C58.699758,6.025085 58.940519,6.621346 58.99398,7.461601 C59.019585,7.864476 58.9626,8.24306 58.840355,8.614403 C58.718111,8.985746 58.528312,9.342 58.277064,9.684863 C58.025815,10.027726 57.712379,10.355627 57.355314,10.659256 C56.998248,10.962884 56.598127,11.242978 56.164699,11.49641 C55.297845,12.003279 54.306165,12.405429 53.322637,12.662937 C52.339109,12.920444 51.360948,13.031553 50.519001,12.992309 C49.68029,12.953219 48.483039,12.717538 47.07522,12.333564 C45.6674,11.949591 44.053764,11.420097 42.389657,10.796494 C40.587697,10.121224 38.749727,9.340919 37,8.518336 C38.522158,7.9192 40.50687,7.114179 43.183386,6.171559 C46.290503,5.077284 49.566239,4.090112 51.37672,4.003192 Z M8,7.000201 C10.674044,6.985696 13.830877,7.758297 17.185455,8.932411 C17.780892,9.140824 18.395031,9.390951 19,9.621608 C18.432834,9.824649 17.788341,10.084669 17.273034,10.249268 C16.681241,10.438297 16.164212,10.582572 15.671211,10.70463 C15.074012,10.808533 14.277705,11 13.931751,11 C12.508371,11 10.981874,10.501187 9.839574,9.720064 C8.763509,8.984235 8.080011,8.009038 8,7.000201 Z M7.677868,7 C7.718876,7.723961 7.914548,8.414244 8.268541,9.038405 C8.661653,9.731632 9.21703,10.355169 9.860793,10.870015 C10.504555,11.38486 11.251331,11.80718 12.030857,12.096012 C12.810382,12.384844 13.62508,12.539143 14.432095,12.539143 C15.269146,12.539143 16.561767,12.256116 18.117365,11.815362 C19.042433,11.55326 20.136011,11.162675 21.186322,10.810931 C21.24241,10.837353 21.297102,10.858212 21.353231,10.884786 C22.56893,11.46029 23.779206,12.121446 25,12.745938 C24.162044,13.17237 23.840143,13.363599 22.906981,13.794682 C19.263745,15.477637 15.050998,17 11.363138,17 C10.435318,17 9.574434,16.927459 8.782171,16.807976 C7.989908,16.688494 7.261252,16.517098 6.599246,16.305761 C5.275109,15.883087 4.211198,15.305286 3.3762,14.680945 C2.958681,14.368778 2.600456,14.056473 2.297579,13.735598 C1.994702,13.414724 1.745817,13.090361 1.552816,12.790251 C1.166813,12.190027 1.000603,11.656194 1.000685,11.37223 C1.000685,10.945628 0.987413,10.482328 1.077729,10.028065 C1.168046,9.573802 1.36454,9.126951 1.771129,8.698671 C1.974362,8.484531 2.239559,8.273255 2.580075,8.078287 C3.261106,7.688355 4.242056,7.360168 5.661851,7.162482 C6.239417,7.082061 6.948514,7.030667 7.677868,7 Z M30.246928,7 C30.819808,7.267895 31.434921,7.521553 31.975327,7.795455 C32.276167,7.947971 32.676997,8.096895 33,8.25 C30.491433,9.187215 28.162776,10.072913 25.493814,11 C24.326404,10.518749 23.169543,10.029825 22,9.579545 C22.36488,9.478196 22.682391,9.412211 23.049365,9.306818 C25.917795,8.483058 28.512249,7.627269 30.246928,7 Z" id="Shape-Copy-3"></path>
        </g>
    </g>
</svg>