<?xml version="1.0" encoding="UTF-8"?>
<svg viewBox="0 0 60 17" version="1.1" xmlns="http://www.w3.org/2000/svg" xmlns:xlink="http://www.w3.org/1999/xlink">
    <g id="Page-1" stroke="none" stroke-width="1" fill="none" fill-rule="evenodd">
        <g id="Desktop" transform="translate(-930.000000, -1316.000000)" fill-rule="nonzero" fill="#D19863">
            <g id="#2" transform="translate(174.000000, 799.000000)">
                <g id="item_2" transform="translate(606.000000, 283.000000)">
                    <path d="M198.31567,234.000054 C198.290137,233.998976 198.238033,234.014414 198.211878,234.013632 C196.380185,233.958972 193.057947,234.531669 189.765767,235.480081 C186.306481,236.476632 182.97598,238.109257 179.217813,239.363455 C177.520677,238.526893 175.794854,237.729006 174.06712,237.082313 C171.058502,235.95621 168.150604,235.222095 165.867497,235.222095 C165.300083,235.222095 164.746079,235.259445 164.206813,235.330721 C163.667548,235.401997 163.136752,235.507872 162.636928,235.64302 C161.63728,235.91332 160.72461,236.302214 159.951312,236.783591 C158.571658,237.64237 157.653799,238.810128 157.460288,240.123836 C156.673248,240.15131 155.922619,240.194791 155.293594,240.273197 C153.80201,240.459112 152.723355,240.772454 151.946279,241.182938 C151.557763,241.388181 151.241901,241.616768 150.986197,241.86185 C149.96334,242.842172 150.000166,244.075575 150.000166,244.835483 C150.000166,245.34655 150.242958,245.917079 150.687814,246.54634 C151.132669,247.175601 151.795157,247.846161 152.698776,248.460871 C153.150607,248.768225 153.656119,249.06221 154.229719,249.329878 C155.37696,249.865212 156.772765,250.296787 158.433323,250.524762 C159.263624,250.63875 160.166786,250.701279 161.131934,250.701279 C162.040203,250.701279 163.049234,250.600448 164.103021,250.456871 C167.558446,249.986065 171.619066,248.85596 175.325586,247.646177 C175.949048,247.442686 176.402207,247.266703 176.999264,247.062313 C177.507765,247.304136 178.026272,247.527166 178.530207,247.768381 C180.935831,248.919932 183.276232,250.041672 185.45837,251 L185.717851,250.361823 C183.551033,249.410213 181.209387,248.282259 178.802642,247.130204 C178.516506,246.993231 178.221361,246.860308 177.933399,246.722857 C181.514247,245.468876 184.603616,244.290463 185.549168,243.93932 C185.646857,243.903047 186.049739,243.754886 186.171924,243.70849 C188.145272,244.640152 190.216393,245.545965 192.28274,246.301932 C193.98411,246.924375 195.621129,247.449147 197.070158,247.836272 C198.519187,248.223397 199.779729,248.472585 200.715897,248.515184 C202.581509,248.600077 204.914188,248.009613 206.787771,246.940109 C207.256125,246.672733 207.688982,246.372778 208.085179,246.043945 C208.481377,245.715113 208.830494,245.360963 209.123106,244.971265 C209.708207,244.191866 210.056909,243.273612 209.99235,242.282775 C209.868878,240.387232 208.900533,239.094546 207.514319,238.33151 C206.609953,237.833738 205.50016,237.590399 204.335647,237.435347 C204.071391,236.225667 203.469684,235.373745 202.584166,234.869061 C201.959417,234.513007 201.196416,234.318375 200.352623,234.190149 C199.69109,234.055935 199.040143,234.007653 198.445411,234.013632 C198.404766,234.014041 198.355693,233.999146 198.31567,234.000054 Z M198.713781,235 L198.726758,235 C199.455759,235.031544 200.088322,235.103769 200.683157,235.191956 C201.222144,235.299976 201.761794,235.444589 202.237927,235.678245 C203.048688,236.076105 203.685232,236.652281 204,237.521024 C203.607203,237.489602 203.238909,237.414184 202.833922,237.40585 C196.714346,238.023627 190.901951,239.903053 184.967041,242 C184.422249,241.732551 183.783633,241.472023 183.295642,241.206581 C182.889412,240.985624 182.423395,240.784892 182,240.566728 C182.10162,240.524786 182.326212,240.451222 182.414605,240.413163 C183.922691,239.763882 187.11648,238.423048 190.382824,237.239488 C193.642452,236.058353 197.00627,235.039763 198.713781,235 Z M165.616621,236 C166.144407,236 166.711329,236.034907 167.316283,236.115596 C167.921237,236.196286 168.555799,236.323937 169.220459,236.475229 C171.92437,237.090724 175.040702,238.248187 178,239.609174 C176.220675,240.440962 174.635191,241.222126 172.376991,242.152294 C171.577215,242.481722 170.874237,242.705339 170.102228,243 C169.24933,242.658566 168.397414,242.311851 167.559115,242.011009 C165.198065,241.163738 162.910502,240.503029 160.785945,240.174312 C159.816784,240.024372 158.892852,239.966896 158,239.968807 C158.137569,239.297079 158.520916,238.636895 159.188479,238.055046 C159.462432,237.81627 159.783578,237.596734 160.134167,237.387156 C160.835346,236.968001 161.670578,236.614105 162.600644,236.372477 C163.53071,236.130849 164.554302,236 165.616621,236 Z M201.37672,238.003192 C201.497408,237.9974 201.615228,238.000799 201.722397,238.003192 C202.339764,238.016982 202.932061,238.054702 203.52747,238.085535 C203.516737,238.250744 203.528576,238.415417 203.501866,238.579594 C203.378679,239.336359 203.090192,240.075453 202.682533,240.747961 C202.478723,241.084215 202.236283,241.398919 201.978438,241.694906 C201.462709,242.28688 200.860376,242.785119 200.211751,243.135909 C199.887377,243.311307 199.550221,243.44952 199.213188,243.547625 C198.876155,243.645729 198.537812,243.702834 198.201803,243.712311 C197.503239,243.732016 196.900374,243.641865 196.39673,243.492729 C195.912053,243.349228 195.516807,243.146331 195.206115,242.916328 C195.796609,242.799743 196.255845,242.251664 196.255886,241.585115 C196.255886,240.833966 195.676372,240.22645 194.975678,240.226455 C194.91136,240.226455 194.858186,240.230271 194.796449,240.240179 C194.681046,240.229248 194.55495,240.235589 194.425209,240.253903 C194.06036,240.36978 193.715297,240.773169 193.669865,241.406705 C193.644425,241.760912 193.734593,242.124232 193.925907,242.477165 C194.117221,242.830098 194.413042,243.172514 194.796449,243.465282 C195.179856,243.75805 195.658797,244.009743 196.230282,244.178921 C196.801767,244.3481 197.457234,244.433592 198.214626,244.412227 C198.606595,244.401169 198.99672,244.343968 199.379595,244.233817 C199.762469,244.123666 200.144484,243.962748 200.506178,243.767206 C200.867873,243.571664 201.214615,243.33453 201.543168,243.06729 C201.87172,242.800051 202.181551,242.50048 202.464918,242.17524 C202.748284,241.850001 203.006661,241.504801 203.233043,241.132228 C203.459424,240.759656 203.65418,240.359657 203.809116,239.951978 C203.964052,239.544299 204.072777,239.119944 204.14197,238.689385 C204.172572,238.499082 204.155735,238.306035 204.167574,238.112983 C205.10821,238.184655 206.000423,238.302776 206.727991,238.552146 C207.395174,238.780818 207.931141,239.110335 208.31545,239.56771 C208.699758,240.025085 208.940519,240.621346 208.99398,241.461601 C209.019585,241.864476 208.9626,242.24306 208.840355,242.614403 C208.718111,242.985746 208.528312,243.342 208.277064,243.684863 C208.025815,244.027726 207.712379,244.355627 207.355314,244.659256 C206.998248,244.962884 206.598127,245.242978 206.164699,245.49641 C205.297845,246.003279 204.306165,246.405429 203.322637,246.662937 C202.339109,246.920444 201.360948,247.031553 200.519001,246.992309 C199.68029,246.953219 198.483039,246.717538 197.07522,246.333564 C195.6674,245.949591 194.053764,245.420097 192.389657,244.796494 C190.587697,244.121224 188.749727,243.340919 187,242.518336 C188.522158,241.9192 190.50687,241.114179 193.183386,240.171559 C196.290503,239.077284 199.566239,238.090112 201.37672,238.003192 Z M158,241.000201 C160.674044,240.985696 163.830877,241.758297 167.185455,242.932411 C167.780892,243.140824 168.395031,243.390951 169,243.621608 C168.432834,243.824649 167.788341,244.084669 167.273034,244.249268 C166.681241,244.438297 166.164212,244.582572 165.671211,244.70463 C165.074012,244.808533 164.277705,245 163.931751,245 C162.508371,245 160.981874,244.501187 159.839574,243.720064 C158.763509,242.984235 158.080011,242.009038 158,241.000201 Z M157.677868,241 C157.718876,241.723961 157.914548,242.414244 158.268541,243.038405 C158.661653,243.731632 159.21703,244.355169 159.860793,244.870015 C160.504555,245.38486 161.251331,245.80718 162.030857,246.096012 C162.810382,246.384844 163.62508,246.539143 164.432095,246.539143 C165.269146,246.539143 166.561767,246.256116 168.117365,245.815362 C169.042433,245.55326 170.136011,245.162675 171.186322,244.810931 C171.24241,244.837353 171.297102,244.858212 171.353231,244.884786 C172.56893,245.46029 173.779206,246.121446 175,246.745938 C174.162044,247.17237 173.840143,247.363599 172.906981,247.794682 C169.263745,249.477637 165.050998,251 161.363138,251 C160.435318,251 159.574434,250.927459 158.782171,250.807976 C157.989908,250.688494 157.261252,250.517098 156.599246,250.305761 C155.275109,249.883087 154.211198,249.305286 153.3762,248.680945 C152.958681,248.368778 152.600456,248.056473 152.297579,247.735598 C151.994702,247.414724 151.745817,247.090361 151.552816,246.790251 C151.166813,246.190027 151.000603,245.656194 151.000685,245.37223 C151.000685,244.945628 150.987413,244.482328 151.077729,244.028065 C151.168046,243.573802 151.36454,243.126951 151.771129,242.698671 C151.974362,242.484531 152.239559,242.273255 152.580075,242.078287 C153.261106,241.688355 154.242056,241.360168 155.661851,241.162482 C156.239417,241.082061 156.948514,241.030667 157.677868,241 Z M180.246928,241 C180.819808,241.267895 181.434921,241.521553 181.975327,241.795455 C182.276167,241.947971 182.676997,242.096895 183,242.25 C180.491433,243.187215 178.162776,244.072913 175.493814,245 C174.326404,244.518749 173.169543,244.029825 172,243.579545 C172.36488,243.478196 172.682391,243.412211 173.049365,243.306818 C175.917795,242.483058 178.512249,241.627269 180.246928,241 Z" id="Shape-Copy-3"></path>
                </g>
            </g>
        </g>
    </g>
</svg>
