<svg xmlns="http://www.w3.org/2000/svg" viewBox="0 0 642.55 382.84"><defs><style>.cls-1,.cls-2,.cls-3,.cls-4,.cls-5,.cls-6{fill:none;stroke:#000;stroke-miterlimit:10;}.cls-2{stroke-width:0.5px;}.cls-3{stroke-width:1.5px;}.cls-4{stroke-width:0.75px;}.cls-5{stroke-dasharray:3;}.cls-6{stroke-width:0.25px;}</style></defs><title>Ресурс 1</title><g id="Слой_2" data-name="Слой 2"><g id="Слой_1-2" data-name="Слой 1"><g id="Слой_2-2" data-name="Слой 2"><path class="cls-1" d="M412.5,58.21s-35.7-35.7-79-49.4c0,0-22-9.9-28.5,1.9l-64.2,85.1s-27.4,38.7-30.8,53.9"/><path class="cls-1" d="M337.6,10.21s16.7-17.7,40.3-5.3c0,0,33.4,13,60.8,48.3"/><path class="cls-1" d="M475.3,89.41s-26.6-31.7-52.4-31.9c0,0-22.3-1-25.3,16s19.2,38.7,19.2,38.7l35.2,28.1,2.8-2s-2-8.6-6.8-6.8c0,0-31.4-24.1-38.2-28.1"/><path class="cls-1" d="M415,68.91s13.1,2.5,21.3,0,24.6.8,28.9,17.5l4.6,8.9"/><path class="cls-1" d="M424.4,103.41s16.2-.8,18,14.9"/><path class="cls-1" d="M440.1,68.21s-12.4-8.6-27.6.8"/><path class="cls-1" d="M448.9,130.21s24.6-41.3,28.4-41.3,11.1,3.8,0,19.5-22.5,29.9-22.5,29.9"/><path class="cls-1" d="M408.4,72.71c-5.8-6.8-.4-6-.4-6s5.5.9,13.1,7l5.2,5.1s-2.7,4.1-5.2,1.8-12.7-7.9-12.7-7.9-3.3,14.9,8.6,23.8,34.7,29.9,34.7,29.9"/><path class="cls-2" d="M406.3,68.91S419,75.21,423.8,81"/><path class="cls-2" d="M408.8,60.11s-13.4,9-4,26.2,37.7,39.2,44.8,42.9"/><path class="cls-2" d="M480.7,89.91s-6.6,26.9-27.4,44.6"/><path class="cls-2" d="M425.9,119.51s19.5,9.3,27.4,19.9"/><path class="cls-1" d="M453.3,140.41s17.1,26.1,24.3,30.5,18.4,3.4,20.9-4.7,6.5-15.6-21.8-53.9"/><path class="cls-2" d="M448.9,138.31s21.5,44.8,37.6,35.1"/><path class="cls-1" d="M225.6,132.21s24.8-54.7,77.2-59.3c0,0,30.6-5.8,63.6,13.4s39.9,17,39.9,17"/><path class="cls-2" d="M213.9,144.91s23.8-50.7,57.5-65.1,50.9-11,69.9-7.7c0,0,26.5,10.6,35.7,17.7s29.3,10.9,29.3,10.9"/><path class="cls-1" d="M317.5,72.21s-3.3,13.6,20.1,40,28,34,28,34,11.4,18.5,15.7,32.4c0,0,14.2,29.1,31.2,28.4s27.1-3.5,60.5-19.8c0,0,35.7-14.4,61.5.5,0,0,20.3,10.3,20.5,28.6.2,13.4-5.3,14.2-5.3,14.2"/><path class="cls-2" d="M315.9,73a42.19,42.19,0,0,0,9.9,27.7c11,13.3,33.1,39.6,33.1,39.6s13.3,19.4,16.3,28.7,4.6,21.9,23,32"/><path class="cls-1" d="M315.9,75.41s-52.6-2.5-80,44.1c0,0-67.1,84.9-103.6,99.1"/><path class="cls-1" d="M397.2,44.81s34.7,2.2,64.6,19.7,105.4,11,140.3-30.1c0,0,52.2,37,32.4,150.4-3.8,21.7-84.8,45.6-90.7,48.6s-54.2,30.4-67.1,53.2-43.4,36.5-43.4,36.5c-86.2,24.3-202.5,24.8-202.5,24.8-134.7,3.2-212.2-13.5-212.2-13.5a160.42,160.42,0,0,1-3.5-25.8c5.1-45.1,61.8-66.4,61.8-66.4,38-19.2,119.5-46.6,119.5-46.6s-7.1,20.3,1.5,30.4,36.1,26.3,113.3,15.7,108.2-19,131.1-18.2c21.8.8,46.3-2,65.6,33"/><path class="cls-2" d="M17.5,329s-10.8,4.6-2.4,6.5S54.4,340,54.4,340"/><path class="cls-2" d="M17.3,327.41s-17.9,3.3-12.2,10,46.9,8,46.9,8,95.4,7,128.8,6.6c0,0,102.6,3.2,148.3-4.7,0,0,62.7-3.2,105.2-16.3,0,0,34.2-8,47.1-27.9,0,0,55.1-70.5,91.9-77.9,0,0,33.6-10.6,55.3-27,0,0,11.5-8.9,10.6-15.2-.2-1.7-1.3-3.2-3.7-4.2"/><path class="cls-3" d="M3.9,334.11s-1.6-.6-2.1,11.4-2.6,17.7,1.1,19.2a48.29,48.29,0,0,0,5.7,2c14.7,6.1,100.8,12.2,100.8,12.2,228.4,14.7,336.8-26.3,336.8-26.3,24.9-9,39.7-31,39.7-31l27.2-33.1c19.8-24.1,47.1-35.9,47.1-35.9l2.5,53,65.2-31.3c13.1-5.9,13.9-15,13.9-15l-1.3-74.8"/><path class="cls-2" d="M16.7,323.91s134.7,35,344.4,14.1"/><path class="cls-4" d="M640.6,206.71s-14,18.7-80.6,46"/><line class="cls-4" x1="508.8" y1="293.71" x2="562.5" y2="305.71"/><path class="cls-4" d="M519.6,281.21l42.2,8.4c63.5-20.8,79.6-41.6,79.6-41.6"/><path class="cls-4" d="M632.3,191.41s9.5,49,7,73.5"/><path class="cls-4" d="M640.4,193.31s-2.2,12.4-38.7,27.4-67.4,30.1-88.9,55.2c0,0-19,19-32.9,37.2s-59.8,30.1-81,33.2c0,0-123.1,20-189.4,14.7,0,0-159.1,0-190.2-10.4,0,0-16.8-.8-17.1-8.9"/><path class="cls-2" d="M16.7,369s131.9,9,143.8,9.7,92.2,0,92.2,0,137-8.6,168.6-18.7"/><path class="cls-2" d="M26.5,335.81s-17.2-1.4-11.4,14.3L11.9,367"/><path class="cls-5" d="M113,226.21s43-2.3,56.6-9.9c0,0,9.1,48.6,89.1,48.6s147.6-17,147.6-17,58.5-15.9,86.1,20.8"/><path class="cls-5" d="M130.4,219.41s50.6-13.4,60.2-18.2c0,0-12.7,34.4,37.7,42.8,0,0,22.8,12.9,140.8-8.1,0,0,65.6-16.7,100.5-5.3s35.6,27.8,35.6,27.8"/><path class="cls-5" d="M244.2,91.21s35.3-32.4,73.1-27.6,80.6,29.1,84.1,29.1"/><path class="cls-5" d="M415.5,95.31s22.1.2,24.1,3.7,11.7,24,12.9,25.4"/><path class="cls-5" d="M457.3,135.21l18,27s10.2,12.1,17.2,6.6-1.7-29.3-1.7-29.3l-15.4-23.6"/><path class="cls-5" d="M436.3,68.91s22.9-4.8,32.5,30"/><path class="cls-5" d="M321.6,73s-1.1,11.9,28.8,45.3,35.7,54.7,35.7,56.5,19.8,39.5,53.9,14.7,76.5-17.2,76.5-17.2,38.3.3,46.1,54.5"/><path class="cls-5" d="M407.4,197.61s13.4,8.6,44.3-7.6,38.3-15.4,57.5-15.2c0,0,49.7,3.8,50.8,52.9"/><path class="cls-5" d="M303.4,12.81s8.5-12.5,35.6,1.5,48.4,22,71.2,45.3"/><path class="cls-5" d="M339.6,8.41s19.6-11.4,39.1,0S423,36,433.3,52.11"/><path class="cls-5" d="M402.3,49s33.8,1.5,66.4,23.1,109.1-8.8,113.7-17.2c0,0,20.4-15.6,22.1-18.6"/><path class="cls-2" d="M420.7,33.61s90.7,22.2,125.9,12.1,57.9-17.7,55.5-11.1"/><path class="cls-2" d="M638.6,151.41s-30.2,55.4-70.1,73.3"/><ellipse class="cls-6" cx="485.43" cy="248.31" rx="1.5" ry="3.6" transform="translate(-57.88 294.31) rotate(-31.93)"/><ellipse class="cls-6" cx="470.21" cy="242.21" rx="1.5" ry="3.6" transform="translate(-56.96 285.34) rotate(-31.93)"/><ellipse class="cls-6" cx="455.62" cy="238.81" rx="2.2" ry="3.6" transform="translate(-57.37 277.11) rotate(-31.93)"/><ellipse class="cls-2" cx="438.93" cy="237.3" rx="2.2" ry="3.6" transform="translate(-59.09 268.05) rotate(-31.93)"/><ellipse class="cls-2" cx="421.12" cy="237.28" rx="2.2" ry="3.6" transform="translate(-61.78 258.63) rotate(-31.93)"/><ellipse class="cls-2" cx="400.47" cy="240.44" rx="2.4" ry="4.2" transform="translate(-31.57 418.01) rotate(-53.32)"/><ellipse class="cls-4" cx="382.12" cy="243.69" rx="2.7" ry="4.1" transform="translate(-41.57 404.6) rotate(-53.32)"/><ellipse class="cls-4" cx="363.82" cy="246.76" rx="2.7" ry="4.1" transform="translate(-51.4 391.15) rotate(-53.32)"/><ellipse class="cls-1" cx="344.06" cy="249.73" rx="2.7" ry="4.1" transform="translate(-61.74 376.51) rotate(-53.32)"/><ellipse class="cls-1" cx="321.71" cy="253.16" rx="2.7" ry="4.7" transform="translate(-73.49 359.96) rotate(-53.32)"/><ellipse class="cls-1" cx="301.71" cy="256.52" rx="3.3" ry="4.7" transform="translate(-84.23 345.27) rotate(-53.32)"/><ellipse class="cls-1" cx="280.83" cy="256.51" rx="3.3" ry="4.7" transform="translate(-99.2 240.92) rotate(-40.06)"/><ellipse class="cls-2" cx="183.19" cy="208.06" rx="3.5" ry="2" transform="translate(-71 97.44) rotate(-25.12)"/><ellipse class="cls-2" cx="180.28" cy="216.09" rx="3.5" ry="2.5" transform="translate(-74.68 96.97) rotate(-25.12)"/><ellipse class="cls-1" cx="181.78" cy="225.2" rx="3.5" ry="2.5" transform="translate(-78.41 98.47) rotate(-25.12)"/><ellipse class="cls-1" cx="190.1" cy="235.59" rx="4.2" ry="2.5" transform="translate(-105.72 171.3) rotate(-38.84)"/><ellipse class="cls-1" cx="200.71" cy="243.21" rx="4.2" ry="2.5" transform="translate(-108.15 179.64) rotate(-38.84)"/><ellipse class="cls-1" cx="215.96" cy="249.32" rx="4.2" ry="2.5" transform="translate(-94.98 359.37) rotate(-68.59)"/><ellipse class="cls-1" cx="237.81" cy="253.62" rx="3.3" ry="4.7" transform="translate(-29.3 31.07) rotate(-7.04)"/><ellipse class="cls-1" cx="259.62" cy="256.47" rx="3.3" ry="4.7" transform="translate(-104.14 227.26) rotate(-40.06)"/><path class="cls-2" d="M223.7,134.51s46.7-62.4,89.6-54.7c0,0,.7,20.5,22.8,38.6s33.4,47.6,35,51.9,10.5,30.1,31.3,33.9"/><path class="cls-2" d="M554.3,210.51s-16.4,22.3-49.3,40.9"/><path class="cls-4" d="M473,187.21s47.8-13,70,11.1c0,0,15,11.4,3.7,34.1,0,0-54.6,35.4-58.2,50.8s-36.7,46.3-116.7,53.1"/><path class="cls-2" d="M608.3,40.21s-69,63.1-145.1,37.2"/><path class="cls-2" d="M550.9,44.41s57.7-16.9,46-4.2c0,0,43.6,71.3,39.2,130"/></g></g></g></svg>