<svg viewBox="0 0 841.9 595.3">
    <g id="Слой_2">
      <path
        class="st1"
        d="M486.3 155.8s-35.7-35.7-79-49.4c0 0-22-9.9-28.5 1.9l-64.2 85.1s-27.4 38.7-30.8 53.9"
      />
      <path
        class="st1"
        d="M411.4 107.8s16.7-17.7 40.3-5.3c0 0 33.4 13 60.8 48.3M549.1 187s-26.6-31.7-52.4-31.9c0 0-22.3-1-25.3 16s19.2 38.7 19.2 38.7l35.2 28.1 2.8-2s-2-8.6-6.8-6.8c0 0-31.4-24.1-38.2-28.1"
      />
      <path
        class="st1"
        d="M488.8 166.5s13.1 2.5 21.3 0c8.1-2.5 24.6.8 28.9 17.5l4.6 8.9M498.2 201s16.2-.8 18 14.9M513.9 165.8s-12.4-8.6-27.6.8M522.7 227.8s24.6-41.3 28.4-41.3c3.8 0 11.1 3.8 0 19.5s-22.5 29.9-22.5 29.9"
      />
      <path
        class="st1"
        d="M482.2 170.3c-5.8-6.8-.4-6-.4-6s5.5.9 13.1 7l5.2 5.1s-2.7 4.1-5.2 1.8-12.7-7.9-12.7-7.9-3.3 14.9 8.6 23.8c11.9 8.9 34.7 29.9 34.7 29.9"
      />
      <path
        class="st2"
        d="M480.1 166.5s12.7 6.3 17.5 12.1M482.6 157.7s-13.4 9-4 26.2 37.7 39.2 44.8 42.9M554.5 187.5s-6.6 26.9-27.4 44.6M499.7 217.1s19.5 9.3 27.4 19.9"
      />
      <path
        class="st1"
        d="M527.1 238s17.1 26.1 24.3 30.5c7.2 4.4 18.4 3.4 20.9-4.7 2.5-8.2 6.5-15.6-21.8-53.9"
      />
      <path class="st2" d="M522.7 235.9s21.5 44.8 37.6 35.1" />
      <path
        class="st1"
        d="M299.4 229.8s24.8-54.7 77.2-59.3c0 0 30.6-5.8 63.6 13.4s39.9 17 39.9 17"
      />
      <path
        class="st2"
        d="M287.7 242.5s23.8-50.7 57.5-65.1 50.9-11 69.9-7.7c0 0 26.5 10.6 35.7 17.7s29.3 10.9 29.3 10.9"
      />
      <path
        class="st1"
        d="M391.3 169.8s-3.3 13.6 20.1 40 28 34 28 34 11.4 18.5 15.7 32.4c0 0 14.2 29.1 31.2 28.4 17-.8 27.1-3.5 60.5-19.8 0 0 35.7-14.4 61.5.5 0 0 20.3 10.3 20.5 28.6.2 13.4-5.3 14.2-5.3 14.2"
      />
      <path
        class="st2"
        d="M389.7 170.6s-1.1 14.4 9.9 27.7c11 13.3 33.1 39.6 33.1 39.6s13.3 19.4 16.3 28.7 4.6 21.9 23 32"
      />
      <path
        class="st1"
        d="M389.7 173s-52.6-2.5-80 44.1c0 0-67.1 84.9-103.6 99.1"
      />
      <path
        class="st1"
        d="M471 142.4s34.7 2.2 64.6 19.7c29.9 17.6 105.4 11 140.3-30.1 0 0 52.2 37 32.4 150.4-3.8 21.7-84.8 45.6-90.7 48.6-5.8 3-54.2 30.4-67.1 53.2-13 22.8-43.4 36.5-43.4 36.5-86.2 24.3-202.5 24.8-202.5 24.8C169.9 448.7 92.4 432 92.4 432c-3-13.2-3.5-25.8-3.5-25.8 5.1-45.1 61.8-66.4 61.8-66.4 38-19.2 119.5-46.6 119.5-46.6s-7.1 20.3 1.5 30.4c8.6 10.1 36.1 26.3 113.3 15.7s108.2-19 131.1-18.2c21.8.8 46.3-2 65.6 33"
      />
      <path
        class="st2"
        d="M91.3 426.6s-10.8 4.6-2.4 6.5 39.3 4.5 39.3 4.5"
      />
      <path
        class="st2"
        d="M91.1 425s-17.9 3.3-12.2 10c5.7 6.6 46.9 8 46.9 8s95.4 7 128.8 6.6c0 0 102.6 3.2 148.3-4.7 0 0 62.7-3.2 105.2-16.3 0 0 34.2-8 47.1-27.9 0 0 55.1-70.5 91.9-77.9 0 0 33.6-10.6 55.3-27 0 0 11.5-8.9 10.6-15.2-.2-1.7-1.3-3.2-3.7-4.2"
      />
      <path
        d="M77.7 431.7s-1.6-.6-2.1 11.4-2.6 17.7 1.1 19.2 5.7 2 5.7 2c14.7 6.1 100.8 12.2 100.8 12.2C411.6 491.2 520 450.2 520 450.2c24.9-9 39.7-31 39.7-31l27.2-33.1c19.8-24.1 47.1-35.9 47.1-35.9l2.5 53 65.2-31.3c13.1-5.9 13.9-15 13.9-15l-1.3-74.8"
        fill="none"
        stroke="#000"
        strokeWidth="1.5"
        strokeMiterlimit="10"
      />
      <path class="st2" d="M90.5 421.5s134.7 35 344.4 14.1" />
      <path
        class="st4"
        d="M714.4 304.3s-14 18.7-80.6 46M582.6 391.3l53.7 12M593.4 378.8l42.2 8.4c63.5-20.8 79.6-41.6 79.6-41.6M706.1 289s9.5 49 7 73.5"
      />
      <path
        class="st4"
        d="M714.2 290.9s-2.2 12.4-38.7 27.4c-36.5 14.9-67.4 30.1-88.9 55.2 0 0-19 19-32.9 37.2-13.9 18.2-59.8 30.1-81 33.2 0 0-123.1 20-189.4 14.7 0 0-159.1 0-190.2-10.4 0 0-16.8-.8-17.1-8.9"
      />
      <path
        class="st2"
        d="M90.5 466.6s131.9 9 143.8 9.7c11.9.8 92.2 0 92.2 0s137-8.6 168.6-18.7M100.3 433.4s-17.2-1.4-11.4 14.3l-3.2 16.9"
      />
      <path
        class="st5"
        d="M186.8 323.8s43-2.3 56.6-9.9c0 0 9.1 48.6 89.1 48.6s147.6-17 147.6-17 58.5-15.9 86.1 20.8"
      />
      <path
        class="st5"
        d="M204.2 317s50.6-13.4 60.2-18.2c0 0-12.7 34.4 37.7 42.8 0 0 22.8 12.9 140.8-8.1 0 0 65.6-16.7 100.5-5.3S579 356 579 356M318 188.8s35.3-32.4 73.1-27.6 80.6 29.1 84.1 29.1M489.3 192.9s22.1.2 24.1 3.7 11.7 24 12.9 25.4M531.1 232.8l18 27s10.2 12.1 17.2 6.6c7-5.6-1.7-29.3-1.7-29.3l-15.4-23.6M510.1 166.5s22.9-4.8 32.5 30"
      />
      <path
        class="st5"
        d="M395.4 170.6s-1.1 11.9 28.8 45.3 35.7 54.7 35.7 56.5 19.8 39.5 53.9 14.7c34.2-24.8 76.5-17.2 76.5-17.2s38.3.3 46.1 54.5"
      />
      <path
        class="st5"
        d="M481.2 295.2s13.4 8.6 44.3-7.6 38.3-15.4 57.5-15.2c0 0 49.7 3.8 50.8 52.9M377.2 110.4s8.5-12.5 35.6 1.5c27.1 13.9 48.4 22 71.2 45.3M413.4 106s19.6-11.4 39.1 0 44.3 27.6 54.6 43.7"
      />
      <path
        class="st5"
        d="M476.1 146.6s33.8 1.5 66.4 23.1c32.6 21.6 109.1-8.8 113.7-17.2 0 0 20.4-15.6 22.1-18.6"
      />
      <path
        class="st2"
        d="M494.5 131.2s90.7 22.2 125.9 12.1 57.9-17.7 55.5-11.1M712.4 249s-30.2 55.4-70.1 73.3"
      />
      <ellipse
        transform="rotate(-31.929 559.214 345.848)"
        class="st6"
        cx="559.2"
        cy="345.9"
        rx="1.5"
        ry="3.6"
      />
      <ellipse
        transform="rotate(-31.929 544.019 339.77)"
        class="st6"
        cx="544"
        cy="339.8"
        rx="1.5"
        ry="3.6"
      />
      <ellipse
        transform="rotate(-31.929 529.425 336.356)"
        class="st6"
        cx="529.4"
        cy="336.4"
        rx="2.2"
        ry="3.6"
      />
      <ellipse
        transform="rotate(-31.929 512.71 334.836)"
        class="st2"
        cx="512.7"
        cy="334.9"
        rx="2.2"
        ry="3.6"
      />
      <ellipse
        transform="rotate(-31.929 494.867 334.837)"
        class="st2"
        cx="494.9"
        cy="334.9"
        rx="2.2"
        ry="3.6"
      />
      <ellipse
        transform="rotate(-53.323 474.32 338.037)"
        class="st2"
        cx="474.3"
        cy="338"
        rx="2.4"
        ry="4.2"
      />
      <ellipse
        transform="rotate(-53.323 455.895 341.267)"
        class="st4"
        cx="455.9"
        cy="341.3"
        rx="2.7"
        ry="4.1"
      />
      <ellipse
        transform="rotate(-53.323 437.66 344.306)"
        class="st4"
        cx="437.6"
        cy="344.3"
        rx="2.7"
        ry="4.1"
      />
      <ellipse
        transform="rotate(-53.323 417.904 347.345)"
        class="st1"
        cx="417.9"
        cy="347.3"
        rx="2.7"
        ry="4.1"
      />
      <ellipse
        transform="rotate(-53.323 395.556 350.716)"
        class="st1"
        cx="395.5"
        cy="350.7"
        rx="2.7"
        ry="4.7"
      />
      <ellipse
        transform="rotate(-53.323 375.517 354.091)"
        class="st1"
        cx="375.5"
        cy="354.1"
        rx="3.3"
        ry="4.7"
      />
      <ellipse
        transform="rotate(-40.059 354.607 354.06)"
        class="st1"
        cx="354.6"
        cy="354.1"
        rx="3.3"
        ry="4.7"
      />
      <ellipse
        transform="rotate(-25.12 256.917 305.677)"
        class="st2"
        cx="257"
        cy="305.7"
        rx="3.5"
        ry="2"
      />
      <ellipse
        transform="rotate(-25.12 254.081 313.707)"
        class="st2"
        cx="254.1"
        cy="313.7"
        rx="3.5"
        ry="2.5"
      />
      <ellipse
        transform="rotate(-25.12 255.6 322.824)"
        class="st1"
        cx="255.6"
        cy="322.8"
        rx="3.5"
        ry="2.5"
      />
      <ellipse
        transform="rotate(-38.838 263.894 333.184)"
        class="st1"
        cx="263.9"
        cy="333.2"
        rx="4.2"
        ry="2.5"
      />
      <ellipse
        transform="rotate(-38.838 274.531 340.782)"
        class="st1"
        cx="274.5"
        cy="340.8"
        rx="4.2"
        ry="2.5"
      />
      <ellipse
        transform="rotate(-68.6 289.736 346.86)"
        class="st1"
        cx="289.7"
        cy="346.9"
        rx="4.2"
        ry="2.5"
      />
      <ellipse
        transform="rotate(-7.042 311.548 351.213)"
        class="st1"
        cx="311.6"
        cy="351.2"
        rx="3.3"
        ry="4.7"
      />
      <ellipse
        transform="rotate(-40.059 333.334 354.059)"
        class="st1"
        cx="333.4"
        cy="354.1"
        rx="3.3"
        ry="4.7"
      />
      <path
        class="st2"
        d="M297.5 232.1s46.7-62.4 89.6-54.7c0 0 .7 20.5 22.8 38.6 22.1 18 33.4 47.6 35 51.9 1.5 4.2 10.5 30.1 31.3 33.9M628.1 308.1s-16.4 22.3-49.3 40.9"
      />
      <path
        class="st4"
        d="M546.8 284.8s47.8-13 70 11.1c0 0 15 11.4 3.7 34.1 0 0-54.6 35.4-58.2 50.8s-36.7 46.3-116.7 53.1"
      />
      <path
        class="st2"
        d="M682.1 137.8s-69 63.1-145.1 37.2M624.7 142s57.7-16.9 46-4.2c0 0 43.6 71.3 39.2 130"
      />
    </g>
  </svg>
