<svg width="804" height="480" viewBox="0 0 804 480" xmlns="http://www.w3.org/2000/svg">
  <title>
    сингл-монки
  </title>
  <g stroke="#000" fill="none" fill-rule="evenodd">
    <path d="M515.845 73.708S471.208 29.07 417.07 11.974c0 0-27.54-12.346-35.614 2.375l-80.252 106.37s-34.19 48.43-38.465 67.43" stroke-width="1.25"/>
    <path d="M422.296 13.718s20.893-22.164 50.336-6.59c0 0 41.788 16.244 75.98 60.406m45.745 45.27s-33.24-39.57-65.532-39.887c0 0-27.86-1.267-31.658 19.943-3.798 21.212 24.06 48.438 24.06 48.438l44.005 35.14 3.483-2.533s-2.45-10.712-8.55-8.547c0 0-39.254-30.075-47.803-35.14" stroke-width="1.25"/>
    <path d="M519.01 87.162s16.423 3.166 26.573 0c10.152-3.166 30.73.95 36.11 21.844l5.7 11.08m-56.668 10.13s20.26-1.026 22.477 18.68m-2.85-62.686s-15.543-10.79-34.507.953m45.588 76.612s30.708-51.603 35.457-51.603c4.75 0 13.93 4.75 0 24.377s-28.176 37.35-28.176 37.35" stroke-width="1.25"/>
    <path d="M510.78 91.91c-7.28-8.547-.523-7.487-.523-7.487s6.854 1.157 16.352 8.754l6.49 6.33s-3.33 5.068-6.49 2.218c-3.17-2.85-15.83-9.814-15.83-9.814s-4.12 18.68 10.76 29.76c14.88 11.08 43.37 37.36 43.37 37.36" stroke-width="1.25"/>
    <path d="M508.128 87.162s15.856 7.82 21.937 15.11M511.223 76.11s-16.748 11.21-5.034 32.738c11.71 21.527 47.12 49.04 56.01 53.646m38.89-49.118s-8.22 33.605-34.23 55.695m-34.24-18.67s24.31 11.64 34.23 24.86" stroke-width=".625"/>
    <path d="M566.862 176.438s21.4 32.608 30.423 38.07c9.023 5.46 23.03 4.273 26.12-5.937 3.085-10.2 8.07-19.53-27.306-67.34" stroke-width="1.25"/>
    <path d="M561.433 173.905s26.83 56.055 47.012 43.818" stroke-width=".625"/>
    <path d="M282.21 166.307s31.024-68.38 96.556-74.08c0 0 38.306-7.28 79.46 16.78 41.158 24.06 49.903 21.202 49.903 21.202" stroke-width="1.25"/>
    <path d="M267.646 182.137s29.76-63.317 71.864-81.362c42.105-18.045 63.632-13.784 87.376-9.582 0 0 33.07 13.23 44.637 22.182 11.568 8.954 36.605 13.676 36.605 13.676" stroke-width=".625"/>
    <path d="M397.147 91.26s-4.135 16.964 25.15 49.962c29.282 33 34.98 42.498 34.98 42.498s14.246 23.11 19.63 40.52c0 0 17.728 36.41 38.938 35.46 21.21-.95 33.875-4.434 75.663-24.695 0 0 44.638-18.045 76.93.634 0 0 25.366 12.92 25.642 35.77.202 16.78-6.648 17.73-6.648 17.73" stroke-width="1.25"/>
    <path d="M395.168 92.228s-1.365 18.045 12.407 34.665c13.77 16.62 41.314 49.545 41.314 49.545s16.62 24.297 20.41 35.932c3.8 11.634 5.73 27.405 28.75 40.058" stroke-width=".625"/>
    <path d="M395.168 95.256s-65.79-3.187-99.98 55.143c0 0-83.858 106.1-129.446 123.83" stroke-width="1.25"/>
    <path d="M496.81 57.02s43.412 2.726 80.768 24.664c37.357 21.94 131.698 13.71 175.387-37.577 0 0 65.215 46.22 40.52 188.05-4.714 27.08-106.053 56.984-113.334 60.782-7.28 3.8-67.74 37.99-83.93 66.48-16.18 28.49-54.25 45.58-54.25 45.58-107.8 30.39-253.11 31.02-253.11 31.02-168.42 3.8-265.29-17.1-265.29-17.1-3.8-16.47-4.43-32.29-4.43-32.29 6.33-56.35 77.25-82.94 77.25-82.94 47.49-24.06 149.43-58.25 149.43-58.25s-8.86 25.32 1.9 37.99c10.76 12.66 45.11 32.92 141.59 19.62s135.3-23.79 163.91-22.797c27.23.95 57.88-2.49 81.94 41.195" stroke-width="1.25"/>
    <path d="M22.175 412.254s-13.492 5.735-3.045 8.11c10.447 2.374 49.183 5.67 49.183 5.67" stroke-width=".625"/>
    <path d="M21.814 410.253s-22.39 4.175-15.27 12.485c7.125 8.31 58.65 9.973 58.65 9.973s119.19 8.79 160.98 8.31c0 0 128.215 4.04 185.438-5.93 0 0 78.353-4.03 131.538-20.42 0 0 42.74-9.97 58.884-34.9 0 0 68.856-88.09 114.92-97.35 0 0 42.025-13.29 69.093-33.71 0 0 14.33-11.1 13.293-18.99-.273-2.08-1.617-3.94-4.577-5.31" stroke-width=".625"/>
    <path d="M5.147 418.622s-2.004-.79-2.638 14.247c-.64 15.03-3.22 22.16 1.31 24.06 4.54 1.9 7.07 2.53 7.07 2.53 18.36 7.6 126 15.19 126 15.19 285.55 18.36 420.97-32.83 420.97-32.83 31.1-11.31 49.62-38.8 49.62-38.8l33.95-41.32c24.69-30.16 58.88-44.88 58.88-44.88l3.09 66.24 81.44-39.18c16.38-7.36 17.33-18.76 17.33-18.76l-1.66-93.55" stroke-width="1.875"/>
    <path d="M21.1 405.82s168.378 43.698 430.493 17.644" stroke-width=".625"/>
    <path d="M801.024 259.378s-17.51 23.43-100.69 57.463m-64.146 51.28l67.232 14.97m-53.668-30.62l52.728 10.46c79.313-25.93 99.46-51.94 99.46-51.94m-11.303-70.68s11.815 61.21 8.757 91.91" stroke-width=".938"/>
    <path d="M800.726 242.604s-2.808 15.51-48.395 34.19-84.21 37.673-111.12 69.015c0 0-23.74 23.74-41.15 46.53-17.41 22.79-74.71 37.67-101.3 41.47 0 0-153.85 25.01-236.8 18.36 0 0-198.81 0-237.75-12.98 0 0-20.96-.98-21.4-11.1" stroke-width=".938"/>
    <path d="M21.1 462.196s164.868 11.195 179.748 12.145c14.878.95 115.235 0 115.235 0s171.278-10.75 210.693-23.39M33.383 420.8s-21.534-1.727-14.253 17.834l-3.967 21.144" stroke-width=".625"/>
    <path d="M141.46 283.764s53.69-2.855 70.784-12.352c0 0 11.397 60.806 111.437 60.795 100.04-.012 184.45-21.227 184.45-21.227s73.1-19.922 107.68 25.973" stroke-width="1.25" stroke-dasharray="3.75"/>
    <path d="M163.24 275.192s63.25-16.74 75.28-22.765c0 0-15.828 43.045 47.172 53.493 0 0 28.49 16.145 176.018-10.132 0 0 81.994-20.893 125.683-6.647 43.687 14.25 44.494 34.74 44.494 34.74M305.514 115.01s44.08-40.508 91.432-34.493c47.352 6.016 100.766 36.407 105.084 36.407m17.587 3.167s27.618.3 30.127 4.59c2.508 4.28 14.595 30.03 16.15 31.72m5.946 13.58l22.517 33.7s12.76 15.18 21.45 8.23c8.69-6.94-2.138-36.64-2.138-36.64l-19.32-29.52m-48.77-58.57s28.65-6.03 40.61 37.51" stroke-width="1.25" stroke-dasharray="3.75"/>
    <path d="M402.27 92.228s-1.343 14.878 36.013 56.667c37.356 41.79 44.637 68.336 44.637 70.575 0 2.24 24.694 49.41 67.433 18.385 42.737-31.025 95.607-21.527 95.607-21.527s47.894.436 57.663 68.125" stroke-width="1.25" stroke-dasharray="3.75"/>
    <path d="M509.514 247.985s16.778 10.764 55.4-9.497c38.625-20.262 47.885-19.248 71.865-19.018 0 0 62.14 4.738 63.55 66.155M379.49 16.952s10.67-15.584 44.543 1.83c33.875 17.41 60.513 27.454 88.983 56.622m-88.214-63.947s24.556-14.29 48.933 0c24.376 14.288 55.347 34.51 68.222 54.682" stroke-width="1.25" stroke-dasharray="3.75"/>
    <path d="M503.178 62.27s42.25 1.928 83.017 28.923c40.77 26.995 136.378-10.995 142.075-21.443 0 0 25.475-19.545 27.618-23.227" stroke-width="1.25" stroke-dasharray="3.75"/>
    <path d="M526.164 42.972S639.482 70.7 683.56 58.037c44.078-12.663 72.364-22.104 69.404-13.93M798.49 190.2s-37.69 69.287-87.613 91.622" stroke-width=".625"/>
    <path d="M608.607 310.368c1.31 2.1 1.67 4.238.81 4.774-.86.536-2.62-.73-3.928-2.83-1.31-2.1-1.68-4.24-.82-4.775.86-.536 2.62.73 3.93 2.83zm-18.995-7.598c1.31 2.1 1.67 4.238.81 4.774-.86.536-2.62-.73-3.928-2.83-1.308-2.1-1.67-4.24-.81-4.775.86-.54 2.62.73 3.928 2.83zm-17.49-4.736c1.31 2.1 1.335 4.447.06 5.242-1.278.795-3.374-.262-4.683-2.363-1.31-2.1-1.34-4.447-.06-5.242 1.27-.79 3.37.27 4.68 2.37z" stroke-width=".5"/>
    <path d="M551.228 296.134c1.31 2.1 1.335 4.447.06 5.243-1.278.795-3.374-.263-4.683-2.363-1.308-2.1-1.335-4.447-.057-5.243 1.276-.79 3.37.27 4.68 2.37zm-22.305 0c1.31 2.1 1.335 4.447.06 5.243-1.278.795-3.374-.263-4.683-2.363-1.308-2.1-1.335-4.447-.058-5.243 1.277-.79 3.372.27 4.68 2.37zM502.7 299.09c2.31 1.72 3.368 4.208 2.363 5.557-1.004 1.35-3.69 1.046-6-.674-2.31-1.72-3.37-4.207-2.364-5.556 1-1.348 3.69-1.046 6 .674z" stroke-width=".625"/>
    <path d="M479.866 302.86c2.29 1.704 3.242 4.298 2.128 5.794-1.114 1.495-3.873 1.326-6.16-.38-2.29-1.702-3.24-4.296-2.127-5.79 1.113-1.497 3.87-1.327 6.16.376zm-22.793 3.8c2.288 1.703 3.24 4.297 2.127 5.793-1.114 1.495-3.872 1.326-6.16-.38-2.29-1.702-3.24-4.296-2.127-5.79 1.113-1.497 3.87-1.327 6.16.376z" stroke-width=".938"/>
    <path d="M432.38 310.458c2.288 1.704 3.24 4.298 2.127 5.794-1.114 1.495-3.873 1.326-6.16-.38-2.29-1.702-3.24-4.296-2.128-5.79 1.11-1.497 3.87-1.327 6.16.376zm-27.935 4.214c2.596 1.934 3.797 4.713 2.683 6.21-1.113 1.494-4.12 1.14-6.717-.795-2.59-1.932-3.79-4.712-2.68-6.207 1.12-1.496 4.12-1.14 6.72.792zm-24.605 3.626c2.595 1.934 3.6 4.98 2.24 6.8-1.356 1.825-4.56 1.735-7.158-.2-2.596-1.933-3.6-4.978-2.242-6.8 1.357-1.823 4.562-1.734 7.16.2zm-25.393.652c2.084 2.478 2.36 5.673.623 7.135-1.74 1.463-4.84.64-6.923-1.837-2.084-2.478-2.36-5.673-.623-7.135 1.74-1.463 4.84-.64 6.923 1.837z" stroke-width="1.25"/>
    <path d="M230.275 263.44c-2.18 1.02-4.43.813-5.03-.463-.6-1.278.682-3.14 2.862-4.163 2.18-1.02 4.43-.813 5.03.463.598 1.277-.684 3.14-2.862 4.162zm-3.293 10.578c-2.178 1.02-4.545.572-5.282-1.004-.74-1.575.43-3.68 2.607-4.703 2.18-1.02 4.545-.57 5.284 1.01.74 1.58-.43 3.68-2.6 4.71z" stroke-width=".625"/>
    <path d="M228.882 285.414c-2.18 1.022-4.545.573-5.283-1.003-.74-1.57.42-3.68 2.6-4.7s4.54-.57 5.28 1.01c.74 1.58-.43 3.68-2.61 4.7zm10.958 12.512c-2.265 1.824-4.986 2.204-6.078.85-1.09-1.356-.138-3.933 2.128-5.758 2.265-1.824 4.988-2.204 6.08-.85 1.09 1.357.137 3.935-2.13 5.758zm13.298 9.498c-2.267 1.823-4.988 2.203-6.08.848-1.09-1.355-.138-3.932 2.128-5.757 2.265-1.824 4.988-2.204 6.08-.85 1.09 1.357.138 3.935-2.128 5.76zm19.952 6.293c-1.06 2.71-3.236 4.39-4.856 3.754-1.62-.63-2.073-3.34-1.01-6.05 1.06-2.71 3.235-4.39 4.855-3.75 1.62.64 2.07 3.35 1.01 6.06zm28.44 3.808c.398 3.212-1.11 6.042-3.365 6.32-2.255.28-4.406-2.1-4.802-5.31-.398-3.214 1.11-6.044 3.366-6.323 2.25-.278 4.4 2.1 4.8 5.313zm26.324 1.425c2.084 2.478 2.362 5.673.623 7.135-1.74 1.463-4.84.64-6.923-1.837-2.083-2.478-2.36-5.673-.622-7.135 1.74-1.463 4.84-.64 6.922 1.837z" stroke-width="1.25"/>
    <path d="M279.848 169.07s58.396-77.94 112.056-68.37c0 0 .827 25.658 28.492 48.195 27.664 22.538 41.79 59.516 43.688 64.82 1.9 5.303 13.13 37.643 39.094 42.368m189.914 8.005s-20.462 27.85-61.615 51.176" stroke-width=".625"/>
    <path d="M591.508 235.006s59.764-16.294 87.467 13.928c0 0 18.794 14.233 4.584 42.625 0 0-68.3 44.29-72.74 63.55-4.45 19.26-45.83 57.9-145.92 66.32" stroke-width=".938"/>
    <path d="M760.646 51.2s-86.238 78.92-181.428 46.44m109.654-41.136s72.064-21.185 57.455-5.305c0 0 54.523 89.06 48.94 162.51" stroke-width=".625"/>
  </g>
</svg>
