<?xml version="1.0" encoding="UTF-8"?>
<svg viewBox="0 0 235 174" version="1.1" xmlns="http://www.w3.org/2000/svg" xmlns:xlink="http://www.w3.org/1999/xlink">
    <g id="Page-1" stroke="none" stroke-width="1" fill="none" fill-rule="evenodd">
        <g id="Desktop" transform="translate(0.000000, -10355.000000)" stroke="#000000">
            <g id="#6" transform="translate(-117.000000, 10106.000000)">
                <g id="item-1" transform="translate(0.000000, 202.000000)">
                    <g id="monki" transform="translate(106.000000, 48.000000)">
                        <path d="M93.3385405,62 C91.9103041,59.8428185 94.9214726,55.5012214 103.891421,49.7877593 C112.861369,44.0738907 139.918715,10.2699172 139.918715,10.2699172 C139.918715,10.2699172 141.568802,3.61383142 161.020878,13.0973818 C161.020878,13.0973818 177.962248,23.4446991 183.825093,29.5487871 C189.688337,35.6528751 188.97242,34.1476851 188.97242,34.1476851" id="Stroke-1"></path>
                        <path d="M95,60.253093 C95,60.253093 97.025015,52.3385722 107.015169,54.3177086 C117.004923,56.2968451 119.249484,54.1958097 149,83" id="Stroke-3"></path>
                        <path d="M207.082083,49 L214.626117,55.3786302 L215.928849,60.5526516 C215.928849,60.5526516 216.676156,63.0766123 213.326952,64.8921409 C209.977749,66.7076695 209.020324,68 209.020324,68 L202,63.3636663" id="Stroke-5"></path>
                        <path d="M201.981926,59 C201.981926,59 202.880824,52.9574375 192,51" id="Stroke-7"></path>
                        <path d="M205.983756,44.8108929 L202.461774,57.9564431 C202.461774,57.9564431 202.508168,61.1817394 197.752332,56.2919847 L189.294935,49.6924885 C189.294935,49.6924885 188.307052,48.7264498 189.947258,44.0957469 C191.588263,39.4650439 191.946621,36.7154238 191.946621,36.7154238 C191.946621,36.7154238 192.095003,33.7536668 195.426208,35.613536 C198.757413,37.4738131 204.911083,42.9730533 204.911083,42.9730533 C204.911083,42.9730533 206.155336,44.1712186 205.983756,44.8108929 Z" id="Stroke-9"></path>
                        <path d="M189.286048,35.8656357 C189.286048,35.8656357 186.67889,41.0352214 185.536112,48.3173452 C185.536112,48.3173452 183.007085,51.6035603 188.934849,55.1964083 C194.863403,58.7892562 198.31265,61.506587 198.31265,61.506587 C198.31265,61.506587 202.308031,65.2632413 204.38918,60.8602375 L207.776869,46.1511463 C207.776869,46.1511463 208.834412,43.6573347 206.344845,42.3993336 L194.905626,32.5915244 C194.905626,32.5915244 191.092552,30.477776 190.043296,34.2416927 L189.286048,35.8656357 Z" id="Stroke-11"></path>
                        <path d="M193,36.2148006 C193,36.2148006 198.319752,35.3806324 200,37" id="Stroke-13"></path>
                        <path d="M186,48.4087309 C186,48.4087309 180.40365,45.1230338 178.380562,46.2266176 C178.380562,46.2266176 175.19382,45.859154 173.409851,49.1874037 C171.625472,52.514858 159.600362,65.8159261 159.600362,65.8159261 C159.600362,65.8159261 157.944959,68.5019098 160.131827,70" id="Stroke-15"></path>
                        <path d="M176,82.3178087 C176,82.3178087 192.306358,75.7982566 199.166918,78.7814553 C206.027068,81.7650536 208.514119,84.3329865 206.100301,90.4044992 C206.100301,90.4044992 202.307335,94.3705067 202.095819,95" id="Stroke-17"></path>
                        <path d="M153,85 C153,85 161.826573,86.4962287 163.199882,89.5958714 C164.573192,92.6955141 166.880462,96.0631203 167,98" id="Stroke-19"></path>
                        <path d="M180.019103,93 L187,102.506996 L186.205184,110.184764 C186.205184,110.184764 186.605498,112.372837 181.16463,111.944395 L175.567977,111.484171 C175.567977,111.484171 171.564443,103.845426 170,103.528419" id="Stroke-21"></path>
                        <path d="M159.422818,70.9319849 L151.790988,79.3792091 C151.790988,79.3792091 148.584068,83.4594744 150.752768,86.3559469 C152.92226,89.2524193 164.69232,99.8718994 164.69232,99.8718994 C164.69232,99.8718994 167.936857,104.050617 171.91393,100.696931 C175.891002,97.3436393 179.618617,91.8791319 179.998743,91.2104426 C180.37887,90.5417532 182.626763,89.6580436 178.800949,84.2120453 L164.033434,71.1123499 C164.033434,71.1123499 161.408186,68.7345252 159.422818,70.9319849 Z" id="Stroke-23"></path>
                        <path d="M164.458513,75.4779859 C164.458513,75.4779859 162.760009,71.6369605 158.946167,76.339043 L153.087807,83.6586274 C153.087807,83.6586274 152.145273,84.5643941 156.436251,87.7327809 C160.726823,90.9011678 166.208412,97.4770575 166.208412,97.4770575 C166.208412,97.4770575 168.59085,100.863403 170.860377,97.5369363 C173.130309,94.2100702 177.806151,89.4349356 177.806151,89.4349356 L178,88.4569152 C178,88.4569152 176.999595,87.5116286 176.111695,86.0022836 C175.22339,84.4929387 175.659651,83.5732003 171.592065,79.2770961 C167.524479,74.9805927 160.653574,74.9953628 160.653574,74.9953628" id="Stroke-25"></path>
                        <path d="M52,92.9732808 C53.9201707,91.2205667 57.6516797,89.7805227 64.6265526,92.5613249 C64.6265526,92.5613249 92.98298,103.050386 107.125983,118.787581 C121.268586,134.524776 117.666716,147.566843 117.392635,154" id="Stroke-27" stroke-width="0.75" stroke-dasharray="1"></path>
                        <path d="M51,92.9183049 C52.0200211,90.9581917 55.4607907,86.7074742 65.127772,90.5624035 C65.127772,90.5624035 93.4990092,101.058403 107.648799,116.804605 C121.798989,132.551609 120.063992,146.562833 119.789772,153" id="Stroke-29" stroke-width="0.75" stroke-dasharray="2"></path>
                        <path d="M51,92.8166615 C51,92.8166615 53.256082,84.6686557 65.5035558,89.5676688 C65.5035558,89.5676688 93.8831772,100.099261 108.037549,115.899261 C122.19152,131.699262 121.143968,146.541004 120.869265,153" id="Stroke-31"></path>
                        <path d="M180.238836,19.1194357 L185.231964,17.2584911 C236.493865,-2.95450912 238.85333,7.92275236 238.85333,7.92275236 C239.942529,20.7403104 242.936327,36.4080944 242.936327,36.4080944 C248.427889,53.0176292 241.221588,71.7676531 241.221588,71.7676531 C240.990958,74.1103487 231.911635,79.4752667 227.493284,81.5315702 C223.074934,83.5878737 206.292076,95.1390227 206.292076,95.1390227 C198.104497,96.9036977 178.998148,127.802628 178.998148,127.802628 C168.806043,145.827206 153.691559,150.504944 153.691559,150.504944 C148.583715,153.100599 109.63276,159.614711 109.63276,159.614711 C100.744097,161.691155 44.0641796,166.066791 24.3618688,162.864919 C4.65955807,159.663047 4.22068082,148.099009 4.22068082,148.099009 C4.22068082,148.099009 3.53838259,149.315068 4.57322156,140.516264" id="Stroke-33" stroke-width="0.75" stroke-dasharray="4"></path>
                        <path d="M180.238598,17.1194005 L185.232119,15.2584606 C236.493951,-4.9544893 238.853013,5.92274507 238.853013,5.92274507 C239.94261,18.7402712 242.936405,34.4084189 242.936405,34.4084189 C248.427959,51.0179123 241.221268,69.7674867 241.221268,69.7674867 C240.990638,72.1105793 231.911327,77.4750811 227.493382,79.5313795 C223.075038,81.5876778 206.291803,93.1392008 206.291803,93.1392008 C198.104635,94.9038714 178.998312,125.802725 178.998312,125.802725 C168.805821,143.827258 153.691756,148.504582 153.691756,148.504582 C148.58392,151.100633 109.633017,157.614326 109.633017,157.614326 C100.743966,159.691167 44.0645252,164.066793 24.362241,160.864929 C4.65995688,157.663065 4.22068052,146.099055 4.22068052,146.099055 C4.22068052,146.099055 3.53838321,147.314708 4.57322079,138.515926 C5.60845807,129.717547 20.081395,117.261736 26.6725389,110.906747 C33.2636828,104.551758 59.9332338,87.9350138 59.9332338,87.9350138 L95.5829685,61.5636416 C95.5829685,61.5636416 102.439517,55.4712786 105.207877,55.8342022" id="Stroke-35"></path>
                        <path d="M147,7.81383711 L152.7254,1.04405262 C152.7254,1.04405262 161.532156,-2.80183428 169.058605,4.2690161 C176.585054,11.3398665 183.856074,20.5941443 184,29" id="Stroke-37"></path>
                        <path d="M234.245896,4 C234.245896,4 241.349494,5.83724356 226.966312,25.5268586 C226.966312,25.5268586 219.216646,33.5348183 205,40" id="Stroke-39"></path>
                        <path d="M3.47694389,144.142252 C3.47694389,144.142252 -2.56010525,151.766884 4.21569332,157.099956 C10.9914919,162.432627 13.2776597,164.449473 34.855216,165.98988 C34.855216,165.98988 78.2987965,166.438246 102.725073,161.366253 C127.151349,156.294661 141.454082,155.064662 154.409565,150.433817 C167.365448,145.802972 177.217705,134.729368 183.588769,121.869519 C189.959834,109.009268 200.406606,98.4449891 205.060847,96.4722579 L239.335384,74.2007276 C239.335384,74.2007276 241.193245,73.4884749 240.983487,69" id="Stroke-41" stroke-width="0.5"></path>
                        <path d="M1.27077229,148.506989 C1.27077229,148.506989 -0.870684572,155.203201 0.406213915,156.785942 C1.68271362,158.368285 4.63927995,167.169645 21.2963848,170.859524 C37.9534897,174.549005 90.4606561,168.106239 90.4606561,168.106239 C90.4606561,168.106239 134.247667,162.187075 140.272857,160.248635 C146.298047,158.310593 156.585016,156.980104 170.904064,146.431283 C170.904064,146.431283 177.526231,142.355467 186.958212,121.326658 C186.958212,121.326658 200.462151,99.0039636 212.329889,97.5648551 L208.429806,110.659668 L227.139041,100.449836 C227.139041,100.449836 233.355247,98.0423033 235.695297,86.3328856 L239,74" id="Stroke-43"></path>
                        <path d="M199,106 L209,111" id="Stroke-45"></path>
                        <path d="M201,104.224047 L209.290934,108 C209.290934,108 231.711254,97.3629772 234,92" id="Stroke-47"></path>
                        <path d="M200,106 C200,106 205.338063,99.4785571 212,98" id="Stroke-49" stroke-width="0.75"></path>
                        <path d="M203,102.382277 L210.524364,105 C210.524364,105 222.421865,101.552126 235,90" id="Stroke-51" stroke-width="0.5"></path>
                        <path d="M233,93 C233,93 232.393172,97.2511024 228,101" id="Stroke-53" stroke-width="0.5"></path>
                        <path d="M212,98 L208,109" id="Stroke-55" stroke-width="0.5"></path>
                        <path d="M240,75 C240,75 217.015222,90.0922899 211,92" id="Stroke-57" stroke-width="0.5"></path>
                        <path d="M240,78 C240,78 216.150448,93.3061322 207.571717,98.5951134 C198.992581,103.883689 193.414018,112.053367 190.4944,116.155034 C187.574782,120.256701 181.521016,133.039385 181.521016,133.039385 C181.521016,133.039385 174.160648,147.160636 170,149" id="Stroke-59" stroke-width="0.5"></path>
                        <path d="M241,67 C241,67 209.022648,88.5762042 208,92" id="Stroke-61" stroke-width="0.5"></path>
                        <path d="M206,41 C206,41 220.473772,33.9320086 226.419638,27.7265639 C232.366287,21.5211192 237.354811,12.4168597 236.980182,5" id="Stroke-63" stroke-width="0.5"></path>
                        <path d="M239,10 C239,10 237.602185,18.0956556 233,21" id="Stroke-65" stroke-width="0.5"></path>
                        <path d="M209,39 C209,39 220.042243,35.8431813 228.334593,27.9988321 C228.334593,27.9988321 239.193671,16.50153 240,12" id="Stroke-67" stroke-width="0.5"></path>
                        <path d="M235,11.0549747 C235,11.0549747 237.423114,10.1706102 237.284998,15.4959532 C237.147289,20.8216953 241.984986,44.0151126 241.987018,45.7179932 C241.989049,47.4208737 242.487889,54.5624365 237.09773,73" id="Stroke-69" stroke-width="0.5"></path>
                        <path d="M241.939985,52 C241.939985,52 243.370341,60.2356023 232.265211,65.8454485 C221.159685,71.4556995 207.732055,81.2133092 206.527899,84.2532749 C206.527899,84.2532749 192.201402,91.512266 187,103" id="Stroke-71" stroke-width="0.5"></path>
                        <path d="M179,111 C179,111 177.596123,124.422029 156.129136,133.860227 C134.662546,143.298825 121,141.930924 121,141.930924" id="Stroke-73" stroke-width="0.5"></path>
                        <path d="M210.219242,51.6480777 C210.219242,51.6480777 230.832604,38.9196689 235.650066,29 C235.650066,29 238.172747,39.7256445 237.990589,46.4644287 C237.809241,53.2028071 209.724987,76.4450179 209,82" id="Stroke-75" stroke-width="0.5"></path>
                        <path d="M177,111 C177,111 172.300869,127.077329 119.754844,135.949136 L44.0264675,150.392843 C44.0264675,150.392843 19.8051038,154.407336 9.519686,141.790819 C9.519686,141.790819 1.8949377,131.191025 20.8033544,115.860138" id="Stroke-77" stroke-width="0.5"></path>
                        <path d="M5,149.581443 C5,149.581443 7.37318261,160.381739 52.3916164,158.851497 C52.3916164,158.851497 99.3125982,159.036713 138.179166,150.06453 C138.179166,150.06453 160.407843,145.004748 167.474965,137.427703 C167.474965,137.427703 180.143278,123.544072 184,118" id="Stroke-79"></path>
                        <path d="M150,85 C150,85 134.482129,101.15501 128.057096,111.03495 C121.631662,120.91489 113.531579,122.046689 113.531579,122.046689 C113.531579,122.046689 67.0325177,128.462338 51.1833272,127.003584 C51.1833272,127.003584 24.4230521,136.179037 19,148" id="Stroke-81" stroke-width="0.5"></path>
                        <path d="M117,126 C117,126 65.9156927,136.67909 55.1099473,134.340806 C55.1099473,134.340806 44.2143053,141.318926 46.2545171,150" id="Stroke-83" stroke-width="0.5"></path>
                        <path d="M145,8 C145,8 111.921638,47.02673 108.058741,49.537498 C104.195845,52.0486668 102.254744,51.5183753 99,56" id="Stroke-85" stroke-width="0.5"></path>
                        <path d="M149,9 L113,56" id="Stroke-87" stroke-width="0.75"></path>
                        <path d="M96,58.294108 C96,58.294108 100.371489,54.1084942 106.435672,55.1735247 C112.500256,56.2389537 115.630597,55.3560103 125.551764,62.221931 C135.473733,69.0878516 135.571181,72.2355288 137.189686,73.6906323 C138.808192,75.1453373 148.640734,85.3179127 148.640734,85.3179127 L147.084787,88.3273312 C147.084787,88.3273312 144.690313,89.5326127 151.088945,94.6701 C157.487977,99.8071888 159.302981,103.110656 159.302981,103.110656 C159.302981,103.110656 161.93205,105.652704 164.101955,103.205485 C166.271859,100.757867 168.566079,103.292345 168.566079,103.292345 L172.759517,108.746592 L175,109" id="Stroke-89"></path>
                        <path d="M156,87 C156,87 160.103856,87.1850202 162.009685,90.0735069 C163.915105,92.9615759 165,96 165,96" id="Stroke-91" stroke-width="0.75"></path>
                        <path d="M175.495301,82 C175.495301,82 179.329121,87.7553704 174.757569,91.443046 L169,98" id="Stroke-93" stroke-width="0.5"></path>
                        <path d="M162,75 C162,75 156.050359,80.7456104 154,85" id="Stroke-95" stroke-width="0.5"></path>
                        <path d="M176,46 C176,46 181.000652,46.875236 181.798064,48.0567845 C182.595475,49.2379282 179.665415,54.4492851 186.389059,57.6321824 C193.11311,60.8154842 196.987814,61 196.987814,61 L199,60.4905584" id="Stroke-97"></path>
                        <path d="M194,53 C194,53 199.297341,54.1054112 200,58" id="Stroke-99" stroke-width="0.75"></path>
                        <path d="M205,43 L201,58" id="Stroke-101" stroke-width="0.75"></path>
                        <path d="M190.464948,40.0944993 C190.464948,40.0944993 188.461694,39.3826321 189.14033,41.8665345 C189.14033,41.8665345 191.506138,42.3100455 191.747282,43.2810292 C191.988426,44.2520129 192.445595,44.5898686 192.445595,44.5898686 C192.445595,44.5898686 195.202844,45.8223791 194.988075,44.0141881 C194.988075,44.0141881 193.201264,40.4387827 190.464948,40.0944993 Z" id="Stroke-103" stroke-width="0.75"></path>
                        <path d="M191,44 C191,44 192.550949,47.7835174 195,44.9427602" id="Stroke-105" stroke-width="0.75"></path>
                        <path d="M157.994352,75.2851408 C157.994352,75.2851408 155.91623,74.0764513 156.006204,76.6361275 C156.006204,76.6361275 155.929498,77.0337227 156.315518,77.3852805 C156.701952,77.7364199 157.889036,77.4007658 158.085156,77.9176396 C158.281275,78.4340949 158.747319,79.3782789 158.747319,79.3782789 C158.747319,79.3782789 160.706028,81.2319096 161,78.5378882 C161,78.5378882 159.771868,75.7270992 157.994352,75.2851408 Z" id="Stroke-107" stroke-width="0.75"></path>
                        <path d="M157,79 C157,79 159.773762,82.3270042 161,80.3988839" id="Stroke-109" stroke-width="0.75"></path>
                        <path d="M169,105 C169,105 158.288432,108.834677 160.236889,124" id="Stroke-111" stroke-width="0.75"></path>
                        <path d="M4,156.157403 C4,156.157403 6.41076908,163.280734 21.9774266,165.773519 C37.5440842,168.266705 63.4744154,166.187046 63.4744154,166.187046 C63.4744154,166.187046 95.4959086,163.735133 96.7818915,163.427792 L130.441287,157.714542 C130.441287,157.714542 157.976404,153.112847 164.759036,147.466114 C171.542067,141.81898 184.442594,122.353938 185,124.111831" id="Stroke-113" stroke-width="0.5"></path>
                        <path d="M117,58 L71.5145004,91.6317486 C71.5145004,91.6317486 17.5371501,111.279483 9,140" id="Stroke-115" stroke-width="0.5"></path>
                        <path d="M156,1 L150,9" id="Stroke-117" stroke-width="0.5"></path>
                        <path d="M161,0 L153,9" id="Stroke-119" stroke-width="0.5"></path>
                        <path d="M151,3.84194355 C151,3.84194355 157.134714,0.492597095 161.538894,2.82690287 C165.943075,5.16079754 175.546985,8.81930179 182,27" id="Stroke-121" stroke-width="0.75" stroke-dasharray="2"></path>
                        <path d="M140,11.4969578 C140,11.4969578 141.478875,9.32054873 146.145358,10.2162403 C150.812246,11.1115267 162.237042,13.9364002 172.984019,22.4033203 C172.984019,22.4033203 187.041439,32.705395 190,36" id="Stroke-123" stroke-width="0.75" stroke-dasharray="2"></path>
                        <path d="M193,37.2500568 C193,37.2500568 197.357484,35.3547572 205,42" id="Stroke-125" stroke-width="0.75" stroke-dasharray="2"></path>
                        <path d="M189,48 C189,48 199.681768,48.6762398 201,57" id="Stroke-127" stroke-width="0.75" stroke-dasharray="2"></path>
                        <path d="M154.978478,76.1785303 C154.865062,76.7217475 154.334809,77.082328 153.794511,76.9837745 C153.254214,76.8852211 152.908105,76.3646868 153.021522,75.8214697 C153.135357,75.2782525 153.665191,74.917672 154.205489,75.0162255 C154.745786,75.1147789 155.091895,75.6349221 154.978478,76.1785303 Z" id="Stroke-129" stroke-width="0.75"></path>
                        <path d="M201.978477,48.1785303 C201.865054,48.7217475 201.334768,49.082328 200.794438,48.9837745 C200.254107,48.8852211 199.908396,48.3646868 200.021401,47.8214697 C200.135243,47.2782525 200.66511,46.917672 201.20544,47.0162255 C201.745771,47.1147789 202.0919,47.6353132 201.978477,48.1785303 Z" id="Stroke-131" stroke-width="0.75"></path>
                        <path d="M186.978477,40.1785303 C186.865054,40.7217475 186.334768,41.082328 185.794438,40.9837745 C185.254107,40.8852211 184.908396,40.3650779 185.021401,39.8214697 C185.135243,39.2782525 185.66511,38.917672 186.20544,39.0162255 C186.745771,39.1147789 187.0919,39.6353132 186.978477,40.1785303 Z" id="Stroke-133" stroke-width="0.75"></path>
                        <path d="M169.962027,83.7470707 C169.777593,84.5641287 168.973574,85.1156221 168.166193,84.9793073 C167.358812,84.8429924 166.853538,84.0699873 167.037973,83.2529293 C167.222407,82.4358713 168.026426,81.8843779 168.833807,82.0206927 C169.641188,82.1574232 170.146462,82.9300127 169.962027,83.7470707 Z" id="Stroke-135" stroke-width="0.75"></path>
                        <path d="M203,61.4933727 L209.002999,66 C209.002999,66 213.932475,61.9760396 214.742371,61.3599883 C215.552267,60.7435365 214.193864,55 214.193864,55" id="Stroke-137" stroke-width="0.75" stroke-dasharray="2"></path>
                        <path d="M186,46.3796072 L178.637647,44.1030443 C178.637647,44.1030443 175.450759,43.033334 172.073622,47.7870561 C168.696885,52.5411875 158.784621,63.8335289 158.784621,63.8335289 C158.784621,63.8335289 155.810861,67.5871353 157.540771,70.3332572 C159.27028,73.0793791 158.460313,71.6043825 158.460313,71.6043825" id="Stroke-139" stroke-width="0.75" stroke-dasharray="2"></path>
                        <path d="M164,72 L175.620095,81.4750082 C175.620095,81.4750082 189.148282,74.3817963 195.668988,76.4831415 C202.190093,78.584079 210.260676,79.6104975 207.410877,93" id="Stroke-141" stroke-width="0.75" stroke-dasharray="2"></path>
                        <path d="M175,81.9261116 C175,81.9261116 188.555883,74.8596919 192.037436,76.1596346 C195.518989,77.4595773 203.035787,76.0967139 206,85" id="Stroke-143" stroke-width="0.75" stroke-dasharray="1"></path>
                        <path d="M204,61 L210,66" id="Stroke-145" stroke-width="0.75" stroke-dasharray="1"></path>
                        <path d="M155,83 C155,83 163.550327,83.391749 166.085942,88.8545162 C168.62196,94.3168812 169,97 169,97" id="Stroke-147" stroke-width="0.75" stroke-dasharray="2"></path>
                        <path d="M159,75 C159,75 167.340671,75.1790442 170.708935,78.7795602 C170.708935,78.7795602 175.201823,82.8696993 174.992936,89" id="Stroke-149" stroke-width="0.75" stroke-dasharray="2"></path>
                        <polyline id="Stroke-151" stroke-width="0.75" stroke-dasharray="2" points="172 101.674919 178.002491 109.965468 184.168024 110 185 102.155197 178.547237 94"></polyline>
                        <path d="M171,102 L179,111" id="Stroke-153" stroke-width="0.75" stroke-dasharray="1"></path>
                        <path d="M101,53.7644707 C101,53.7644707 103.35531,50.2805415 113.027712,53.1036763 C122.699713,55.9272183 141.890203,69.2599549 151,80" id="Stroke-155" stroke-width="0.75" stroke-dasharray="2"></path>
                        <path d="M101,55.7646378 C101,55.7646378 103.35531,52.2803237 113.027311,55.1038477 C122.699713,57.9273716 141.890203,71.2600233 151,82" id="Stroke-157" stroke-width="0.75" stroke-dasharray="1"></path>
                        <path d="M183,23.1552198 C183,23.1552198 226.260493,12.6764894 228,25" id="Stroke-159" stroke-width="0.5"></path>
                    </g>
                </g>
            </g>
        </g>
    </g>
</svg>
