<?xml version="1.0" encoding="UTF-8"?>
<svg viewBox="0 0 351 173" version="1.1" xmlns="http://www.w3.org/2000/svg" xmlns:xlink="http://www.w3.org/1999/xlink">
    <g id="Page-1" stroke="none" stroke-width="1" fill="none" fill-rule="evenodd">
        <g id="Desktop" transform="translate(-443.000000, -10357.000000)" stroke="#000000">
            <g id="#6" transform="translate(-117.000000, 10106.000000)">
                <g id="item-2:hover" transform="translate(507.000000, 202.000000)">
                    <g id="brogi" transform="translate(54.000000, 50.000000)">
                        <path d="M183.245634,91.638974 C182.38135,90.8296717 181.123742,90.7828612 180.435296,91.5344305 C179.747365,92.2859997 179.890299,93.5514447 180.754583,94.360747 C181.618353,95.1700493 182.876989,95.2173799 183.56492,94.4658106 C184.252337,93.7137213 184.109918,92.4487964 183.245634,91.638974 Z" id="Stroke-1" stroke-width="0.5"></path>
                        <path d="M75.5503225,113.167434 C75.0567428,113.473149 74.8588481,114.093883 75.1070845,114.553386 C75.3553209,115.01413 75.9565275,115.138153 76.4495285,114.832437 C76.9425295,114.526101 77.1415815,113.905368 76.8927664,113.445864 C76.64453,112.986361 76.0433234,112.861718 75.5503225,113.167434 Z" id="Stroke-3"></path>
                        <path d="M77.496681,116.133257 C77.0192718,116.409013 76.8581868,117.019431 77.1361883,117.497796 C77.4141899,117.977456 78.0260531,118.141874 78.5034624,117.866765 C78.980222,117.591009 79.1419566,116.980592 78.863955,116.501579 C78.5859535,116.022567 77.9734407,115.858149 77.496681,116.133257 Z" id="Stroke-5"></path>
                        <path d="M77.3805957,121.08008 C76.9472538,121.295905 76.8728654,121.88295 77.2146978,122.390775 C77.5565301,122.899108 78.1852891,123.136262 78.6192214,122.919929 C79.0531537,122.704103 79.1269517,122.117058 78.7851193,121.608725 C78.443287,121.1009 77.814528,120.863746 77.3805957,121.08008 Z" id="Stroke-7"></path>
                        <path d="M77.834759,124.041482 C77.0925102,124.233599 76.7884737,125.042426 77.1560296,125.848024 C77.5235855,126.653623 78.4235622,127.150866 79.165811,126.958749 C79.9080598,126.765556 80.2113827,125.957267 79.8438268,125.151669 C79.4769846,124.345532 78.5770079,123.848828 77.834759,124.041482 Z" id="Stroke-9"></path>
                        <path d="M75.5402785,129.037919 C75.049983,129.222706 74.8582007,130.026288 75.1122427,130.833517 C75.3662847,131.641354 75.969426,132.145873 76.4597215,131.962301 C76.950017,131.777514 77.1417993,130.973932 76.8877573,130.166095 C76.6337153,129.358258 76.030574,128.853739 75.5402785,129.037919 Z" id="Stroke-11"></path>
                        <path d="M69.5402785,129.037919 C69.049983,129.222706 68.8582007,130.026288 69.1122427,130.833517 C69.3662847,131.641354 69.969426,132.145873 70.4597215,131.962301 C70.950017,131.777514 71.1417993,130.973932 70.8877573,130.166095 C70.6337153,129.358258 70.030574,128.853739 69.5402785,129.037919 Z" id="Stroke-13"></path>
                        <path d="M65.5402785,126.037919 C65.049983,126.222706 64.8582007,127.026288 65.1122427,127.833517 C65.3662847,128.641354 65.969426,129.145873 66.4597215,128.962301 C66.950017,128.777514 67.1417993,127.973932 66.8877573,127.166095 C66.6337153,126.358258 66.030574,125.853739 65.5402785,126.037919 Z" id="Stroke-15"></path>
                        <path d="M59.0326009,123.000686 C58.4809126,122.980406 58.0187282,123.41216 58.000524,123.963993 C57.9828254,124.515826 58.4156808,124.979067 58.9673692,124.999347 C59.5195633,125.019094 59.981242,124.588408 59.9994462,124.036041 C60.0176504,123.484207 59.584795,123.020433 59.0326009,123.000686 Z" id="Stroke-17"></path>
                        <path d="M58.0295848,118.000795 C57.4773349,117.978997 57.0171267,118.407901 57.0004379,118.959938 C56.9842547,119.511386 57.418671,119.976818 57.9704152,119.999206 C58.5226651,120.021004 58.983379,119.591511 58.9995621,119.040063 C59.0157453,118.488026 58.581329,118.023183 58.0295848,118.000795 Z" id="Stroke-19"></path>
                        <path d="M59.0245307,115.001143 C58.472717,114.975015 58.0139681,115.400121 58.0003119,115.952334 C57.9866556,116.503842 58.4231499,116.972023 58.9754693,116.998857 C59.527283,117.024985 59.9860319,116.599879 59.9996881,116.047666 C60.0133444,115.496158 59.5768501,115.027977 59.0245307,115.001143 Z" id="Stroke-21"></path>
                        <path d="M137.203994,69.4262467 C137.203994,69.4262467 179.261314,20.7308644 190.262056,12.2621023 C201.262799,3.79334013 204.093942,3.2640425 211.349378,4.49942317 C218.604283,5.73427455 237.184824,17.3788225 237.184824,17.3788225 C237.184824,17.3788225 260.897311,33.0814954 263.551674,33.7870491 C263.551674,33.7870491 273.461473,42.4320674 297.173428,38.5507278 C320.885915,34.668859 331.149275,18.4374178 331.149275,18.4374178 C331.149275,18.4374178 334.423166,15.3055637 333.626857,8.55701883 C333.626857,8.55701883 338.404711,14.0267806 341.413166,27.4354775 C341.413166,27.4354775 351.322434,52.6649785 348.49129,75.4247768 C345.660147,98.184575 342.828472,98.5376165 342.828472,98.5376165 C342.828472,98.5376165 327.787259,106.830123 290.802957,111.064504 C290.802957,111.064504 248.51046,115.828182 226.567372,123.590861 C226.567372,123.590861 197.723471,135.059153 188.698637,143.527915 C179.673802,151.996678 147.290574,153.937612 147.290574,153.937612 C147.290574,153.937612 85.0011675,156.936612 73.4992817,155.701761 C73.4992817,155.701761 43.9471965,157.46591 22.3582003,151.996678 C22.3582003,151.996678 6.43202219,150.408785 4.83940438,145.46885 C4.83940438,145.46885 -2.94637322,116.004438 28.905983,107.006379 L65.3588812,97.6552774 L68.1905556,97.6552774 L70.1367346,97.4790213 L98.2729826,87.2461101 C98.2729826,87.2461101 107.828689,85.5100139 126.763323,68.5581986 C126.763323,68.5581986 132.602921,64.8388241 137.203994,69.4262467 Z" id="Stroke-23"></path>
                        <path d="M4.25720244,146.810908 L0.235643946,150.3994 C0.235643946,150.3994 -0.294554933,151.462657 0.235643946,158.373826 C0.235643946,158.373826 -0.0294554933,162.095224 13.4906159,164.487552 C27.0106873,166.87988 33.2405242,170.335465 54.581029,170.335465 C75.9215339,170.335465 111.444859,171 111.444859,171 C111.444859,171 148.956429,170.601279 166.452992,166.87988 C183.949555,163.158481 192.432738,159.968711 204.892411,150.3994 C217.352085,140.830089 242.536532,131.792406 258.442498,129.931707 L269.576674,127.805193 L269.576674,146.678001 C269.576674,146.678001 280.180652,148.272886 306.955695,143.488231 C333.730739,138.703575 332.405242,139.235204 332.405242,139.235204 C332.405242,139.235204 342.74412,137.374504 346.985711,130.994964 L346.985711,101.755402 C346.985711,101.755402 347.296407,97.5480949 345.020263,95" id="Stroke-25" stroke-width="1.5"></path>
                        <path d="M347,126 C347,126 339.373702,133 318.072664,135.641509 C296.771626,138.283019 271,140 271,140" id="Stroke-27"></path>
                        <path d="M348,102 C348,102 338.168253,109.472852 320.896265,110.390571 C320.896265,110.390571 282.897891,115.503575 277.31771,116.552396 C277.31771,116.552396 234.536324,122.845325 222.313071,131.235896 C222.313071,131.235896 199.062318,143.952855 192.552107,148.541448 C192.552107,148.541448 183.783251,157.587532 138.078913,159.554073 L72.1796357,159.554073 C72.1796357,159.554073 42.4186715,161.520613 26.7410207,157.194224 C11.06337,152.867836 1.71842722,153.735736 2.00647084,148.647904" id="Stroke-29" stroke-width="1.5"></path>
                        <path d="M251,132 C251,132 262.426573,137.205725 270,147" id="Stroke-31"></path>
                        <path d="M258,27 C258,27 306.584071,8.47332022 311.495575,7.42956362 C316.40708,6.38580701 329.608142,2.24418079 333,7.95144192" id="Stroke-33" stroke-width="0.5"></path>
                        <path d="M262.036514,29.1192345 C262.036514,29.1192345 309.45672,10.6084727 320.112946,9.66952102 C330.769172,8.73056934 332.900417,7.52334574 331.701592,13.1570558 C330.502766,18.7907659 319.313729,31.9360895 300.398928,35.5577603 C281.484126,39.1794311 265.766193,34.2164007 243.254915,18.1200862 C243.254915,18.1200862 218.345987,-1.85007478 201.162822,4.11092705 C201.162822,4.11092705 175.188271,21.607621 164.398842,35.2894884 L136,69" id="Stroke-35" stroke-width="0.5"></path>
                        <path d="M139.496542,59.5598024 C139.496542,59.5598024 139.303126,60.4036448 137.949214,60.4036448 C136.595303,60.4036448 136.659775,57.6084169 138.336046,57.1864957 C140.012318,56.7645744 147.748955,56.8173146 153.422489,59.9817236 L158,62.0385895 C158,62.0385895 157.419752,64.4118962 154.325097,63.9372349 C154.325097,63.9372349 145.427964,59.401582 139.496542,59.5598024 Z" id="Stroke-37"></path>
                        <path d="M154.10186,62.6081108 C154.10186,62.6081108 158.135577,60.6586679 157.996484,63.7405696 C157.85739,66.8224713 156.118719,68.9237679 152.154549,67.5929467 C152.154549,67.5929467 151.806814,67.2231185 152.154549,66.3926861" id="Stroke-39" stroke-width="0.75"></path>
                        <path d="M136.126457,66.4242597 C136.126457,66.4242597 135.483581,64.0677606 137.096836,64.0039442 C138.709641,63.9396047 142.809041,64.6588469 143.763695,66.4242597 C144.71835,68.1896724 142.472104,67.9935155 142.472104,67.9935155 C142.472104,67.9935155 139.526825,65.9911451 137.096836,66.1098854 C137.096836,66.1098854 136.856487,66.8165736 136.126457,66.4242597 Z" id="Stroke-41"></path>
                        <path d="M148,64.1483968 C148,64.1483968 144.098971,63.0174152 143,67" id="Stroke-43" stroke-width="0.5"></path>
                        <path d="M152.034067,45.1932781 C152.034067,45.1932781 150.693968,47.3435355 149.992011,47.6041728 C149.290054,47.8648101 148.013769,44.1507291 150.311082,42.9778614 C152.608395,41.8049937 154.522822,41.3488785 159.436519,43.5642952 C164.350216,45.779712 168.370514,47.4086949 168.944842,49.8847489 C169.51917,52.3608029 165.435059,52.2304842 164.733102,51.6440504 C164.733102,51.6440504 162.946303,46.822261 153.43798,44.8674815 C153.43798,44.8674815 153.374166,44.6720036 152.034067,45.1932781 Z" id="Stroke-45"></path>
                        <path d="M166.526986,47 C166.526986,47 169.394127,47.4872684 168.954073,49.0708905 C168.514019,50.6545127 168.702613,52.359952 164.616396,51.9335921 C164.616396,51.9335921 162.281343,51.2689581 163.224317,49.500174" id="Stroke-47" stroke-width="0.75"></path>
                        <path d="M158,48 C158,48 162.546285,48.4856273 164,50" id="Stroke-49" stroke-width="0.5"></path>
                        <path d="M167,48 C167,48 163.629425,48.1868132 164.033655,51" id="Stroke-51" stroke-width="0.5"></path>
                        <path d="M170,49 C170,49 166.598707,49.9272641 167.039404,52" id="Stroke-53" stroke-width="0.5"></path>
                        <path d="M163.78356,34.3367844 C163.78356,34.3367844 162.902127,36.1809531 161.945156,36.4444057 C160.988186,36.7078584 160.414003,33.4805632 161.945156,32.0974367 C163.476309,30.7143102 166.941818,30.843402 167.56806,31.3729418 C168.194812,31.9024817 176.363512,35.3247319 176.363512,35.3247319 C176.363512,35.3247319 180,37.2347637 180,38.2885744 C180,39.3423851 179.702956,41.7134591 176.757529,40.7913748 C176.757529,40.7913748 174.896157,40.06688 175.087551,38.8154798 C175.087551,38.8154798 168.446431,34.4026475 165.195794,34.1391949 C165.195794,34.1391949 164.303131,33.4420991 163.78356,34.3367844 Z" id="Stroke-55"></path>
                        <path d="M178,36.0307188 C178,36.0307188 180.065599,35.7711375 180.647262,36.7611447 C181.228924,37.7511519 181.253587,39.4253229 179.454621,40" id="Stroke-57" stroke-width="0.75"></path>
                        <path d="M177.95937,36 C177.95937,36 178.576555,39.3187611 175,38.9750307" id="Stroke-59" stroke-width="0.5"></path>
                        <path d="M176.507421,20.5326314 C176.507421,20.5326314 175.219044,22.4167665 174.31718,22.8205098 C174.31718,22.8205098 173.030864,20.1961787 175.639055,17.5045571 C178.24673,14.8129355 182.965799,16.4499798 183.915591,16.9662328 C184.865382,17.4824858 189.906545,19.5232733 191.967949,23.8971584 C191.967949,23.8971584 192.934232,25.4448408 192.99865,25.9831652 C193.063069,26.5214895 190.808409,27.7327192 189.004681,26.3869084 C189.004681,26.3869084 187.662192,22.0135616 184.108847,20.5326314 C180.555503,19.0517012 178.633244,17.1681044 176.507421,20.5326314 Z" id="Stroke-61"></path>
                        <path d="M191.413453,23 C191.413453,23 194.428672,23.282245 193.948104,25.0184962 C193.467536,26.7547475 192.849664,29.4632994 188.318598,27.0325477 C188.318598,27.0325477 187.68315,26.7091883 188.207106,25.0996139" id="Stroke-63" stroke-width="0.75"></path>
                        <path d="M181,22 C181,22 186.29018,23.1250742 187,25" id="Stroke-65" stroke-width="0.5"></path>
                        <path d="M189.818348,9.48795146 C189.818348,9.48795146 188.28303,11.8824091 187.214982,11.6882638 C187.214982,11.6882638 185.746417,7.99950485 190.485878,6.31691302 C195.225338,4.63432119 202.501411,10.1998172 202.501411,10.1998172 C202.501411,10.1998172 205.772306,12.6589899 205.972565,13.8885762 C206.172824,15.1181626 205.305035,16.8007544 202.434658,15.5711681 C202.434658,15.5711681 198.036439,8.9702309 191.958181,8.77608569 C191.958181,8.77608569 190.365188,8.73466804 189.818348,9.48795146 Z" id="Stroke-67"></path>
                        <path d="M200.037392,13.4618005 C200.037392,13.4618005 199.713732,16.3491862 200.970885,16.6908617 C202.228037,17.0325371 205.925436,17.9227157 205.999494,13.5018904 C206.050695,10.426811 202.197865,11.0523049 202.197865,11.0523049" id="Stroke-69" stroke-width="0.75"></path>
                        <path d="M194,11 C194,11 199.615525,12.3710532 200,14" id="Stroke-71" stroke-width="0.5"></path>
                        <path d="M200,4.39807695 C200,4.39807695 196.86533,2.80256729 194,6" id="Stroke-73"></path>
                        <path d="M189,7 L181,14" id="Stroke-75"></path>
                        <path d="M180,19 L168,30" id="Stroke-77"></path>
                        <path d="M160,36 L154,42" id="Stroke-79"></path>
                        <path d="M148,47 C148,47 141.162791,54.3731556 141,55" id="Stroke-81"></path>
                        <path d="M152,46 C152,46 154.25,48.3844878 152,50" id="Stroke-83" stroke-width="0.5"></path>
                        <path d="M156,47 L146,58" id="Stroke-85" stroke-width="0.5"></path>
                        <path d="M202,7.48295 C202,7.48295 205.089156,3.29243748 226,9" id="Stroke-87" stroke-width="0.5"></path>
                        <path d="M211,2.6372823 C211,2.6372823 213.200355,0.547436648 214.644337,0.147302088 C216.08832,-0.252832473 221.214046,-0.438952205 229,8" id="Stroke-89"></path>
                        <path d="M159,44 L166,34" id="Stroke-91" stroke-width="0.5"></path>
                        <path d="M170,31 L182,19" id="Stroke-93" stroke-width="0.5"></path>
                        <path d="M184,14 L194,7" id="Stroke-95" stroke-width="0.5"></path>
                        <path d="M130,68 C130,68 132.667152,66.1751616 136,62" id="Stroke-97"></path>
                        <polyline id="Stroke-99" stroke-width="0.5" points="127 69.945024 129.610464 67.9621381 129.610464 70.1794631 131.693204 67.9621381 132.931688 69.8278045 136.209108 68.5337006 137.559708 71 139.904745 69.417536 142 67"></polyline>
                        <path d="M141,72 L140,70 L141,72 Z" id="Stroke-101" stroke-width="0.5"></path>
                        <polyline id="Stroke-103" points="141 71.9111111 143.172269 71 143.85107 72.7571429 145.772672 72.3015873 146.743216 74.3190476 148.995003 73.6031746 150.018207 75.815873 152.058824 75.2952381 153.0973 77.5079365 155.936784 77.052381 156.535014 80.0460317 159.310252 78.8746032 160.287115 81.0873016 163.77591 80.359454 164.960784 82.9746032 167.471137 81.4777778 168.647059 84.015873 171.872549 82.9095238 173.935283 85.0571429 176.480392 83.8206349 178.586835 86.1634921 180.561625 84.5365079 182.404762 86.8142857 184.577031 85.1873016 186.946779 86.4238095 188.065826 84.8619048 190.60409 86.8142857 192.081232 84.4063492 194.319328 85.8380952 195.372549 83.6253968 198.137255 85.3174603 198.861345 82.8444444 201.362745 84.2761905 202.876751 82.0634921 204.588235 83.4952381 206.102241 81.152381 207.813725 82.4539683 208.80112 80.359454 211.170868 81.6079365 212.487395 79.3301587 214.791317 80.359454 216.042017 78.4190476 217.885154 80.359454 218.938375 77.4428571 221.505602 79.2 222.427171 76.8571429 224.928571 77.8333333 225.718487 75.5555556 228.351541 77.3126984 229.931373 74.8396825 231.577031 76.3365079 232.962017 73.9285714 235.131653 76.0111111 237.106443 73.668254 238.94958 75.4253968 240.595238 73.0825397 242.043417 75.0349206 244.14986 72.8222222 245.598039 74.6444444 247.112045 72.3015873 248.823529 74.7746032 250.337535 72.431746 251.719888 74.7095238 253.365546 72.3666667 254.813725 74.7746032 257.183473 72.7571429 257.841737 75.1 260.211485 73.2126984 260.803922 76.0761905 262.712885 73.7984127 263.502801 76.5968254 266.267507 74.4492063 267.057423 78.4190476 269.690476 76.0111111 269.690476 78.1587302 272.191877 77.6380952 272.191877 80.359454 274.561625 79.2 275.154062 82.1285714 276.733894 81.8031746 276.733894 84.3412698 278.708683 84.2111111 278.445378 86.8142857 280.091036 86.8142857 280.091036 89.6126984 281.670868 89.6126984 280.880952 92.931746 282 93.8001651 281.341737 96.2507937 282 97.8777778 280.815126 99.1142857 282 101.066667 280.815126 102.107937 281.605042 104.060317 279.827731 105.036508 281.144258 107.314286 279.037815 108.030159 279.893557 109.592063 278.313725 111.219048 279.037815 112"></polyline>
                        <path d="M71,100.202883 L73.0439635,99.6690688 L73.4886975,100.202883 L76.5101159,99.0461082 L78.4655592,99.6242285 L81.309404,99.0461082 L83.0872736,99.0461082 L84.7755565,98.0676275 L87.7084547,98.0676275 L89.3972709,98.0676275 L90.1080988,98.0676275 L91.7969149,97 L94.9073868,97.4446669 L97.7517649,97 L98.2850191,99.4021619 L95.9738953,98.6900544 L97.1294572,100.469789 L94.0189853,100.469789 L96.1520022,101.804324 L92.6858497,101.804324 L94.7298131,103.183165 L92.6858497,103.183165 L93.6633047,104.562006 L91.5302878,105.09582 L92.7743699,105.451873 L90.641353,106.786408 L92.8634234,107.320222 L91.7969149,108.565609 L94.463186,108.565609 L93.5742512,110.16705 L95.9738953,110.16705 L96.4186293,112.124545 L99.2624741,111.323825 L100.773183,113.725987 L102.728627,112.925266 L104.061762,114.393254 L106.905607,113.28132 L107.705488,115.327428 L110.016612,114.393254 L110.816493,115.327428 L111.883002,113.63684 L114.371166,115.950389 L116.059982,113.903747 L118.992881,115.950389 L119.970336,113.903747 L122.992287,115.950389 L124.59205,114.393254 L125.747612,115.950389 L128.235776,113.992894 L130.724474,115.594335 L132.590863,113.63684 L134.660956,115.505188 L137.323495,113.369933 L138.545713,115.416575 L140.589677,113.103026 L142.456067,115.149668 L144.944764,112.213692 L147.433462,114.793614 L148.677544,112.302305 L151.077188,114.393254 L152.854524,111.768492 L155.520795,113.903747 L157.209611,110.879158 L158.27612,112.836119 L160.853337,110.16705 L163.075408,112.658359 L164.852744,109.900143 L167.163868,112.213692 L168.763631,109.900143 L170.718541,111.857639 L172.940611,109.36633 L174.436922,111.323825 L176.584337,108.921663 L177.39595,110.879158 L180.495224,108.210089 L182.539187,110.433957 L184.583151,107.764888 L186.271967,110.345344 L188.938238,108.298702 L189.649066,110.612251 L192.04871,108.120942 L193.115218,110.700864 L195.425809,107.854035 L195.425809,110.433957 L198.625334,108.210089 L200.136577,110.790011 L201.114032,108.565609 L203.069475,110.612251 L204.935865,108.565609 L206.35752,111.146065 L208.046337,109.36633 L209.023792,111.768492 L210.179354,110.16705 L211.423436,112.391452 L212.379027,110.967771 L212.756571,113.014413 L214.089707,112.213692 L214.712014,113.903747 L216.311777,113.103026 L216.311777,114.882761 L218.089113,114.393254 L218.089113,115.950389 L219.067102,115.950389 L218.622368,116.839722 C218.622368,116.839722 220.22213,116.217296 220.400237,116.839722 C220.577811,117.462683 220.400237,118.530311 220.400237,118.530311 L221.200119,119.597938 L220.666864,119.597938 L221.200119,122.17786 L220.577811,123.245488 L222,124.313115 L220.666864,125.113836 L222,126.09285 L220.577811,127.071331 L220.666864,128.049811 L220.365043,129" id="Stroke-105"></path>
                        <path d="M24.7125554,119.534011 C24.0075382,120.167547 23.7886672,121.114904 24.2236032,121.647517 C24.6585392,122.181602 25.5824274,122.099095 26.2874446,121.465559 C26.9924618,120.832023 27.2113328,119.886139 26.7763968,119.35279 C26.3414608,118.818704 25.4175726,118.900474 24.7125554,119.534011 Z" id="Stroke-107"></path>
                        <path d="M24.1205675,125.739665 C23.8578829,126.27231 24.0386045,126.821095 24.5250077,126.965321 C25.0100673,127.109025 25.6167276,126.792979 25.8794122,126.260335 C26.1420968,125.72769 25.9613752,125.178905 25.4756438,125.034679 C24.9899125,124.890975 24.3832521,125.207021 24.1205675,125.739665 Z" id="Stroke-109"></path>
                        <path d="M31.4071162,107.267004 C30.580192,107.510887 29.951936,107.813102 30.0028931,107.942543 C30.0544953,108.070873 30.7659597,107.976987 31.5928838,107.733104 C32.419808,107.488665 33.048064,107.185894 32.9971069,107.057564 C32.9455047,106.929234 32.2340403,107.022565 31.4071162,107.267004 Z" id="Stroke-111" stroke-width="0.5"></path>
                        <path d="M26.350803,109.68999 C25.5261854,110.214325 24.9254521,110.778624 25.0074967,110.950471 C25.0902366,111.121519 25.8251614,110.835373 26.6497791,110.31024 C27.4737014,109.785106 28.0751299,109.220807 27.9923901,109.049758 C27.9103455,108.877911 27.1747254,109.165656 26.350803,109.68999 Z" id="Stroke-113" stroke-width="0.5"></path>
                        <path d="M26.0662084,116.278278 C25.2732922,116.660615 24.8248285,117.294012 25.0645944,117.692079 C25.3043604,118.09075 26.1411775,118.104059 26.9340937,117.721722 C27.7263345,117.339385 28.1747982,116.705988 27.9357076,116.307921 C27.6959417,115.90925 26.8584492,115.895941 26.0662084,116.278278 Z" id="Stroke-115"></path>
                        <path d="M40.1824897,129.048847 C39.3731498,129.257692 38.8591844,130.076546 39.0341955,130.878872 C39.2098983,131.679696 40.0081704,132.160491 40.8175103,131.950895 C41.6268502,131.742801 42.1408156,130.923196 41.9658045,130.122371 C41.7901017,129.320045 40.9918296,128.840001 40.1824897,129.048847 Z" id="Stroke-117"></path>
                        <path d="M35.1824897,125.048847 C34.3731498,125.257692 33.8591844,126.076546 34.0341955,126.878872 C34.2098983,127.679696 35.0081704,128.160491 35.8175103,127.950895 C36.6268502,127.742801 37.1408156,126.923196 36.9658045,126.122371 C36.7901017,125.320045 35.9918296,124.840001 35.1824897,125.048847 Z" id="Stroke-119"></path>
                        <path d="M32.1824897,121.048847 C31.3731498,121.257692 30.8591844,122.076546 31.0341955,122.878872 C31.2098983,123.679696 32.0081704,124.160491 32.8175103,123.950895 C33.6268502,123.742801 34.1408156,122.923196 33.9658045,122.122371 C33.7901017,121.320045 32.9918296,120.840001 32.1824897,121.048847 Z" id="Stroke-121"></path>
                        <path d="M30.8608157,112.036087 C30.3139032,112.138912 29.9329202,112.430105 30.009881,112.686304 C30.0868417,112.942502 30.5928176,113.066929 31.1391843,112.963672 C31.6860968,112.861279 32.0670798,112.570086 31.990119,112.313887 C31.9131583,112.057689 31.4077282,111.933262 30.8608157,112.036087 Z" id="Stroke-123" stroke-width="0.5"></path>
                        <path d="M25.5900479,114.384649 C25.0864363,114.820356 24.8616536,115.44839 25.0882788,115.788283 C25.314904,116.128177 25.9069547,116.050547 26.4099521,115.61484 C26.9135637,115.179133 27.1383464,114.5504 26.9117212,114.211206 C26.6857102,113.872012 26.0936595,113.949642 25.5900479,114.384649 Z" id="Stroke-125"></path>
                        <path d="M21.1345198,115.601113 C20.3313566,116.107047 19.8438016,116.696376 20.0455228,116.916911 C20.2472441,117.136829 21.062317,116.905174 21.8654802,116.39924 C22.6686434,115.893307 23.1561984,115.303977 22.9544772,115.083442 C22.7527559,114.862907 21.937683,115.094562 21.1345198,115.601113 Z" id="Stroke-127"></path>
                        <path d="M20.8640217,113.768004 C20.3170099,114.305439 19.9347607,114.844841 20.009284,114.972646 C20.0848214,115.100451 20.5892484,114.768158 21.1362602,114.231378 C21.683272,113.694598 22.0660281,113.15454 21.9904908,113.027391 C21.9154605,112.899586 21.4110335,113.231223 20.8640217,113.768004 Z" id="Stroke-129"></path>
                        <path d="M16.8384866,115.726807 C16.2939569,116.257736 15.9241105,116.810304 16.0132591,116.961777 C16.1030101,117.112478 16.6168197,116.804122 17.1619517,116.273193 C17.7064814,115.742264 18.0763279,115.189696 17.9865769,115.038223 C17.8974282,114.887522 17.3836187,115.195878 16.8384866,115.726807 Z" id="Stroke-131"></path>
                        <path d="M16.8384866,117.726807 C16.2939569,118.257736 15.9241105,118.810304 16.0132591,118.961777 C16.1030101,119.112478 16.6168197,118.804122 17.1619517,118.273193 C17.7064814,117.742264 18.0763279,117.189696 17.9865769,117.038223 C17.8974282,116.887522 17.3836187,117.195878 16.8384866,117.726807 Z" id="Stroke-133"></path>
                        <path d="M12.6337985,119.735145 C12.1196333,120.267086 11.8678405,120.817348 12.0695569,120.963922 C12.2719785,121.110496 12.8524421,120.797194 13.3666072,120.264643 C13.8800671,119.732702 14.1325652,119.18244 13.9301435,119.035866 C13.7284272,118.889903 13.1479636,119.202594 12.6337985,119.735145 Z" id="Stroke-135"></path>
                        <path d="M10.6337985,124.735145 C10.1196333,125.267086 9.8678405,125.817348 10.0695569,125.963922 C10.2719785,126.110496 10.8524421,125.797194 11.3666072,125.264643 C11.8800671,124.732702 12.1325652,124.18244 11.9301435,124.035866 C11.7284272,123.889903 11.1479636,124.202594 10.6337985,124.735145 Z" id="Stroke-137"></path>
                        <path d="M10.3833839,128.230753 C9.94857767,129.045565 9.87239038,129.826253 10.2125397,129.975287 C10.5534586,130.124321 11.1821961,129.583899 11.6170024,128.769086 C12.0510391,127.95497 12.1279959,127.17289 11.787077,127.024552 C11.4461582,126.876214 10.8181902,127.415244 10.3833839,128.230753 Z" id="Stroke-139"></path>
                        <path d="M10.1847333,132.198279 C9.86483158,133.009811 9.97100585,133.801957 10.4212123,133.969076 C10.8721083,134.135527 11.4960545,133.613446 11.8152667,132.801914 C12.1351684,131.990382 12.0289941,131.197567 11.5787877,131.031117 C11.1285812,130.863997 10.5039455,131.386747 10.1847333,132.198279 Z" id="Stroke-141"></path>
                        <path d="M14.120745,130.109755 C13.8578179,130.909623 14.0385803,131.732551 14.5242021,131.948002 C15.0103905,132.163452 15.6167095,131.689725 15.8796365,130.890516 C16.141997,130.091306 15.9612346,129.267719 15.4756128,129.052269 C14.989991,128.836159 14.3831054,129.309887 14.120745,130.109755 Z" id="Stroke-143"></path>
                        <path d="M19.120745,127.109755 C18.8578179,127.909623 19.0385803,128.732551 19.5242021,128.948002 C20.0103905,129.163452 20.6167095,128.689725 20.8796365,127.890516 C21.141997,127.091306 20.9612346,126.267719 20.4756128,126.052269 C19.989991,125.836159 19.3831054,126.309887 19.120745,127.109755 Z" id="Stroke-145"></path>
                        <path d="M15.8432987,119.793801 C15.0987531,120.524794 14.7890011,121.433352 15.1518409,121.823184 C15.514242,122.213017 16.4119086,121.936754 17.1568929,121.205761 C17.9014385,120.47522 18.2107518,119.566662 17.8483507,119.176829 C17.4855109,118.786996 16.5878443,119.063259 15.8432987,119.793801 Z" id="Stroke-147"></path>
                        <path d="M44.1623117,129.043223 C43.3553845,129.239939 42.8524713,130.050665 43.0387821,130.855588 C43.2257223,131.66051 44.0313906,132.152621 44.8376883,131.957196 C45.6446155,131.76048 46.1475287,130.948463 45.9612179,130.144186 C45.7749071,129.339909 44.9692388,128.846507 44.1623117,129.043223 Z" id="Stroke-149"></path>
                        <path d="M67.8834845,117.160426 C67.0826602,116.788115 66.2621915,117.085857 66.0502823,117.825686 C65.8383732,118.566047 66.3156912,119.467263 67.1165155,119.839574 C67.9169218,120.211885 68.7378085,119.914143 68.9497177,119.174314 C69.1616268,118.435019 68.6843088,117.532737 67.8834845,117.160426 Z" id="Stroke-151"></path>
                        <path d="M43.9691339,118.000258 C42.864718,118.015452 41.9829185,118.699184 42.0002512,119.527707 C42.0170422,120.355783 42.925924,121.014937 44.0303398,120.999743 C45.1347557,120.984548 46.0165551,120.300369 45.9997641,119.472293 C45.9824315,118.64377 45.0735497,117.985064 43.9691339,118.000258 Z" id="Stroke-153"></path>
                        <path d="M50.1158049,129.03325 C49.3152096,129.205261 48.8382738,130.002597 49.0503974,130.812353 C49.2625209,131.622729 50.0836443,132.139383 50.8842396,131.966751 C51.6841506,131.794119 52.1617707,130.997404 51.9496471,130.187028 C51.7375236,129.377272 50.9164002,128.860618 50.1158049,129.03325 Z" id="Stroke-155"></path>
                        <path d="M35.2204322,117.041803 C34.4067646,117.198764 33.8726649,117.755777 34.0263576,118.285025 C34.1807458,118.814272 34.9659003,119.115727 35.7795678,118.9582 C36.5932354,118.800672 37.1273351,118.243659 36.9736424,117.714412 C36.8192542,117.185731 36.0340997,116.884276 35.2204322,117.041803 Z" id="Stroke-157"></path>
                        <path d="M55.0184857,104.00406 C53.9140865,103.96922 53.0100782,104.162466 53.0000836,104.436076 C52.9900891,104.710151 53.8771066,104.960999 54.9820055,104.995839 C56.0864048,105.031144 56.9899133,104.837898 56.9999079,104.563823 C57.0104022,104.290212 56.122885,104.039364 55.0184857,104.00406 Z" id="Stroke-159" stroke-width="0.5"></path>
                        <path d="M55.0109834,103.002964 C54.4584982,102.973182 54.006186,103.171193 54.000053,103.445673 C53.994431,103.720957 54.4370325,103.966459 54.9895177,103.997046 C55.5414918,104.026828 55.993804,103.828012 55.999937,103.554337 C56.0060701,103.279858 55.5634686,103.032746 55.0109834,103.002964 Z" id="Stroke-161" stroke-width="0.5"></path>
                        <path d="M141.148491,116.027761 C140.343292,116.210511 139.84775,117.241994 140.042249,118.331322 C140.236295,119.42065 141.046028,120.15523 141.851227,119.971969 C142.656426,119.78922 143.151968,118.758249 142.957923,117.66892 C142.763877,116.579592 141.95369,115.845524 141.148491,116.027761 Z" id="Stroke-163"></path>
                        <path d="M130.579782,117.034816 C129.499894,117.238858 128.813037,118.284576 129.045061,119.370082 C129.277085,120.455588 130.34071,121.169227 131.420057,120.965184 C132.499945,120.760632 133.187344,119.715424 132.954778,118.629918 C132.723296,117.544412 131.659671,116.830773 130.579782,117.034816 Z" id="Stroke-165"></path>
                        <path d="M127.946734,71.0397675 C127.728796,70.8511116 126.904211,71.3517752 126.105302,72.1583069 C125.306392,72.9648386 124.835286,73.7719284 125.053225,73.9600261 C125.271761,74.1492401 126.095748,73.6485765 126.894658,72.8420448 C127.694164,72.034955 128.164673,71.2284233 127.946734,71.0397675 Z" id="Stroke-167" stroke-width="0.25"></path>
                        <path d="M129.904695,71.0719213 C129.614792,70.8192171 128.750883,71.2536718 127.975104,72.0423489 C127.199325,72.8315719 126.805057,73.6759203 127.09554,73.9280787 C127.385442,74.1807829 128.249351,73.7463282 129.02513,72.9576511 C129.800909,72.1695197 130.194597,71.3251713 129.904695,71.0719213 Z" id="Stroke-169" stroke-width="0.5"></path>
                        <path d="M194.245466,90.638974 C193.381237,89.8296717 192.123195,89.7828612 191.435308,90.5344305 C190.747421,91.2859997 190.890345,92.5514447 191.75406,93.360747 C192.618289,94.1700493 193.87633,94.2173799 194.564731,93.4658106 C195.252618,92.7137213 195.109694,91.4487964 194.245466,90.638974 Z" id="Stroke-171"></path>
                        <path d="M183.245634,91.638974 C182.38135,90.8296717 181.123742,90.7828612 180.435296,91.5344305 C179.747365,92.2859997 179.890299,93.5514447 180.754583,94.360747 C181.618353,95.1700493 182.876989,95.2173799 183.56492,94.4658106 C184.252337,93.7137213 184.109918,92.4487964 183.245634,91.638974 Z" id="Stroke-173"></path>
                        <path d="M174.245634,90.638974 C173.38135,89.8296717 172.123742,89.7828612 171.435296,90.5344305 C170.747365,91.2859997 170.890299,92.5514447 171.754583,93.360747 C172.618353,94.1700493 173.876989,94.2173799 174.56492,93.4658106 C175.252337,92.7137213 175.109918,91.4487964 174.245634,90.638974 Z" id="Stroke-175"></path>
                        <path d="M237.462435,19.4522615 C236.8273,18.8596662 235.880966,18.847686 235.349422,19.4265895 C234.817879,20.0050652 234.902365,20.9549292 235.5375,21.5475245 C236.17306,22.1405477 237.118545,22.1521001 237.650088,21.5736244 C238.182056,20.9947208 238.097994,20.0452847 237.462435,19.4522615 Z" id="Stroke-177" stroke-width="0.5"></path>
                        <path d="M228.291535,15.5955318 C227.448279,14.8091585 226.186061,14.8005701 225.472866,15.5756712 C224.75967,16.3518459 224.86521,17.6180948 225.708465,18.4044682 C226.552254,19.1908415 227.813939,19.1994299 228.527134,18.4243288 C229.24033,17.6481541 229.13479,16.3819052 228.291535,15.5955318 Z" id="Stroke-179" stroke-width="0.5"></path>
                        <path d="M163.245634,86.638974 C162.38135,85.8296717 161.123742,85.7828612 160.435296,86.5344305 C159.747365,87.2859997 159.890299,88.5514447 160.754583,89.360747 C161.618353,90.1700493 162.876989,90.2173799 163.56492,89.4658106 C164.252337,88.7137213 164.109918,87.4487964 163.245634,86.638974 Z" id="Stroke-181"></path>
                        <path d="M153.527547,81.3916014 C152.924081,80.8337376 151.974564,80.8769435 151.407144,81.4890263 C150.839724,82.1015328 150.868986,83.0499435 151.472453,83.6082308 C152.076343,84.1665181 153.025436,84.1228887 153.592856,83.5108059 C154.160276,82.898723 154.131014,81.9498887 153.527547,81.3916014 Z" id="Stroke-183"></path>
                        <path d="M143.527547,76.3916014 C142.924081,75.8337376 141.974564,75.8769435 141.407144,76.4890263 C140.839724,77.1015328 140.868986,78.0499435 141.472453,78.6082308 C142.076343,79.1665181 143.025436,79.1228887 143.592856,78.5108059 C144.160276,77.898723 144.131014,76.9498887 143.527547,76.3916014 Z" id="Stroke-185" stroke-width="0.5"></path>
                        <path d="M137.676551,73.2583417 C137.162726,72.7938064 136.219579,72.9726928 135.56977,73.6588196 C134.919961,74.3439974 134.809717,75.2768641 135.323056,75.7413994 C135.836882,76.2064093 136.780028,76.0270483 137.430323,75.3418706 C138.080132,74.6557438 138.190376,73.7228771 137.676551,73.2583417 Z" id="Stroke-187" stroke-width="0.5"></path>
                        <path d="M120.579782,117.034816 C119.499894,117.238858 118.813037,118.284576 119.045061,119.370082 C119.277085,120.455588 120.34071,121.169227 121.420057,120.965184 C122.499945,120.760632 123.187344,119.715424 122.954778,118.629918 C122.723296,117.544412 121.659671,116.830773 120.579782,117.034816 Z" id="Stroke-189"></path>
                        <path d="M109.93121,117.000915 C108.827033,117.034 107.963154,117.956296 108.001211,119.060811 C108.039811,120.164817 108.965123,121.03265 110.0693,120.999057 C111.172934,120.965463 112.037356,120.043677 111.998756,118.93967 C111.9607,117.835664 111.034844,116.967831 109.93121,117.000915 Z" id="Stroke-191"></path>
                        <path d="M99.4608951,114.001219 C98.6325996,114.034848 97.9790191,114.732513 98.0005154,115.560134 C98.0220118,116.387756 98.7103523,117.031841 99.5386479,116.998782 C100.366943,116.965153 101.020981,116.267488 100.999485,115.439297 C100.977531,114.611675 100.289191,113.96816 99.4608951,114.001219 Z" id="Stroke-193"></path>
                        <path d="M90.4702708,109.002163 C89.641736,109.046251 88.9833917,109.75166 89.0003193,110.578871 C89.0163318,111.406082 89.7012112,112.041248 90.529746,111.997908 C91.3578233,111.953819 92.0161676,111.247664 91.9996976,110.420453 C91.983685,109.593242 91.2988056,108.958075 90.4702708,109.002163 Z" id="Stroke-195" stroke-width="0.5"></path>
                        <path d="M85.4778185,104.002595 C84.649329,104.041394 83.9878183,104.519694 84.0001702,105.070909 C84.0120646,105.621455 84.6937042,106.036873 85.5221937,105.997405 C86.3502258,105.958606 87.0117365,105.479637 86.9998421,104.929091 C86.9874902,104.378545 86.3063081,103.963127 85.4778185,104.002595 Z" id="Stroke-197" stroke-width="0.5"></path>
                        <path d="M87.4837542,102.002306 C86.6552232,102.028629 85.9913919,102.272233 86.0000844,102.547514 C86.0092344,102.822349 86.6881632,103.024013 87.5166942,102.99769 C88.3452252,102.971813 89.0090565,102.727763 88.9999065,102.452928 C88.9907566,102.178093 88.3122853,101.975982 87.4837542,102.002306 Z" id="Stroke-199" stroke-width="0.5"></path>
                        <path d="M91.4483388,98.0584922 C90.6203807,98.1879717 89.9723132,98.4911561 90.0009112,98.7346627 C90.0295092,98.9787021 90.7237025,99.070883 91.5516606,98.9414035 C92.3800799,98.8119241 93.0276862,98.5092725 92.9990882,98.2652331 C92.9704902,98.0217265 92.2762969,97.9290128 91.4483388,98.0584922 Z" id="Stroke-201" stroke-width="0.5"></path>
                        <path d="M77.4481164,99.0584922 C76.6202855,99.1879717 75.9723175,99.4911561 76.0009111,99.7346627 C76.0295047,99.9787021 76.7235914,100.070883 77.5518836,99.9414035 C78.3797145,99.8119241 79.0276825,99.5092725 78.9990889,99.2652331 C78.9704953,99.0217265 78.2759474,98.9290128 77.4481164,99.0584922 Z" id="Stroke-203" stroke-width="0.5"></path>
                        <path d="M61.5197094,103.00209 C60.6915821,102.977061 60.0109948,103.179681 60.0001162,103.455006 C59.9899176,103.730332 60.6521475,103.97288 61.4802748,103.99791 C62.309082,104.022939 62.9896694,103.820319 62.999868,103.544994 C63.0107465,103.270264 62.3478367,103.02712 61.5197094,103.00209 Z" id="Stroke-205" stroke-width="0.5"></path>
                        <path d="M67.5197094,103.00209 C66.6915821,102.977061 66.0109948,103.179681 66.0001162,103.455006 C65.9899176,103.730332 66.6521475,103.97288 67.4802748,103.99791 C68.309082,104.022939 68.9896694,103.820319 68.999868,103.544994 C69.0107465,103.270264 68.3478367,103.02712 67.5197094,103.00209 Z" id="Stroke-207" stroke-width="0.5"></path>
                        <path d="M66.5197094,104.00209 C65.6915821,103.977061 65.0109948,104.179681 65.0001162,104.455006 C64.9899176,104.730332 65.6521475,104.97288 66.4802748,104.99791 C67.309082,105.022939 67.9896694,104.820319 67.999868,104.544994 C68.0107465,104.270264 67.3478367,104.02712 66.5197094,104.00209 Z" id="Stroke-209" stroke-width="0.5"></path>
                        <path d="M65.5197094,106.00209 C64.6915821,105.977061 64.0109948,106.179681 64.0001162,106.455006 C63.9899176,106.730332 64.6521475,106.97288 65.4802748,106.99791 C66.309082,107.022939 66.9896694,106.820319 66.999868,106.544994 C67.0107465,106.270264 66.3478367,106.02712 65.5197094,106.00209 Z" id="Stroke-211" stroke-width="0.5"></path>
                        <path d="M63.0144245,107.001711 C62.4619897,106.979048 62.0082039,107.184208 62.0001096,107.459743 C61.9920153,107.734682 62.4331538,107.976223 62.9850828,107.998289 C63.5375176,108.020952 63.9918093,107.815792 63.9999035,107.540257 C64.0074919,107.265318 63.5663535,107.023777 63.0144245,107.001711 Z" id="Stroke-213" stroke-width="0.5"></path>
                        <path d="M59.0240254,113.001249 C58.4721994,112.973877 58.0134403,113.399584 58.0002895,113.950626 C57.9871388,114.503108 58.4236428,114.972034 58.9759746,114.998686 C59.5278006,115.026778 59.9860539,114.601071 59.9997105,114.049309 C60.0128612,113.496827 59.5763572,113.027901 59.0240254,113.001249 Z" id="Stroke-215"></path>
                        <path d="M54.0187212,112.000985 C53.4666999,111.983825 53.0103084,112.192985 53.0001888,112.468464 C52.9895633,112.744406 53.4287516,112.981392 53.9812788,112.999015 C54.5338061,113.016175 54.9896916,112.807015 54.9998112,112.532 C55.0104367,112.256058 54.5712484,112.018608 54.0187212,112.000985 Z" id="Stroke-217" stroke-width="0.5"></path>
                        <path d="M48.0187212,112.000985 C47.4666999,111.983825 47.0103084,112.192985 47.0001888,112.468464 C46.9895633,112.744406 47.4287516,112.981392 47.9812788,112.999015 C48.5338061,113.016175 48.9896916,112.807015 48.9998112,112.532 C49.0104367,112.256058 48.5712484,112.018608 48.0187212,112.000985 Z" id="Stroke-219"></path>
                        <path d="M41.8717229,113.041946 C41.3238569,113.152164 40.9373098,113.446956 41.0084344,113.699759 C41.0790437,113.953 41.5805241,114.068467 42.1283902,113.958248 C42.6757409,113.847592 43.062288,113.553238 42.9916787,113.299997 C42.9205541,113.047194 42.4190736,112.931289 41.8717229,113.041946 Z" id="Stroke-221"></path>
                        <path d="M37.8151951,114.042609 C37.2722921,114.201145 36.9152938,114.759167 37.0174393,115.287621 C37.119074,115.816074 37.6420586,116.11616 38.1844508,115.957624 C38.7273538,115.798459 39.0843521,115.241066 38.9827174,114.711983 C38.880572,114.184159 38.3575873,113.883444 37.8151951,114.042609 Z" id="Stroke-223"></path>
                        <path d="M56.0107301,107.002954 C55.4588943,106.973172 55.0061845,107.171988 55.000053,107.446467 C54.9944324,107.720947 55.436923,107.967254 55.9892699,107.997036 C56.5411057,108.026818 56.9938155,107.828807 56.999947,107.554327 C57.0055676,107.279848 56.563077,107.032736 56.0107301,107.002954 Z" id="Stroke-225" stroke-width="0.5"></path>
                        <path d="M42.0150763,107.001548 C41.4626209,106.980028 41.008289,107.185342 41.000112,107.461033 C40.9919351,107.736142 41.4324684,107.976935 41.9849237,107.998455 C42.536868,108.019976 42.991711,107.81408 42.999888,107.538971 C43.0080649,107.263862 42.5675316,107.023069 42.0150763,107.001548 Z" id="Stroke-227" stroke-width="0.5"></path>
                        <path d="M49.0150763,107.001548 C48.4626209,106.980028 48.008289,107.185342 48.000112,107.461033 C47.9919351,107.736142 48.4324684,107.976935 48.9849237,107.998455 C49.536868,108.019976 49.991711,107.81408 49.999888,107.538971 C50.0080649,107.263862 49.5675316,107.023069 49.0150763,107.001548 Z" id="Stroke-229" stroke-width="0.5"></path>
                        <path d="M47.4736258,104.073182 C46.645329,104.201182 45.9859705,104.453182 46.0002269,104.636182 C46.0144833,104.819182 46.6973648,104.864182 47.5256616,104.736182 C48.3539584,104.608182 49.0140297,104.355182 48.9997733,104.173182 C48.9848041,103.989182 48.3019226,103.945182 47.4736258,104.073182 Z" id="Stroke-231" stroke-width="0.5"></path>
                        <path d="M43.4479877,105.028215 C42.6200658,105.119306 41.9724057,105.403965 42.0009056,105.665139 C42.030118,105.925603 42.7240904,106.062951 43.5520123,105.97186 C44.3799342,105.880769 45.0275943,105.59611 44.9990944,105.334935 C44.9705945,105.07376 44.2759096,104.937124 43.4479877,105.028215 Z" id="Stroke-233" stroke-width="0.5"></path>
                        <path d="M41.3797258,106.05125 C40.5543881,106.173474 39.9386257,106.472363 40.0048832,106.720547 C40.0718609,106.968197 40.7949315,107.070139 41.6202692,106.948983 C42.4463271,106.827293 43.0613693,106.527871 42.9951118,106.279687 C42.9288543,106.032036 42.2050634,105.92956 41.3797258,106.05125 Z" id="Stroke-235" stroke-width="0.5"></path>
                        <path d="M37.3797258,108.05125 C36.5543881,108.173474 35.9386257,108.472363 36.0048832,108.720547 C36.0718609,108.968197 36.7949315,109.070139 37.6202692,108.948983 C38.4463271,108.827293 39.0613693,108.527871 38.9951118,108.279687 C38.9288543,108.032036 38.2050634,107.92956 37.3797258,108.05125 Z" id="Stroke-237" stroke-width="0.5"></path>
                        <path d="M66.0071633,108.297364 C65.9416053,108.549888 66.3333673,108.845125 66.8816225,108.956837 C67.4298778,109.069018 67.9273784,108.954959 67.9929364,108.702435 C68.0579658,108.449911 67.6667325,108.154674 67.1184772,108.042963 C66.5696933,107.931251 66.0727213,108.04484 66.0071633,108.297364 Z" id="Stroke-239" stroke-width="0.75"></path>
                        <path d="M70.011034,110.332126 C69.9296862,110.592259 70.3069037,110.878502 70.8533772,110.970854 C71.3991946,111.063689 71.9082743,110.927337 71.988966,110.667204 C72.0703138,110.407071 71.6930963,110.121312 71.1466228,110.02896 C70.6008054,109.936608 70.0923817,110.072476 70.011034,110.332126 Z" id="Stroke-241" stroke-width="0.75"></path>
                        <path d="M152.127648,115.024775 C151.325294,115.197047 150.841769,116.220934 151.047279,117.311986 C151.25279,118.403038 152.069549,119.147497 152.871903,118.975225 C153.674257,118.802954 154.158262,117.778554 153.952752,116.687502 C153.747242,115.596962 152.930003,114.852504 152.127648,115.024775 Z" id="Stroke-243"></path>
                        <path d="M217.919212,123.208966 C217.651677,122.787554 216.799248,123.023544 216.015057,123.736703 C215.231407,124.449862 214.813316,125.369188 215.080851,125.7906 C215.348386,126.212661 216.200274,125.97667 216.983923,125.262863 C217.768115,124.549704 218.186747,123.630378 217.919212,123.208966 Z" id="Stroke-245" stroke-width="0.5"></path>
                        <path d="M215.895088,118.105229 C215.591277,117.801136 214.720385,118.178486 213.950062,118.948996 C213.179213,119.718979 212.80116,120.590151 213.104971,120.894771 C213.408256,121.198864 214.279674,120.821514 215.050524,120.051004 C215.82032,119.281021 216.1989,118.409849 215.895088,118.105229 Z" id="Stroke-247" stroke-width="0.5"></path>
                        <path d="M211.611326,115.073152 C211.055028,114.818166 210.105789,115.251177 209.492648,116.039391 C208.878954,116.827183 208.832044,117.672061 209.388894,117.927047 C209.94464,118.18161 210.893326,117.748599 211.507572,116.960807 C212.121265,116.172593 212.167624,115.327715 211.611326,115.073152 Z" id="Stroke-249" stroke-width="0.5"></path>
                        <path d="M204.988694,113.025841 C204.205697,112.849845 203.352307,113.591507 203.082103,114.681548 C202.81244,115.77159 203.228847,116.798149 204.011843,116.974145 C204.79484,117.150141 205.64823,116.408996 205.917893,115.318438 C206.187555,114.228397 205.771148,113.202354 204.988694,113.025841 Z" id="Stroke-251" stroke-width="0.5"></path>
                        <path d="M194.626863,112.003016 C193.801434,111.942918 193.075019,112.788364 193.00552,113.891009 C192.935068,114.993654 193.547237,115.936887 194.373141,115.996984 C195.198093,116.057082 195.924508,115.211636 195.994484,114.108991 C196.064936,113.006346 195.452291,112.063113 194.626863,112.003016 Z" id="Stroke-253" stroke-width="0.5"></path>
                        <path d="M183.134836,112.025785 C182.331631,112.201555 181.843768,113.227993 182.045512,114.318488 C182.247728,115.40847 183.062246,116.149986 183.865451,115.974215 C184.668656,115.798445 185.156518,114.772007 184.954303,113.681512 C184.752559,112.59153 183.938041,111.850014 183.134836,112.025785 Z" id="Stroke-255"></path>
                        <path d="M174.134836,113.025785 C173.331631,113.201555 172.843768,114.227993 173.045512,115.318488 C173.247728,116.40847 174.062246,117.149986 174.865451,116.974215 C175.668656,116.798445 176.156518,115.772007 175.954303,114.681512 C175.752559,113.59153 174.938041,112.850014 174.134836,113.025785 Z" id="Stroke-257"></path>
                        <path d="M163.134836,114.025785 C162.331631,114.201555 161.843768,115.227993 162.045512,116.318488 C162.247728,117.40847 163.062246,118.149986 163.865451,117.974215 C164.668656,117.798445 165.156518,116.772007 164.954303,115.681512 C164.752559,114.59153 163.938041,113.850014 163.134836,114.025785 Z" id="Stroke-259"></path>
                        <path d="M92,113.5 C92,113.775713 91.7760546,114 91.5,114 C91.2239454,114 91,113.775713 91,113.5 C91,113.224287 91.2239454,113 91.5,113 C91.7760546,113 92,113.224287 92,113.5 Z" id="Stroke-261" stroke-width="0.5"></path>
                        <path d="M95,113.50031 C95,113.776193 94.7761934,114 94.50031,114 C94.2244265,114 94,113.776193 94,113.50031 C94,113.224427 94.2244265,113 94.50031,113 C94.7761934,113 95,113.224427 95,113.50031 Z" id="Stroke-263" stroke-width="0.5"></path>
                        <path d="M85,107.50031 C85,107.776193 84.7761934,108 84.50031,108 C84.2244265,108 84,107.776193 84,107.50031 C84,107.224427 84.2244265,107 84.50031,107 C84.7761934,107 85,107.224427 85,107.50031 Z" id="Stroke-265" stroke-width="0.5"></path>
                        <path d="M91,100.49969 C91,100.775573 90.7761934,101 90.49969,101 C90.2238066,101 90,100.775573 90,100.49969 C90,100.223807 90.2238066,100 90.49969,100 C90.7761934,100 91,100.223807 91,100.49969 Z" id="Stroke-267" stroke-width="0.5"></path>
                        <path d="M105,116.50031 C105,116.776193 104.776055,117 104.5,117 C104.223945,117 104,116.776193 104,116.50031 C104,116.224427 104.223945,116 104.5,116 C104.776055,116 105,116.224427 105,116.50031 Z" id="Stroke-269" stroke-width="0.5"></path>
                        <path d="M103,118.50031 C103,118.776193 102.776193,119 102.50031,119 C102.224427,119 102,118.776193 102,118.50031 C102,118.224427 102.224427,118 102.50031,118 C102.776193,118 103,118.224427 103,118.50031 Z" id="Stroke-271"></path>
                        <path d="M115,117.500222 C115,117.776298 114.776298,118 114.499778,118 C114.223702,118 114,117.776298 114,117.500222 C114,117.223702 114.223702,117 114.499778,117 C114.776298,117 115,117.223702 115,117.500222 Z" id="Stroke-273"></path>
                        <path d="M116,121.500222 C116,121.776298 115.776298,122 115.499778,122 C115.223702,122 115,121.776298 115,121.500222 C115,121.223702 115.223702,121 115.499778,121 C115.776298,121 116,121.223702 116,121.500222 Z" id="Stroke-275"></path>
                        <path d="M139,78.5002219 C139,78.7762983 138.776298,79 138.499778,79 C138.223702,79 138,78.7762983 138,78.5002219 C138,78.2237017 138.223702,78 138.499778,78 C138.776298,78 139,78.2237017 139,78.5002219 Z" id="Stroke-277" stroke-width="0.5"></path>
                        <path d="M126,116.500222 C126,116.776298 125.776298,117 125.500222,117 C125.223702,117 125,116.776298 125,116.500222 C125,116.224146 125.223702,116 125.500222,116 C125.776298,116 126,116.224146 126,116.500222 Z" id="Stroke-279"></path>
                        <path d="M127,119.499778 C127,119.775854 126.776298,120 126.500222,120 C126.223702,120 126,119.775854 126,119.499778 C126,119.223702 126.223702,119 126.500222,119 C126.776298,119 127,119.223702 127,119.499778 Z" id="Stroke-281"></path>
                        <path d="M137,116.499778 C137,116.775854 136.776298,117 136.500222,117 C136.223702,117 136,116.775854 136,116.499778 C136,116.223702 136.223702,116 136.500222,116 C136.776298,116 137,116.223702 137,116.499778 Z" id="Stroke-283" stroke-width="0.5"></path>
                        <path d="M137,121.500222 C137,121.776298 136.776298,122 136.500222,122 C136.223702,122 136,121.776298 136,121.500222 C136,121.223702 136.223702,121 136.500222,121 C136.776298,121 137,121.223702 137,121.500222 Z" id="Stroke-285" stroke-width="0.5"></path>
                        <path d="M146,116.5 C146,116.775954 145.776298,117 145.500222,117 C145.223702,117 145,116.775954 145,116.5 C145,116.224046 145.223702,116 145.500222,116 C145.776298,116 146,116.224046 146,116.5 Z" id="Stroke-287"></path>
                        <path d="M147,119.500222 C147,119.776298 146.776298,120 146.500222,120 C146.223702,120 146,119.776298 146,119.500222 C146,119.223702 146.223702,119 146.500222,119 C146.776298,119 147,119.223702 147,119.500222 Z" id="Stroke-289"></path>
                        <path d="M157,114.500222 C157,114.776298 156.776298,115 156.500222,115 C156.223702,115 156,114.776298 156,114.500222 C156,114.224146 156.223702,114 156.500222,114 C156.776298,114 157,114.224146 157,114.500222 Z" id="Stroke-291"></path>
                        <path d="M159,118.499778 C159,118.776298 158.776298,119 158.500222,119 C158.223702,119 158,118.776298 158,118.499778 C158,118.223702 158.223702,118 158.500222,118 C158.776298,118 159,118.223702 159,118.499778 Z" id="Stroke-293"></path>
                        <path d="M169,113.499778 C169,113.775854 168.776298,114 168.500222,114 C168.223702,114 168,113.775854 168,113.499778 C168,113.223702 168.223702,113 168.500222,113 C168.776298,113 169,113.223702 169,113.499778 Z" id="Stroke-295"></path>
                        <path d="M169,116.499778 C169,116.775854 168.776298,117 168.499778,117 C168.223702,117 168,116.775854 168,116.499778 C168,116.223702 168.223702,116 168.499778,116 C168.776298,116 169,116.223702 169,116.499778 Z" id="Stroke-297"></path>
                        <path d="M179,112.5 C179,112.775954 178.776298,113 178.500222,113 C178.223702,113 178,112.775954 178,112.5 C178,112.224046 178.223702,112 178.500222,112 C178.776298,112 179,112.224046 179,112.5 Z" id="Stroke-299"></path>
                        <path d="M179,116.5 C179,116.775954 178.776298,117 178.500222,117 C178.223702,117 178,116.775954 178,116.5 C178,116.224046 178.223702,116 178.500222,116 C178.776298,116 179,116.224046 179,116.5 Z" id="Stroke-301"></path>
                        <path d="M189,110.500222 C189,110.776298 188.776298,111 188.499778,111 C188.223702,111 188,110.776298 188,110.500222 C188,110.224146 188.223702,110 188.499778,110 C188.776298,110 189,110.224146 189,110.500222 Z" id="Stroke-303" stroke-width="0.5"></path>
                        <path d="M188,115.500222 C188,115.776298 187.776298,116 187.500222,116 C187.223702,116 187,115.776298 187,115.500222 C187,115.224146 187.223702,115 187.500222,115 C187.776298,115 188,115.224146 188,115.500222 Z" id="Stroke-305"></path>
                        <path d="M199,112.499778 C199,112.776298 198.775954,113 198.5,113 C198.224046,113 198,112.776298 198,112.499778 C198,112.223702 198.224046,112 198.5,112 C198.775954,112 199,112.223702 199,112.499778 Z" id="Stroke-307" stroke-width="0.5"></path>
                        <path d="M198,116.499778 C198,116.775854 197.775954,117 197.5,117 C197.224046,117 197,116.775854 197,116.499778 C197,116.223702 197.224046,116 197.5,116 C197.775954,116 198,116.223702 198,116.499778 Z" id="Stroke-309" stroke-width="0.5"></path>
                        <path d="M209,113.500222 C209,113.776298 208.775854,114 208.499778,114 C208.223702,114 208,113.776298 208,113.500222 C208,113.223702 208.223702,113 208.499778,113 C208.775854,113 209,113.223702 209,113.500222 Z" id="Stroke-311" stroke-width="0.5"></path>
                        <path d="M207,117.499778 C207,117.775854 206.775954,118 206.5,118 C206.224046,118 206,117.775854 206,117.499778 C206,117.223702 206.224046,117 206.5,117 C206.775954,117 207,117.223702 207,117.499778 Z" id="Stroke-313" stroke-width="0.5"></path>
                        <path d="M213.663434,123.902613 C213.402312,124.066263 213.117709,124.018921 213.027537,123.79624 C212.937366,123.574143 213.07591,123.260869 213.337032,123.097218 C213.597684,122.933568 213.882287,122.981494 213.972459,123.203591 C214.06263,123.426273 213.924085,123.738962 213.663434,123.902613 Z" id="Stroke-315" stroke-width="0.5"></path>
                        <path d="M217.663434,119.902613 C217.402312,120.066263 217.117709,120.018921 217.027537,119.79624 C216.937366,119.574143 217.07591,119.260869 217.337032,119.097218 C217.597684,118.933568 217.882287,118.981494 217.972459,119.203591 C218.06263,119.426273 217.924085,119.738962 217.663434,119.902613 Z" id="Stroke-317" stroke-width="0.5"></path>
                        <path d="M211.894091,118.671564 C211.724362,118.93089 211.410391,119.064096 211.192581,118.969624 C210.97477,118.874679 210.935959,118.587484 211.105688,118.328158 C211.275418,118.069304 211.589968,117.935626 211.807778,118.03057 C212.025588,118.125515 212.063821,118.412238 211.894091,118.671564 Z" id="Stroke-319" stroke-width="0.5"></path>
                        <path d="M213.894091,116.671564 C213.724362,116.93089 213.410391,117.064096 213.192581,116.969624 C212.97477,116.874679 212.935959,116.587484 213.105688,116.328158 C213.275418,116.069304 213.589968,115.935626 213.807778,116.03057 C214.025588,116.125515 214.063821,116.412238 213.894091,116.671564 Z" id="Stroke-321" stroke-width="0.5"></path>
                        <path d="M276.053821,112.304227 C276.823684,111.605093 277.199393,110.67849 276.893583,110.234145 C276.588259,109.789799 275.715974,109.99664 274.946596,110.695773 C274.176733,111.394907 273.800539,112.32151 274.106348,112.765855 C274.412158,113.210201 275.284443,113.00336 276.053821,112.304227 Z" id="Stroke-323" stroke-width="0.5"></path>
                        <path d="M278.141452,104.404729 C278.890272,103.744185 279.209913,102.803937 278.855333,102.304052 C278.501225,101.804166 277.606513,101.934273 276.858165,102.594291 C276.109345,103.254834 275.790176,104.196136 276.144756,104.696021 C276.498864,105.195906 277.393104,105.065799 278.141452,104.404729 Z" id="Stroke-325" stroke-width="0.5"></path>
                        <path d="M278.543197,94.2086626 C279.138602,93.478428 279.153894,92.5694614 278.577727,92.1782322 C278.002053,91.7870029 277.052463,92.0611785 276.457058,92.7918634 C275.861653,93.5216478 275.845867,94.4306144 276.422034,94.8218437 C276.997708,95.2130729 277.947791,94.9384471 278.543197,94.2086626 Z" id="Stroke-327"></path>
                        <path d="M273.77843,85.9545871 C274.211668,85.1649287 273.990011,84.3219151 273.284209,84.0709317 C272.577877,83.8199484 271.654661,84.2561813 271.221952,85.0454129 C270.788184,85.8350713 271.009841,86.6780849 271.715643,86.9290683 C272.421975,87.1800516 273.345722,86.7438187 273.77843,85.9545871 Z" id="Stroke-329"></path>
                        <path d="M263.77843,80.9545871 C264.211668,80.1649287 263.990011,79.3219151 263.284209,79.0709317 C262.577877,78.8199484 261.654661,79.2561813 261.221952,80.0454129 C260.788184,80.8350713 261.009841,81.6780849 261.715643,81.9290683 C262.421975,82.1800516 263.345722,81.7438187 263.77843,80.9545871 Z" id="Stroke-331"></path>
                        <path d="M253.986509,79.6278982 C254.096554,78.8026789 253.521373,78.0761765 252.699444,78.0056643 C251.878649,77.9342424 251.123654,78.5465606 251.01361,79.3722349 C250.902998,80.1974543 251.478746,80.9239567 252.299541,80.9944688 C253.12147,81.064981 253.876465,80.4531176 253.986509,79.6278982 Z" id="Stroke-333"></path>
                        <path d="M244.986509,79.6278982 C245.096554,78.8026789 244.521373,78.0761765 243.699444,78.0056643 C242.878649,77.9342424 242.123654,78.5465606 242.01361,79.3722349 C241.902998,80.1974543 242.478746,80.9239567 243.299541,80.9944688 C244.12147,81.064981 244.876465,80.4531176 244.986509,79.6278982 Z" id="Stroke-335"></path>
                        <path d="M233.986509,80.6278982 C234.096554,79.8026789 233.521373,79.0761765 232.699444,79.0056643 C231.878649,78.9342424 231.123654,79.5465606 231.01361,80.3722349 C230.902998,81.1974543 231.478746,81.9239567 232.299541,81.9944688 C233.12147,82.064981 233.876465,81.4531176 233.986509,80.6278982 Z" id="Stroke-337"></path>
                        <path d="M223.997085,82.4407366 C223.945902,81.6133201 223.233883,80.9689162 222.406987,81.0011591 C221.580659,81.0338561 220.95224,81.7313927 221.002855,82.5592634 C221.054038,83.3866799 221.766057,84.0310838 222.592953,83.9988409 C223.419281,83.9656898 224.048268,83.2686073 223.997085,82.4407366 Z" id="Stroke-339"></path>
                        <path d="M213.76753,85.2393613 C213.324802,84.2179938 212.3986,83.7310126 211.69811,84.1506568 C210.998078,84.5713783 210.789763,85.7398099 211.23249,86.7606387 C211.675218,87.7820062 212.601421,88.2689874 213.301453,87.8493432 C214.001942,87.4286217 214.210258,86.2607288 213.76753,85.2393613 Z" id="Stroke-341"></path>
                        <path d="M203.72006,88.1968254 C203.156492,87.1857325 201.929201,86.7252886 200.979633,87.1688809 C200.030066,87.6124732 199.716612,88.791586 200.28018,89.8031746 C200.84429,90.8142675 202.070499,91.2747114 203.020607,90.8311191 C203.970174,90.3875268 204.283088,89.208414 203.72006,88.1968254 Z" id="Stroke-343"></path>
                        <path d="M141,74.5 C141,74.7759539 140.776298,75 140.500222,75 C140.223702,75 140,74.7759539 140,74.5 C140,74.2240461 140.223702,74 140.500222,74 C140.776298,74 141,74.2240461 141,74.5 Z" id="Stroke-345" stroke-width="0.5"></path>
                        <path d="M130.929626,74.0965035 C131.070866,74.2596602 130.992799,74.572065 130.755516,74.7951349 C130.518233,75.0182048 130.211614,75.0663494 130.070374,74.9037277 C129.929134,74.741106 130.007201,74.4281662 130.244484,74.2050963 C130.481254,73.9820264 130.788386,73.9333469 130.929626,74.0965035 Z" id="Stroke-347" stroke-width="0.5"></path>
                        <path d="M133.929626,70.0965035 C134.070866,70.2596602 133.992799,70.572065 133.755516,70.7951349 C133.518233,71.0182048 133.211614,71.0663494 133.070374,70.9037277 C132.929134,70.741106 133.007201,70.4281662 133.244484,70.2050963 C133.481254,69.9820264 133.788386,69.9333469 133.929626,70.0965035 Z" id="Stroke-349" stroke-width="0.5"></path>
                        <path d="M150,79.4997781 C150,79.7758544 149.776298,80 149.500222,80 C149.223702,80 149,79.7758544 149,79.4997781 C149,79.2237017 149.223702,79 149.500222,79 C149.776298,79 150,79.2237017 150,79.4997781 Z" id="Stroke-351" stroke-width="0.5"></path>
                        <path d="M147,81.4997781 C147,81.7762983 146.776298,82 146.500222,82 C146.223702,82 146,81.7762983 146,81.4997781 C146,81.2237017 146.223702,81 146.500222,81 C146.776298,81 147,81.2237017 147,81.4997781 Z" id="Stroke-353" stroke-width="0.5"></path>
                        <path d="M159,83.4997781 C159,83.7758544 158.776298,84 158.500222,84 C158.223702,84 158,83.7758544 158,83.4997781 C158,83.2237017 158.223702,83 158.500222,83 C158.776298,83 159,83.2237017 159,83.4997781 Z" id="Stroke-355" stroke-width="0.5"></path>
                        <path d="M156,86.5002219 C156,86.7762983 155.776298,87 155.500222,87 C155.223702,87 155,86.7762983 155,86.5002219 C155,86.2241456 155.223702,86 155.500222,86 C155.776298,86 156,86.2241456 156,86.5002219 Z" id="Stroke-357" stroke-width="0.5"></path>
                        <path d="M169,87.4997781 C169,87.7758544 168.776298,88 168.499778,88 C168.223702,88 168,87.7758544 168,87.4997781 C168,87.2237017 168.223702,87 168.499778,87 C168.776298,87 169,87.2237017 169,87.4997781 Z" id="Stroke-359" stroke-width="0.5"></path>
                        <path d="M166,91.5 C166,91.7759539 165.776298,92 165.500222,92 C165.223702,92 165,91.7759539 165,91.5 C165,91.2240461 165.223702,91 165.500222,91 C165.776298,91 166,91.2240461 166,91.5 Z" id="Stroke-361" stroke-width="0.5"></path>
                        <path d="M178,90.5002219 C178,90.7762983 177.776298,91 177.499778,91 C177.223702,91 177,90.7762983 177,90.5002219 C177,90.2241456 177.223702,90 177.499778,90 C177.776298,90 178,90.2241456 178,90.5002219 Z" id="Stroke-363" stroke-width="0.5"></path>
                        <path d="M178,93.5002219 C178,93.7762983 177.776298,94 177.499778,94 C177.223702,94 177,93.7762983 177,93.5002219 C177,93.2241456 177.223702,93 177.499778,93 C177.776298,93 178,93.2241456 178,93.5002219 Z" id="Stroke-365" stroke-width="0.5"></path>
                        <path d="M188,90.5002219 C188,90.7762983 187.776298,91 187.499778,91 C187.223702,91 187,90.7762983 187,90.5002219 C187,90.2237017 187.223702,90 187.499778,90 C187.776298,90 188,90.2237017 188,90.5002219 Z" id="Stroke-367" stroke-width="0.5"></path>
                        <path d="M189,93.5 C189,93.7759539 188.776298,94 188.500222,94 C188.223702,94 188,93.7759539 188,93.5 C188,93.2240461 188.223702,93 188.500222,93 C188.776298,93 189,93.2240461 189,93.5 Z" id="Stroke-369" stroke-width="0.5"></path>
                        <path d="M198,88.4997781 C198,88.7758544 197.776298,89 197.500222,89 C197.223702,89 197,88.7758544 197,88.4997781 C197,88.2237017 197.223702,88 197.500222,88 C197.776298,88 198,88.2237017 198,88.4997781 Z" id="Stroke-371" stroke-width="0.5"></path>
                        <path d="M199,92.5002219 C199,92.7762983 198.776298,93 198.500222,93 C198.224146,93 198,92.7762983 198,92.5002219 C198,92.2237017 198.224146,92 198.500222,92 C198.776298,92 199,92.2237017 199,92.5002219 Z" id="Stroke-373" stroke-width="0.5"></path>
                        <path d="M208,86.5 C208,86.7759539 207.776298,87 207.500222,87 C207.223702,87 207,86.7759539 207,86.5 C207,86.2240461 207.223702,86 207.500222,86 C207.776298,86 208,86.2240461 208,86.5 Z" id="Stroke-375"></path>
                        <path d="M209,90.5002219 C209,90.7762983 208.776298,91 208.500222,91 C208.224146,91 208,90.7762983 208,90.5002219 C208,90.2237017 208.224146,90 208.500222,90 C208.776298,90 209,90.2237017 209,90.5002219 Z" id="Stroke-377"></path>
                        <path d="M216,82.5 C216,82.7759539 215.775854,83 215.499778,83 C215.223702,83 215,82.7759539 215,82.5 C215,82.2240461 215.223702,82 215.499778,82 C215.775854,82 216,82.2240461 216,82.5 Z" id="Stroke-379"></path>
                        <path d="M217,87.4997781 C217,87.7762983 216.776298,88 216.500222,88 C216.224146,88 216,87.7762983 216,87.4997781 C216,87.2237017 216.224146,87 216.500222,87 C216.776298,87 217,87.2237017 217,87.4997781 Z" id="Stroke-381"></path>
                        <path d="M226,80.5002219 C226,80.7762983 225.776298,81 225.500222,81 C225.224146,81 225,80.7762983 225,80.5002219 C225,80.2237017 225.224146,80 225.500222,80 C225.776298,80 226,80.2237017 226,80.5002219 Z" id="Stroke-383"></path>
                        <path d="M227,84.4997781 C227,84.7758544 226.776298,85 226.499778,85 C226.223702,85 226,84.7758544 226,84.4997781 C226,84.2237017 226.223702,84 226.499778,84 C226.776298,84 227,84.2237017 227,84.4997781 Z" id="Stroke-385"></path>
                        <path d="M232,20.5 C232,20.7761989 231.775854,21 231.499778,21 C231.223702,21 231,20.7761989 231,20.5 C231,20.2238011 231.223702,20 231.499778,20 C231.775854,20 232,20.2238011 232,20.5 Z" id="Stroke-387" stroke-width="0.5"></path>
                        <path d="M234,18.5 C234,18.7761989 233.775854,19 233.499778,19 C233.223702,19 233,18.7761989 233,18.5 C233,18.2238011 233.223702,18 233.499778,18 C233.775854,18 234,18.2238011 234,18.5 Z" id="Stroke-389" stroke-width="0.5"></path>
                        <path d="M236,79.4997781 C236,79.7762983 235.775854,80 235.499778,80 C235.223702,80 235,79.7762983 235,79.4997781 C235,79.2237017 235.223702,79 235.499778,79 C235.775854,79 236,79.2237017 236,79.4997781 Z" id="Stroke-391"></path>
                        <path d="M236,81.5002219 C236,81.7762983 235.776298,82 235.500222,82 C235.224146,82 235,81.7762983 235,81.5002219 C235,81.2237017 235.224146,81 235.500222,81 C235.776298,81 236,81.2237017 236,81.5002219 Z" id="Stroke-393"></path>
                        <path d="M247,76.4997781 C247,76.7758544 246.776298,77 246.499778,77 C246.223702,77 246,76.7758544 246,76.4997781 C246,76.2237017 246.223702,76 246.499778,76 C246.776298,76 247,76.2237017 247,76.4997781 Z" id="Stroke-395"></path>
                        <path d="M246.998421,80.4609413 C247.020169,80.7361169 246.814675,80.9766736 246.539499,80.9984213 C246.26388,81.0201691 246.023323,80.8146751 246.001576,80.5390557 C245.979828,80.2638801 246.185766,80.0233234 246.460941,80.0015757 C246.736117,79.9798279 246.977117,80.1857658 246.998421,80.4609413 Z" id="Stroke-397"></path>
                        <path d="M259,78.5002219 C259,78.7762983 258.776298,79 258.499778,79 C258.223702,79 258,78.7762983 258,78.5002219 C258,78.2241456 258.223702,78 258.499778,78 C258.776298,78 259,78.2241456 259,78.5002219 Z" id="Stroke-399"></path>
                        <path d="M258,81.5 C258,81.7759539 257.775854,82 257.499778,82 C257.223702,82 257,81.7759539 257,81.5 C257,81.2240461 257.223702,81 257.499778,81 C257.775854,81 258,81.2240461 258,81.5 Z" id="Stroke-401"></path>
                        <path d="M268,79.4997781 C268,79.7758544 267.776298,80 267.500222,80 C267.223702,80 267,79.7758544 267,79.4997781 C267,79.2237017 267.223702,79 267.500222,79 C267.776298,79 268,79.2237017 268,79.4997781 Z" id="Stroke-403"></path>
                        <path d="M267,83.5002219 C267,83.7762983 266.775854,84 266.499778,84 C266.223702,84 266,83.7762983 266,83.5002219 C266,83.2241456 266.223702,83 266.499778,83 C266.775854,83 267,83.2241456 267,83.5002219 Z" id="Stroke-405"></path>
                        <path d="M275,87.5 C275,87.7759539 274.775954,88 274.5,88 C274.224046,88 274,87.7759539 274,87.5 C274,87.2240461 274.224046,87 274.5,87 C274.775954,87 275,87.2240461 275,87.5 Z" id="Stroke-407"></path>
                        <path d="M274,91.4997781 C274,91.7758544 273.775954,92 273.5,92 C273.224046,92 273,91.7758544 273,91.4997781 C273,91.2237017 273.224046,91 273.5,91 C273.775954,91 274,91.2237017 274,91.4997781 Z" id="Stroke-409"></path>
                        <path d="M281,96.5002219 C281,96.7762983 280.776298,97 280.499778,97 C280.223702,97 280,96.7762983 280,96.5002219 C280,96.2241456 280.223702,96 280.499778,96 C280.776298,96 281,96.2241456 281,96.5002219 Z" id="Stroke-411"></path>
                        <path d="M277,98.4997781 C277,98.7758544 276.775954,99 276.5,99 C276.224046,99 276,98.7758544 276,98.4997781 C276,98.2237017 276.224046,98 276.5,98 C276.775954,98 277,98.2237017 277,98.4997781 Z" id="Stroke-413"></path>
                        <path d="M274.998728,106.465153 C275.01826,106.740375 274.810512,106.97964 274.534847,106.998728 C274.259625,107.01826 274.02036,106.810512 274.001272,106.534847 C273.98174,106.259625 274.189488,106.02036 274.46471,106.001272 C274.740375,105.98174 274.979196,106.189488 274.998728,106.465153 Z" id="Stroke-415" stroke-width="0.5"></path>
                        <path d="M279,105.500222 C279,105.776298 278.775854,106 278.499778,106 C278.223702,106 278,105.776298 278,105.500222 C278,105.224146 278.223702,105 278.499778,105 C278.775854,105 279,105.224146 279,105.500222 Z" id="Stroke-417" stroke-width="0.5"></path>
                        <path d="M245.463442,25.4514112 C244.828441,24.8589882 243.882463,24.8483865 243.350561,25.4272393 C242.818237,26.0065162 242.901558,26.9560045 243.536558,27.5484275 C244.171559,28.1408505 245.117537,28.1518763 245.649439,27.5725994 C246.181763,26.9937465 246.098442,26.0438342 245.463442,25.4514112 Z" id="Stroke-419" stroke-width="0.5"></path>
                        <path d="M252.291535,30.595715 C251.448279,29.809368 250.186061,29.8002431 249.472866,30.575855 C248.75967,31.3514669 248.86521,32.6182101 249.708465,33.4045571 C250.551721,34.1909041 251.813939,34.1994921 252.527134,33.4238803 C253.24033,32.6482684 253.13479,31.3820619 252.291535,30.595715 Z" id="Stroke-421" stroke-width="0.5"></path>
                        <path d="M260.495998,34.4206443 C259.876783,33.8456408 258.928899,33.8619629 258.378485,34.4584182 C257.828536,35.0544073 257.884321,36.0038859 258.504002,36.5793557 C259.123217,37.1543592 260.071101,37.1380371 260.621515,36.5415818 C261.171464,35.9455927 261.115679,34.9961141 260.495998,34.4206443 Z" id="Stroke-423" stroke-width="0.5"></path>
                        <path d="M267.502057,38.415213 C266.885638,37.8430129 265.937136,37.865004 265.383951,38.4639384 C264.830336,39.063304 264.881525,40.0128025 265.497943,40.5850026 C266.113932,41.1567715 267.062864,41.1352116 267.616049,40.535846 C268.169664,39.9369116 268.118475,38.9874131 267.502057,38.415213 Z" id="Stroke-425" stroke-width="0.75"></path>
                        <path d="M282.545875,42.3747887 C281.951932,41.8269479 281.002314,41.8867202 280.424773,42.5080938 C279.847233,43.1294674 279.860182,44.0772235 280.454125,44.6250643 C281.048068,45.1729051 281.997686,45.1135628 282.575227,44.4917592 C283.152767,43.8708156 283.139818,42.9226296 282.545875,42.3747887 Z" id="Stroke-427"></path>
                        <path d="M275.545875,41.3748071 C274.951932,40.8269394 274.002314,40.8867146 273.424773,41.5081187 C272.847233,42.1295228 272.860182,43.0773252 273.454125,43.6251929 C274.048068,44.1730606 274.997686,44.1132854 275.575227,43.4918813 C276.152767,42.8704772 276.139818,41.9226748 275.545875,41.3748071 Z" id="Stroke-429" stroke-width="0.75"></path>
                        <path d="M311.954715,40.2298389 C311.752923,39.4153789 310.939096,38.8755159 310.135512,39.0248113 C309.33244,39.1741068 308.844349,39.9556862 309.045117,40.7701462 C309.246397,41.5850506 310.060736,42.1244693 310.86432,41.9751738 C311.667392,41.8258784 312.155995,41.0442989 311.954715,40.2298389 Z" id="Stroke-431" stroke-width="0.75"></path>
                        <path d="M304.954715,42.2295856 C304.752923,41.4150093 303.939096,40.8755136 303.135512,41.0248304 C302.33244,41.1741471 301.844349,41.9553938 302.045117,42.7704144 C302.246397,43.5849907 303.060736,44.1244864 303.86432,43.9751696 C304.667392,43.8258529 305.155995,43.0441618 304.954715,42.2295856 Z" id="Stroke-433"></path>
                        <path d="M296.954715,43.2298389 C296.752923,42.4153789 295.939096,41.8755159 295.135512,42.0248113 C294.33244,42.1741068 293.844349,42.9556862 294.045117,43.7701462 C294.246397,44.5850506 295.060736,45.1244693 295.86432,44.9751738 C296.667392,44.8258784 297.155995,44.0442989 296.954715,43.2298389 Z" id="Stroke-435"></path>
                        <path d="M288.962919,45.2010217 C288.780653,44.389755 287.978309,43.8652863 287.170399,44.0303722 C286.36249,44.1959007 285.855112,44.9876935 286.036915,45.7989603 C286.219181,46.6106697 287.021525,47.1346958 287.829898,46.9696099 C288.637808,46.8045239 289.145186,46.0122885 288.962919,45.2010217 Z" id="Stroke-437"></path>
                        <path d="M318.945321,37.6725162 C318.724436,36.5832356 317.898404,35.8464643 317.100365,36.0272935 C316.302326,36.2081227 315.834089,37.237665 316.054466,38.3274838 C316.275352,39.4167644 317.101383,40.1535357 317.899422,39.9727065 C318.69797,39.7918773 319.166207,38.7617968 318.945321,37.6725162 Z" id="Stroke-439" stroke-width="0.75"></path>
                        <path d="M323.941658,32.6844759 C323.713281,31.5936342 322.882494,30.8510107 322.086726,31.0253793 C321.29045,31.1997479 320.830142,32.2252014 321.05852,33.3155241 C321.287405,34.4063658 322.117684,35.1489893 322.91396,34.9746207 C323.709728,34.8002521 324.169528,33.7753176 323.941658,32.6844759 Z" id="Stroke-441" stroke-width="0.75"></path>
                        <path d="M329.940508,29.6871918 C329.709749,28.5962456 328.878577,27.8519397 328.08295,28.0249825 C327.287322,28.1974707 326.829631,29.2224166 327.059296,30.3128082 C327.289509,31.4037544 328.121774,32.1480603 328.916855,31.9750175 C329.712483,31.8025293 330.170721,30.778138 329.940508,29.6871918 Z" id="Stroke-443" stroke-width="0.5"></path>
                        <path d="M336.880187,20.8302832 C336.61833,19.7294036 336.012524,18.9134576 335.525961,19.0073562 C335.039998,19.1012547 334.857837,20.0693811 335.119694,21.169721 C335.380951,22.2700609 335.987956,23.0865466 336.473919,22.9926481 C336.960482,22.8987495 337.142044,21.9306231 336.880187,20.8302832 Z" id="Stroke-445" stroke-width="0.5"></path>
                        <path d="M334.899901,24.3583268 C334.658623,23.5339232 334.061551,22.928551 333.564298,23.0068086 C333.067656,23.0850662 332.859447,23.81682 333.100112,24.6412236 C333.340166,25.4660769 333.938463,26.0714491 334.435104,25.9931915 C334.932358,25.9149339 335.140567,25.1827304 334.899901,24.3583268 Z" id="Stroke-447" stroke-width="0.5"></path>
                        <path d="M242,22.4997781 C242,22.7762983 241.776298,23 241.500222,23 C241.224146,23 241,22.7762983 241,22.4997781 C241,22.2237017 241.224146,22 241.500222,22 C241.776298,22 242,22.2237017 242,22.4997781 Z" id="Stroke-449" stroke-width="0.5"></path>
                        <path d="M241,27.5 C241,27.7761989 240.776298,28 240.499778,28 C240.223702,28 240,27.7761989 240,27.5 C240,27.2238011 240.223702,27 240.499778,27 C240.776298,27 241,27.2238011 241,27.5 Z" id="Stroke-451" stroke-width="0.5"></path>
                        <path d="M248,27.4997781 C248,27.7762983 247.775954,28 247.5,28 C247.224046,28 247,27.7762983 247,27.4997781 C247,27.2237017 247.224046,27 247.5,27 C247.775954,27 248,27.2237017 248,27.4997781 Z" id="Stroke-453" stroke-width="0.5"></path>
                        <path d="M247,31.5 C247,31.7761989 246.776298,32 246.500222,32 C246.224146,32 246,31.7761989 246,31.5 C246,31.2238011 246.224146,31 246.500222,31 C246.776298,31 247,31.2238011 247,31.5 Z" id="Stroke-455" stroke-width="0.5"></path>
                        <path d="M256,31.4997781 C256,31.7762983 255.775954,32 255.5,32 C255.224046,32 255,31.7762983 255,31.4997781 C255,31.2237017 255.224046,31 255.5,31 C255.775954,31 256,31.2237017 256,31.4997781 Z" id="Stroke-457" stroke-width="0.5"></path>
                        <path d="M255,36.5 C255,36.7761989 254.775954,37 254.5,37 C254.224046,37 254,36.7761989 254,36.5 C254,36.2238011 254.224046,36 254.5,36 C254.775954,36 255,36.2238011 255,36.5 Z" id="Stroke-459" stroke-width="0.5"></path>
                        <path d="M264,36.5 C264,36.776643 263.775954,37 263.5,37 C263.224046,37 263,36.776643 263,36.5 C263,36.2238011 263.224046,36 263.5,36 C263.775954,36 264,36.2238011 264,36.5 Z" id="Stroke-461" stroke-width="0.5"></path>
                        <path d="M261,40.4997781 C261,40.7762983 260.776298,41 260.500222,41 C260.224146,41 260,40.7762983 260,40.4997781 C260,40.2237017 260.224146,40 260.500222,40 C260.776298,40 261,40.2237017 261,40.4997781 Z" id="Stroke-463" stroke-width="0.75"></path>
                        <path d="M270,40.4997781 C270,40.7762983 269.776298,41 269.500222,41 C269.223702,41 269,40.7762983 269,40.4997781 C269,40.2237017 269.223702,40 269.500222,40 C269.776298,40 270,40.2237017 270,40.4997781 Z" id="Stroke-465" stroke-width="0.75"></path>
                        <path d="M270,42.5002219 C270,42.7762983 269.775954,43 269.5,43 C269.224046,43 269,42.7762983 269,42.5002219 C269,42.2237017 269.224046,42 269.5,42 C269.775954,42 270,42.2237017 270,42.5002219 Z" id="Stroke-467" stroke-width="0.75"></path>
                        <path d="M278,42.5 C278,42.7761989 277.776298,43 277.500222,43 C277.224146,43 277,42.7761989 277,42.5 C277,42.2238011 277.224146,42 277.500222,42 C277.776298,42 278,42.2238011 278,42.5 Z" id="Stroke-469"></path>
                        <path d="M278,47.5 C278,47.7761989 277.776298,48 277.500222,48 C277.224146,48 277,47.7761989 277,47.5 C277,47.2238011 277.224146,47 277.500222,47 C277.776298,47 278,47.2238011 278,47.5 Z" id="Stroke-471"></path>
                        <path d="M284.999852,44.5115419 C284.993637,44.787659 284.764575,45.0065108 284.488458,44.999852 C284.212341,44.9936371 283.993489,44.7645753 284.000148,44.4884581 C284.006807,44.212341 284.235425,43.9934892 284.511542,44.000148 C284.787659,44.0063629 285.006511,44.2354247 284.999852,44.5115419 Z" id="Stroke-473"></path>
                        <path d="M285,47.5 C285,47.7761989 284.776298,48 284.500222,48 C284.224146,48 284,47.7761989 284,47.5 C284,47.2238011 284.224146,47 284.500222,47 C284.776298,47 285,47.2238011 285,47.5 Z" id="Stroke-475"></path>
                        <path d="M293,44.5 C293,44.7761989 292.775854,45 292.499778,45 C292.223702,45 292,44.7761989 292,44.5 C292,44.2238011 292.223702,44 292.499778,44 C292.775854,44 293,44.2238011 293,44.5 Z" id="Stroke-477"></path>
                        <path d="M293,47.5 C293,47.7761989 292.775954,48 292.5,48 C292.224046,48 292,47.7761989 292,47.5 C292,47.2238011 292.224046,47 292.5,47 C292.775954,47 293,47.2238011 293,47.5 Z" id="Stroke-479"></path>
                        <path d="M300,41.5002219 C300,41.7762983 299.776298,42 299.500222,42 C299.223702,42 299,41.7762983 299,41.5002219 C299,41.2237017 299.223702,41 299.500222,41 C299.776298,41 300,41.2237017 300,41.5002219 Z" id="Stroke-481" stroke-width="0.5"></path>
                        <path d="M301,46.5 C301,46.7761989 300.776298,47 300.500222,47 C300.224146,47 300,46.7761989 300,46.5 C300,46.2238011 300.224146,46 300.500222,46 C300.776298,46 301,46.2238011 301,46.5 Z" id="Stroke-483"></path>
                        <path d="M309,40.4997781 C309,40.7762983 308.776298,41 308.499778,41 C308.223702,41 308,40.7762983 308,40.4997781 C308,40.2237017 308.223702,40 308.499778,40 C308.776298,40 309,40.2237017 309,40.4997781 Z" id="Stroke-485" stroke-width="0.5"></path>
                        <path d="M309,44.5 C309,44.7761989 308.776298,45 308.500222,45 C308.224146,45 308,44.7761989 308,44.5 C308,44.2238011 308.224146,44 308.500222,44 C308.776298,44 309,44.2238011 309,44.5 Z" id="Stroke-487"></path>
                        <path d="M314,37.4997781 C314,37.7762983 313.775854,38 313.499778,38 C313.223702,38 313,37.7762983 313,37.4997781 C313,37.2237017 313.223702,37 313.499778,37 C313.775854,37 314,37.2237017 314,37.4997781 Z" id="Stroke-489" stroke-width="0.75"></path>
                        <path d="M316,41.4997781 C316,41.7762983 315.776298,42 315.500222,42 C315.223702,42 315,41.7762983 315,41.4997781 C315,41.2237017 315.223702,41 315.500222,41 C315.776298,41 316,41.2237017 316,41.4997781 Z" id="Stroke-491" stroke-width="0.75"></path>
                        <path d="M319,34.4997781 C319,34.7762983 318.775954,35 318.5,35 C318.224046,35 318,34.7762983 318,34.4997781 C318,34.2237017 318.224046,34 318.5,34 C318.775954,34 319,34.2237017 319,34.4997781 Z" id="Stroke-493" stroke-width="0.5"></path>
                        <path d="M321,37.5002219 C321,37.7762983 320.775954,38 320.5,38 C320.224046,38 320,37.7762983 320,37.5002219 C320,37.2237017 320.224046,37 320.5,37 C320.775954,37 321,37.2237017 321,37.5002219 Z" id="Stroke-495" stroke-width="0.75"></path>
                        <path d="M326,31.5002219 C326,31.7762983 325.775854,32 325.499778,32 C325.223702,32 325,31.7762983 325,31.5002219 C325,31.2237017 325.223702,31 325.499778,31 C325.775854,31 326,31.2237017 326,31.5002219 Z" id="Stroke-497" stroke-width="0.75"></path>
                        <path d="M328,34.4997781 C328,34.7762983 327.775954,35 327.5,35 C327.224046,35 327,34.7762983 327,34.4997781 C327,34.2237017 327.224046,34 327.5,34 C327.775954,34 328,34.2237017 328,34.4997781 Z" id="Stroke-499" stroke-width="0.5"></path>
                        <path d="M331,25.5002219 C331,25.7762983 330.775854,26 330.499778,26 C330.223702,26 330,25.7762983 330,25.5002219 C330,25.2237017 330.223702,25 330.499778,25 C330.775854,25 331,25.2237017 331,25.5002219 Z" id="Stroke-501" stroke-width="0.5"></path>
                        <path d="M332,30.5002219 C332,30.7762983 331.775954,31 331.5,31 C331.224046,31 331,30.7762983 331,30.5002219 C331,30.2237017 331.224046,30 331.5,30 C331.775954,30 332,30.2237017 332,30.5002219 Z" id="Stroke-503" stroke-width="0.5"></path>
                        <path d="M335,20.5002219 C335,20.7762983 334.775954,21 334.5,21 C334.224046,21 334,20.7762983 334,20.5002219 C334,20.2237017 334.224046,20 334.5,20 C334.775954,20 335,20.2237017 335,20.5002219 Z" id="Stroke-505" stroke-width="0.5"></path>
                        <path d="M223,19 C223,19 196.448212,51.5404655 185.490852,77.5670796 C174.533492,103.59316 126.490703,134.107011 83.6644179,133.721523 C83.6644179,133.721523 19.9133257,144.030544 6,128.087417" id="Stroke-507" stroke-width="0.5"></path>
                        <path d="M5,144.762042 C5,144.762042 23.4393817,155.763619 97.141562,154.9578 C170.84321,154.151981 179.659245,146.631005 179.659245,146.631005 C179.659245,146.631005 220.968378,117.734878 237.947467,116.872652 C237.947467,116.872652 301.75968,107.457465 313.067898,105.959179 C324.376115,104.459818 341.152445,100.074552 347,93" id="Stroke-509" stroke-width="0.5"></path>
                        <path d="M128.181259,79 C128.181259,79 120.734144,86.0546528 126.444375,88.6838061 C132.154606,91.3124215 146.86414,97.7612984 148.903206,97.4955317 C150.941742,97.230303 121.12788,128.275509 26.4872852,117.863804 C26.4872852,117.863804 17.1831545,116.196575 22.8055357,111.420845" id="Stroke-511" stroke-width="0.5"></path>
                        <path d="M342,102 C342,102 347.459831,120.680023 343.648292,136" id="Stroke-513"></path>
                        <path d="M273,117 L273,147" id="Stroke-515" stroke-width="0.5"></path>
                        <path d="M215,114 C215,114 174.40749,134.88274 174,151" id="Stroke-517" stroke-width="0.5"></path>
                        <path d="M182,83 C182,83 205.32177,80.1577531 223.682576,73.2026202 C242.043909,66.2480258 264.680989,69.0288945 267.637583,70.7345657 C270.594705,72.4396985 333.374204,84.5538406 346,47" id="Stroke-519" stroke-width="0.75"></path>
                        <path d="M333.845052,13 C333.845052,13 351.699302,74.9486821 331,102" id="Stroke-521" stroke-width="0.75"></path>
                        <path d="M213,4 C213,4 229.088444,10.1191937 233.618656,12.9627626 C238.148868,15.805798 249.028227,24.2612948 250.603128,24.4127811 C250.603128,24.4127811 265.132484,36.0532244 279.613876,37.5211481 C279.613876,37.5211481 294.205954,39.8441161 308.734782,34.2572581 C308.734782,34.2572581 325.501046,26.7933566 330.092925,17.7729865 C334.684277,8.75314988 332.462655,7.42764461 332.462655,7.42764461" id="Stroke-523"></path>
                        <path d="M302,11.095796 C302,11.095796 322.086765,7.23771713 331,14" id="Stroke-525" stroke-width="0.75"></path>
                        <path d="M10,151 L5,154" id="Stroke-527" stroke-width="0.75"></path>
                        <path d="M67,157 L74,160" id="Stroke-529" stroke-width="0.75"></path>
                        <path d="M90,157 L98,160" id="Stroke-531" stroke-width="0.75"></path>
                        <path d="M98,157 L105,160" id="Stroke-533" stroke-width="0.75"></path>
                        <path d="M111,155.947784 C111,155.947784 159.613311,160.396201 176,151" id="Stroke-535" stroke-width="0.75"></path>
                        <path d="M266,129 L270,135" id="Stroke-537" stroke-width="0.75"></path>
                        <path d="M263,130 L270,136" id="Stroke-539" stroke-width="0.75"></path>
                        <path d="M258,130 L269.006535,141.341412 C269.006535,141.341412 287.795214,145.19802 305,143.6213" id="Stroke-541" stroke-width="0.5"></path>
                        <path d="M222,120 C222,120 236.569109,113.797324 239.6911,107 C239.6911,107 240.912748,117.625271 245.120649,117.541346 C249.328549,117.457422 266.329553,110.196305 275,114.447738" id="Stroke-543" stroke-width="0.5"></path>
                        <path d="M3.6884345,152 C3.6884345,152 1.94897091,154.808773 4,159" id="Stroke-545"></path>
                        <path d="M7.15519269,153 C7.15519269,153 6.20656816,157.404365 9,161" id="Stroke-547"></path>
                        <path d="M36,160 C36,160 36.0294957,166.320726 37,168" id="Stroke-549"></path>
                        <path d="M271,145 C271,145 306.951089,142.954522 318.026432,140.057103 C329.101774,137.159172 334.287671,139.71602 348,130" id="Stroke-551"></path>
                        <path d="M58,101 C58,101 58.355615,101.021 59,101.055" id="Stroke-553"></path>
                        <path d="M62,100.876077 C67.345257,101.034438 80.2365698,101.25671 87,100" id="Stroke-555" stroke-dasharray="3.01,3.01"></path>
                        <path d="M86,100.337 C86.3502399,100.231 86.6840302,100.117 87,100 C87,100 86.6333105,100.2 86.0575737,100.59" id="Stroke-557"></path>
                        <path d="M83.9989086,101 C81.7795135,102.353776 78.8456593,104.921281 80.4696717,108.443295 C82.9506099,113.822151 99.554343,121.747094 99.554343,121.747094 C99.554343,121.747094 115.469133,127.230297 131.725737,125.1027 C131.725737,125.1027 156.430395,123.588558 175.53633,119.613455 C175.53633,119.613455 194.275999,117.166773 201.518403,119.613455 C208.370088,121.92833 212.975798,121.971167 211.823307,131" id="Stroke-559" stroke-dasharray="3.003,3.003"></path>
                        <path d="M212.258,130 C212.18,130.324544 212.095,130.657877 212,131" id="Stroke-561"></path>
                        <path d="M83,99.2124877 L94.4771769,97 C94.4771769,97 86.3985376,105.542122 89.4184555,107.695351 C89.4184555,107.695351 91.6412512,113.103596 105.068426,114.819467 C118.495601,116.53429 142.264626,116.144128 152.360266,114.044913 C152.360266,114.044913 181.111437,109.205129 191.082111,111.099824 C191.082111,111.099824 214.214076,107.948117 219,121.156443 L219,128" id="Stroke-563" stroke-dasharray="3"></path>
                        <path d="M129,112.642738 C129,112.642738 191.375966,105.749705 195.946802,107.200678 C195.946802,107.200678 222.226608,106.491544 220.95532,126" id="Stroke-565" stroke-width="0.5" stroke-dasharray="3"></path>
                        <path d="M118,76.8653142 C118,76.8653142 126.251033,74.0154969 134.16955,78.6593881 C142.088068,83.3032794 166.785658,94.1903354 166.785658,94.1903354 C166.785658,94.1903354 180.419845,101.395824 198.744666,94.1903354 C217.070015,86.9837848 249.549734,83.3441503 249.549734,83.3441503 C249.549734,83.3441503 269.963744,80.3563272 272.987572,98.2402714 C272.987572,98.2402714 273.367137,109.894851 269.930969,115" id="Stroke-567" stroke-dasharray="3"></path>
                        <path d="M126,70.1547915 C126,70.1547915 135.268689,68.5512078 147.589972,75.6667549 C159.911255,82.7828191 173.880833,85.9589593 173.880833,85.9589593 C173.880833,85.9589593 186.824254,90.9305342 227.149125,77.9793077 C227.149125,77.9793077 250.4814,71.8685213 265.22733,77.4983877 C265.22733,77.4983877 281.941074,83.3014887 279.812708,98.1252003 L277.916192,112" id="Stroke-569" stroke-dasharray="3"></path>
                        <path d="M191,85.4394511 C191,85.4394511 243.926805,72.3201723 249.23492,73.0276162 C254.541986,73.7345204 273.602586,72.1140369 280.318184,89.0036513 C280.318184,89.0036513 284.10227,99.6212446 280.318184,114" id="Stroke-571" stroke-dasharray="3"></path>
                        <path d="M205.23393,83 L189.514679,69.9370325 C189.514679,69.9370325 177.944298,60.1989664 188.32256,46.502788 C188.32256,46.502788 214.892581,21.0291038 221.027788,19 C221.027788,19 259.368728,43.4308446 263.272614,44.6597307 C263.272614,44.6597307 282.19466,54.7350741 300.469057,51 C300.469057,51 322.469553,44.8882089 330.452994,35.7061064 C338.436964,26.5234598 340,19.9242486 340,19.9242486" id="Stroke-573" stroke-dasharray="3"></path>
                        <path d="M213,2.00067967 C213,2.00067967 220.188993,1.8061312 225,8" id="Stroke-575" stroke-dasharray="3"></path>
                    </g>
                </g>
            </g>
        </g>
    </g>
</svg>
