<?xml version="1.0" encoding="UTF-8"?>
<svg viewBox="0 0 297 174" version="1.1" xmlns="http://www.w3.org/2000/svg" xmlns:xlink="http://www.w3.org/1999/xlink">
    <g id="Page-1" stroke="none" stroke-width="1" fill="none" fill-rule="evenodd">
        <g id="Desktop" transform="translate(-1485.000000, -10356.000000)" stroke="#000000">
            <g id="#6" transform="translate(-117.000000, 10106.000000)">
                <g id="item-4" transform="translate(1522.000000, 202.000000)">
                    <g id="wholecut" transform="translate(81.000000, 49.000000)">
                        <path d="M124.250006,63.8840677 C124.250006,63.8840677 121.984743,62.7892079 123.553122,61.3578568 C125.121502,59.9265058 131.569109,62.8735833 142.199062,68.6838683 C152.829537,74.4941532 145.597217,73.988911 145.597217,73.988911 C145.597217,73.988911 131.830506,64.4736853 124.250006,63.8840677 Z" id="Stroke-1"></path>
                        <path d="M132.752373,50.9377508 C132.752373,50.9377508 130.41944,51.4462984 131.137141,49.2427613 C131.854842,47.0387157 135.803546,47.5472634 145.674227,52.5483213 C155.544909,57.5488706 155.993943,60.1765365 155.993943,60.1765365 C155.993943,60.1765365 156.263149,63.3971689 153.211976,61.2780507 C153.211976,61.2780507 144.776697,53.5654166 132.752373,50.9377508 Z" id="Stroke-3"></path>
                        <path d="M141.362674,40.7536434 C141.362674,40.7536434 138.603255,41.2821957 139.04865,39.0797182 C139.493511,36.8777692 145.724234,38.19915 152.84468,41.6347401 C159.965126,45.0703303 163.258592,46.6559873 164.682895,49.739033 C166.106664,52.8220787 162.279685,52.0292502 162.190499,51.5006979 C162.190499,51.5006979 156.672193,43.396405 141.362674,40.7536434 Z" id="Stroke-5"></path>
                        <path d="M149.841827,28.4203501 C149.841827,28.4203501 150.12374,30.9031641 147.472465,30.0163308 C147.472465,30.0163308 145.268808,26.2035329 150.379829,25.1395457 C155.490851,24.0755586 164.726735,29.3071834 169.478909,33.6514429 C174.231082,37.9962344 172.796768,40.7445133 172.796768,40.7445133 C172.796768,40.7445133 171.182762,41.7201895 170.016911,39.858212 C170.016911,39.858212 161.857031,27.356363 149.841827,28.4203501 Z" id="Stroke-7"></path>
                        <path d="M158.0273,18.5637071 L156.049993,19.527997 C156.049993,19.527997 155.503055,16.8103094 158.0273,16.1085294 C160.552085,15.4072755 171.912809,18.1254892 178.404652,23.6492445 C184.896494,29.1729997 182.912695,29.5233636 181.921066,29.9621076 C180.929437,30.4003255 177.502827,26.893004 177.502827,26.893004 C177.502827,26.893004 169.027726,19.440669 158.0273,18.5637071 Z" id="Stroke-9"></path>
                        <path d="M123,63 C123,63 134.715466,63.5022272 146,75" id="Stroke-11" stroke-width="0.5"></path>
                        <path d="M144.496577,70 C144.496577,70 145.910095,72.2840436 144,73" id="Stroke-13" stroke-width="0.5"></path>
                        <path d="M126,61 C126,61 121.970749,61.75625 125.350283,64" id="Stroke-15" stroke-width="0.5"></path>
                        <path d="M131,51.3935603 C131,51.3935603 132.694528,49.5055536 138,54" id="Stroke-17" stroke-width="0.5"></path>
                        <path d="M143,56 C143,56 153.866853,59.7001946 156,64" id="Stroke-19" stroke-width="0.5"></path>
                        <path d="M154,58.0010305 C154,58.0010305 150.903754,57.8562163 152.416183,61" id="Stroke-21" stroke-width="0.5"></path>
                        <path d="M139,39 C139,39 147.062115,40.5082159 149.378207,41.4571046 C149.378207,41.4571046 159.350369,45.1874514 163,52" id="Stroke-23" stroke-width="0.5"></path>
                        <path d="M164.881829,48 C164.881829,48 165.706249,51.5119571 163,52" id="Stroke-25" stroke-width="0.5"></path>
                        <path d="M148.021515,30.131128 C148.021515,30.131128 147.625649,26.8398235 150.230033,27.0060941 C152.834418,27.1728976 159.996475,27.5725864 164.684367,32.6017379 C164.684367,32.6017379 170.218164,38.3737778 171,41" id="Stroke-27" stroke-width="0.5"></path>
                        <path d="M172.930722,37 C172.930722,37 173.564202,40.3044066 171,39.9772117" id="Stroke-29" stroke-width="0.5"></path>
                        <path d="M157.231974,19 C156.261593,17.0862702 158.649459,16.055926 158.649459,16.055926 L168,7" id="Stroke-31"></path>
                        <path d="M156,18.7871904 C156,18.7871904 159.914488,15.9318362 169.419025,21.0974006 C169.419025,21.0974006 178.983884,26.3614646 182,31" id="Stroke-33" stroke-width="0.5"></path>
                        <path d="M181,26.0038965 C181,26.0038965 178.137423,25.7663881 179.261641,29" id="Stroke-35" stroke-width="0.5"></path>
                        <path d="M166.681196,16.8567921 C166.681196,16.8567921 169.764005,12.9310976 169.8084,11.3432476 C169.852267,9.75539759 169.676272,7.28576154 169.8084,7.15344071 C169.940528,7.02111988 169.676272,6.27112539 173.243727,8.03522675 C176.811182,9.79985739 190.684616,16.0628671 191.345256,16.0628671 C191.345256,16.0628671 225.147813,26.6263039 229.111652,28.9419185 C229.111652,28.9419185 243.117214,35.8226019 258.642248,28.9419185 C258.642248,28.9419185 273.242386,23.6490851 280.641552,5.5211309 C280.641552,5.5211309 281.448061,3.27167673 280.641552,2.47775172 C274.974848,-3.09718965 259.567144,2.47775172 259.567144,2.47775172 L229.706227,14.2543059 C204.403725,21.9950747 193.899553,15.5124124 193.899553,15.5124124 C191.432989,14.962487 184.342475,11.8698845 184.342475,11.8698845 C184.342475,11.8698845 173.551849,5.65345174 169.455883,5.78577257 C165.359917,5.9180934 169.235494,6.57969757 168.669457,10.9907449 C168.103421,15.4012629 165,16.6355517 165,16.6355517" id="Stroke-37" stroke-width="0.5"></path>
                        <path d="M164,20 L159,27" id="Stroke-39"></path>
                        <path d="M157,29 L150,40" id="Stroke-41"></path>
                        <path d="M148,42 L142,51" id="Stroke-43"></path>
                        <path d="M140,54 L133,64" id="Stroke-45"></path>
                        <polyline id="Stroke-47" points="132.027787 66 127 73.2254439 128.25544 74 133 66.4608507"></polyline>
                        <path d="M134,65 L141,55" id="Stroke-49"></path>
                        <path d="M143,52 L149,43" id="Stroke-51"></path>
                        <path d="M151,41 L158,30" id="Stroke-53"></path>
                        <path d="M161,27 L167,21" id="Stroke-55"></path>
                        <path d="M170,18.2639808 C170,18.2639808 176.290963,12.5536128 182.402988,13.6551264 C182.402988,13.6551264 204.474457,20.9150546 211.571436,22.802615 C211.571436,22.802615 233.695471,30.7736536 234.757416,31.2976848 C234.757416,31.2976848 246.173326,34.5582069 255.554019,32.0543858 C255.554019,32.0543858 266.704443,29.2890732 275.553632,18.1969048 C275.553632,18.1969048 281.217517,11.9960436 282.987248,7.19224959 C282.987248,7.19224959 283.132735,4.48458039 282.440877,3" id="Stroke-57"></path>
                        <path d="M156,19 L152,24" id="Stroke-59"></path>
                        <path d="M147.002838,28.2296386 C147.002838,28.2296386 117.383624,65.8043301 111.427485,68.4537562 C111.427485,68.4537562 85.8822701,90.8414072 70.7933865,97.0675586 C55.7045029,103.29371 37.5713708,108.195148 17.7175765,125.813832 C17.7175765,125.813832 10.1731347,134.159525 7.52596214,140.253205 C4.87878958,146.346885 13.0850245,151.380795 13.0850245,151.380795 L25.5267356,156.812118 C25.5267356,156.812118 85.3528356,157.871889 99.9122847,154.95752 C99.9122847,154.95752 163.973861,150.585967 183.695296,139.590848 C183.695296,139.590848 201.563711,134.143628 221.94694,111.565219 C221.94694,111.565219 235.976955,93.2258907 274.890391,79.8462887 C274.890391,79.8462887 290.376351,75.4747355 291.567579,68.1888136 C291.567579,68.1888136 296.464848,54.8092116 292.36173,35.7333433 C292.36173,35.7333433 283.361344,9.76896707 282.302475,5" id="Stroke-61"></path>
                        <path d="M291.714207,70 C291.714207,70 298.613388,73.2735697 288.439553,81.0892308 L249.72613,96.9854904 C249.72613,96.9854904 230.56761,106.655715 213.523133,126.52604 C213.523133,126.52604 193.96823,148.913272 168.335451,152.092524 C168.335451,152.092524 129.093517,162.160155 84.0379629,162.822499 C84.0379629,162.822499 29.9977235,165.471876 20.616655,162.822499 C20.616655,162.822499 9.51792614,159.245841 6.21473302,156.066589 C6.21473302,156.066589 2.9115399,153.947088 2.11877356,151.032773 C1.32600721,148.118459 4.76132805,147.98599 4.76132805,147.98599 L8.41492389,146.570693" id="Stroke-63"></path>
                        <path d="M4.15327473,148.053249 C4.15327473,148.053249 2.00195044,152.326775 13.818875,156.274629 C22.9188391,159.314419 16.3345792,161.976555 58.9691449,160.650526 C58.9691449,160.650526 134.043054,158.926688 168.46848,149.114072 C168.46848,149.114072 190.182979,146.72722 215.07521,123.389107 C215.07521,123.389107 234.936032,102.57045 245.793282,97.9293477 L287.501009,80.0279544 C287.501009,80.0279544 292.422256,77.508499 294,73" id="Stroke-65"></path>
                        <path d="M1.22177128,149.734573 L0.0183669765,156.492486 C0.0183669765,156.492486 -0.642844179,161.395286 5.96926737,164.840497 C12.5813789,168.285708 21.2993158,172.142754 40.3522474,171.995935 C50.4724809,171.91802 112.82099,168.683232 112.82099,168.683232 C176.297261,162.190335 191.240633,151.32467 191.240633,151.32467 C205.655036,145.361805 221.788588,123.895492 221.788588,123.895492 C246.385643,101.104097 256.171569,102.29667 256.171569,102.29667 L258.02296,119.920248 L281.826561,109.98214 C296.637691,103.224227 293.778085,97.5263782 293.778085,97.5263782 L293.474457,75" id="Stroke-67" stroke-width="1.5"></path>
                        <path d="M5.5843144,156 C5.5843144,156 4.02549342,161.507463 6,165" id="Stroke-69"></path>
                        <path d="M234,114 L258,120" id="Stroke-71"></path>
                        <path d="M5.00077033,147.174341 C5.00077033,147.174341 4.57796127,152.015643 23.5433616,158.831424 C23.5433616,158.831424 63.4401978,159.853266 102.720592,156.865333 C102.720592,156.865333 151.924533,153.457442 167.972179,147.821316 C167.972179,147.821316 204.081241,137.758078 216,119" id="Stroke-73" stroke-dasharray="3"></path>
                        <path d="M225,110 C225,110 251.021288,91.4976868 265.601492,87.4108541 L285,77" id="Stroke-75" stroke-dasharray="3"></path>
                        <path d="M167.712854,7 C167.712854,7 169.302825,11.3324713 165,16" id="Stroke-77" stroke-dasharray="3"></path>
                        <path d="M162,19 L158,25" id="Stroke-79" stroke-dasharray="3"></path>
                        <path d="M155,29 L148,40" id="Stroke-81" stroke-dasharray="3"></path>
                        <path d="M147,42 L141,51" id="Stroke-83" stroke-dasharray="3"></path>
                        <path d="M140,54 L133,63" id="Stroke-85" stroke-dasharray="3"></path>
                        <polyline id="Stroke-87" stroke-dasharray="3" points="130.876652 65 125 73.6059968 127.938326 75 134 66.3997896"></polyline>
                        <path d="M135,65 L142,56" id="Stroke-89" stroke-dasharray="3"></path>
                        <path d="M144,52 L150,43" id="Stroke-91" stroke-dasharray="3"></path>
                        <path d="M152,41 L160,30" id="Stroke-93" stroke-dasharray="3"></path>
                        <path d="M162,27 L168,21" id="Stroke-95" stroke-dasharray="3"></path>
                        <path d="M171,18.9320857 C171,18.9320857 177.127045,13.8449061 181.878316,14.8607523 C186.629054,15.8760685 192.668182,18.6141369 196.841862,19.8064446 L229.211459,30.4932311 C229.211459,30.4932311 237.869993,35.0844107 252.256481,33.7601543 C266.642969,32.4358978 279.377675,17.0683762 284,7" id="Stroke-97" stroke-dasharray="3"></path>
                        <path d="M204,19.9696433 C204,19.9696433 227.815789,21.0038026 244,11" id="Stroke-99" stroke-dasharray="3"></path>
                        <path d="M245,11 C245,11 274.788707,-3.2995786 282,6.33703601" id="Stroke-101" stroke-dasharray="3"></path>
                        <path d="M291,77 C291,77 297.315455,95.5846773 291.619999,104" id="Stroke-103"></path>
                        <path d="M294.999466,94 C294.999466,94 295.584809,100.76928 258,115" id="Stroke-105"></path>
                        <path d="M293.999964,83 C293.999964,83 294.234298,94.2169317 257,105" id="Stroke-107"></path>
                        <path d="M292,68 C292,68 287.789633,73.316304 274.881119,76.849368 C261.274576,80.5728493 232.079954,96.3525603 218.737615,110.938848 C218.737615,110.938848 197.072827,135.868139 170.38815,141.437449 C170.38815,141.437449 110.149473,154.830312 86.2389453,152.576068 C86.2389453,152.576068 34.4548191,155.758531 28.5102128,154.830312 C28.5102128,154.830312 10.0792912,148.881229 8,144.894134" id="Stroke-109"></path>
                    </g>
                </g>
            </g>
        </g>
    </g>
</svg>
