<?xml version="1.0" encoding="UTF-8"?>
<svg viewBox="0 0 266 173" version="1.1" xmlns="http://www.w3.org/2000/svg" xmlns:xlink="http://www.w3.org/1999/xlink">
    <g id="Page-1" stroke="none" stroke-width="1" fill="none" fill-rule="evenodd">
        <g id="Desktop" transform="translate(-994.000000, -10356.000000)" stroke="#000000">
            <g id="#6" transform="translate(-117.000000, 10106.000000)">
                <g id="item-3" transform="translate(1015.000000, 202.000000)">
                    <g id="loafer" transform="translate(97.000000, 49.000000)">
                        <path d="M130.571468,29.5257951 C130.571468,29.5257951 109.716782,50.712481 106.485717,52.743982 C103.255059,54.7754831 67.714157,78.8637399 23.0673794,103.533114 C23.0673794,103.533114 5.15009899,115.722521 6.03148313,133.135559 C6.9124611,150.548999 27.4734878,154.031687 33.9356176,154.321844 C40.3973412,154.612001 66.8327729,159.255719 110.891826,151.710029 C154.950472,144.164339 159.356581,140.391494 159.356581,140.391494 C159.356581,140.391494 179.917201,131.684373 196.366185,109.627617 C196.366185,109.627617 217.51453,88.7314894 235.72547,83.5074576 C253.93641,78.2834257 260.10488,67.2550478 260.692199,66.3841752 C261.279924,65.5137039 265.979285,46.9392346 263.04188,29.5257951 C260.10488,12.1123557 258.636177,7.46903934 258.636177,7.46903934 C258.636177,7.46903934 255.992431,-5.88139804 223.682595,3.11547881 L169.930753,23.431292 L155.244538,31.2671391 C155.244538,31.2671391 137.914576,15.0147293 130.571468,29.5257951 Z" id="Stroke-1"></path>
                        <path d="M158.525349,90.2604377 C158.525349,90.2604377 154,93.9679521 154,95.3772916 C154,96.7858108 154,99.8259808 157.503522,98.7882541 C161.007045,97.7501173 169.182065,94.709537 172.904406,91.2981644 C176.626747,87.8872018 187.356536,81.732211 187.356536,81.732211 C187.356536,81.732211 193.92554,77.7281447 193.99821,75.206838 C194.071688,72.6855313 191.881886,69.2003282 187.575355,72.0924274 C183.268824,74.9845266 168.014089,85.0000247 168.014089,85.0000247 L158.525349,90.2604377 Z" id="Stroke-3"></path>
                        <path d="M163.817034,95.7718392 C163.817034,95.7718392 157.859218,98.535201 158.002545,95.7718392 C158.14627,93.0084773 160.15603,89.8086894 164.67819,87.9181798 C169.20035,86.0268658 188.437198,72.9372994 188.437198,72.9372994 C188.437198,72.9372994 191.308511,70.8283757 191.810753,72.9372994 C192.312995,75.0462232 192.307833,77.8055627 185.312183,82.6798594" id="Stroke-5" stroke-width="0.5"></path>
                        <path d="M156.330081,91.9487178 C156.330081,91.9487178 160.906517,89.3462291 158.076211,92.7619956 C155.245905,96.1781728 152.946434,97.803496 157.908398,99" id="Stroke-7" stroke-width="0.5"></path>
                        <path d="M158.700286,91 C158.700286,91 150.549785,95.1169696 153.740861,99.0957239 C156.931936,103.074918 161.42054,99.9047681 164,97.8293364" id="Stroke-9"></path>
                        <path d="M188,72.0775146 C188,72.0775146 195.822917,67.3385954 193.603569,77.7371406 C193.603569,77.7371406 192.052122,80.2638858 188.39172,82" id="Stroke-11"></path>
                        <path d="M207.364905,61.3526603 C207.364905,61.3526603 205.013527,65.3225451 206.483291,67.0452315 C207.953055,68.7679179 211.112885,68.0188518 213.978437,65.9216323 C216.844396,63.8244128 234.554729,51.1661064 234.554729,51.1661064 C234.554729,51.1661064 238.375465,50.791159 236.465097,45.7730787 C236.465097,45.7730787 236.171225,42.1027375 232.055805,45.3235562 L214.272715,56.6337092 L207.364905,61.3526603 Z" id="Stroke-13"></path>
                        <path d="M206,67 C206,67 206.460826,64.2455718 210.880348,60.9301722 C215.29947,57.6147726 231.647175,47.1538636 233,45" id="Stroke-15" stroke-width="0.5"></path>
                        <path d="M209.786002,59.2528177 C209.786002,59.2528177 206.267436,63.8480841 209.107588,65.8279339 C211.948143,67.8077837 230.229456,52.048705 230.229456,52.048705 L232.510843,49.7521668 C232.510843,49.7521668 231.103256,44.9216838 233.28836,45.0009654 C235.473464,45.0802469 234.672179,48.0101618 234.672179,48.0101618 C234.672179,48.0101618 234.923965,49.4367925 236,47.8524747" id="Stroke-17" stroke-width="0.5"></path>
                        <path d="M231,45.1177143 C231,45.1177143 232.305262,43.7974592 237,50" id="Stroke-19"></path>
                        <path d="M204.816929,61 C204.816929,61 201.395368,64.3644562 203.942935,67.8887738 C206.490889,71.4135247 211,65.4263004 211,65.4263004" id="Stroke-21"></path>
                        <path d="M234,52 C234,52 227.130489,58.0115335 222.652865,60.3654156 C218.17524,62.719701 213,67 213,67" id="Stroke-23"></path>
                        <path d="M257.436846,18.3233657 C257.436846,18.3233657 258.358797,15.3457929 259.397556,18.3233657 C260.436314,21.3013459 259.925696,25.3230661 259.397556,26.1336864 C258.869833,26.9443068 249.592757,39.2491077 249.592757,39.2491077 C249.592757,39.2491077 245.520321,42.6383076 243.710211,39.9859612 C241.900101,37.3336147 243.936318,32.5440671 245.520321,32.1756404 C247.103907,31.8072137 257.436846,18.3233657 257.436846,18.3233657 Z" id="Stroke-25" stroke-width="0.75"></path>
                        <path d="M259,17 L259,18.7830387 L245.933879,34.0517495 C245.933879,34.0517495 242.42074,37.4777545 244.864644,39.4886168 C247.308548,41.4998911 251.989354,36.9294125 251.989354,36.9294125" id="Stroke-27" stroke-width="0.5"></path>
                        <path d="M261,18 C261,18 260.092677,19.9272927 256.966975,23.5983265 C253.84084,27.2689542 249.099767,34.41813 246,32.7523578" id="Stroke-29" stroke-width="0.25"></path>
                        <path d="M244.854556,31 C244.854556,31 241.588281,35.1901491 243.725133,38.8378426 C245.861554,42.485536 251,36.3809886 251,36.3809886" id="Stroke-31"></path>
                        <path d="M157,34 L188.110121,21.3149782 C188.110121,21.3149782 222.373166,6.50427795 226.619449,6.08140488 C230.865328,5.6581417 254,2.2728165 254,10.1716486" id="Stroke-33" stroke-width="0.75"></path>
                        <path d="M228.906343,4.78207043 C228.906343,4.78207043 239.72976,0.33981794 250.665574,2.68197876 C261.600983,5.02373479 248.396528,18.3432059 248.396528,18.3432059 C248.396528,18.3432059 224.813782,41.1766427 207.848682,48.6415214 L168.43536,70.9090507 C168.43536,70.9090507 161.245988,77.3295507 159.338885,67.6690481 L162.566352,52.7396956 C162.566352,52.7396956 164.54487,42.8100024 159.338885,36.6056645 C154.611705,30.9724965 153,30.130112 153,30.130112" id="Stroke-35" stroke-width="0.75"></path>
                        <path d="M157,32 C157,32 175.873303,22.0064855 202.036578,13.0310948 C202.036578,13.0310948 224.356154,4.16081318 234.495444,2.37395759 C244.634325,0.586714141 249.421813,1.0102536 250,1.13126488" id="Stroke-37" stroke-width="0.5"></path>
                        <path d="M214,10 C214,10 228.652518,5.88755332 232,5" id="Stroke-39" stroke-width="0.5"></path>
                        <path d="M200,25 C200,25 190.557182,47.5514055 193.606332,56" id="Stroke-41" stroke-width="0.5"></path>
                        <path d="M252,14.0048846 C252,14.0048846 251.406416,7.562111 234.837987,13.5445436 C218.269156,19.5273764 204.493991,26.1855096 200.904721,23.7729221 C200.904721,23.7729221 191.590086,47.2170925 194.598247,56" id="Stroke-43" stroke-width="0.5"></path>
                        <path d="M221,21 C221,21 207.17466,34.1022709 197,39" id="Stroke-45" stroke-width="0.5"></path>
                        <path d="M257.672136,5 C257.672136,5 260.83367,13.0789208 247.521778,23.998543 C247.521778,23.998543 224.890505,44.7698209 213.610069,49.484055 L173.833102,72.1023398 C173.833102,72.1023398 163.28679,78.9880109 160.147638,76.4305226 C157.008893,73.8730342 155.924392,71.8072921 157.643316,62.8550627 C159.363053,53.9032414 159.755346,46.6237653 159.755346,46.6237653 C159.755346,46.6237653 160.049565,39.5409877 155.635463,34.6223014 C155.635463,34.6223014 146.414561,22.6212456 135.819823,25.8675867 C135.819823,25.8675867 134.02765,26.1295793 131,28.5560713" id="Stroke-47"></path>
                        <path d="M256.720851,5 C256.720851,5 258.973424,12.4641641 250.680913,20.9538515 L227.938016,40.4978491 C227.938016,40.4978491 205.208133,54.8433641 196.574828,59.30101 L165.590254,76.5609986 C165.590254,76.5609986 159.391305,78.6886133 158.139966,73.5760661 C156.888627,68.4639262 160.10014,55.6526234 160.10014,55.6526234 C160.10014,55.6526234 162.257145,47.2447986 158.826027,39.2536181 C158.826027,39.2536181 155.703169,33.8054748 153,32.7795442" id="Stroke-49" stroke-width="0.5"></path>
                        <path d="M143.621238,84.8744089 C143.621238,84.8744089 145.183988,87.4788133 141.960842,88.8191403 C141.960842,88.8191403 139.32398,89.7762332 137.565937,87.2869976 C135.807894,84.7981592 123.59924,77.2152836 123.59924,77.2152836 C123.59924,77.2152836 111.488233,69.2896815 111,68.2364823 C111,68.2364823 112.758043,63.1630961 114.418439,64.1201889 C116.078836,65.0772817 122.62237,70.3428807 122.62237,70.3428807 L133.268679,77.2152836 L143.621238,84.8744089 Z" id="Stroke-51"></path>
                        <path d="M113,70 C113,70 123.126655,76.4294802 124.109588,77.8360722 C125.092928,79.2426643 134.580473,87.2796187 135.268526,87.4805009 C135.956579,87.6817998 137.176476,88.2565229 139,87.8685119" id="Stroke-53" stroke-width="0.5"></path>
                        <path d="M143,83.011728 C143,83.011728 143.986111,87.5016673 146.084505,87.9487871 C148.1829,88.3959069 147.995709,85.7682654 147.995709,85.7682654 C147.995709,85.7682654 145.794929,82.7906543 143,83.011728 Z" id="Stroke-55" stroke-width="0.5"></path>
                        <path d="M115.096883,64 C115.096883,64 113.218379,64.6578115 112,67.8313594 L119.844682,74.1270703 L130,82" id="Stroke-57" stroke-width="0.5"></path>
                        <path d="M114,78.9769051 C114,78.9769051 121.091085,77.0656914 122.982069,78.5897407 C124.873054,80.1137901 133.360042,85.9040292 135,86" id="Stroke-59" stroke-width="0.25"></path>
                        <path d="M115.864551,63.4690393 C115.864551,63.4690393 116.711266,62.4096231 114.17073,59.5609516 C114.17073,59.5609516 111.559536,53.7873885 108.877685,56.9434951 C106.195444,60.1000275 105.066491,61.0738559 105.137148,63.1271136 C105.207805,65.1807971 104.219385,67.10546 106.689654,69.4146297 C109.159924,71.7242253 110.147954,71.0569804 110.783088,70.236018 C111.418222,69.4146297 114.029415,60.6795555 115.864551,63.4690393 Z" id="Stroke-61"></path>
                        <path d="M112.963031,65.3498194 C112.963031,65.3498194 111.178377,65.967252 110.119641,67.6235274 C109.061329,69.2798027 106.051953,64.9345111 106.051953,64.9345111 C106.051953,64.9345111 105.514944,61.3492831 107.893917,59.8322066 C110.273315,58.3155114 111.143142,55.9026045 112.473143,57.5569731 C113.803568,59.211723 115.280025,60.67312 116,60.3215" id="Stroke-63" stroke-width="0.5"></path>
                        <path d="M107,59 C107,59 113.234295,63.3889328 112.993182,65" id="Stroke-65" stroke-width="0.5"></path>
                        <path d="M110,57 C110,57 114.942157,60.5033348 116,63" id="Stroke-67" stroke-width="0.5"></path>
                        <path d="M107,60 C107,60 107.476229,66.2383791 113,67" id="Stroke-69" stroke-width="0.75"></path>
                        <path d="M108.270635,74 C108.270635,74 112.905372,68.184087 107,72.7478303" id="Stroke-71" stroke-width="0.75"></path>
                        <path d="M109,74.2496524 C109,74.2496524 113.020428,72.1002979 113.599626,69 C113.599626,69 113.906001,73.1004965 114.194801,74.2496524 C114.484,75.3988083 115.3504,75.852433 114.8447,78.4264151 L114.339401,81 C114.339401,81 110.521492,74.5368421 109,74.2496524 Z" id="Stroke-73" stroke-width="0.75"></path>
                        <path d="M110,74 C110,74 111.524731,77.9410604 115,80" id="Stroke-75" stroke-width="0.25"></path>
                        <path d="M91,86.9106701 C91,86.9106701 91.1454364,84.0842819 93.3245718,85.306698 C95.5033054,86.529114 100.006611,87.1401108 101.386649,94.9317986 C102.766688,102.723909 101.386649,99.2096211 101.386649,99.2096211" id="Stroke-77" stroke-width="0.25"></path>
                        <path d="M107,74.8042005 C103.542892,71.0659714 100.178262,74.296193 100.178262,74.296193 C100.178262,74.296193 90.5707937,83.437118 89.0239355,84.1626137 C87.4774847,84.8881094 88.06657,87.3547146 88.06657,87.3547146 L76.2331254,96.1328918 C76.2331254,96.1328918 75.8892886,97.3523506 76.0367636,98 L78.442399,98 C78.442399,98 82.9436463,93.2285013 83.9091595,93.0844455" id="Stroke-79" stroke-width="0.75"></path>
                        <path d="M114.586871,81 C114.586871,81 116.627138,85.022419 111.63954,89.2302494 C106.651942,93.4376602 102,99 102,99" id="Stroke-81" stroke-width="0.75"></path>
                        <path d="M91,87.8444924 C91,87.8444924 92.1752003,84.863469 95.0427984,86.4809062 C97.9107865,88.0987269 100.964825,91.2047585 102,97" id="Stroke-83" stroke-width="0.5"></path>
                        <path d="M99,90.5062068 C99,90.5062068 102.004165,92.8279347 102.45606,95 C102.45606,95 107.905456,86.4994045 110,89.7343871" id="Stroke-85" stroke-width="0.5"></path>
                        <path d="M108.776852,81.2400255 L104,85.0797423 L104,87 L105.584545,86.7835767 L110.280968,83.7995705 C110.280968,83.7995705 112.654469,80.0281349 108.776852,81.2400255 Z" id="Stroke-87" stroke-width="0.75"></path>
                        <path d="M108,74 C108,74 96.908078,80.3516604 94,85" id="Stroke-89" stroke-width="0.5"></path>
                        <path d="M92,83.7529283 C92,83.7529283 93.5449624,81.3123036 97.4826316,85.2193504 C101.420301,89.1263972 102.984699,90.2170434 103,98" id="Stroke-91" stroke-width="0.5"></path>
                        <path d="M99,90 C99,90 101.000416,88.4781367 101.151187,85.054846 C101.301541,81.6324568 110,75 110,75" id="Stroke-93" stroke-width="0.5"></path>
                        <path d="M103,84.0919059 L107.549023,79.9609751 C107.549023,79.9609751 109.499588,78.1865305 110.37543,79.4600897 C111.251272,80.733649 111.259686,82.0050948 110.056838,83.4071512 C108.854372,84.8092076 105.627526,87 105.627526,87 L103.598938,86.3122865" id="Stroke-95" stroke-width="0.5"></path>
                        <path d="M104,84.016499 C104,84.016499 108.964988,75.9580123 110.31616,77.1133321 C111.667719,78.2682163 112.412661,81.4157224 111.76045,82.8873176 C111.108627,84.3589128 106.544701,88 106.544701,88 L106.231733,87.4798447" id="Stroke-97" stroke-width="0.5"></path>
                        <path d="M94.0328017,86 C94.0328017,86 82.2151425,96.2865685 82.0661977,97.376956 C81.9172529,98.4677476 82.0661977,100.610547 82.0661977,100.610547 L85.7857033,101 C85.7857033,101 97.2713225,88.7588947 98,88.9144335" id="Stroke-99" stroke-width="0.75"></path>
                        <path d="M99.6290609,89 C99.6290609,89 88.4745142,99.489923 87.2888211,101.310016 C87.2888211,101.310016 86.9119209,103.819532 87.0192235,104.606102 L90.305811,105 C90.305811,105 101.400447,92.5867136 102,92.6499821" id="Stroke-101" stroke-width="0.75"></path>
                        <path d="M101.148505,94 C101.148505,94 95.3671581,98.9915113 94.0716843,103.735838 C92.7762106,108.480166 93.0178346,108.888189 93.0178346,108.888189 L93.3560282,112 L95.9642061,110.112258 C95.9642061,110.112258 97.3790895,101.49679 102,97.8889176" id="Stroke-103" stroke-width="0.75"></path>
                        <polyline id="Stroke-105" stroke-width="0.5" points="78.5998755 97 78 100 82 99.2559392"></polyline>
                        <polyline id="Stroke-107" stroke-width="0.5" points="80 100 80.6396342 103 84.7578133 102.200659 85 100.408485"></polyline>
                        <polyline id="Stroke-109" stroke-width="0.25" points="83 102 84.3046375 104 87 103.4952"></polyline>
                        <polyline id="Stroke-111" stroke-width="0.5" points="89 105 89.2390873 108 94 108"></polyline>
                        <path d="M78.5854964,97 L76,97.1960545 L76,99.8661109 L77.7420855,100.292213 L77.5371843,101.244817 L78.8180295,101.244817 L78.6131283,104.103417 L80.6111278,103.484027 L80.6111278,105.532718 L83.0193548,105.532718 L82.6095524,107.009451 L85.0819705,106.342628 L86.0422856,107.724101 L88.4505126,107.724101 C88.4505126,107.724101 92.8873468,107.085343 93,108" id="Stroke-113" stroke-width="0.25"></path>
                        <polyline id="Stroke-115" stroke-width="0.25" points="80.5784574 101 80 105.157642 84.1039988 104.356769 82.4986735 106.263319 83.4360137 108 87.2093001 105.737118 87.0232984 108 88 108"></polyline>
                        <path d="M102,96 C102,96 96.2357597,100.721596 94.8046643,109.803808 L93.8336396,111 L93,110.33941" id="Stroke-117" stroke-width="0.5"></path>
                        <path d="M98,89 C98,89 89.6818976,98.9308255 88.6483987,102.19466 C87.6152766,105.458494 87,103.300074 87,103.300074" id="Stroke-119" stroke-width="0.25"></path>
                        <polyline id="Stroke-121" stroke-width="0.25" points="95.1728959 86 83.257632 97.9367074 83 101 86.1463623 100.304403 98 88.198797"></polyline>
                        <path d="M94,86 C94,86 80.649229,97.20738 79,99" id="Stroke-123" stroke-width="0.5"></path>
                        <path d="M91,86.0158771 C91,86.0158771 100.580095,85.1091545 102,97" id="Stroke-125" stroke-width="0.5"></path>
                        <path d="M90.0005626,65.0377524 C90.0005626,65.0377524 89.9386679,69.4063619 91.1132984,70 C91.1132984,70 92.0201746,69.3480111 91.999657,68.7616668 C91.9791395,68.1757277 90.5569305,65.5381914 91.1132984,64 L90.0005626,65.0377524 Z" id="Stroke-127" stroke-width="0.25"></path>
                        <path d="M89.6084097,62.9838592 C89.6084097,62.9838592 88.0739049,59.9839158 86.4585426,61.3621227 C86.4585426,61.3621227 84.5688904,64.3459205 88.4616633,69.6246369 C92.3539895,74.9029048 92.0310064,74.6598237 93.2425281,74.9840813 C94.4540498,75.3083389 93.8795598,70.582161 93.7544764,69.6246369" id="Stroke-129" stroke-width="0.75"></path>
                        <path d="M89.7211101,64.8663252 C89.7211101,64.8663252 88.164022,62.8012634 87.1745925,65.0477387 C86.1855706,67.2937902 89.7211101,71.9427225 89.7211101,71.9427225 C89.7211101,71.9427225 93.0875338,75.1339891 91.6372128,70.4278352" id="Stroke-131" stroke-width="0.5"></path>
                        <path d="M93,67 C93,67 103.025296,62.9059091 107,66.4329681" id="Stroke-133" stroke-width="0.5"></path>
                        <path d="M91,63 C91,63 100.460885,58.8302856 106,62.5321869" id="Stroke-135"></path>
                        <path d="M92,73.9834737 L75.0584225,81 C71.6536186,79.6715446 70.1403724,75.13993 69.2326758,70.3481559 C68.3245607,65.5559497 70.3676104,65.6043515 70.3676104,65.6043515 L84.5157925,60.4932123 C87.4665388,58.8160049 88.5897558,61.9543403 88.5897558,61.9543403" id="Stroke-137"></path>
                        <path d="M90,73 C90,73 76.8956797,77.1947502 77.1541716,81 C77.1541716,81 75.1628267,78.2341236 72,79.4144793" id="Stroke-139" stroke-width="0.5"></path>
                        <path d="M69,71 C69,71 78.7345001,63.8470364 85,64.0024979" id="Stroke-141" stroke-width="0.5"></path>
                        <path d="M92,68 C92,68 95.7538206,63.7737466 99.3220679,64.0095096 C102.890315,64.2457451 107,66.0000301 107,66.0000301" id="Stroke-143" stroke-width="0.5"></path>
                        <path d="M92.2807388,69.8438015 C92.2807388,69.8438015 95.9307713,64.8211439 98.4064157,66.2586837 C100.88206,67.6957975 104.437799,66.611786 102.38862,69.4255306 C100.339441,72.2392752 92,73 92,73" id="Stroke-145" stroke-width="0.25"></path>
                        <polyline id="Stroke-147" points="69.8968147 73 53 80.2736156 53 82.5293697 55.1942339 84 71 76.1960125"></polyline>
                        <polyline id="Stroke-149" points="73 78.1196167 59.3512998 86 57.1425173 85.5004158 56 83.2662086 71.9943994 75"></polyline>
                        <path d="M68.9399537,69 L52.1817274,73.4593446 L51,75.1250221 L51.5171334,78 C51.5171334,78 51.8770027,77.8668733 52.4933963,77.6408769 C56.0148868,76.3518601 67.9150819,72.0499557 69,72.3704163" id="Stroke-151" stroke-width="0.25"></path>
                        <polyline id="Stroke-153" stroke-width="0.25" points="52.3946214 76 51 78.6106969 53 81"></polyline>
                        <polyline id="Stroke-155" stroke-width="0.25" points="70 67 52.3879421 71.9643669 52 73"></polyline>
                        <path d="M53,82 L69.7087216,74.0588975 C69.7087216,74.0588975 79.2695382,67.2758987 85,67" id="Stroke-157" stroke-width="0.5"></path>
                        <path d="M51,81 C51,81 66.5078841,73.7788588 67,74.0052124" id="Stroke-159" stroke-width="0.5"></path>
                        <path d="M56.7876724,72.6378056 L53,75.6619772 L54.3798798,77 C54.3798798,77 68.6765197,71.5657252 70,72.0278925" id="Stroke-161" stroke-width="0.5"></path>
                        <path d="M73,77 L58,84" id="Stroke-163" stroke-width="0.5"></path>
                        <path d="M137,26.8079269 C138.124323,26.9147462 144.620587,21.875266 155.320084,35.7283719 C155.320084,35.7283719 162.330755,41.2965871 155.004227,69.3991439 C155.004227,69.3991439 154.624565,81.1224621 164,77.1953052" id="Stroke-165" stroke-dasharray="2"></path>
                        <path d="M102,61 C102,61 122.449328,42.1239748 124,40" id="Stroke-167" stroke-width="0.5"></path>
                        <path d="M100,59.9283885 C100,59.9283885 119.694305,42.5505769 121.187723,40.5951847 C122.681142,38.6397924 133.181307,27.6771655 134.342082,27.7807519 C135.502857,27.8835414 142.209739,23.0153797 153.256127,36.397944 C153.256127,36.397944 160.494093,41.7764679 152.93003,68.9236709 C152.93003,68.9236709 150.162909,81.9404956 160.160222,81.9998586 C170.157125,82.0592216 188,63.4084927 188,63.4084927" id="Stroke-169" stroke-width="0.5"></path>
                        <path d="M145,29 C145,29 139.601195,30.9897527 139.207783,36.0657853 C139.207783,36.0657853 118.942166,54.7657088 119.138872,58.6135084 C119.335986,62.4609252 117,63 117,63" id="Stroke-171" stroke-width="0.5"></path>
                        <path d="M2.00081935,142.917304 C2.00081935,142.917304 1.41426245,153.99551 31.6288387,159.535016 C61.843415,165.074119 131.617319,153.121106 131.617319,153.121106 C131.617319,153.121106 158.178287,148.164939 175.280112,138.544073 C175.280112,138.544073 189.155468,129.215078 189.742025,126.591462 C190.328582,123.967443 214.970868,98.7596863 222.010768,94.8915863 C229.049856,91.0238894 244.420405,80.827747 244.420405,80.827747 C244.420405,80.827747 262.049564,72.5436836 260.950682,64" id="Stroke-173" stroke-dasharray="4"></path>
                        <path d="M6.79632879,133.967114 C6.79632879,133.967114 0.352595997,138.878915 2.40276416,144.079575 C2.40276416,144.079575 1.81711754,155.058612 31.9848033,160.54813 C62.1524891,166.037649 131.81811,154.191635 131.81811,154.191635 C131.81811,154.191635 158.337858,149.279835 175.413142,139.745492 C175.413142,139.745492 189.266965,130.500008 189.853017,127.899478 C190.438663,125.299348 215.042706,100.316845 222.071276,96.4837704 C229.099845,92.650696 244.446135,82.5458267 244.446135,82.5458267 C244.446135,82.5458267 262.047935,74.3355205 260.950759,65.8687172 C260.950759,65.8687172 246.087647,60.0252165 227.3425,78.6492274 C208.597758,97.2736378 188.512024,109.302236 188.512024,109.302236 C188.512024,109.302236 170.815047,156.214447 36.378368,151.302646 C36.378368,151.302646 15.5202763,151.302646 6.7647379,136.856103" id="Stroke-175" stroke-width="0.5"></path>
                        <path d="M0.830367077,143.389337 C0.830367077,143.389337 -1.03795885,153.292729 0.830367077,154.748755 C2.698693,156.205183 4.16417381,165.234557 30.2485975,169.603842 C56.3330211,173.973128 111.166158,166.691388 111.166158,166.691388 C111.166158,166.691388 149.451439,160.805258 158.431562,157.194395 C167.411279,153.583934 180.892811,146.593399 184.116788,143.389337 C187.340764,140.185275 191.579149,128.534249 193.709284,126.495813 C193.709284,126.495813 206.585737,109.164878 229.202613,98.7519776 L229.202613,110.077159 C229.202613,110.077159 248.576464,101.284214 251.223731,97.5786987 C251.223731,97.5786987 257.104703,94.9248249 258.418205,84.0588048 L260,70" id="Stroke-177" stroke-width="1.5"></path>
                        <path d="M220,104 L230,110" id="Stroke-179"></path>
                        <path d="M50.321725,89 C50.321725,89 29.3286613,101.613114 24.4468737,105.718081 C19.5646811,109.822651 20.7361157,113.464796 22.6889117,113.656844 C22.6889117,113.656844 34.942798,125.679103 82.8225537,116.621454 C82.8225537,116.621454 118.791509,106.202375 135,95.9646081" id="Stroke-181"></path>
                        <path d="M50.321725,89 C50.321725,89 29.3286613,101.613114 24.4468737,105.718081 C19.5646811,109.822651 20.7361157,113.464796 22.6889117,113.656844 C22.6889117,113.656844 34.942798,125.679103 82.8225537,116.621454 C82.8225537,116.621454 118.791509,106.202375 135,95.9646081" id="Stroke-183" stroke-width="2" stroke-dasharray="7"></path>
                        <path d="M56.5522793,87 C56.5522793,87 35.3942854,99.6244539 30.4737363,103.733112 C25.5531872,107.841373 26.7342333,111.486792 28.7023713,111.679013 C28.7023713,111.679013 38.5434695,122.327538 89.0900382,110.191793 C89.0900382,110.191793 117.664169,102.049693 134,91.8027208" id="Stroke-185" stroke-width="2" stroke-dasharray="7"></path>
                        <path d="M27,109 C27,109 25.4707932,104.90169 22,108.438425" id="Stroke-187"></path>
                        <path d="M27,111.364358 C27,111.364358 21.9713091,109.555088 22.0001234,114" id="Stroke-189"></path>
                        <path d="M29,112 C29,112 22.4487493,113.317081 24.3441779,117" id="Stroke-191"></path>
                        <path d="M34,115 C34,115 26.1377031,116.585369 28.413359,118" id="Stroke-193"></path>
                        <path d="M38,116 C38,116 28.8438198,117.663505 35.312326,120" id="Stroke-195"></path>
                        <path d="M45,117 C45,117 38.5121817,118.425962 42.0617943,121" id="Stroke-197"></path>
                        <path d="M50.4185775,117 C50.4185775,117 44.6077273,119.222069 51,122" id="Stroke-199"></path>
                        <path d="M56,116 C56,116 49.0756324,118.247062 53.4478118,121" id="Stroke-201"></path>
                        <path d="M63,116 C63,116 58.5,118.083573 63,121" id="Stroke-203"></path>
                        <path d="M67.9174779,115 C67.9174779,115 62.9531678,118.522471 69,120" id="Stroke-205"></path>
                        <path d="M75,114 C75,114 70.5,116.851121 75,119" id="Stroke-207"></path>
                        <path d="M82,114 C82,114 75.3606897,116.071556 81.8360131,119" id="Stroke-209"></path>
                        <path d="M86.8823394,112 C86.8823394,112 80.3193329,115.288824 87,117" id="Stroke-211"></path>
                        <path d="M91.9324631,111 C91.9324631,111 86.4275745,115.194558 94,116" id="Stroke-213"></path>
                        <path d="M103,106 C103,106 95.4904412,111.082921 98.8776292,112" id="Stroke-215"></path>
                        <path d="M109,104 C109,104 102.740528,106.060231 105.882117,109" id="Stroke-217"></path>
                        <path d="M115,101 C115,101 108.762533,104.752606 110.221008,108" id="Stroke-219"></path>
                        <path d="M121,98 C121,98 114.276727,103.062326 116.422694,105" id="Stroke-221"></path>
                        <path d="M124,96 C124,96 118.190893,100.292331 120.573841,102" id="Stroke-223"></path>
                        <path d="M129,95 C129,95 125.433734,99.8512125 127.825557,101" id="Stroke-225"></path>
                        <path d="M134,92 C134,92 129.111416,96.8979267 131.815093,98" id="Stroke-227"></path>
                        <path d="M86,89 C86,89 7.92279225,106.825894 10.0423882,143" id="Stroke-229" stroke-width="0.5"></path>
                        <path d="M13.2864249,114.32751 C13.2864249,114.32751 0.973821331,128.157518 18.084269,134.597678 C35.1951246,141.038242 94.7967415,139.867525 121.93326,134.597678 C149.069778,129.32864 149.364722,128.157518 154.674945,125.23032 C159.985169,122.302313 169.720782,108.000698 172.080745,107.686563 C174.440709,107.372429 211.907216,80.2131646 215.447365,74.7643906 C218.987514,69.3156166 217.283119,52.056038 201.768553,56.823108" id="Stroke-231" stroke-width="0.5"></path>
                        <path d="M99.8201248,115 C99.8201248,115 108.433037,120.825249 91.4184319,124.566158 C74.403827,128.306669 32.1418995,132.086575 27.0585595,140.680995 C21.9748171,149.275018 24.7629094,154 24.7629094,154" id="Stroke-233" stroke-width="0.5"></path>
                        <path d="M260,72 C260,72 259.106732,87.9652792 256,94" id="Stroke-235"></path>
                        <path d="M231,92 L232,110" id="Stroke-237"></path>
                        <path d="M229,94 L229,100" id="Stroke-239"></path>
                        <path d="M259.999247,86 C259.999247,86 260.560876,94.8486521 231,108" id="Stroke-241"></path>
                        <path d="M2.69408091,147 C2.69408091,147 0.463413898,153.111688 4,157" id="Stroke-243"></path>
                        <path d="M4.14220605,149 C4.14220605,149 3.23573802,155.56837 6,160" id="Stroke-245"></path>
                        <path d="M9.51265572,154 C9.51265572,154 8.08229801,160.741882 10,163" id="Stroke-247"></path>
                        <path d="M23,160 L23,168" id="Stroke-249"></path>
                        <path d="M25,160 L25,168" id="Stroke-251"></path>
                        <path d="M55,163 L56,171" id="Stroke-253" stroke-width="1.5"></path>
                        <path d="M75,162 L76,170" id="Stroke-255" stroke-width="1.5"></path>
                        <path d="M181.92218,135 C181.92218,135 183.347328,141.210209 174,150" id="Stroke-257"></path>
                    </g>
                </g>
            </g>
        </g>
    </g>
</svg>
