<svg width="789" height="401" viewBox="0 0 789 401" xmlns="http://www.w3.org/2000/svg">
  <title>
    слипперы
  </title>
  <g stroke="#000" fill="none" fill-rule="evenodd">
    <path d="M458.673 91.25c8.817-2.472 148.953-43.467 170.298-53.676C650.32 27.364 725.49 3.7 725.49 3.7c52.897-13.92-2.322 26.45-15.78 35.73-13.455 9.28-110.437 64.24-110.437 64.24L445.68 178.638c-24.13 9.743-18.095-6.962-18.095-6.962 21.344-28.768 31.553-71.458 31.553-71.458s5.57-28.77-35.266-60.788c0 0-25.354-27.426-48.088-7.102" stroke-width="1.25"/>
    <path d="M460.994 102.512S554.727 77.48 571.43 70.52c16.706-6.96 119.72-44.547 119.72-44.547s53.934-15 47.64-9.412" stroke-width=".625"/>
    <path d="M747.98 1.844s24.375 7.585 30.87 89.405l7.89 59.54s10.672 70.99-33.874 83.52c-44.546 12.53-168.44 49.65-168.44 49.65s-129 60.79-141.065 65.43c-12.06 4.64-87.7 25.98-199.06 32.48 0 0-119.25 13.45-209.27-12.53 0 0-33.41-6.04-34.34-47.8 0 0 .93-46.87 54.76-66.82 53.83-19.96 136.43-71 153.13-84.46 0 0 96.39-73.38 110.44-86.31l46.41-42.69s14.85-22.74 38.98-3.71c24.13 19.02 34.81 38.98 34.81 38.98s18.56 15.77-13.46 69.6c0 0-19.02 26.91-7.88 40.37 11.14 13.46 53.83-6.96 53.83-6.96s166.56-81.65 197.65-101.6c0 0 83.69-53.15 88.79-66.6" stroke-width="1.25"/>
    <path d="M775.323 218.41s1.827 15.447-2.195 44.526l-1.857 15.776s-10.82 18.253-57.22 25.676l-58.47 12.374 3.72-41.144s-67.44 18.562-103.63 35.267c0 0-91.88 48.258-128.07 58.467-36.19 10.21-60.32 22.274-188.86 27.84 0 0-122.5 10.674-188.39-9.28 0 0-61.15-15.667-42.87-39.387" stroke-width="1.25"/>
    <path d="M8.91 350.924s-5.29 16.263 37.708 27.71c43 11.444 87.547 11.754 87.547 11.754s47.95 1.7 122.193-2.785c0 0 99.92-6.96 135.96-18.56 0 0 69.758-13.457 116.007-43.31 0 0 70.53-36.04 92.186-41.144 0 0 10.66 1.43 42.45-18.08" stroke-width=".625"/>
    <path d="M605.924 292.943l49.652 23.82" stroke-width="1.25"/>
    <path d="M636.204 270.53l117.745-32.807s19.32-6.527 21.72-13.317m-5.46 0s-.73 49.644-5.79 61.256m8.7-22.726s-35.27 26.772-116.24 39.294m2.16-23.98l-50.82 15.796m48.04-17.59l-2.89 39.256m16.2-281.852s1.53 24.806-8.87 34.678" stroke-width=".625"/>
    <path d="M393.703 24.838s-7.446 1.182-7.316 5.16m11.15-5.16s-7.075.718-8.235 5.16m13.628-3.828s-9.094-1.156-10.028 5.008m13.545-3.76s-9.216-.256-9.353 5.472m12.79-3.875s-10.724-.348-9.68 5.613" stroke-width=".5"/>
    <path d="M421.644 37.27s-8.476 1.206-9.95 7.147m12.148-4.337s-8.788.197-8.945 6.804M426.5 41.95s-8.01-.43-9.71 6.484m11.668-4.952s-8.976 1.355-9.375 6.9m-7.39-20.384s-7.723.22-9.2 6.16m12.15-4.338s-8.79.197-8.944 6.804m11.6-4.934s-8.01-.43-9.71 6.484m11.67-4.952s-8.98 1.355-9.38 6.9m21.68 3.778s-9.51-.087-11.5 5.703m14.22-3.17s-10.51-.663-11.24 5.906m13.2-3.98s-9.16-1.06-11.46 5.68m13.17-3.92s-10.18.57-11.06 6.06M440 54.33s-9.69.01-12.1 6.1m14.278-2.95s-10.06-.96-11.12 6.01" stroke-width=".625"/>
    <path d="M456.22 79.348s-8.472-4.286-13.556 1.374m14.7 1.072s-10.79-3.316-13.93 1.716m14.88 2.5s-9.954-4.31-15.034.51m15.88 3.616s-10.43-6.64-14.625-.36m14.75 3.55s-8.856-5.386-14.75.233m15.732 2.46s-11.575-3.93-15.36 1.18" stroke-width=".938"/>
    <path d="M444.37 59.884s-8.657-1.57-11.442 5.51m13.366-3.618s-11.268.664-12.452 6.477m14.818-2.858s-10.834-.562-13.91 5.73m16.145-2.16s-11.355-1.667-13.09 5.685m14.32-2.742s-8.982-2.396-12.54 4.93m14.402-2.748s-10.5-.634-12.26 5.474" stroke-width=".625"/>
    <path d="M457.75 103.222s-6.345-6.903-13.348-3.933m13.345 6.63s-8.367-7.58-13.345-4.35m12.418 8.57s-7.187-8.13-13.83-5.92m12.847 10.01s-6.762-9.28-13.226-5.37m11.99 8.3s-4.58-8.09-12.3-5.5m12.05 8.35s-8.27-7.82-13.86-4.8m10.88 8.78s-3.9-7.89-11.24-5.9m10.87 8.58s-7.25-8.65-12.62-6.14m11.13 10.19s-6.01-9.04-12.89-7.75m11.36 11.67s-5.44-10.11-12.37-7.12m10.74 9.87s-3.43-8.64-11.44-7.13m10.8 9.92s-6.92-9.17-12.87-6.94m11.58 8.88s-7.89-7.3-14.32-3.23m12.93 4.97s-9.49-6.12-13.87-2.13m13.07 6.45s-9.3-6.96-15.5-3.7m13.14 7.16s-10.35-8.05-16.09-3.14m14.05 5.8s-8.292-7.24-15.49-3.43m14.297 5.8s-11.2-5.99-16.23-2.1m14.077 6.76s-6.445-8.04-13.79-6.05m12.043 8.88s-8.42-8.96-13.8-6.44m11.12 10.2s-6-9.04-12.89-7.76m11.35 11.68s-5.425-10.12-12.364-7.13m10.736 9.87s-3.43-8.65-11.43-7.14m10.79 9.93s-5.75-8.81-11.7-6.59" stroke-width=".938"/>
    <path d="M429.397 179.497s-9.865-1.57-12.65 5.51m14.575-3.617s-10.285 1.168-11.467 6.982m12.847-6.71s-6.728 1.974-9.803 8.265m10.48-8.237s-7.34 5.15-4.89 9.343m7.67-9.643s-7.36 5.468-4.38 9.71m7.39-10.26s-7.15 5.903-4.74 10.26m8.41-11.397s-6.81 7.665-4.61 10.783m7.42-11.848s-8.07 7.672-3.57 11.145m6.06-12.363s-6.9 7.13-2.49 11.54m5.27-12.894s-7.49 7.627-1.33 11.828m4.28-13.267s-7.06 7.236-1.09 12.294m2.47-12.97s-4.32 7.41.4 12.02m2.67-13.52s-6 7.19 0 12.43" stroke-width=".625"/>
    <path d="M461.69 170.475s-6.73 9.067 0 13.314m5.018-15.42s-8.428 7.9-.516 13.6m4.198-15.41s-8.453 7.51-1.384 14.19m3.906-15.43s-8.322 8.76-1.246 14.22m3.132-15.54s-6.96 10.2-.696 14.61m4.265-15.96s-2.927 10.76 0 13.59m2.668-14.89s-3.336 8.92.375 12.57m2.29-13.87s-4.664 8.93 1.047 13.05m2.813-14.93s-3.8 6.67 2.566 12.28m2.32-14.66s-4.54 8.6 1.26 12.23m1.762-13.71s-3.942 8.65 2.542 12.24m0-13.48s-3.564 7.88 3.2 11.9m0-12.92s-4.57 7.83 2.838 11.51m-.788-13.057s-2.476 7.68 3.208 12.15m1.558-14.478s-4.01 10.49 3.093 11.874m1.58-14.158s-5.31 9.25 3.97 11.39m0-13.68s-4.95 6.61 2.62 11.37m1.13-12.86s-4.69 6.833 3.82 11.994m-.26-13.73s-4.47 5.813 3.23 11.655m0-13.234s-3.09 5.718 3.08 11.7m0-13.2s-2.8 6.62 4.78 10.82m-.7-12.806s-2.94 4.786 3.9 11.2m-.68-12.78s-3.01 6.95 3.03 11.6m-1.32-12.44s-.83 7.31 4.27 10.97m-1.25-12.43s-1.86 4.06 4.72 10.69m-2.48-11.79s-1.13 6.14 4.89 10.58m-2.41-11.79s-2.49 3.45 6.6 9.69m-3.46-11.22s-.27 5.85 6.45 9.72m-4.57-10.632s1.13 6.03 7.91 8.954" stroke-width=".938"/>
    <path d="M556.053 124.765s-.88 5.88 7.25 9.227m-3.64-11.112s.013 5.474 7.59 8.573m-5.373-9.533s.47 5.298 9.11 8.193m-5.386-10.01s.566 5.635 8.224 8.574m-5.18-10.874s.24 6.615 8.163 9.364m-5.21-9.987s.43 5.09 8.1 8.526m-4.82-10.122s.33 5.757 7.42 8.806m-5.3-9.844s2.3 6.094 8.27 8.334m-5.56-9.653s2.46 6.705 8.39 8.216m-4.95-9.896s-.84 7.637 7.8 8.44m-4.69-9.957s-1.89 5.716 8.97 7.774m-5.99-9.227s.62 8.24 8.97 8.602m15.32-21.6s1.56 8.2 6.81 9.28m-4.36-10.68s.38 8.15 8.86 8.32m14.13-21.46s.33 5.9 11.19 7.96m.53-14.69s.82 8.53 10.06 8.78M652.97 73s.62 7.24 10.28 8.637m-7.55-10.21s.91 6.566 10.99 8.16m-8.075-9.84s1.14 7.57 10.73 8.19m3.67-16.52s4.015 8.31 7.83 9.09m-5.35-10.536s2.3 7.76 7.82 8.92m-4.75-10.7s-.094 4 7.33 7.78m14.497-20.69s-5.04 7.32 3.61 9.78m-1.26-11.21s-3.25 7.2 3.64 9.59M708 40.56s-3.704 3.85 3.26 8.086m3.08-12.49s-.974 5.62 5.782 7.69m0-11.94s-2.28 4.827 6.725 7.094m-4.717-8.6s-2.06 4.936 6.836 7.055m-5.61-7.993s.388 4.36 7.37 6.693m-6.066-7.7s1.01 3.474 8.575 5.827M747.298 6.42s3.885-1.437 8.98 7.896c0 0 18.707 25.79 18.707 65.28s8.042 91.15 8.042 92.696c0 1.547 3.16 33.707-16.825 55.522M746.117 8.43s6.597.874 8.916 7.353m-12.53-3.677s3.514-.58 7.48 8.654" stroke-width=".625"/>
    <path d="M727.04 27.365s1.85 3.948 8.81 5.454m-6.884-7.16s2.198 4.93 8.1 5.71M704 43.85s-2.437 5.77 3.648 8.717m-26.81 4.8s.435 5.44 7.848 7.98" stroke-width=".5"/>
    <path d="M742.503.817l1.756 10.043s4.7-1.643 8.35 7.43M740.03 1.844l1.052 12.476s4.798 1.53 6.9 8.215m-10.914-20.69l2.224 13.937M721.922 4.83l2.738 12.648m-6.287-11.132l3.55 11.132" stroke-width=".625"/>
    <path d="M460.994 91s3.11 8.51.937 11.26m.78-11.26s3.76 8.637 1.88 10.55m.53-12.157c1.31 3.245 3.22 8.6 1.95 11.49m.75-12.277s3.56 9.506 2.47 11.41m1.15-12.47s3.92 8.653 2.39 11.513m18.43-16.95s3.9 5.4 1.72 11.44m.67-12.37s5.26 6.13 2.22 11.57m.95-12.05s3.78 7.72 2.06 11.21m56.19-29.81s4.51 6.8 2.46 12.85m15.35-18.41s6.82 3.43 4.22 11.32m64.04-35.82s8.44 3.84 4.7 10.16m-1.87-11.25s7.48 5.78 5.75 9.82m-2.74-9.82s6.13 4.25 5.04 8.97" stroke-width=".5"/>
    <path d="M458.315 104.86l67.023-18.53s63.726-16.823 73.47-24.205L675.49 33.86s39.572-13.92 47.802-14.23c0 0 13.367-4.615 14.51-2.15" stroke-width=".5"/>
    <path d="M367.545 38.624s10.853-8.44 22.5-5.734c11.645 2.705 34.75 27.545 34.75 27.545S442.925 80.1 442.61 95.89c-.313 15.79-14.683 41.53-14.683 41.53l-10.784 18.392s-7.193 10.895-4.1 27.38c3.095 16.482 32.637 8.593 32.637 8.593s38.198-12.18 63.33-28.196l73.275-36.9 69.733-36.07s48.545-28.28 57.85-37.19c0 0 46.865-30.91 49.726-39.89m-320.01 185.81c12.14-4.58 59.447 34.19 60.23 86.8.927 62.1-220.41 73.61-220.41 73.61S97.674 387.38 3.24 338.61M210.42 197.2v-1.547l3.094 3.093-3.094 5.723s7.115 3.71 7.425 4.79c0 0 4.793-4.95 7.268-4.49 2.476.46 7.734 2.01 7.734 2.01s8.818 1.39 10.983-6.03c0 0 .463-2.94 2.783-1.7l2.32 1.23 13.612-11.91s11.91-13.92-2.01-18.56c0 0-9.745-4.33-21.037 0 0 0-17.013 7.27-23.046 16.55 0 0 20.212-13.46 22.403-13.46 2.19 0-4.306 3.71-4.306 3.71l-19.49 13.3s-3.41.77-4.64 2.63c-1.24 1.86-3.56 2.16-3.56 2.16l.77 2.32 2.78.15z" stroke-width=".625"/>
    <path d="M235.013 186.062l-2.784 5.104s-11.14 4.64-11.61 4.64c-.47 0-1.55-.773-2.01-2.938-.47-2.166 8.2-6.806 8.2-6.806s4.02-3.25 8.19 0zm4.022 4.15l-4.95 3.392v6.225l2.99 1.08s10.776-5.26 9.848-8.51c-.928-3.25-7.888-2.19-7.888-2.19zm-18.715 8.533s8.97-4.95 9.744-4.176c.773.77-1.38 6.37-4.176 8.5-2.798 2.13-2.32-2.94-2.32-2.94l-2.475 1.39s-1.083.15-.774-2.79zm-13.458-.618s-10.827 7.888-12.065 9.898l-1.7 5.414 8.043 6.03s5.722 1.7 8.97 0 12.065-5.73 12.065-5.73l.773-1.86s2.612.46 3.858-3.41c0 0-9.58 2.63-13.293 5.72 0 0-4.64-3.56-6.65-2.17-2.012 1.39-.774-.47-.774-.47s-3.41-3.56-5.42-3.1c0 0 1.54-2.32 2.63-2.79 1.08-.47 2.94-3.1 3.55-3.71.62-.62 3.09-1.86 3.09-1.86l-3.09-2.01z" stroke-width=".625"/>
    <path d="M209.337 203.6s-3.867 1.796-3.867 2.88c0 1.08 3.867 1.236 3.867 1.236l1.546 1.548 3.404 1.237v1.09l4.313-.22v-2.09l-9.263-5.66zm-6.65-26.354s-32.174 28.923 4.175 61.406c0 0-.298 3.712-8.656-2.784 0 0-15.32-15.622-13.926-29.08 0 0-3.25 3.094 2.32 17.015 0 0 4.485 8.97 9.28 12.993 0 0 6.032 7.733-4.177 4.64 0 0-17.013-9.838-15.312-33.844 0 0 2.48-18.28 26.3-30.346z" stroke-width=".625"/>
    <path d="M187.837 245.612s-2.475-8.66-7.425-2.165c-4.95 6.496 12.684 6.496 12.684 6.496s10.364-1.547 19.954-5.877c9.59-4.332 16.086-.31 16.086-.31s7.115-4.022-1.238-6.188c0 0-13.32 4.33-15.863 3.868-2.543-.464-11.05-1.547-18.94 3.712 0 0-4.257 2.786-5.258.464z" stroke-width=".625"/>
    <path d="M205.75 249.943s8.536-5.878 10.238-4.64c1.702 1.237 6.187 3.402 6.65 3.866.465.46-5.63 4.95-16.89.77z" stroke-width=".625"/>
    <path d="M214.206 253.964s-3.495.464-2.17 2.165c1.323 1.7 8.54 2.63 13.206 1.08 4.667-1.55 7.297-1.39 7.297-3.25s-6.09-5.88-7.3-4.02c-1.21 1.85-7.72 5.88-11.04 4.02zm-52.2-40.524s1.393-5.148 4.485-3.734c3.1 1.414 5.73.485-.77 5.9-6.49 5.412-14.54 8.66-14.54 8.66s-1.08 1.702 2.48 2.785c3.56 1.09 1.86 2.02 1.86 2.02s-9.12 2.63-11.29-1.85c0 0 .62-3.25 2.32-4.17 1.7-.93-.46-4.05-3.09-2.8s-2.01-2.77 0-2.77 11.09.31 12.27.16c1.19-.15 6.29-4.17 6.29-4.17z" stroke-width=".625"/>
    <path d="M157.52 224.576l6.807-6.166h11.445s.528 6.647 2.01 7.25c0 0-17.005.637-20.26-1.084zm38.05-4.348s3.25 6.822 3.87 7.132c.616.31 45.782 2.94 64.034-.928 0 0 16.704-.773 38.977-13.61 0 0-2.47-1.548-10.51 1.236s-67.9 9.246-96.36 6.17z" stroke-width=".625"/>
    <path d="M378.525 31.178s-40.034 39.872-46.53 45.64c-6.496 5.766-114.78 93.287-122.044 96.857-7.26 3.57-73.58 48.14-79.8 48.418 0 0-59.86 32.027-61.25 31.64-1.39-.388-47.98 13.997-60.18 48.336-12.2 34.33 3.39 53.12 3.39 53.12" stroke-width=".625"/>
    <path d="M365.404 41.286s35.913-11.628 59.392 35.53c0 0 19.315 13.97-14.624 69.73 0 0-22.494 36.267-1.46 51.58 21.037 15.314 56.86-13.508 56.86-13.508" stroke-width=".625"/>
    <path d="M433.384 201.285s36.755 17.414 35.43 36.284c-1.296 18.47-252.54 117.3-398.63 85.42-5.994-1.31-12.052-2.21-18.14-2.96-14.406-1.77-41.27-7.68-42.79-27.1" stroke-width=".625"/>
  </g>
</svg>
